<svg width="652" height="491" viewBox="0 0 652 491" fill="none" xmlns="http://www.w3.org/2000/svg">
<g clip-path="url(#clip0_679_2083)">
<g filter="url(#filter0_i_679_2083)">
<rect x="28" width="596" height="464" rx="71" fill="#080808"/>
</g>
<g filter="url(#filter1_i_679_2083)">
<rect x="60" y="27" width="533" height="409" rx="62" fill="#080808"/>
</g>
<g filter="url(#filter2_f_679_2083)">
<rect x="104" y="81" width="430" height="301" rx="57" fill="#D9D9D9" fill-opacity="0.03"/>
</g>
<rect y="81" width="652" height="410" fill="url(#paint0_linear_679_2083)" fill-opacity="0.44"/>
<path d="M235.064 281.157C234.591 281.997 234.242 282.719 234.017 283.325C233.797 283.925 233.651 284.65 233.578 285.5H236.551C236.478 284.65 236.329 283.925 236.104 283.325C235.88 282.719 235.533 281.997 235.064 281.157ZM233.497 287.001V290.004H232.457V287.001C232.457 286.064 232.501 285.288 232.589 284.672C232.682 284.057 232.826 283.493 233.021 282.98C233.216 282.463 233.468 281.943 233.775 281.42C234.083 280.893 234.457 280.253 234.896 279.501H235.24C235.67 280.253 236.039 280.893 236.346 281.42C236.654 281.943 236.905 282.463 237.101 282.98C237.296 283.493 237.44 284.057 237.533 284.672C237.625 285.288 237.672 286.064 237.672 287.001L237.679 290.004H236.632V287.001H233.497ZM242.901 286.262C242.901 285.642 242.833 285.112 242.696 284.672C242.56 284.233 242.396 284.013 242.206 284.013H241.334C240.899 284.013 240.528 284.233 240.221 284.672C239.918 285.112 239.767 285.642 239.767 286.262V290.012H238.727V282.504H239.767V283.259C240.23 282.761 240.753 282.512 241.334 282.512H242.206C242.684 282.512 243.094 282.878 243.436 283.61C243.778 284.343 243.949 285.227 243.949 286.262V290.012H242.901V286.262ZM246.388 290.004C246.002 290.004 245.672 289.785 245.399 289.345C245.13 288.906 244.996 288.374 244.996 287.749C244.996 287.133 245.13 286.606 245.399 286.167C245.672 285.722 246.002 285.5 246.388 285.5H249.171V284.753C249.171 284.255 249.054 284.006 248.819 284.006L245.692 283.999V282.497L248.819 282.504C249.2 282.504 249.527 282.724 249.801 283.164C250.079 283.603 250.218 284.133 250.218 284.753V290.004H249.171V289.25C248.702 289.753 248.18 290.004 247.604 290.004H246.388ZM249.083 287.001H246.388C246.153 287.001 246.036 287.25 246.036 287.749C246.036 288.251 246.153 288.503 246.388 288.503H247.604C247.94 288.503 248.243 288.364 248.512 288.085C248.78 287.802 248.971 287.441 249.083 287.001ZM254.4 288.503H255.089V289.997H252.657V288.503H253.353V281.003H252.657V279.501H254.4V288.503ZM260.67 288.503H262.054V289.997H258.231V288.503H259.623V283.999H258.927V282.497H260.67V288.503ZM259.623 279.501H260.67V281.003H259.623V279.501ZM268.324 282.504V284.006H265.196C264.962 284.006 264.845 284.255 264.845 284.753C264.845 285.251 264.962 285.5 265.196 285.5H267.628C268.009 285.5 268.336 285.722 268.609 286.167C268.888 286.606 269.027 287.133 269.027 287.749C269.027 288.374 268.888 288.906 268.609 289.345C268.336 289.785 268.009 290.004 267.628 290.004H263.805V288.503H267.628C267.862 288.503 267.979 288.251 267.979 287.749C267.979 287.25 267.862 287.001 267.628 287.001H265.196C264.811 287.001 264.481 286.784 264.208 286.35C263.939 285.91 263.805 285.378 263.805 284.753C263.805 284.133 263.939 283.603 264.208 283.164C264.481 282.724 264.811 282.504 265.196 282.504H268.324ZM271.466 290.004C271.08 290.004 270.75 289.785 270.477 289.345C270.208 288.906 270.074 288.374 270.074 287.749C270.074 287.133 270.208 286.606 270.477 286.167C270.75 285.722 271.08 285.5 271.466 285.5H274.249V284.753C274.249 284.255 274.132 284.006 273.897 284.006L270.77 283.999V282.497L273.897 282.504C274.278 282.504 274.605 282.724 274.879 283.164C275.157 283.603 275.296 284.133 275.296 284.753V290.004H274.249V289.25C273.78 289.753 273.258 290.004 272.682 290.004H271.466ZM274.161 287.001H271.466C271.231 287.001 271.114 287.25 271.114 287.749C271.114 288.251 271.231 288.503 271.466 288.503H272.682C273.019 288.503 273.321 288.364 273.59 288.085C273.858 287.802 274.049 287.441 274.161 287.001ZM280.519 286.262C280.519 285.642 280.45 285.112 280.313 284.672C280.177 284.233 280.013 284.013 279.823 284.013H278.951C278.517 284.013 278.146 284.233 277.838 284.672C277.535 285.112 277.384 285.642 277.384 286.262V290.012H276.344V282.504H277.384V283.259C277.848 282.761 278.37 282.512 278.951 282.512H279.823C280.301 282.512 280.711 282.878 281.053 283.61C281.395 284.343 281.566 285.227 281.566 286.262V290.012H280.519V286.262ZM287.835 279.501V290.004H286.788V289.25C286.319 289.753 285.797 290.004 285.221 290.004H284.349C283.866 290.004 283.456 289.638 283.119 288.906C282.782 288.173 282.613 287.29 282.613 286.254C282.613 285.219 282.782 284.335 283.119 283.603C283.456 282.871 283.866 282.504 284.349 282.504H285.221C285.797 282.504 286.319 282.753 286.788 283.251V279.501H287.835ZM285.221 288.503C285.65 288.503 286.019 288.283 286.327 287.844C286.634 287.404 286.788 286.875 286.788 286.254C286.788 285.634 286.634 285.104 286.327 284.665C286.019 284.226 285.65 284.006 285.221 284.006H284.349C284.159 284.006 283.995 284.226 283.858 284.665C283.722 285.104 283.653 285.634 283.653 286.254C283.653 286.875 283.722 287.404 283.858 287.844C283.995 288.283 284.159 288.503 284.349 288.503H285.221ZM290.619 288.503H292.362C292.552 288.503 292.716 288.283 292.853 287.844C292.989 287.404 293.058 286.875 293.058 286.254C293.058 285.634 292.989 285.104 292.853 284.665C292.716 284.221 292.552 283.999 292.362 283.999H290.619C290.428 283.999 290.265 284.221 290.128 284.665C289.991 285.104 289.923 285.634 289.923 286.254C289.923 286.875 289.991 287.404 290.128 287.844C290.265 288.283 290.428 288.503 290.619 288.503ZM290.619 289.997C290.135 289.997 289.725 289.633 289.388 288.906C289.051 288.173 288.883 287.29 288.883 286.254C288.883 285.219 289.051 284.335 289.388 283.603C289.725 282.866 290.135 282.497 290.619 282.497H292.362C292.84 282.497 293.248 282.866 293.585 283.603C293.927 284.335 294.098 285.219 294.098 286.254C294.098 287.29 293.927 288.173 293.585 288.906C293.248 289.633 292.84 289.997 292.362 289.997H290.619ZM304.381 290.004H303.685L301.422 280.249V279.501H302.118L304.029 287.749L305.941 279.501H306.644V280.249L304.381 290.004ZM307.691 282.504H308.731V287.001C308.731 287.417 308.8 287.771 308.937 288.063C309.073 288.356 309.237 288.503 309.427 288.503H309.603C310.033 288.503 310.401 288.356 310.709 288.063C311.017 287.771 311.17 287.417 311.17 287.001V282.504H312.21V287.001C312.21 287.568 312.267 288.015 312.379 288.342C312.496 288.669 312.674 288.972 312.914 289.25V290.004H312.21C311.903 289.672 311.676 289.345 311.529 289.023C311.007 289.677 310.365 290.004 309.603 290.004H309.427C308.944 290.004 308.534 289.711 308.197 289.125C307.86 288.54 307.691 287.832 307.691 287.001V282.504ZM317.096 288.503H317.784V289.997H315.353V288.503H316.048V281.003H315.353V279.501H317.096V288.503ZM324.405 286.262C324.405 285.642 324.337 285.112 324.2 284.672C324.063 284.233 323.9 284.013 323.709 284.013H322.838C322.403 284.013 322.032 284.233 321.725 284.672C321.422 285.112 321.271 285.642 321.271 286.262V290.012H320.23V282.504H321.271V283.259C321.734 282.761 322.257 282.512 322.838 282.512H323.709C324.188 282.512 324.598 282.878 324.94 283.61C325.282 284.343 325.453 285.227 325.453 286.262V290.012H324.405V286.262ZM327.584 285.5H330.675C330.675 285.09 330.606 284.738 330.47 284.445C330.333 284.152 330.169 284.006 329.979 284.006H328.236C328.084 284.006 327.948 284.147 327.826 284.431C327.708 284.709 327.628 285.065 327.584 285.5ZM331.722 285.5V287.001H327.584C327.628 287.441 327.708 287.802 327.826 288.085C327.948 288.364 328.084 288.503 328.236 288.503H331.019V290.004H328.236C327.752 290.004 327.342 289.638 327.005 288.906C326.668 288.173 326.5 287.29 326.5 286.254C326.5 285.219 326.668 284.335 327.005 283.603C327.342 282.871 327.752 282.504 328.236 282.504H329.979C330.458 282.504 330.868 282.797 331.209 283.383C331.551 283.969 331.722 284.675 331.722 285.5ZM336.944 285.5C336.944 285.09 336.876 284.738 336.739 284.445C336.603 284.152 336.439 284.006 336.249 284.006H336.073C335.638 284.006 335.27 284.152 334.967 284.445C334.664 284.738 334.513 285.09 334.513 285.5L334.505 290.004H333.465V285.5C333.465 284.938 333.407 284.494 333.29 284.167C333.177 283.84 333.004 283.535 332.77 283.251V282.504H333.465C333.763 282.832 333.99 283.156 334.146 283.479C334.659 282.829 335.301 282.504 336.073 282.504H336.249C336.727 282.504 337.137 282.797 337.479 283.383C337.821 283.969 337.992 284.675 337.992 285.5H336.944ZM340.431 290.004C340.045 290.004 339.715 289.785 339.442 289.345C339.173 288.906 339.039 288.374 339.039 287.749C339.039 287.133 339.173 286.606 339.442 286.167C339.715 285.722 340.045 285.5 340.431 285.5H343.214V284.753C343.214 284.255 343.097 284.006 342.862 284.006L339.735 283.999V282.497L342.862 282.504C343.243 282.504 343.57 282.724 343.844 283.164C344.122 283.603 344.261 284.133 344.261 284.753V290.004H343.214V289.25C342.745 289.753 342.223 290.004 341.646 290.004H340.431ZM343.126 287.001H340.431C340.196 287.001 340.079 287.25 340.079 287.749C340.079 288.251 340.196 288.503 340.431 288.503H341.646C341.983 288.503 342.286 288.364 342.555 288.085C342.823 287.802 343.014 287.441 343.126 287.001ZM345.309 279.501H346.349V283.251C346.812 282.753 347.335 282.504 347.916 282.504H348.788C349.266 282.504 349.676 282.871 350.018 283.603C350.36 284.335 350.531 285.219 350.531 286.254C350.531 287.29 350.36 288.173 350.018 288.906C349.676 289.638 349.266 290.004 348.788 290.004H347.916C347.335 290.004 346.812 289.753 346.349 289.25V290.004H345.309V279.501ZM347.916 288.503H348.788C348.978 288.503 349.142 288.283 349.278 287.844C349.415 287.404 349.483 286.875 349.483 286.254C349.483 285.634 349.415 285.104 349.278 284.665C349.142 284.226 348.978 284.006 348.788 284.006H347.916C347.481 284.006 347.11 284.226 346.803 284.665C346.5 285.104 346.349 285.634 346.349 286.254C346.349 286.875 346.5 287.404 346.803 287.844C347.11 288.283 347.481 288.503 347.916 288.503ZM354.713 288.503H356.097V289.997H352.274V288.503H353.666V283.999H352.97V282.497H354.713V288.503ZM353.666 279.501H354.713V281.003H353.666V279.501ZM360.982 288.503H361.671V289.997H359.239V288.503H359.935V281.003H359.239V279.501H360.982V288.503ZM367.252 288.503H368.636V289.997H364.813V288.503H366.205V283.999H365.509V282.497H367.252V288.503ZM366.205 279.501H367.252V281.003H366.205V279.501ZM375.609 279.501V290.004H374.562V289.25C374.093 289.753 373.57 290.004 372.994 290.004H372.123C371.639 290.004 371.229 289.638 370.892 288.906C370.555 288.173 370.387 287.29 370.387 286.254C370.387 285.219 370.555 284.335 370.892 283.603C371.229 282.871 371.639 282.504 372.123 282.504H372.994C373.57 282.504 374.093 282.753 374.562 283.251V279.501H375.609ZM372.994 288.503C373.424 288.503 373.792 288.283 374.1 287.844C374.408 287.404 374.562 286.875 374.562 286.254C374.562 285.634 374.408 285.104 374.1 284.665C373.792 284.226 373.424 284.006 372.994 284.006H372.123C371.932 284.006 371.769 284.226 371.632 284.665C371.495 285.104 371.427 285.634 371.427 286.254C371.427 286.875 371.495 287.404 371.632 287.844C371.769 288.283 371.932 288.503 372.123 288.503H372.994ZM378.048 290.004C377.662 290.004 377.333 289.785 377.059 289.345C376.791 288.906 376.656 288.374 376.656 287.749C376.656 287.133 376.791 286.606 377.059 286.167C377.333 285.722 377.662 285.5 378.048 285.5H380.831V284.753C380.831 284.255 380.714 284.006 380.479 284.006L377.352 283.999V282.497L380.479 282.504C380.86 282.504 381.188 282.724 381.461 283.164C381.739 283.603 381.878 284.133 381.878 284.753V290.004H380.831V289.25C380.362 289.753 379.84 290.004 379.264 290.004H378.048ZM380.743 287.001H378.048C377.813 287.001 377.696 287.25 377.696 287.749C377.696 288.251 377.813 288.503 378.048 288.503H379.264C379.601 288.503 379.903 288.364 380.172 288.085C380.44 287.802 380.631 287.441 380.743 287.001ZM388.148 279.501V290.004H387.101V289.25C386.632 289.753 386.109 290.004 385.533 290.004H384.662C384.178 290.004 383.768 289.638 383.431 288.906C383.094 288.173 382.926 287.29 382.926 286.254C382.926 285.219 383.094 284.335 383.431 283.603C383.768 282.871 384.178 282.504 384.662 282.504H385.533C386.109 282.504 386.632 282.753 387.101 283.251V279.501H388.148ZM385.533 288.503C385.963 288.503 386.332 288.283 386.639 287.844C386.947 287.404 387.101 286.875 387.101 286.254C387.101 285.634 386.947 285.104 386.639 284.665C386.332 284.226 385.963 284.006 385.533 284.006H384.662C384.471 284.006 384.308 284.226 384.171 284.665C384.034 285.104 383.966 285.634 383.966 286.254C383.966 286.875 384.034 287.404 384.171 287.844C384.308 288.283 384.471 288.503 384.662 288.503H385.533ZM390.279 285.5H393.37C393.37 285.09 393.302 284.738 393.165 284.445C393.028 284.152 392.865 284.006 392.674 284.006H390.931C390.78 284.006 390.643 284.147 390.521 284.431C390.404 284.709 390.323 285.065 390.279 285.5ZM394.417 285.5V287.001H390.279C390.323 287.441 390.404 287.802 390.521 288.085C390.643 288.364 390.78 288.503 390.931 288.503H393.714V290.004H390.931C390.448 290.004 390.038 289.638 389.701 288.906C389.364 288.173 389.195 287.29 389.195 286.254C389.195 285.219 389.364 284.335 389.701 283.603C390.038 282.871 390.448 282.504 390.931 282.504H392.674C393.153 282.504 393.563 282.797 393.905 283.383C394.247 283.969 394.417 284.675 394.417 285.5ZM399.984 282.504V284.006H396.856C396.622 284.006 396.505 284.255 396.505 284.753C396.505 285.251 396.622 285.5 396.856 285.5H399.288C399.669 285.5 399.996 285.722 400.27 286.167C400.548 286.606 400.687 287.133 400.687 287.749C400.687 288.374 400.548 288.906 400.27 289.345C399.996 289.785 399.669 290.004 399.288 290.004H395.465V288.503H399.288C399.522 288.503 399.64 288.251 399.64 287.749C399.64 287.25 399.522 287.001 399.288 287.001H396.856C396.471 287.001 396.141 286.784 395.868 286.35C395.599 285.91 395.465 285.378 395.465 284.753C395.465 284.133 395.599 283.603 395.868 283.164C396.141 282.724 396.471 282.504 396.856 282.504H399.984ZM403.126 289.997V287.001H404.869V289.997H403.126ZM409.396 289.997V287.001H411.139V289.997H409.396ZM415.665 289.997V287.001H417.408V289.997H415.665Z" fill="#FE2B2B"/>
<path d="M203.305 169.254L203.333 169.516H214.999L215.027 169.254L215.055 169H203.277L203.305 169.254Z" fill="white"/>
<path d="M222.903 169.254L222.931 169.516L226.832 169.535L230.724 169.563V169H222.875L222.903 169.254Z" fill="white"/>
<path d="M246.403 169.563H277.76V169H246.403V169.563Z" fill="white"/>
<path d="M285.618 169.254L285.646 169.516H316.91L316.938 169.254L316.966 169H285.59L285.618 169.254Z" fill="white"/>
<path d="M328.734 169.254L328.762 169.516H340.428L340.456 169.254L340.484 169H328.706L328.734 169.254Z" fill="white"/>
<path d="M348.333 169.254L348.361 169.516H379.625L379.653 169.254L379.681 169H348.305L348.333 169.254Z" fill="white"/>
<path d="M387.511 169.563L418.822 169.516L418.85 169.254L418.878 169H387.511V169.563Z" fill="white"/>
<path d="M201.046 177.921H201.606V170.784H201.046V177.921Z" fill="white"/>
<path d="M220.645 177.921H221.205V170.784H220.645V177.921Z" fill="white"/>
<path d="M244.163 177.921H244.723V170.784H244.163V177.921Z" fill="white"/>
<path d="M283.36 177.921H283.919V170.784H283.36V177.921Z" fill="white"/>
<path d="M326.476 177.921H327.036V170.784H326.476V177.921Z" fill="white"/>
<path d="M346.074 177.921H346.634V170.784H346.074V177.921Z" fill="white"/>
<path d="M385.271 177.921H385.831V170.784H385.271V177.921Z" fill="white"/>
<path d="M203.846 171.658C203.846 171.676 203.902 171.817 203.977 171.967C204.051 172.118 204.555 173.32 205.115 174.634C205.666 175.949 206.161 177.085 206.207 177.142C206.254 177.207 206.394 177.264 206.525 177.264C206.795 177.264 206.805 177.273 206.161 175.761C205.909 175.17 205.657 174.578 205.601 174.447C204.387 171.554 204.453 171.676 204.145 171.648C203.977 171.629 203.846 171.639 203.846 171.658Z" fill="white"/>
<path d="M215.978 172.493C216.174 172.972 216.482 173.705 216.66 174.118C216.837 174.531 217.182 175.357 217.425 175.949C217.957 177.217 217.985 177.264 218.284 177.264C218.48 177.264 218.498 177.236 218.442 177.048C218.396 176.879 216.949 173.414 216.352 172.024C216.202 171.686 216.137 171.629 215.894 171.629H215.614L215.978 172.493Z" fill="white"/>
<path d="M223.855 172.587C225.236 175.902 225.722 177.038 225.806 177.142C225.899 177.273 226.338 177.311 226.338 177.189C226.338 177.151 225.815 175.893 225.19 174.4C224.042 171.695 224.042 171.676 223.743 171.648L223.444 171.62L223.855 172.587Z" fill="white"/>
<path d="M235.437 172.165C235.567 172.465 236.099 173.723 236.631 174.963C237.527 177.076 237.602 177.217 237.845 177.245C237.985 177.264 238.097 177.236 238.097 177.189C238.097 177.142 237.695 176.156 237.21 175.001C235.661 171.329 235.838 171.676 235.502 171.648L235.204 171.62L235.437 172.165Z" fill="white"/>
<path d="M246.991 171.742C247.019 171.808 247.439 172.794 247.924 173.93C248.4 175.066 248.913 176.278 249.062 176.625C249.296 177.198 249.352 177.264 249.594 177.264C249.734 177.264 249.856 177.236 249.856 177.189C249.856 177.151 249.333 175.893 248.698 174.4L247.541 171.676L247.243 171.648C247.019 171.62 246.953 171.648 246.991 171.742Z" fill="white"/>
<path d="M278.665 172.446C278.852 172.897 279.393 174.155 279.85 175.245C280.644 177.085 280.718 177.217 280.961 177.245C281.101 177.264 281.213 177.245 281.213 177.198C281.213 177.16 280.7 175.893 280.065 174.4L278.927 171.676L278.628 171.648L278.32 171.62L278.665 172.446Z" fill="white"/>
<path d="M286.523 172.493C287.27 174.277 288.455 177.029 288.52 177.142C288.604 177.273 289.052 177.311 289.052 177.189C289.052 177.151 288.539 175.893 287.904 174.4C286.766 171.686 286.757 171.676 286.458 171.648L286.159 171.62L286.523 172.493Z" fill="white"/>
<path d="M321.847 172.587C323.228 175.902 323.713 177.038 323.797 177.142C323.891 177.273 324.329 177.311 324.329 177.189C324.329 177.151 323.807 175.893 323.182 174.4C322.034 171.695 322.034 171.676 321.735 171.648L321.436 171.62L321.847 172.587Z" fill="white"/>
<path d="M329.276 171.658C329.276 171.676 329.332 171.817 329.406 171.967C329.481 172.118 329.985 173.32 330.545 174.634C331.096 175.949 331.59 177.085 331.637 177.142C331.73 177.273 332.169 177.311 332.169 177.189C332.169 177.151 331.646 175.893 331.021 174.4C329.873 171.686 329.873 171.676 329.574 171.648C329.406 171.629 329.276 171.639 329.276 171.658Z" fill="white"/>
<path d="M341.305 172.259C342.117 174.202 343.284 176.954 343.349 177.076C343.443 177.236 343.928 177.329 343.928 177.189C343.928 177.113 342.127 172.794 341.735 171.93C341.623 171.686 341.539 171.629 341.324 171.629H341.044L341.305 172.259Z" fill="white"/>
<path d="M349.285 172.587C350.666 175.902 351.151 177.038 351.235 177.142C351.282 177.207 351.422 177.264 351.553 177.264C351.842 177.264 351.898 177.442 350.563 174.259C349.481 171.686 349.471 171.676 349.173 171.648L348.874 171.62L349.285 172.587Z" fill="white"/>
<path d="M380.465 172.165C380.605 172.465 380.959 173.301 381.258 174.024C382.574 177.179 382.593 177.217 382.873 177.245C383.031 177.264 383.125 177.236 383.115 177.151C383.115 177.085 382.602 175.827 381.977 174.353L380.838 171.676L380.53 171.648L380.231 171.62L380.465 172.165Z" fill="white"/>
<path d="M388.099 171.742C388.127 171.808 388.491 172.662 388.911 173.648C389.331 174.625 389.844 175.846 390.049 176.343C390.404 177.217 390.441 177.264 390.703 177.264C390.917 177.264 390.964 177.236 390.927 177.095C390.889 177.01 390.367 175.752 389.76 174.306L388.649 171.676L388.351 171.648C388.127 171.62 388.061 171.648 388.099 171.742Z" fill="white"/>
<path d="M419.456 171.742C419.484 171.808 420.016 173.075 420.641 174.559C421.761 177.198 421.799 177.264 422.051 177.264C422.2 177.264 422.321 177.245 422.321 177.236C422.321 177.189 420.249 172.259 420.081 171.883C419.988 171.695 419.895 171.629 419.68 171.629C419.503 171.629 419.428 171.667 419.456 171.742Z" fill="white"/>
<path d="M262.119 177.442C262.1 177.461 262.081 177.583 262.081 177.705V177.921H269.921V177.686C269.921 177.555 269.893 177.451 269.855 177.451C268.577 177.423 262.147 177.414 262.119 177.442Z" fill="white"/>
<path d="M301.371 177.433C301.325 177.451 301.278 177.574 301.278 177.696V177.921H313.046L313.018 177.677L312.99 177.442L307.232 177.423C304.059 177.414 301.427 177.414 301.371 177.433Z" fill="white"/>
<path d="M364.03 177.442C364.011 177.461 363.993 177.583 363.993 177.705V177.921H371.841L371.785 177.433L367.931 177.423C365.803 177.414 364.049 177.423 364.03 177.442Z" fill="white"/>
<path d="M403.227 177.442C403.208 177.461 403.19 177.583 403.19 177.705V177.921H411.038L410.982 177.433L407.128 177.423C405 177.414 403.246 177.423 403.227 177.442Z" fill="white"/>
<path d="M240.364 179.208C240.271 179.245 240.243 180.053 240.243 182.813V186.372H240.803L240.784 182.785C240.756 179.001 240.756 179.038 240.364 179.208Z" fill="white"/>
<path d="M267.746 179.198C267.709 179.236 267.681 180.87 267.681 182.823V186.382L267.942 186.354L268.194 186.326V182.757C268.194 179.236 268.194 179.189 268.007 179.161C267.895 179.142 267.783 179.161 267.746 179.198Z" fill="white"/>
<path d="M369.658 179.208C369.62 179.236 369.592 180.87 369.592 182.823V186.382L369.854 186.354L370.106 186.326L370.134 182.813C370.152 179.226 370.152 179.151 369.816 179.142C369.76 179.142 369.686 179.17 369.658 179.208Z" fill="white"/>
<path d="M408.854 179.208C408.817 179.236 408.789 180.87 408.789 182.823V186.382L409.05 186.354L409.302 186.326L409.33 182.813C409.349 179.226 409.349 179.151 409.013 179.142C408.957 179.142 408.882 179.17 408.854 179.208Z" fill="white"/>
<path d="M200.001 180.034C199.973 180.062 200.477 181.33 201.121 182.851C202.278 185.602 202.465 185.922 202.745 185.64C202.801 185.584 202.428 184.588 201.672 182.795C200.636 180.363 200.477 180.034 200.281 180.006C200.16 179.987 200.038 180.006 200.001 180.034Z" fill="white"/>
<path d="M207.859 180.081C207.859 180.137 208.326 181.292 208.895 182.644C209.474 183.997 209.987 185.227 210.043 185.368C210.136 185.621 210.463 185.79 210.64 185.678C210.696 185.649 210.202 184.363 209.548 182.832C208.438 180.222 208.344 180.034 208.111 180.006C207.971 179.987 207.859 180.024 207.859 180.081Z" fill="white"/>
<path d="M219.609 180.034C219.571 180.062 219.917 180.935 220.365 181.987C220.803 183.029 221.335 184.278 221.522 184.748C221.877 185.602 222.119 185.865 222.343 185.64C222.399 185.584 222.035 184.598 221.27 182.795C220.234 180.344 220.075 180.034 219.879 180.006C219.758 179.987 219.637 180.006 219.609 180.034Z" fill="white"/>
<path d="M225.656 180.053C225.628 180.1 225.208 181.095 224.704 182.288C224.21 183.471 223.696 184.692 223.566 184.992C223.398 185.377 223.351 185.565 223.416 185.631C223.687 185.903 223.874 185.602 224.602 183.856C225.012 182.889 225.414 181.931 225.507 181.724C225.6 181.518 225.796 181.067 225.946 180.719C226.104 180.372 226.207 180.071 226.17 180.043C226.095 179.959 225.703 179.978 225.656 180.053Z" fill="white"/>
<path d="M237.322 180.287C237.247 180.456 236.715 181.715 236.137 183.067C235.092 185.537 235.017 185.818 235.456 185.678C235.577 185.64 235.773 185.302 236.043 184.654C236.267 184.128 236.79 182.889 237.21 181.893C237.63 180.898 237.957 180.062 237.929 180.034C237.901 180.006 237.779 179.987 237.658 179.987C237.509 179.987 237.406 180.071 237.322 180.287Z" fill="white"/>
<path d="M243.127 180.034C243.08 180.081 245.227 185.302 245.413 185.612C245.451 185.668 245.591 185.715 245.721 185.715C245.917 185.715 245.945 185.678 245.899 185.499C245.871 185.386 245.348 184.109 244.732 182.663C243.752 180.363 243.584 180.034 243.398 180.006C243.276 179.987 243.155 180.006 243.127 180.034Z" fill="white"/>
<path d="M250.976 180.109C250.976 180.184 251.144 180.616 251.34 181.076C251.535 181.536 252.049 182.738 252.478 183.743C252.898 184.748 253.29 185.602 253.346 185.64C253.514 185.753 253.775 185.725 253.775 185.593C253.775 185.537 253.253 184.25 252.627 182.757C251.554 180.212 251.461 180.034 251.228 180.006C251.06 179.987 250.976 180.015 250.976 180.109Z" fill="white"/>
<path d="M262.716 180.053C262.688 180.09 263.201 181.377 263.854 182.898C264.974 185.537 265.049 185.668 265.292 185.696C265.646 185.743 265.674 185.818 264.33 182.663C263.323 180.306 263.192 180.034 262.977 180.006C262.856 179.987 262.735 180.006 262.716 180.053Z" fill="white"/>
<path d="M270.555 180.043C270.518 180.071 270.565 180.25 270.639 180.438C271.19 181.771 272.646 185.208 272.767 185.433C272.907 185.706 273.206 185.809 273.318 185.631C273.364 185.556 271.19 180.316 271.022 180.1C270.919 179.987 270.649 179.949 270.555 180.043Z" fill="white"/>
<path d="M282.314 180.034C282.286 180.062 282.8 181.339 283.453 182.879C284.554 185.48 284.647 185.668 284.881 185.696C285.021 185.715 285.133 185.678 285.133 185.631C285.133 185.574 284.731 184.57 284.237 183.386C283.742 182.212 283.22 180.982 283.089 180.644C282.884 180.147 282.79 180.024 282.604 180.006C282.473 179.987 282.352 180.006 282.314 180.034Z" fill="white"/>
<path d="M290.144 180.053C290.126 180.1 290.471 180.992 290.91 182.053C292.291 185.33 292.449 185.668 292.636 185.696C293.075 185.781 293.112 185.912 290.9 180.663C290.667 180.1 290.574 179.987 290.396 179.987C290.284 179.987 290.163 180.015 290.144 180.053Z" fill="white"/>
<path d="M301.903 180.053C301.885 180.1 302.389 181.377 303.042 182.898C304.208 185.649 304.376 185.922 304.647 185.649C304.703 185.593 304.311 184.551 303.63 182.936C303.023 181.499 302.501 180.24 302.463 180.147C302.407 179.987 301.978 179.921 301.903 180.053Z" fill="white"/>
<path d="M305.842 180.034C305.767 180.109 308.063 185.546 308.212 185.64C308.371 185.743 308.539 185.734 308.604 185.621C308.632 185.574 308.137 184.297 307.494 182.785C306.467 180.372 306.299 180.034 306.112 180.006C305.991 179.987 305.87 180.006 305.842 180.034Z" fill="white"/>
<path d="M313.634 180.147C313.662 180.24 314.194 181.499 314.801 182.945C315.622 184.879 315.967 185.593 316.107 185.659C316.238 185.715 316.341 185.715 316.397 185.659C316.481 185.574 314.372 180.4 314.138 180.1C314.082 180.043 313.942 179.987 313.812 179.987C313.634 179.987 313.597 180.024 313.634 180.147Z" fill="white"/>
<path d="M325.431 180.034C325.403 180.062 325.907 181.33 326.551 182.851C327.708 185.602 327.894 185.922 328.174 185.64C328.23 185.584 327.866 184.598 327.101 182.795C326.065 180.353 325.907 180.034 325.711 180.006C325.589 179.987 325.468 180.006 325.431 180.034Z" fill="white"/>
<path d="M333.195 180.024C333.195 180.062 334.577 183.368 335.137 184.673C335.351 185.161 335.575 185.593 335.641 185.631C335.799 185.734 335.967 185.734 336.032 185.631C336.079 185.556 333.905 180.325 333.737 180.1C333.653 180.006 333.195 179.931 333.195 180.024Z" fill="white"/>
<path d="M345.02 180.053C344.992 180.1 345.496 181.358 346.14 182.87C347.017 184.945 347.344 185.631 347.493 185.678C347.596 185.706 347.717 185.696 347.763 185.649C347.847 185.565 345.729 180.381 345.505 180.109C345.393 179.978 345.085 179.94 345.02 180.053Z" fill="white"/>
<path d="M352.84 180.147C352.868 180.24 353.4 181.508 354.016 182.964C354.866 184.964 355.183 185.631 355.332 185.678C355.687 185.79 355.696 185.584 355.37 184.814C355.192 184.41 354.688 183.208 354.24 182.147C353.802 181.095 353.391 180.175 353.335 180.109C353.279 180.043 353.13 179.987 353.008 179.987C352.822 179.987 352.784 180.024 352.84 180.147Z" fill="white"/>
<path d="M364.618 180.053C364.59 180.1 364.711 180.447 364.879 180.832C365.047 181.217 365.57 182.457 366.046 183.574C366.681 185.086 366.951 185.631 367.091 185.678C367.194 185.706 367.315 185.696 367.371 185.64C367.427 185.584 367.017 184.532 366.279 182.767C365.206 180.25 365.075 179.987 364.879 179.987C364.758 179.987 364.637 180.015 364.618 180.053Z" fill="white"/>
<path d="M372.457 180.053C372.429 180.1 372.943 181.358 373.577 182.87C374.455 184.936 374.791 185.631 374.931 185.678C375.033 185.706 375.155 185.696 375.201 185.649C375.285 185.565 373.167 180.381 372.943 180.109C372.831 179.978 372.523 179.94 372.457 180.053Z" fill="white"/>
<path d="M384.216 180.053C384.198 180.09 384.459 180.785 384.804 181.583C385.15 182.382 385.672 183.621 385.962 184.325C386.494 185.593 386.718 185.894 386.96 185.649C387.016 185.593 386.624 184.532 385.887 182.795C384.842 180.306 384.702 180.034 384.496 180.006C384.366 179.987 384.244 180.006 384.216 180.053Z" fill="white"/>
<path d="M392.056 180.053C392.028 180.1 392.168 180.485 392.354 180.926C392.55 181.367 393.073 182.597 393.53 183.668C394.128 185.095 394.398 185.631 394.529 185.678C394.94 185.809 394.884 185.537 394.044 183.546C393.577 182.438 393.064 181.217 392.905 180.832C392.737 180.447 392.569 180.1 392.513 180.062C392.382 179.968 392.102 179.968 392.056 180.053Z" fill="white"/>
<path d="M403.833 180.034C403.759 180.109 406.055 185.546 406.204 185.64C406.363 185.743 406.531 185.734 406.596 185.621C406.624 185.574 406.129 184.297 405.485 182.785C404.459 180.372 404.291 180.034 404.104 180.006C403.983 179.987 403.861 180.006 403.833 180.034Z" fill="white"/>
<path d="M411.626 180.147C411.654 180.24 412.186 181.499 412.793 182.945C413.614 184.879 413.959 185.593 414.099 185.659C414.23 185.715 414.333 185.715 414.389 185.659C414.473 185.574 412.363 180.4 412.13 180.1C412.074 180.043 411.934 179.987 411.803 179.987C411.626 179.987 411.589 180.024 411.626 180.147Z" fill="white"/>
<path d="M423.348 180.053C423.348 180.118 424.514 182.936 424.944 183.893C425.037 184.1 425.196 184.504 425.308 184.785C425.42 185.067 425.569 185.386 425.644 185.499C425.774 185.706 426.092 185.79 426.176 185.64C426.213 185.584 424.066 180.4 423.88 180.1C423.796 179.978 423.348 179.94 423.348 180.053Z" fill="white"/>
<path d="M203.874 188.551C203.902 188.617 204.266 189.471 204.686 190.457C205.106 191.434 205.619 192.655 205.825 193.152C206.179 194.016 206.217 194.073 206.469 194.073C206.618 194.073 206.739 194.054 206.739 194.026C206.739 193.988 206.282 192.88 205.722 191.556C205.162 190.232 204.639 188.983 204.565 188.786C204.434 188.485 204.378 188.438 204.117 188.438C203.921 188.438 203.846 188.476 203.874 188.551Z" fill="white"/>
<path d="M211.835 188.786C211.919 188.983 212.077 189.349 212.189 189.612C212.301 189.866 212.777 190.983 213.235 192.073C214.028 193.988 214.075 194.073 214.327 194.073C214.467 194.073 214.579 194.035 214.579 193.979C214.579 193.932 214.392 193.462 214.159 192.927C213.935 192.392 213.421 191.18 213.02 190.223C212.301 188.514 212.283 188.485 211.984 188.457L211.695 188.429L211.835 188.786Z" fill="white"/>
<path d="M246.963 188.467C246.963 188.485 247.14 188.927 247.364 189.434C247.588 189.95 248.12 191.199 248.549 192.213C249.296 194.016 249.333 194.073 249.585 194.073C249.734 194.073 249.856 194.045 249.856 194.016C249.856 193.979 249.688 193.566 249.492 193.096C249.286 192.627 248.764 191.396 248.325 190.363C247.56 188.532 247.532 188.485 247.252 188.457C247.093 188.438 246.963 188.448 246.963 188.467Z" fill="white"/>
<path d="M255.138 189.208C255.315 189.64 255.847 190.908 256.323 192.026C257.144 193.998 257.182 194.073 257.434 194.073C257.574 194.073 257.695 194.035 257.695 193.998C257.695 193.932 255.866 189.537 255.502 188.739C255.39 188.495 255.306 188.438 255.082 188.438H254.811L255.138 189.208Z" fill="white"/>
<path d="M266.589 188.551C266.617 188.617 267.158 189.885 267.783 191.368C268.903 194.026 268.931 194.073 269.193 194.073C269.529 194.073 269.613 194.326 268.241 191.096C267.14 188.495 267.14 188.485 266.832 188.457C266.617 188.429 266.552 188.457 266.589 188.551Z" fill="white"/>
<path d="M270.509 188.551C270.537 188.617 270.807 189.265 271.115 189.988C271.423 190.711 271.927 191.922 272.254 192.683C272.814 194.016 272.842 194.073 273.103 194.073C273.252 194.073 273.374 194.054 273.374 194.035C273.374 193.988 271.656 189.894 271.255 188.974C271.041 188.495 270.985 188.438 270.742 188.438C270.555 188.438 270.481 188.476 270.509 188.551Z" fill="white"/>
<path d="M274.634 188.974C274.764 189.274 275.296 190.532 275.828 191.772C276.724 193.885 276.799 194.026 277.041 194.054C277.2 194.073 277.293 194.045 277.284 193.96C277.284 193.894 276.771 192.636 276.136 191.162C275.007 188.495 274.998 188.485 274.699 188.457L274.4 188.429L274.634 188.974Z" fill="white"/>
<path d="M286.187 188.551C286.234 188.673 287.802 192.345 288.287 193.481C288.511 194.007 288.567 194.073 288.8 194.073C289.136 194.073 289.202 194.307 287.839 191.077L286.747 188.485L286.439 188.457C286.215 188.429 286.15 188.457 286.187 188.551Z" fill="white"/>
<path d="M294.092 188.523C294.092 188.617 294.727 190.157 295.902 192.899C296.332 193.913 296.406 194.026 296.64 194.054C296.78 194.073 296.892 194.045 296.892 193.998C296.892 193.904 295.977 191.697 295.035 189.518C294.643 188.607 294.559 188.485 294.344 188.457C294.204 188.438 294.092 188.467 294.092 188.523Z" fill="white"/>
<path d="M305.832 188.607C305.87 188.701 306.402 189.969 307.018 191.425C308.109 193.998 308.147 194.073 308.399 194.073C308.725 194.073 308.781 194.251 307.559 191.349C306.224 188.166 306.364 188.438 306.038 188.438C305.814 188.438 305.776 188.467 305.832 188.607Z" fill="white"/>
<path d="M309.696 188.514C309.715 188.56 310.247 189.828 310.881 191.331C312.01 193.998 312.048 194.073 312.309 194.073C312.449 194.073 312.57 194.054 312.57 194.026C312.57 193.998 312.113 192.89 311.553 191.556C310.993 190.232 310.471 188.983 310.387 188.786C310.265 188.485 310.2 188.438 309.957 188.438C309.789 188.438 309.677 188.476 309.696 188.514Z" fill="white"/>
<path d="M317.927 189.396C319.868 194.045 319.878 194.073 320.158 194.073C320.298 194.073 320.41 194.035 320.41 193.979C320.41 193.932 320.223 193.462 319.99 192.927C319.766 192.392 319.243 191.18 318.842 190.223C318.133 188.514 318.114 188.485 317.815 188.457L317.517 188.429L317.927 189.396Z" fill="white"/>
<path d="M329.285 188.514C329.304 188.56 329.845 189.828 330.489 191.331C331.609 193.979 331.656 194.073 331.907 194.073C332.057 194.073 332.169 194.054 332.169 194.026C332.169 193.979 331.814 193.134 330.256 189.424C329.882 188.532 329.845 188.485 329.556 188.457C329.388 188.438 329.266 188.467 329.285 188.514Z" fill="white"/>
<path d="M337.264 188.786C337.348 188.983 337.507 189.349 337.619 189.612C337.74 189.866 338.207 190.983 338.664 192.073C339.458 193.988 339.504 194.073 339.756 194.073C339.896 194.073 340.008 194.026 339.999 193.951C339.999 193.894 339.486 192.636 338.86 191.162C337.722 188.495 337.712 188.485 337.423 188.457L337.124 188.429L337.264 188.786Z" fill="white"/>
<path d="M348.883 188.504C348.902 188.551 349.443 189.819 350.087 191.331C351.207 193.979 351.263 194.073 351.506 194.073C351.655 194.073 351.767 194.045 351.767 194.016C351.767 193.96 350.974 192.035 350.694 191.396C350.619 191.237 350.321 190.523 350.013 189.8C349.471 188.523 349.453 188.485 349.154 188.457C348.986 188.438 348.865 188.467 348.883 188.504Z" fill="white"/>
<path d="M356.751 188.589C356.779 188.673 357.311 189.941 357.936 191.406C359.047 194.026 359.065 194.073 359.336 194.073C359.485 194.073 359.607 194.063 359.607 194.045C359.607 194.026 358.673 191.8 357.581 189.208C357.273 188.485 357.236 188.438 356.975 188.438C356.76 188.438 356.704 188.476 356.751 188.589Z" fill="white"/>
<path d="M388.099 188.551C388.127 188.617 388.528 189.584 389.004 190.692C389.471 191.8 389.984 193.021 390.143 193.387C390.395 194.016 390.441 194.073 390.693 194.073C390.843 194.073 390.964 194.054 390.964 194.026C390.964 193.998 390.544 192.993 390.04 191.791C389.536 190.589 389.013 189.359 388.883 189.049C388.668 188.542 388.621 188.485 388.351 188.457C388.127 188.429 388.061 188.457 388.099 188.551Z" fill="white"/>
<path d="M395.938 188.551C395.966 188.617 396.367 189.584 396.843 190.692C397.31 191.8 397.823 193.021 397.982 193.387C398.234 194.016 398.281 194.073 398.533 194.073C398.682 194.073 398.803 194.054 398.803 194.026C398.803 193.979 397.17 190.082 396.685 188.974C396.47 188.495 396.414 188.438 396.171 188.438C395.985 188.438 395.91 188.476 395.938 188.551Z" fill="white"/>
<path d="M427.286 188.514C427.305 188.551 427.837 189.819 428.481 191.331C429.601 193.988 429.647 194.073 429.899 194.073C430.039 194.073 430.161 194.054 430.161 194.026C430.161 193.988 429.703 192.88 429.143 191.556C428.583 190.232 428.061 188.983 427.986 188.786C427.855 188.485 427.79 188.438 427.548 188.438C427.38 188.438 427.268 188.476 427.286 188.514Z" fill="white"/>
<path d="M226.804 194.486C226.804 194.608 226.842 194.73 226.898 194.749C226.944 194.758 229.595 194.768 232.777 194.749L238.563 194.73V194.261H226.804V194.486Z" fill="white"/>
<path d="M371.832 194.73H375.752V194.261H371.832V194.73Z" fill="white"/>
<path d="M383.61 194.495C383.629 194.627 383.666 194.73 383.713 194.73C383.75 194.73 384.618 194.73 385.644 194.73H387.511V194.261H383.582L383.61 194.495Z" fill="white"/>
<path d="M411.048 194.495L411.076 194.739H418.822L418.85 194.495L418.878 194.261H411.02L411.048 194.495Z" fill="white"/>
<path d="M207.906 196.89C207.868 196.946 208.298 198.054 208.839 199.36C210.267 202.731 210.164 202.524 210.426 202.524C210.556 202.524 210.659 202.477 210.659 202.412C210.659 202.224 208.4 196.946 208.288 196.871C208.139 196.768 207.971 196.777 207.906 196.89Z" fill="white"/>
<path d="M215.67 196.862C215.652 196.899 216.025 197.867 216.501 199.003C218.041 202.637 217.966 202.477 218.246 202.505C218.386 202.524 218.498 202.505 218.498 202.458C218.498 202.421 217.985 201.153 217.36 199.66C216.734 198.158 216.221 196.927 216.221 196.918C216.193 196.852 215.708 196.796 215.67 196.862Z" fill="white"/>
<path d="M227.504 196.89C227.457 196.965 227.971 198.233 229.66 202.214C229.753 202.44 229.856 202.524 230.005 202.524C230.127 202.524 230.248 202.505 230.276 202.477C230.341 202.412 228.017 196.956 227.887 196.871C227.737 196.768 227.569 196.777 227.504 196.89Z" fill="white"/>
<path d="M231.359 196.843C231.331 196.871 231.788 198.026 232.366 199.407C233.813 202.806 233.673 202.524 233.944 202.524C234.074 202.524 234.177 202.477 234.177 202.421C234.177 202.365 233.785 201.379 233.3 200.242C232.814 199.097 232.31 197.885 232.17 197.547C232.03 197.209 231.872 196.909 231.806 196.871C231.685 196.787 231.433 196.777 231.359 196.843Z" fill="white"/>
<path d="M239.254 196.871C239.189 196.909 239.571 197.913 240.336 199.707C241.438 202.299 241.531 202.477 241.764 202.505C241.914 202.524 242.016 202.487 242.016 202.43C242.016 202.252 239.748 196.946 239.646 196.871C239.59 196.834 239.506 196.796 239.45 196.796C239.403 196.796 239.31 196.834 239.254 196.871Z" fill="white"/>
<path d="M250.957 196.843C250.929 196.871 251.386 198.026 251.965 199.407C253.402 202.797 253.271 202.524 253.542 202.524C253.831 202.524 253.831 202.468 253.551 201.792C252.431 199.068 251.498 196.927 251.405 196.871C251.284 196.787 251.032 196.777 250.957 196.843Z" fill="white"/>
<path d="M258.787 196.852C258.759 196.881 258.815 197.106 258.918 197.341C259.02 197.585 259.151 197.885 259.207 198.017C260.915 202.092 261.101 202.477 261.363 202.505C261.503 202.524 261.615 202.505 261.615 202.458C261.615 202.327 259.384 197.059 259.272 196.918C259.16 196.796 258.89 196.749 258.787 196.852Z" fill="white"/>
<path d="M270.537 196.871C270.499 196.946 272.646 202.102 272.842 202.402C272.916 202.524 273.374 202.581 273.374 202.468C273.374 202.412 272.59 200.515 272.254 199.754C272.16 199.547 271.871 198.853 271.6 198.205C271.339 197.557 271.05 196.974 270.966 196.909C270.798 196.777 270.602 196.758 270.537 196.871Z" fill="white"/>
<path d="M274.531 196.871C274.466 196.909 274.848 197.913 275.613 199.707C276.715 202.299 276.808 202.477 277.041 202.505C277.191 202.524 277.293 202.487 277.293 202.43C277.293 202.252 275.026 196.946 274.923 196.871C274.867 196.834 274.783 196.796 274.727 196.796C274.68 196.796 274.587 196.834 274.531 196.871Z" fill="white"/>
<path d="M278.385 196.862C278.357 196.909 278.507 197.312 278.703 197.782C278.908 198.242 279.431 199.491 279.888 200.552C280.644 202.346 280.718 202.477 280.961 202.505C281.101 202.524 281.213 202.496 281.213 202.44C281.213 202.308 278.983 197.059 278.861 196.918C278.759 196.787 278.451 196.749 278.385 196.862Z" fill="white"/>
<path d="M290.154 196.852C290.088 196.918 290.06 196.862 291.367 199.942C291.908 201.228 292.393 202.346 292.44 202.402C292.487 202.468 292.627 202.524 292.757 202.524C292.953 202.524 292.972 202.496 292.916 202.318C292.701 201.632 290.695 197.012 290.564 196.909C290.406 196.787 290.238 196.758 290.154 196.852Z" fill="white"/>
<path d="M297.993 196.843C297.946 196.89 299.981 201.829 300.251 202.336C300.354 202.524 300.811 202.609 300.811 202.43C300.811 202.271 298.534 196.937 298.432 196.871C298.32 196.787 298.068 196.777 297.993 196.843Z" fill="white"/>
<path d="M309.743 196.852C309.715 196.881 309.873 197.341 310.088 197.857C311.264 200.665 311.964 202.299 312.038 202.402C312.085 202.468 312.234 202.524 312.356 202.524C312.533 202.524 312.58 202.487 312.542 202.355C312.393 201.829 310.293 197.012 310.163 196.909C310.004 196.787 309.836 196.758 309.743 196.852Z" fill="white"/>
<path d="M313.709 196.871C313.616 196.937 313.653 197.087 313.858 197.566C314.017 197.895 314.521 199.097 314.997 200.233C315.473 201.36 315.902 202.346 315.949 202.402C316.005 202.468 316.145 202.524 316.275 202.524C316.462 202.524 316.49 202.487 316.443 202.336C316.359 202.083 314.372 197.369 314.222 197.078C314.092 196.824 313.905 196.749 313.709 196.871Z" fill="white"/>
<path d="M321.502 196.862C321.474 196.909 321.987 198.186 322.64 199.707C323.751 202.318 323.835 202.477 324.077 202.505C324.217 202.524 324.329 202.496 324.329 202.449C324.329 202.233 322.062 197.021 321.931 196.909C321.754 196.777 321.558 196.758 321.502 196.862Z" fill="white"/>
<path d="M333.317 196.871C333.242 196.918 333.279 197.115 333.485 197.594C333.643 197.96 334.147 199.162 334.614 200.27C335.071 201.379 335.501 202.346 335.547 202.402C335.65 202.524 336.088 202.571 336.088 202.458C336.088 202.355 333.83 197.04 333.727 196.909C333.625 196.777 333.485 196.768 333.317 196.871Z" fill="white"/>
<path d="M341.1 196.862C341.081 196.909 341.455 197.867 341.931 199.003C343.471 202.637 343.396 202.477 343.676 202.505C343.816 202.524 343.928 202.496 343.928 202.44C343.928 202.393 343.424 201.163 342.808 199.707C342.192 198.252 341.688 197.031 341.688 196.984C341.688 196.946 341.595 196.89 341.483 196.852C341.203 196.777 341.147 196.787 341.1 196.862Z" fill="white"/>
<path d="M352.915 196.852C352.84 196.89 352.934 197.2 353.204 197.857C354.586 201.163 355.071 202.299 355.155 202.402C355.248 202.534 355.687 202.571 355.687 202.458C355.687 202.346 353.438 197.04 353.335 196.909C353.232 196.796 353.111 196.777 352.915 196.852Z" fill="white"/>
<path d="M360.698 196.862C360.68 196.909 361.118 198.017 361.669 199.331C363.069 202.637 363.013 202.524 363.293 202.524C363.424 202.524 363.526 202.487 363.526 202.43C363.526 202.383 363.153 201.454 362.696 200.383C362.238 199.303 361.725 198.092 361.557 197.679C361.389 197.275 361.212 196.909 361.156 196.871C361.025 196.777 360.745 196.777 360.698 196.862Z" fill="white"/>
<path d="M372.523 196.871C372.448 196.918 372.672 197.547 373.223 198.862C374.763 202.505 374.744 202.477 375.033 202.505C375.173 202.524 375.285 202.496 375.285 202.449C375.285 202.412 375.145 202.036 374.968 201.623C374.791 201.219 374.287 200.017 373.839 198.956C373.4 197.904 372.989 196.984 372.933 196.918C372.821 196.777 372.681 196.768 372.523 196.871Z" fill="white"/>
<path d="M376.368 196.871C376.34 196.927 376.433 197.237 376.582 197.566C376.732 197.904 377.236 199.097 377.712 200.233C378.188 201.36 378.617 202.346 378.664 202.402C378.757 202.524 379.205 202.571 379.205 202.468C379.205 202.402 377.096 197.388 376.937 197.078C376.816 196.834 376.47 196.711 376.368 196.871Z" fill="white"/>
<path d="M388.136 196.862C388.099 196.927 390.255 202.139 390.432 202.412C390.479 202.468 390.609 202.524 390.74 202.524C390.945 202.524 390.964 202.496 390.908 202.318C390.693 201.632 388.687 197.012 388.556 196.909C388.388 196.777 388.192 196.758 388.136 196.862Z" fill="white"/>
<path d="M392.121 196.871C392.046 196.918 392.392 197.82 393.194 199.707C394.305 202.318 394.389 202.477 394.632 202.505C394.772 202.524 394.884 202.505 394.884 202.458C394.884 202.327 392.653 197.059 392.541 196.918C392.42 196.787 392.28 196.768 392.121 196.871Z" fill="white"/>
<path d="M399.951 196.871C399.858 196.927 400.128 197.641 400.959 199.623C401.584 201.087 402.135 202.346 402.191 202.412C402.322 202.571 402.686 202.515 402.648 202.336C402.602 202.111 400.464 197.04 400.362 196.909C400.259 196.777 400.119 196.768 399.951 196.871Z" fill="white"/>
<path d="M411.645 196.871C411.617 196.927 411.71 197.237 411.86 197.566C412.009 197.904 412.513 199.097 412.989 200.233C413.465 201.36 413.894 202.346 413.941 202.402C414.034 202.524 414.482 202.571 414.482 202.468C414.482 202.402 412.373 197.388 412.214 197.078C412.093 196.834 411.748 196.711 411.645 196.871Z" fill="white"/>
<path d="M419.54 196.871C419.456 196.937 419.512 197.143 419.792 197.791C419.988 198.252 420.501 199.454 420.921 200.458C421.351 201.463 421.733 202.346 421.789 202.412C421.92 202.571 422.284 202.515 422.247 202.336C422.191 202.102 420.063 197.04 419.96 196.909C419.858 196.777 419.718 196.768 419.54 196.871Z" fill="white"/>
<path d="M431.253 196.852C431.225 196.89 431.253 197.05 431.318 197.209C431.383 197.369 431.897 198.58 432.447 199.895C432.998 201.21 433.492 202.346 433.539 202.402C433.642 202.524 434.08 202.571 434.08 202.458C434.08 202.355 431.822 197.04 431.719 196.909C431.626 196.787 431.355 196.758 431.253 196.852Z" fill="white"/>
<path d="M211.769 205.294C211.741 205.323 212.245 206.59 212.889 208.112C214.019 210.778 214.075 210.882 214.327 210.882C214.467 210.882 214.579 210.854 214.579 210.807C214.579 210.769 214.056 209.511 213.431 208.018C212.395 205.557 212.255 205.294 212.049 205.266C211.919 205.247 211.797 205.266 211.769 205.294Z" fill="white"/>
<path d="M219.609 205.285C219.581 205.313 220.085 206.59 220.729 208.112C221.867 210.778 221.914 210.882 222.166 210.882C222.306 210.882 222.418 210.854 222.418 210.807C222.418 210.769 221.895 209.511 221.27 208.018C220.234 205.557 220.094 205.294 219.889 205.266C219.758 205.247 219.637 205.266 219.609 205.285Z" fill="white"/>
<path d="M231.377 205.351C231.377 205.407 231.778 206.412 232.273 207.586C232.768 208.75 233.281 209.971 233.421 210.29C233.636 210.807 233.692 210.882 233.925 210.882C234.065 210.882 234.177 210.844 234.177 210.788C234.177 210.741 233.99 210.271 233.757 209.736C233.533 209.201 233.01 207.99 232.609 207.032C231.937 205.435 231.853 205.294 231.629 205.266C231.48 205.247 231.377 205.285 231.377 205.351Z" fill="white"/>
<path d="M235.288 205.294C235.26 205.323 235.763 206.59 236.407 208.112C237.537 210.797 237.583 210.882 237.835 210.882C237.985 210.882 238.097 210.863 238.097 210.835C238.097 210.807 237.695 209.83 237.201 208.647C236.706 207.473 236.183 206.243 236.053 205.905C235.847 205.407 235.754 205.285 235.567 205.266C235.437 205.247 235.316 205.266 235.288 205.294Z" fill="white"/>
<path d="M243.052 205.323C243.071 205.37 243.612 206.647 244.256 208.149C245.376 210.788 245.432 210.882 245.675 210.882C245.824 210.882 245.936 210.863 245.936 210.835C245.936 210.788 245.581 209.943 244.023 206.233C243.649 205.341 243.612 205.294 243.323 205.266C243.155 205.247 243.034 205.276 243.052 205.323Z" fill="white"/>
<path d="M254.886 205.294C254.858 205.323 255.362 206.59 256.006 208.112C257.144 210.788 257.191 210.882 257.434 210.882C257.583 210.882 257.695 210.854 257.695 210.807C257.695 210.769 257.172 209.511 256.547 208.018C255.511 205.567 255.371 205.294 255.166 205.266C255.035 205.247 254.914 205.266 254.886 205.294Z" fill="white"/>
<path d="M262.725 205.294C262.697 205.323 263.201 206.59 263.845 208.112C264.993 210.816 265.021 210.882 265.282 210.882C265.488 210.882 265.534 210.844 265.497 210.713C265.469 210.628 264.946 209.37 264.34 207.924C263.341 205.557 263.211 205.294 263.005 205.266C262.875 205.247 262.753 205.266 262.725 205.294Z" fill="white"/>
<path d="M294.092 205.351C294.092 205.407 294.493 206.412 294.988 207.586C295.483 208.75 295.996 209.971 296.136 210.29C296.35 210.807 296.406 210.882 296.64 210.882C296.78 210.882 296.892 210.844 296.892 210.797C296.892 210.75 296.378 209.492 295.744 208.008C294.671 205.473 294.577 205.294 294.344 205.266C294.195 205.247 294.092 205.285 294.092 205.351Z" fill="white"/>
<path d="M301.866 205.36C301.885 205.426 302.286 206.365 302.753 207.454C303.21 208.534 303.723 209.755 303.891 210.149C304.162 210.825 304.208 210.882 304.46 210.882C304.61 210.882 304.731 210.863 304.731 210.835C304.731 210.807 304.311 209.802 303.807 208.6C303.303 207.398 302.781 206.168 302.65 205.858C302.435 205.351 302.389 205.294 302.118 205.266C301.894 205.238 301.829 205.266 301.866 205.36Z" fill="white"/>
<path d="M313.597 205.285C313.597 205.323 315.66 210.215 315.837 210.619C315.93 210.816 316.023 210.882 316.238 210.882C316.415 210.882 316.49 210.844 316.462 210.76C316.443 210.703 315.902 209.436 315.277 207.943C314.157 205.313 314.12 205.247 313.858 205.247C313.718 205.247 313.597 205.266 313.597 205.285Z" fill="white"/>
<path d="M317.601 205.294C317.573 205.323 318.077 206.59 318.721 208.112C319.859 210.778 319.906 210.882 320.158 210.882C320.298 210.882 320.41 210.854 320.41 210.807C320.41 210.769 319.887 209.511 319.262 208.018C318.226 205.548 318.095 205.294 317.881 205.266C317.75 205.247 317.629 205.266 317.601 205.294Z" fill="white"/>
<path d="M325.375 205.323C325.393 205.36 325.925 206.628 326.569 208.14C327.708 210.807 327.745 210.882 327.997 210.882C328.23 210.882 328.249 210.854 328.193 210.675C328.137 210.487 326.364 206.243 326.056 205.548C325.944 205.304 325.869 205.247 325.627 205.247C325.468 205.247 325.356 205.285 325.375 205.323Z" fill="white"/>
<path d="M337.199 205.294C337.171 205.323 337.675 206.59 338.319 208.112C339.448 210.778 339.504 210.882 339.756 210.882C339.896 210.882 340.008 210.854 340.008 210.807C340.008 210.769 339.821 210.3 339.588 209.755C339.364 209.21 338.842 207.99 338.44 207.032C337.796 205.492 337.684 205.294 337.479 205.266C337.348 205.247 337.227 205.266 337.199 205.294Z" fill="white"/>
<path d="M344.982 205.36C345.01 205.426 345.402 206.365 345.869 207.454C346.326 208.534 346.84 209.755 347.008 210.149C347.278 210.825 347.325 210.882 347.577 210.882C347.726 210.882 347.847 210.863 347.847 210.844C347.847 210.797 346.13 206.703 345.729 205.783C345.514 205.304 345.458 205.247 345.216 205.247C345.029 205.247 344.954 205.285 344.982 205.36Z" fill="white"/>
<path d="M356.713 205.285C356.713 205.313 357.497 207.201 358.58 209.755C359.056 210.882 359.056 210.882 359.355 210.882C359.532 210.882 359.607 210.844 359.579 210.76C359.551 210.703 359.019 209.436 358.384 207.943C357.273 205.313 357.236 205.247 356.975 205.247C356.835 205.247 356.713 205.266 356.713 205.285Z" fill="white"/>
<path d="M364.581 205.36C364.609 205.426 365.01 206.393 365.486 207.501C365.953 208.609 366.466 209.83 366.625 210.196C366.886 210.825 366.923 210.882 367.185 210.882C367.399 210.882 367.446 210.854 367.409 210.713C367.381 210.628 366.849 209.37 366.242 207.924C365.131 205.313 365.122 205.294 364.823 205.266C364.609 205.238 364.543 205.266 364.581 205.36Z" fill="white"/>
<path d="M376.349 205.398C376.377 205.482 376.909 206.75 377.534 208.215C378.645 210.835 378.664 210.882 378.934 210.882C379.084 210.882 379.205 210.872 379.205 210.854C379.205 210.835 378.804 209.877 378.309 208.722C377.824 207.558 377.292 206.299 377.133 205.924C376.872 205.304 376.825 205.247 376.573 205.247C376.349 205.247 376.302 205.285 376.349 205.398Z" fill="white"/>
<path d="M380.315 205.294C380.287 205.323 380.791 206.59 381.435 208.112C382.574 210.778 382.621 210.882 382.873 210.882C383.013 210.882 383.125 210.854 383.125 210.807C383.125 210.769 382.602 209.511 381.977 208.018C380.941 205.548 380.81 205.294 380.595 205.266C380.465 205.247 380.343 205.266 380.315 205.294Z" fill="white"/>
<path d="M392 205.323C392.018 205.37 392.56 206.637 393.194 208.149C394.324 210.816 394.361 210.882 394.613 210.882C394.762 210.882 394.884 210.854 394.884 210.825C394.884 210.788 394.716 210.375 394.51 209.905C394.314 209.436 393.792 208.205 393.353 207.173C392.578 205.332 392.56 205.294 392.27 205.266C392.102 205.247 391.981 205.276 392 205.323Z" fill="white"/>
<path d="M395.947 205.398C395.975 205.482 396.507 206.75 397.133 208.215C398.253 210.872 398.262 210.882 398.542 210.882C398.729 210.882 398.803 210.844 398.775 210.76C398.738 210.656 397.711 208.234 396.778 206.017C396.47 205.294 396.433 205.247 396.171 205.247C395.957 205.247 395.901 205.285 395.947 205.398Z" fill="white"/>
<path d="M403.777 205.36C403.805 205.426 404.347 206.694 404.972 208.177C406.083 210.807 406.129 210.882 406.381 210.882C406.521 210.882 406.643 210.863 406.643 210.835C406.643 210.797 406.185 209.689 405.625 208.365C405.065 207.041 404.543 205.792 404.468 205.595C404.337 205.294 404.281 205.247 404.02 205.247C403.824 205.247 403.749 205.285 403.777 205.36Z" fill="white"/>
<path d="M415.509 205.285C415.509 205.304 415.779 205.952 416.106 206.722C416.432 207.482 416.964 208.731 417.282 209.492C417.842 210.825 417.87 210.882 418.131 210.882C418.28 210.882 418.402 210.863 418.402 210.835C418.402 210.816 417.916 209.642 417.319 208.243C416.722 206.834 416.199 205.586 416.152 205.463C416.096 205.304 416.003 205.247 415.789 205.247C415.639 205.247 415.509 205.266 415.509 205.285Z" fill="white"/>
<path d="M423.348 205.313C423.348 205.36 423.871 206.609 424.505 208.112L425.662 210.835L425.961 210.863C426.185 210.891 426.25 210.863 426.213 210.769C426.185 210.703 425.644 209.436 425.018 207.943C423.908 205.323 423.861 205.247 423.609 205.247C423.469 205.247 423.348 205.276 423.348 205.313Z" fill="white"/>
<path d="M435.135 205.36C435.154 205.426 435.555 206.365 436.021 207.454C436.479 208.534 436.992 209.755 437.16 210.149C437.431 210.825 437.477 210.882 437.729 210.882C437.879 210.882 438 210.863 438 210.835C438 210.807 437.58 209.802 437.076 208.6C436.572 207.398 436.049 206.168 435.919 205.858C435.704 205.351 435.658 205.294 435.387 205.266C435.163 205.238 435.098 205.266 435.135 205.36Z" fill="white"/>
<path d="M222.903 211.323L222.931 211.586L226.832 211.605L230.724 211.633V211.07H222.875L222.903 211.323Z" fill="white"/>
<path d="M246.403 211.633L250.304 211.605L254.195 211.586L254.223 211.323L254.251 211.07H246.403V211.633Z" fill="white"/>
<path d="M266.001 211.633L293.392 211.586L293.42 211.323L293.448 211.07H266.001V211.633Z" fill="white"/>
<path d="M305.216 211.323L305.244 211.586H312.99L313.018 211.323L313.046 211.07H305.188L305.216 211.323Z" fill="white"/>
<path d="M328.734 211.323L328.762 211.586H336.508L336.536 211.323L336.564 211.07H328.706L328.734 211.323Z" fill="white"/>
<path d="M348.333 211.323L348.361 211.586H356.107L356.135 211.323L356.163 211.07H348.305L348.333 211.323Z" fill="white"/>
<path d="M367.912 211.633L371.814 211.614L375.705 211.586L375.733 211.323L375.761 211.07H367.912V211.633Z" fill="white"/>
<path d="M387.511 211.633L389.452 211.614L391.384 211.586L391.412 211.323L391.44 211.07H387.511V211.633Z" fill="white"/>
<path d="M407.109 211.633L411.01 211.614L414.902 211.586L414.93 211.323L414.958 211.07H407.109V211.633Z" fill="white"/>
<path d="M426.708 211.633L430.609 211.614L434.5 211.586L434.528 211.323L434.556 211.07H426.708V211.633Z" fill="white"/>
<path d="M220.645 219.991H221.205V212.854H220.645V219.991Z" fill="white"/>
<path d="M232.404 219.991H232.964V212.854H232.404V219.991Z" fill="white"/>
<path d="M244.163 219.991H244.723V212.854H244.163V219.991Z" fill="white"/>
<path d="M255.922 219.991H256.482V212.854H255.922V219.991Z" fill="white"/>
<path d="M263.761 219.991H264.321V212.854H263.761V219.991Z" fill="white"/>
<path d="M295.119 219.991H295.679V212.854H295.119V219.991Z" fill="white"/>
<path d="M302.958 219.991H303.518V212.854H302.958V219.991Z" fill="white"/>
<path d="M314.717 212.891C314.717 212.92 314.717 214.525 314.717 216.441L314.708 219.944L314.997 219.972L315.277 220L315.258 216.45L315.23 212.901L314.978 212.873C314.829 212.854 314.717 212.863 314.717 212.891Z" fill="white"/>
<path d="M326.476 219.991H327.036V212.854H326.476V219.991Z" fill="white"/>
<path d="M338.235 219.991H338.795V212.854H338.235V219.991Z" fill="white"/>
<path d="M346.074 219.991H346.634V212.854H346.074V219.991Z" fill="white"/>
<path d="M357.833 219.991H358.393L358.375 216.441L358.347 212.901L358.095 212.873L357.833 212.844V219.991Z" fill="white"/>
<path d="M365.673 219.991H366.233V212.854H365.673V219.991Z" fill="white"/>
<path d="M377.432 219.991H377.992V212.854H377.432V219.991Z" fill="white"/>
<path d="M385.271 219.991H385.831V212.854H385.271V219.991Z" fill="white"/>
<path d="M397.03 219.991H397.59V212.854H397.03V219.991Z" fill="white"/>
<path d="M404.869 219.991H405.429V212.854H404.869V219.991Z" fill="white"/>
<path d="M416.628 219.991H417.188V212.854H416.628V219.991Z" fill="white"/>
<path d="M424.44 212.91C424.402 212.948 424.374 214.563 424.374 216.488V220L424.654 219.972L424.944 219.944V212.901L424.72 212.873C424.608 212.854 424.477 212.873 424.44 212.91Z" fill="white"/>
<path d="M436.227 219.991H436.787V212.854H436.227V219.991Z" fill="white"/>
<path d="M215.978 214.563C216.174 215.042 216.482 215.774 216.66 216.187C216.837 216.601 217.182 217.427 217.425 218.019C217.957 219.286 217.985 219.333 218.284 219.333C218.48 219.333 218.498 219.305 218.442 219.117C218.396 218.948 216.949 215.483 216.352 214.093C216.202 213.755 216.137 213.699 215.894 213.699H215.614L215.978 214.563Z" fill="white"/>
<path d="M239.963 215.643C241.587 219.502 241.475 219.286 241.764 219.314C241.923 219.333 242.016 219.305 242.016 219.221C242.007 219.155 241.494 217.897 240.868 216.422C239.739 213.774 239.72 213.746 239.431 213.718L239.142 213.69L239.963 215.643Z" fill="white"/>
<path d="M258.796 213.868C258.834 213.962 259.366 215.23 259.981 216.685C261.064 219.239 261.111 219.333 261.353 219.333C261.503 219.333 261.615 219.305 261.615 219.258C261.615 219.221 261.092 217.962 260.467 216.469C259.319 213.746 259.319 213.746 259.02 213.718C258.759 213.69 258.731 213.708 258.796 213.868Z" fill="white"/>
<path d="M298.114 214.14C298.217 214.384 298.348 214.694 298.404 214.826C300.111 218.901 300.298 219.286 300.559 219.314C300.699 219.333 300.811 219.305 300.811 219.258C300.811 219.211 300.625 218.732 300.401 218.197C300.167 217.662 299.654 216.441 299.253 215.483C298.534 213.774 298.516 213.746 298.217 213.718L297.918 213.69L298.114 214.14Z" fill="white"/>
<path d="M321.847 214.657C323.228 217.972 323.713 219.108 323.797 219.211C323.891 219.343 324.329 219.38 324.329 219.258C324.329 219.221 323.807 217.962 323.182 216.469C322.034 213.765 322.034 213.746 321.735 213.718L321.436 213.69L321.847 214.657Z" fill="white"/>
<path d="M341.305 214.328C342.117 216.272 343.284 219.023 343.349 219.145C343.443 219.305 343.928 219.399 343.928 219.258C343.928 219.183 342.127 214.863 341.735 213.999C341.623 213.755 341.539 213.699 341.324 213.699H341.044L341.305 214.328Z" fill="white"/>
<path d="M360.866 214.234C360.997 214.535 361.529 215.793 362.061 217.033C362.957 219.145 363.032 219.286 363.274 219.314C363.433 219.333 363.526 219.305 363.517 219.221C363.517 219.155 363.004 217.897 362.369 216.422C361.24 213.746 361.23 213.746 360.932 213.718L360.633 213.69L360.866 214.234Z" fill="white"/>
<path d="M380.465 214.234C380.605 214.535 380.959 215.37 381.258 216.094C382.574 219.249 382.593 219.286 382.873 219.314C383.031 219.333 383.125 219.305 383.115 219.221C383.115 219.155 382.602 217.897 381.977 216.422L380.838 213.746L380.53 213.718L380.231 213.69L380.465 214.234Z" fill="white"/>
<path d="M399.858 213.812C399.877 213.877 400.418 215.145 401.043 216.629C402.172 219.314 402.191 219.333 402.462 219.333C402.676 219.333 402.732 219.296 402.686 219.192C402.658 219.108 402.126 217.84 401.5 216.375C400.38 213.718 400.362 213.699 400.091 213.699C399.905 213.699 399.821 213.737 399.858 213.812Z" fill="white"/>
<path d="M419.456 213.812C419.475 213.877 420.016 215.145 420.641 216.629C421.761 219.268 421.799 219.333 422.06 219.333C422.2 219.333 422.321 219.314 422.321 219.305C422.321 219.258 420.249 214.328 420.081 213.952C419.988 213.765 419.895 213.699 419.68 213.699C419.503 213.699 419.428 213.737 419.456 213.812Z" fill="white"/>
<path d="M222.922 219.512C222.903 219.53 222.885 219.653 222.885 219.775V219.991H230.724V219.756C230.724 219.624 230.696 219.521 230.659 219.521C228.96 219.493 222.95 219.484 222.922 219.512Z" fill="white"/>
<path d="M246.496 219.502C246.44 219.521 246.403 219.643 246.403 219.765V219.991H254.251L254.223 219.756L254.195 219.512L250.388 219.493C248.297 219.484 246.543 219.484 246.496 219.502Z" fill="white"/>
<path d="M266.094 219.502C266.048 219.521 266.001 219.643 266.001 219.765V219.991H293.448L293.42 219.756L293.392 219.512L279.794 219.493C272.31 219.484 266.15 219.484 266.094 219.502Z" fill="white"/>
<path d="M305.235 219.512C305.216 219.53 305.198 219.653 305.198 219.775V219.991H313.046L313.018 219.756L312.99 219.512L309.136 219.493C307.008 219.484 305.254 219.493 305.235 219.512Z" fill="white"/>
<path d="M328.753 219.512C328.734 219.53 328.716 219.653 328.716 219.775V219.991H336.555V219.756C336.555 219.624 336.527 219.521 336.49 219.521C334.791 219.493 328.781 219.484 328.753 219.512Z" fill="white"/>
<path d="M348.351 219.512C348.333 219.53 348.314 219.653 348.314 219.775V219.991H356.153V219.756C356.153 219.624 356.125 219.521 356.088 219.521C354.39 219.493 348.379 219.484 348.351 219.512Z" fill="white"/>
<path d="M367.95 219.512C367.931 219.53 367.912 219.653 367.912 219.775V219.991H375.752V219.756C375.752 219.624 375.724 219.521 375.687 219.521C373.988 219.493 367.978 219.484 367.95 219.512Z" fill="white"/>
<path d="M387.604 219.502C387.558 219.521 387.511 219.643 387.511 219.765V219.991H395.35V219.756C395.35 219.624 395.294 219.521 395.238 219.521C393.418 219.493 387.67 219.484 387.604 219.502Z" fill="white"/>
<path d="M407.203 219.502C407.147 219.521 407.109 219.643 407.109 219.765V219.991H414.949V219.756C414.949 219.624 414.921 219.521 414.883 219.521C413.231 219.493 407.268 219.484 407.203 219.502Z" fill="white"/>
<path d="M426.801 219.502C426.745 219.521 426.708 219.643 426.708 219.765V219.991H434.547V219.756C434.547 219.624 434.519 219.521 434.482 219.521C432.83 219.493 426.866 219.484 426.801 219.502Z" fill="white"/>
<rect x="210" y="237" width="232" height="29" stroke="#FE2B2B" stroke-width="2"/>
<rect x="233" y="241" width="15" height="21" fill="#FE2B2B" fill-opacity="0.3"/>
<rect x="252" y="241" width="15" height="21" fill="#FE2B2B" fill-opacity="0.3"/>
<rect x="271" y="241" width="15" height="21" fill="#FE2B2B" fill-opacity="0.3"/>
<rect x="290" y="241" width="15" height="21" fill="#FE2B2B" fill-opacity="0.3"/>
<rect x="214" y="241" width="15" height="21" fill="#FE2B2B"/>
<rect x="233" y="241" width="15" height="21" fill="#FE2B2B"/>
<rect x="252" y="241" width="15" height="21" fill="#FE2B2B"/>
<rect x="271" y="241" width="15" height="21" fill="#FE2B2B"/>
</g>
<defs>
<filter id="filter0_i_679_2083" x="28" y="0" width="598" height="468" filterUnits="userSpaceOnUse" color-interpolation-filters="sRGB">
<feFlood flood-opacity="0" result="BackgroundImageFix"/>
<feBlend mode="normal" in="SourceGraphic" in2="BackgroundImageFix" result="shape"/>
<feColorMatrix in="SourceAlpha" type="matrix" values="0 0 0 0 0 0 0 0 0 0 0 0 0 0 0 0 0 0 127 0" result="hardAlpha"/>
<feOffset dx="2" dy="4"/>
<feGaussianBlur stdDeviation="2"/>
<feComposite in2="hardAlpha" operator="arithmetic" k2="-1" k3="1"/>
<feColorMatrix type="matrix" values="0 0 0 0 1 0 0 0 0 1 0 0 0 0 1 0 0 0 0.07 0"/>
<feBlend mode="normal" in2="shape" result="effect1_innerShadow_679_2083"/>
</filter>
<filter id="filter1_i_679_2083" x="60" y="27" width="533" height="409" filterUnits="userSpaceOnUse" color-interpolation-filters="sRGB">
<feFlood flood-opacity="0" result="BackgroundImageFix"/>
<feBlend mode="normal" in="SourceGraphic" in2="BackgroundImageFix" result="shape"/>
<feColorMatrix in="SourceAlpha" type="matrix" values="0 0 0 0 0 0 0 0 0 0 0 0 0 0 0 0 0 0 127 0" result="hardAlpha"/>
<feOffset/>
<feGaussianBlur stdDeviation="25.25"/>
<feComposite in2="hardAlpha" operator="arithmetic" k2="-1" k3="1"/>
<feColorMatrix type="matrix" values="0 0 0 0 0 0 0 0 0 0 0 0 0 0 0 0 0 0 1 0"/>
<feBlend mode="normal" in2="shape" result="effect1_innerShadow_679_2083"/>
</filter>
<filter id="filter2_f_679_2083" x="78" y="55" width="482" height="353" filterUnits="userSpaceOnUse" color-interpolation-filters="sRGB">
<feFlood flood-opacity="0" result="BackgroundImageFix"/>
<feBlend mode="normal" in="SourceGraphic" in2="BackgroundImageFix" result="shape"/>
<feGaussianBlur stdDeviation="13" result="effect1_foregroundBlur_679_2083"/>
</filter>
<linearGradient id="paint0_linear_679_2083" x1="326" y1="81" x2="326" y2="463.5" gradientUnits="userSpaceOnUse">
<stop stop-color="#080808" stop-opacity="0"/>
<stop offset="1" stop-color="#080808"/>
</linearGradient>
<clipPath id="clip0_679_2083">
<rect width="652" height="491" fill="white"/>
</clipPath>
</defs>
</svg>
