<svg width="64" height="64" viewBox="0 0 64 64" fill="none" xmlns="http://www.w3.org/2000/svg">
<g clip-path="url(#clip0_679_1095)">
<path d="M64 0H0V64H64V0Z" stroke="#FE2B2B" stroke-width="0.00064"/>
<path d="M32 8.26699C39.0667 10.267 46.8 12.667 50.6667 14.0003V34.9337C50.6667 39.467 45.7333 47.467 32 55.467C18.2667 47.3337 13.3333 39.467 13.3333 34.9337V14.0003C17.2 12.5337 24.9333 10.267 32 8.26699ZM32 2.66699C32 2.66699 8 9.46699 8 10.667V34.9337C8 47.2003 25.7333 58.0003 30.6667 60.9337C31.0613 61.1974 31.5253 61.3381 32 61.3381C32.4747 61.3381 32.9387 61.1974 33.3333 60.9337C38.4 58.1337 56 47.2003 56 34.9337V10.667C56 9.46699 32 2.66699 32 2.66699Z" fill="#FE2B2B" stroke="#FE2B2B" stroke-width="0.00064"/>
<path d="M26.1332 39.1999L19.4665 32.6666C19.0046 32.1944 18.7244 31.5741 18.6756 30.9153C18.6268 30.2565 18.8125 29.6017 19.1999 29.0666C19.4157 28.7453 19.7023 28.4776 20.0376 28.2843C20.373 28.091 20.7482 27.9771 21.1344 27.9513C21.5206 27.9256 21.9076 27.9887 22.2657 28.1358C22.6237 28.2829 22.9433 28.5101 23.1999 28.7999L27.9999 33.5999L40.7999 20.7999C41.3134 20.4148 41.9486 20.2278 42.5889 20.2733C43.2292 20.3188 43.8316 20.5938 44.2855 21.0477C44.7394 21.5016 45.0143 22.1039 45.0598 22.7442C45.1053 23.3845 44.9184 24.0197 44.5332 24.5333L29.8665 39.1999C29.6292 39.4586 29.3408 39.6651 29.0194 39.8064C28.6981 39.9476 28.3509 40.0206 27.9999 40.0206C27.6489 40.0206 27.3017 39.9476 26.9803 39.8064C26.659 39.6651 26.3705 39.4586 26.1332 39.1999Z" fill="#FE2B2B" stroke="#FE2B2B" stroke-width="0.00064"/>
</g>
<defs>
<clipPath id="clip0_679_1095">
<rect width="64" height="64" fill="white"/>
</clipPath>
</defs>
</svg>
