<svg width="345" height="442" viewBox="0 0 345 442" fill="none" xmlns="http://www.w3.org/2000/svg">
<rect width="345" height="442" rx="22" fill="url(#paint0_linear_456_26)"/>
<rect x="32" y="32" width="66" height="25" rx="12.5" fill="#515151"/>
<path d="M51.5544 47.5V42.1H52.8384V47.5H51.5544ZM49.4304 45.4V44.2H54.9624V45.4H49.4304ZM59.0405 49.12C58.4485 49.12 57.8685 49.036 57.3005 48.868C56.7405 48.692 56.2685 48.452 55.8845 48.148L56.5445 46.936C56.8485 47.184 57.2165 47.384 57.6485 47.536C58.0885 47.688 58.5445 47.764 59.0165 47.764C59.5685 47.764 60.0005 47.648 60.3125 47.416C60.6325 47.184 60.7925 46.872 60.7925 46.48C60.7925 46.216 60.7245 45.984 60.5885 45.784C60.4605 45.584 60.2285 45.432 59.8925 45.328C59.5645 45.224 59.1125 45.172 58.5365 45.172H56.5085L56.9405 40.6H61.8725V41.908H57.5165L58.3325 41.164L58.0085 44.584L57.1925 43.852H58.8845C59.7165 43.852 60.3845 43.964 60.8885 44.188C61.4005 44.404 61.7725 44.708 62.0045 45.1C62.2445 45.484 62.3645 45.924 62.3645 46.42C62.3645 46.908 62.2445 47.356 62.0045 47.764C61.7645 48.172 61.3965 48.5 60.9005 48.748C60.4125 48.996 59.7925 49.12 59.0405 49.12ZM66.9003 49.12C66.1403 49.12 65.4883 48.96 64.9443 48.64C64.4003 48.312 63.9843 47.84 63.6963 47.224C63.4083 46.608 63.2643 45.848 63.2643 44.944C63.2643 43.984 63.4363 43.172 63.7803 42.508C64.1323 41.844 64.6163 41.34 65.2323 40.996C65.8563 40.652 66.5723 40.48 67.3803 40.48C67.8043 40.48 68.2083 40.524 68.5923 40.612C68.9843 40.7 69.3163 40.836 69.5883 41.02L69.0123 42.196C68.7803 42.044 68.5283 41.94 68.2563 41.884C67.9923 41.82 67.7123 41.788 67.4163 41.788C66.6243 41.788 65.9963 42.032 65.5323 42.52C65.0683 43.008 64.8363 43.728 64.8363 44.68C64.8363 44.832 64.8403 45.012 64.8483 45.22C64.8563 45.42 64.8843 45.624 64.9323 45.832L64.4523 45.304C64.5963 44.976 64.7923 44.704 65.0403 44.488C65.2963 44.264 65.5963 44.096 65.9403 43.984C66.2923 43.872 66.6723 43.816 67.0803 43.816C67.6323 43.816 68.1243 43.924 68.5563 44.14C68.9883 44.348 69.3323 44.648 69.5883 45.04C69.8443 45.424 69.9723 45.876 69.9723 46.396C69.9723 46.948 69.8363 47.428 69.5643 47.836C69.2923 48.244 68.9243 48.56 68.4603 48.784C67.9963 49.008 67.4763 49.12 66.9003 49.12ZM66.8163 47.896C67.1363 47.896 67.4203 47.84 67.6683 47.728C67.9163 47.608 68.1083 47.44 68.2443 47.224C68.3883 47.008 68.4603 46.756 68.4603 46.468C68.4603 46.028 68.3083 45.68 68.0043 45.424C67.7003 45.168 67.2923 45.04 66.7803 45.04C66.4443 45.04 66.1483 45.104 65.8923 45.232C65.6443 45.352 65.4443 45.52 65.2923 45.736C65.1483 45.952 65.0763 46.2 65.0763 46.48C65.0763 46.736 65.1443 46.972 65.2803 47.188C65.4163 47.404 65.6123 47.576 65.8683 47.704C66.1323 47.832 66.4483 47.896 66.8163 47.896ZM71.7294 49L77.4654 40.6H78.6414L72.9054 49H71.7294ZM72.4254 45.124C72.0334 45.124 71.6854 45.028 71.3814 44.836C71.0774 44.644 70.8414 44.376 70.6734 44.032C70.5054 43.688 70.4214 43.284 70.4214 42.82C70.4214 42.356 70.5054 41.952 70.6734 41.608C70.8414 41.264 71.0774 40.996 71.3814 40.804C71.6854 40.612 72.0334 40.516 72.4254 40.516C72.8334 40.516 73.1854 40.612 73.4814 40.804C73.7854 40.996 74.0214 41.264 74.1894 41.608C74.3574 41.952 74.4414 42.356 74.4414 42.82C74.4414 43.284 74.3574 43.688 74.1894 44.032C74.0214 44.376 73.7854 44.644 73.4814 44.836C73.1854 45.028 72.8334 45.124 72.4254 45.124ZM72.4374 44.284C72.7574 44.284 73.0054 44.16 73.1814 43.912C73.3654 43.656 73.4574 43.292 73.4574 42.82C73.4574 42.348 73.3654 41.988 73.1814 41.74C73.0054 41.484 72.7574 41.356 72.4374 41.356C72.1174 41.356 71.8614 41.484 71.6694 41.74C71.4854 41.996 71.3934 42.356 71.3934 42.82C71.3934 43.284 71.4854 43.644 71.6694 43.9C71.8614 44.156 72.1174 44.284 72.4374 44.284ZM77.9334 49.084C77.5414 49.084 77.1934 48.988 76.8894 48.796C76.5854 48.604 76.3494 48.336 76.1814 47.992C76.0134 47.648 75.9294 47.244 75.9294 46.78C75.9294 46.316 76.0134 45.912 76.1814 45.568C76.3494 45.224 76.5854 44.956 76.8894 44.764C77.1934 44.572 77.5414 44.476 77.9334 44.476C78.3414 44.476 78.6934 44.572 78.9894 44.764C79.2934 44.956 79.5294 45.224 79.6974 45.568C79.8654 45.912 79.9494 46.316 79.9494 46.78C79.9494 47.244 79.8654 47.648 79.6974 47.992C79.5294 48.336 79.2934 48.604 78.9894 48.796C78.6934 48.988 78.3414 49.084 77.9334 49.084ZM77.9334 48.244C78.2534 48.244 78.5054 48.116 78.6894 47.86C78.8734 47.604 78.9654 47.244 78.9654 46.78C78.9654 46.316 78.8734 45.956 78.6894 45.7C78.5054 45.444 78.2534 45.316 77.9334 45.316C77.6214 45.316 77.3694 45.444 77.1774 45.7C76.9934 45.948 76.9014 46.308 76.9014 46.78C76.9014 47.252 76.9934 47.616 77.1774 47.872C77.3694 48.12 77.6214 48.244 77.9334 48.244Z" fill="white"/>
<path d="M36.704 127.448H45.344V129.488H36.704V127.448ZM36.92 134.912H46.712V137H34.52V120.2H46.376V122.288H36.92V134.912ZM66.1741 124.16C67.1981 124.16 68.1021 124.36 68.8861 124.76C69.6701 125.16 70.2781 125.768 70.7101 126.584C71.1581 127.4 71.3821 128.432 71.3821 129.68V137H69.0781V129.944C69.0781 128.712 68.7901 127.784 68.2141 127.16C67.6381 126.536 66.8301 126.224 65.7901 126.224C65.0221 126.224 64.3501 126.384 63.7741 126.704C63.1981 127.024 62.7501 127.496 62.4301 128.12C62.1261 128.744 61.9741 129.52 61.9741 130.448V137H59.6701V129.944C59.6701 128.712 59.3821 127.784 58.8061 127.16C58.2461 126.536 57.4381 126.224 56.3821 126.224C55.6301 126.224 54.9661 126.384 54.3901 126.704C53.8141 127.024 53.3661 127.496 53.0461 128.12C52.7261 128.744 52.5661 129.52 52.5661 130.448V137H50.2621V124.28H52.4701V127.664L52.1101 126.8C52.5101 125.968 53.1261 125.32 53.9581 124.856C54.7901 124.392 55.7581 124.16 56.8621 124.16C58.0781 124.16 59.1261 124.464 60.0061 125.072C60.8861 125.664 61.4621 126.568 61.7341 127.784L60.7981 127.4C61.1821 126.424 61.8541 125.64 62.8141 125.048C63.7741 124.456 64.8941 124.16 66.1741 124.16ZM82.3655 137.144C81.3095 137.144 80.3415 136.904 79.4615 136.424C78.5975 135.928 77.9015 135.2 77.3735 134.24C76.8615 133.28 76.6055 132.08 76.6055 130.64C76.6055 129.2 76.8535 128 77.3495 127.04C77.8615 126.08 78.5495 125.36 79.4135 124.88C80.2935 124.4 81.2775 124.16 82.3655 124.16C83.6135 124.16 84.7175 124.432 85.6775 124.976C86.6375 125.52 87.3975 126.28 87.9575 127.256C88.5175 128.216 88.7975 129.344 88.7975 130.64C88.7975 131.936 88.5175 133.072 87.9575 134.048C87.3975 135.024 86.6375 135.784 85.6775 136.328C84.7175 136.872 83.6135 137.144 82.3655 137.144ZM75.6215 141.656V124.28H77.8295V127.712L77.6855 130.664L77.9255 133.616V141.656H75.6215ZM82.1735 135.128C82.9895 135.128 83.7175 134.944 84.3575 134.576C85.0135 134.208 85.5255 133.688 85.8935 133.016C86.2775 132.328 86.4695 131.536 86.4695 130.64C86.4695 129.728 86.2775 128.944 85.8935 128.288C85.5255 127.616 85.0135 127.096 84.3575 126.728C83.7175 126.36 82.9895 126.176 82.1735 126.176C81.3735 126.176 80.6455 126.36 79.9895 126.728C79.3495 127.096 78.8375 127.616 78.4535 128.288C78.0855 128.944 77.9015 129.728 77.9015 130.64C77.9015 131.536 78.0855 132.328 78.4535 133.016C78.8375 133.688 79.3495 134.208 79.9895 134.576C80.6455 134.944 81.3735 135.128 82.1735 135.128ZM97.4289 137.144C96.1489 137.144 95.0129 136.864 94.0209 136.304C93.0289 135.744 92.2449 134.976 91.6689 134C91.0929 133.008 90.8049 131.888 90.8049 130.64C90.8049 129.376 91.0929 128.256 91.6689 127.28C92.2449 126.304 93.0289 125.544 94.0209 125C95.0129 124.44 96.1489 124.16 97.4289 124.16C98.6929 124.16 99.8209 124.44 100.813 125C101.821 125.544 102.605 126.304 103.165 127.28C103.741 128.24 104.029 129.36 104.029 130.64C104.029 131.904 103.741 133.024 103.165 134C102.605 134.976 101.821 135.744 100.813 136.304C99.8209 136.864 98.6929 137.144 97.4289 137.144ZM97.4289 135.128C98.2449 135.128 98.9729 134.944 99.6129 134.576C100.269 134.208 100.781 133.688 101.149 133.016C101.517 132.328 101.701 131.536 101.701 130.64C101.701 129.728 101.517 128.944 101.149 128.288C100.781 127.616 100.269 127.096 99.6129 126.728C98.9729 126.36 98.2449 126.176 97.4289 126.176C96.6129 126.176 95.8849 126.36 95.2449 126.728C94.6049 127.096 94.0929 127.616 93.7089 128.288C93.3249 128.944 93.1329 129.728 93.1329 130.64C93.1329 131.536 93.3249 132.328 93.7089 133.016C94.0929 133.688 94.6049 134.208 95.2449 134.576C95.8849 134.944 96.6129 135.128 97.4289 135.128ZM109.552 137L104.824 124.28H107.008L111.208 135.8H110.176L114.544 124.28H116.488L120.76 135.8H119.752L124.048 124.28H126.112L121.36 137H119.152L115.144 126.488H115.816L111.76 137H109.552ZM133.762 137.144C132.402 137.144 131.202 136.864 130.162 136.304C129.138 135.744 128.338 134.976 127.762 134C127.202 133.024 126.922 131.904 126.922 130.64C126.922 129.376 127.194 128.256 127.738 127.28C128.298 126.304 129.058 125.544 130.018 125C130.994 124.44 132.09 124.16 133.306 124.16C134.538 124.16 135.626 124.432 136.57 124.976C137.514 125.52 138.25 126.288 138.778 127.28C139.322 128.256 139.594 129.4 139.594 130.712C139.594 130.808 139.586 130.92 139.57 131.048C139.57 131.176 139.562 131.296 139.546 131.408H128.722V129.752H138.346L137.41 130.328C137.426 129.512 137.258 128.784 136.906 128.144C136.554 127.504 136.066 127.008 135.442 126.656C134.834 126.288 134.122 126.104 133.306 126.104C132.506 126.104 131.794 126.288 131.17 126.656C130.546 127.008 130.058 127.512 129.706 128.168C129.354 128.808 129.178 129.544 129.178 130.376V130.76C129.178 131.608 129.37 132.368 129.754 133.04C130.154 133.696 130.706 134.208 131.41 134.576C132.114 134.944 132.922 135.128 133.834 135.128C134.586 135.128 135.266 135 135.874 134.744C136.498 134.488 137.042 134.104 137.506 133.592L138.778 135.08C138.202 135.752 137.482 136.264 136.618 136.616C135.77 136.968 134.818 137.144 133.762 137.144ZM142.793 137V124.28H145.001V127.736L144.785 126.872C145.137 125.992 145.729 125.32 146.561 124.856C147.393 124.392 148.417 124.16 149.633 124.16V126.392C149.537 126.376 149.441 126.368 149.345 126.368C149.265 126.368 149.185 126.368 149.105 126.368C147.873 126.368 146.897 126.736 146.177 127.472C145.457 128.208 145.097 129.272 145.097 130.664V137H142.793ZM152.473 137V124.28H154.777V137H152.473ZM153.625 121.832C153.177 121.832 152.801 121.688 152.497 121.4C152.209 121.112 152.065 120.76 152.065 120.344C152.065 119.912 152.209 119.552 152.497 119.264C152.801 118.976 153.177 118.832 153.625 118.832C154.073 118.832 154.441 118.976 154.729 119.264C155.033 119.536 155.185 119.88 155.185 120.296C155.185 120.728 155.041 121.096 154.753 121.4C154.465 121.688 154.089 121.832 153.625 121.832ZM165.968 124.16C167.008 124.16 167.92 124.36 168.704 124.76C169.504 125.16 170.128 125.768 170.576 126.584C171.024 127.4 171.248 128.432 171.248 129.68V137H168.944V129.944C168.944 128.712 168.64 127.784 168.032 127.16C167.44 126.536 166.6 126.224 165.512 126.224C164.696 126.224 163.984 126.384 163.376 126.704C162.768 127.024 162.296 127.496 161.96 128.12C161.64 128.744 161.48 129.52 161.48 130.448V137H159.176V124.28H161.384V127.712L161.024 126.8C161.44 125.968 162.08 125.32 162.944 124.856C163.808 124.392 164.816 124.16 165.968 124.16ZM181.08 141.8C179.912 141.8 178.776 141.632 177.672 141.296C176.584 140.976 175.696 140.512 175.008 139.904L176.112 138.128C176.704 138.64 177.432 139.04 178.296 139.328C179.16 139.632 180.064 139.784 181.008 139.784C182.512 139.784 183.616 139.432 184.32 138.728C185.024 138.024 185.376 136.952 185.376 135.512V132.824L185.616 130.304L185.496 127.76V124.28H187.68V135.272C187.68 137.512 187.12 139.16 186 140.216C184.88 141.272 183.24 141.8 181.08 141.8ZM180.792 136.472C179.56 136.472 178.456 136.216 177.48 135.704C176.52 135.176 175.752 134.448 175.176 133.52C174.616 132.592 174.336 131.52 174.336 130.304C174.336 129.072 174.616 128 175.176 127.088C175.752 126.16 176.52 125.44 177.48 124.928C178.456 124.416 179.56 124.16 180.792 124.16C181.88 124.16 182.872 124.384 183.768 124.832C184.664 125.264 185.376 125.936 185.904 126.848C186.448 127.76 186.72 128.912 186.72 130.304C186.72 131.68 186.448 132.824 185.904 133.736C185.376 134.648 184.664 135.336 183.768 135.8C182.872 136.248 181.88 136.472 180.792 136.472ZM181.056 134.456C181.904 134.456 182.656 134.28 183.312 133.928C183.968 133.576 184.48 133.088 184.848 132.464C185.232 131.84 185.424 131.12 185.424 130.304C185.424 129.488 185.232 128.768 184.848 128.144C184.48 127.52 183.968 127.04 183.312 126.704C182.656 126.352 181.904 126.176 181.056 126.176C180.208 126.176 179.448 126.352 178.776 126.704C178.12 127.04 177.6 127.52 177.216 128.144C176.848 128.768 176.664 129.488 176.664 130.304C176.664 131.12 176.848 131.84 177.216 132.464C177.6 133.088 178.12 133.576 178.776 133.928C179.448 134.28 180.208 134.456 181.056 134.456ZM206.448 137.192C205.168 137.192 203.976 136.976 202.872 136.544C201.784 136.112 200.84 135.512 200.04 134.744C199.24 133.96 198.616 133.048 198.168 132.008C197.72 130.968 197.496 129.832 197.496 128.6C197.496 127.368 197.72 126.232 198.168 125.192C198.616 124.152 199.24 123.248 200.04 122.48C200.84 121.696 201.784 121.088 202.872 120.656C203.96 120.224 205.152 120.008 206.448 120.008C207.728 120.008 208.904 120.224 209.976 120.656C211.064 121.072 212.008 121.672 212.808 122.456C213.624 123.224 214.248 124.128 214.68 125.168C215.128 126.208 215.352 127.352 215.352 128.6C215.352 129.848 215.128 130.992 214.68 132.032C214.248 133.072 213.624 133.984 212.808 134.768C212.008 135.536 211.064 136.136 209.976 136.568C208.904 136.984 207.728 137.192 206.448 137.192ZM206.448 135.056C207.376 135.056 208.232 134.896 209.016 134.576C209.816 134.256 210.504 133.808 211.08 133.232C211.672 132.64 212.128 131.952 212.448 131.168C212.784 130.384 212.952 129.528 212.952 128.6C212.952 127.672 212.784 126.816 212.448 126.032C212.128 125.248 211.672 124.568 211.08 123.992C210.504 123.4 209.816 122.944 209.016 122.624C208.232 122.304 207.376 122.144 206.448 122.144C205.504 122.144 204.632 122.304 203.832 122.624C203.048 122.944 202.36 123.4 201.768 123.992C201.176 124.568 200.712 125.248 200.376 126.032C200.056 126.816 199.896 127.672 199.896 128.6C199.896 129.528 200.056 130.384 200.376 131.168C200.712 131.952 201.176 132.64 201.768 133.232C202.36 133.808 203.048 134.256 203.832 134.576C204.632 134.896 205.504 135.056 206.448 135.056ZM224.036 137.144C222.948 137.144 221.988 136.944 221.156 136.544C220.34 136.144 219.7 135.536 219.236 134.72C218.788 133.888 218.564 132.848 218.564 131.6V124.28H220.868V131.336C220.868 132.584 221.164 133.52 221.756 134.144C222.364 134.768 223.212 135.08 224.3 135.08C225.1 135.08 225.796 134.92 226.388 134.6C226.98 134.264 227.436 133.784 227.756 133.16C228.076 132.52 228.236 131.752 228.236 130.856V124.28H230.54V137H228.356V133.568L228.716 134.48C228.3 135.328 227.676 135.984 226.844 136.448C226.012 136.912 225.076 137.144 224.036 137.144ZM234.926 137V124.28H237.134V127.736L236.918 126.872C237.27 125.992 237.862 125.32 238.694 124.856C239.526 124.392 240.55 124.16 241.766 124.16V126.392C241.67 126.376 241.574 126.368 241.478 126.368C241.398 126.368 241.318 126.368 241.238 126.368C240.006 126.368 239.03 126.736 238.31 127.472C237.59 128.208 237.23 129.272 237.23 130.664V137H234.926ZM42.032 166.192C40.752 166.192 39.568 165.984 38.48 165.568C37.408 165.136 36.472 164.536 35.672 163.768C34.888 162.984 34.272 162.072 33.824 161.032C33.376 159.992 33.152 158.848 33.152 157.6C33.152 156.352 33.376 155.208 33.824 154.168C34.272 153.128 34.896 152.224 35.696 151.456C36.496 150.672 37.432 150.072 38.504 149.656C39.592 149.224 40.776 149.008 42.056 149.008C43.352 149.008 44.544 149.232 45.632 149.68C46.736 150.112 47.672 150.76 48.44 151.624L46.88 153.136C46.24 152.464 45.52 151.968 44.72 151.648C43.92 151.312 43.064 151.144 42.152 151.144C41.208 151.144 40.328 151.304 39.512 151.624C38.712 151.944 38.016 152.392 37.424 152.968C36.832 153.544 36.368 154.232 36.032 155.032C35.712 155.816 35.552 156.672 35.552 157.6C35.552 158.528 35.712 159.392 36.032 160.192C36.368 160.976 36.832 161.656 37.424 162.232C38.016 162.808 38.712 163.256 39.512 163.576C40.328 163.896 41.208 164.056 42.152 164.056C43.064 164.056 43.92 163.896 44.72 163.576C45.52 163.24 46.24 162.728 46.88 162.04L48.44 163.552C47.672 164.416 46.736 165.072 45.632 165.52C44.544 165.968 43.344 166.192 42.032 166.192ZM51.5278 166V148.192H53.8318V166H51.5278ZM58.2309 166V153.28H60.5349V166H58.2309ZM59.3829 150.832C58.9349 150.832 58.5589 150.688 58.2549 150.4C57.9669 150.112 57.8229 149.76 57.8229 149.344C57.8229 148.912 57.9669 148.552 58.2549 148.264C58.5589 147.976 58.9349 147.832 59.3829 147.832C59.8309 147.832 60.1989 147.976 60.4869 148.264C60.7909 148.536 60.9429 148.88 60.9429 149.296C60.9429 149.728 60.7989 150.096 60.5109 150.4C60.2229 150.688 59.8469 150.832 59.3829 150.832ZM70.598 166.144C69.238 166.144 68.038 165.864 66.998 165.304C65.974 164.744 65.174 163.976 64.598 163C64.038 162.024 63.758 160.904 63.758 159.64C63.758 158.376 64.03 157.256 64.574 156.28C65.134 155.304 65.894 154.544 66.854 154C67.83 153.44 68.926 153.16 70.142 153.16C71.374 153.16 72.462 153.432 73.406 153.976C74.35 154.52 75.086 155.288 75.614 156.28C76.158 157.256 76.43 158.4 76.43 159.712C76.43 159.808 76.422 159.92 76.406 160.048C76.406 160.176 76.398 160.296 76.382 160.408H65.558V158.752H75.182L74.246 159.328C74.262 158.512 74.094 157.784 73.742 157.144C73.39 156.504 72.902 156.008 72.278 155.656C71.67 155.288 70.958 155.104 70.142 155.104C69.342 155.104 68.63 155.288 68.006 155.656C67.382 156.008 66.894 156.512 66.542 157.168C66.19 157.808 66.014 158.544 66.014 159.376V159.76C66.014 160.608 66.206 161.368 66.59 162.04C66.99 162.696 67.542 163.208 68.246 163.576C68.95 163.944 69.758 164.128 70.67 164.128C71.422 164.128 72.102 164 72.71 163.744C73.334 163.488 73.878 163.104 74.342 162.592L75.614 164.08C75.038 164.752 74.318 165.264 73.454 165.616C72.606 165.968 71.654 166.144 70.598 166.144ZM86.4213 153.16C87.4613 153.16 88.3733 153.36 89.1573 153.76C89.9573 154.16 90.5813 154.768 91.0293 155.584C91.4773 156.4 91.7013 157.432 91.7013 158.68V166H89.3973V158.944C89.3973 157.712 89.0933 156.784 88.4853 156.16C87.8933 155.536 87.0533 155.224 85.9653 155.224C85.1493 155.224 84.4373 155.384 83.8293 155.704C83.2213 156.024 82.7493 156.496 82.4133 157.12C82.0933 157.744 81.9333 158.52 81.9333 159.448V166H79.6293V153.28H81.8373V156.712L81.4773 155.8C81.8933 154.968 82.5333 154.32 83.3973 153.856C84.2613 153.392 85.2693 153.16 86.4213 153.16ZM100.333 166.144C99.0533 166.144 98.0613 165.8 97.3573 165.112C96.6533 164.424 96.3013 163.44 96.3013 162.16V150.496H98.6053V162.064C98.6053 162.752 98.7733 163.28 99.1093 163.648C99.4613 164.016 99.9573 164.2 100.597 164.2C101.317 164.2 101.917 164 102.397 163.6L103.117 165.256C102.765 165.56 102.341 165.784 101.845 165.928C101.365 166.072 100.861 166.144 100.333 166.144ZM94.1413 155.176V153.28H102.253V155.176H94.1413ZM109.551 166.144C108.495 166.144 107.487 166 106.527 165.712C105.583 165.424 104.839 165.072 104.295 164.656L105.255 162.832C105.799 163.2 106.471 163.512 107.271 163.768C108.071 164.024 108.887 164.152 109.719 164.152C110.791 164.152 111.559 164 112.023 163.696C112.503 163.392 112.743 162.968 112.743 162.424C112.743 162.024 112.599 161.712 112.311 161.488C112.023 161.264 111.639 161.096 111.159 160.984C110.695 160.872 110.175 160.776 109.599 160.696C109.023 160.6 108.447 160.488 107.871 160.36C107.295 160.216 106.767 160.024 106.287 159.784C105.807 159.528 105.423 159.184 105.135 158.752C104.847 158.304 104.703 157.712 104.703 156.976C104.703 156.208 104.919 155.536 105.351 154.96C105.783 154.384 106.391 153.944 107.175 153.64C107.975 153.32 108.919 153.16 110.007 153.16C110.839 153.16 111.679 153.264 112.527 153.472C113.391 153.664 114.095 153.944 114.639 154.312L113.655 156.136C113.079 155.752 112.479 155.488 111.855 155.344C111.231 155.2 110.607 155.128 109.983 155.128C108.975 155.128 108.223 155.296 107.727 155.632C107.231 155.952 106.983 156.368 106.983 156.88C106.983 157.312 107.127 157.648 107.415 157.888C107.719 158.112 108.103 158.288 108.567 158.416C109.047 158.544 109.575 158.656 110.151 158.752C110.727 158.832 111.303 158.944 111.879 159.088C112.455 159.216 112.975 159.4 113.439 159.64C113.919 159.88 114.303 160.216 114.591 160.648C114.895 161.08 115.047 161.656 115.047 162.376C115.047 163.144 114.823 163.808 114.375 164.368C113.927 164.928 113.295 165.368 112.479 165.688C111.663 165.992 110.687 166.144 109.551 166.144ZM127.06 166L122.332 153.28H124.516L128.716 164.8H127.684L132.052 153.28H133.996L138.268 164.8H137.26L141.556 153.28H143.62L138.868 166H136.66L132.652 155.488H133.324L129.268 166H127.06ZM145.957 166V153.28H148.261V166H145.957ZM147.109 150.832C146.661 150.832 146.285 150.688 145.981 150.4C145.693 150.112 145.549 149.76 145.549 149.344C145.549 148.912 145.693 148.552 145.981 148.264C146.285 147.976 146.661 147.832 147.109 147.832C147.557 147.832 147.925 147.976 148.213 148.264C148.517 148.536 148.669 148.88 148.669 149.296C148.669 149.728 148.525 150.096 148.237 150.4C147.949 150.688 147.573 150.832 147.109 150.832ZM157.029 166.144C155.749 166.144 154.757 165.8 154.053 165.112C153.349 164.424 152.997 163.44 152.997 162.16V150.496H155.301V162.064C155.301 162.752 155.469 163.28 155.805 163.648C156.157 164.016 156.653 164.2 157.293 164.2C158.013 164.2 158.613 164 159.093 163.6L159.813 165.256C159.461 165.56 159.037 165.784 158.541 165.928C158.061 166.072 157.557 166.144 157.029 166.144ZM150.837 155.176V153.28H158.949V155.176H150.837ZM169.39 153.16C170.43 153.16 171.342 153.36 172.126 153.76C172.926 154.16 173.55 154.768 173.998 155.584C174.446 156.4 174.67 157.432 174.67 158.68V166H172.366V158.944C172.366 157.712 172.062 156.784 171.454 156.16C170.862 155.536 170.022 155.224 168.934 155.224C168.118 155.224 167.406 155.384 166.798 155.704C166.19 156.024 165.718 156.496 165.382 157.12C165.062 157.744 164.902 158.52 164.902 159.448V166H162.598V148.192H164.902V156.712L164.446 155.8C164.862 154.968 165.502 154.32 166.366 153.856C167.23 153.392 168.238 153.16 169.39 153.16ZM187.899 156.448H196.539V158.488H187.899V156.448ZM188.115 163.912H197.907V166H185.715V149.2H197.571V151.288H188.115V163.912ZM201.457 166V148.192H203.761V166H201.457ZM213.825 166.144C212.465 166.144 211.265 165.864 210.225 165.304C209.201 164.744 208.401 163.976 207.825 163C207.265 162.024 206.985 160.904 206.985 159.64C206.985 158.376 207.257 157.256 207.801 156.28C208.361 155.304 209.121 154.544 210.081 154C211.057 153.44 212.153 153.16 213.369 153.16C214.601 153.16 215.689 153.432 216.633 153.976C217.577 154.52 218.313 155.288 218.841 156.28C219.385 157.256 219.657 158.4 219.657 159.712C219.657 159.808 219.649 159.92 219.633 160.048C219.633 160.176 219.625 160.296 219.609 160.408H208.785V158.752H218.409L217.473 159.328C217.489 158.512 217.321 157.784 216.969 157.144C216.617 156.504 216.129 156.008 215.505 155.656C214.897 155.288 214.185 155.104 213.369 155.104C212.569 155.104 211.857 155.288 211.233 155.656C210.609 156.008 210.121 156.512 209.769 157.168C209.417 157.808 209.241 158.544 209.241 159.376V159.76C209.241 160.608 209.433 161.368 209.817 162.04C210.217 162.696 210.769 163.208 211.473 163.576C212.177 163.944 212.985 164.128 213.897 164.128C214.649 164.128 215.329 164 215.937 163.744C216.561 163.488 217.105 163.104 217.569 162.592L218.841 164.08C218.265 164.752 217.545 165.264 216.681 165.616C215.833 165.968 214.881 166.144 213.825 166.144ZM225.958 166L220.389 153.28H222.79L227.734 164.8H226.582L231.622 153.28H233.878L228.31 166H225.958ZM243.525 166V163.312L243.405 162.808V158.224C243.405 157.248 243.117 156.496 242.541 155.968C241.981 155.424 241.133 155.152 239.997 155.152C239.245 155.152 238.509 155.28 237.789 155.536C237.069 155.776 236.461 156.104 235.965 156.52L235.005 154.792C235.661 154.264 236.445 153.864 237.357 153.592C238.285 153.304 239.253 153.16 240.261 153.16C242.005 153.16 243.349 153.584 244.293 154.432C245.237 155.28 245.709 156.576 245.709 158.32V166H243.525ZM239.349 166.144C238.405 166.144 237.573 165.984 236.853 165.664C236.149 165.344 235.605 164.904 235.221 164.344C234.837 163.768 234.645 163.12 234.645 162.4C234.645 161.712 234.805 161.088 235.125 160.528C235.461 159.968 235.997 159.52 236.733 159.184C237.485 158.848 238.493 158.68 239.757 158.68H243.789V160.336H239.853C238.701 160.336 237.925 160.528 237.525 160.912C237.125 161.296 236.925 161.76 236.925 162.304C236.925 162.928 237.173 163.432 237.669 163.816C238.165 164.184 238.853 164.368 239.733 164.368C240.597 164.368 241.349 164.176 241.989 163.792C242.645 163.408 243.117 162.848 243.405 162.112L243.861 163.696C243.557 164.448 243.021 165.048 242.253 165.496C241.485 165.928 240.517 166.144 239.349 166.144ZM254.341 166.144C253.061 166.144 252.069 165.8 251.365 165.112C250.661 164.424 250.309 163.44 250.309 162.16V150.496H252.613V162.064C252.613 162.752 252.781 163.28 253.117 163.648C253.469 164.016 253.965 164.2 254.605 164.2C255.325 164.2 255.925 164 256.405 163.6L257.125 165.256C256.773 165.56 256.349 165.784 255.853 165.928C255.373 166.072 254.869 166.144 254.341 166.144ZM248.149 155.176V153.28H256.261V155.176H248.149ZM265.153 166.144C263.793 166.144 262.593 165.864 261.553 165.304C260.529 164.744 259.729 163.976 259.153 163C258.593 162.024 258.313 160.904 258.313 159.64C258.313 158.376 258.585 157.256 259.129 156.28C259.689 155.304 260.449 154.544 261.409 154C262.385 153.44 263.481 153.16 264.697 153.16C265.929 153.16 267.017 153.432 267.961 153.976C268.905 154.52 269.641 155.288 270.169 156.28C270.713 157.256 270.985 158.4 270.985 159.712C270.985 159.808 270.977 159.92 270.961 160.048C270.961 160.176 270.953 160.296 270.937 160.408H260.113V158.752H269.737L268.801 159.328C268.817 158.512 268.649 157.784 268.297 157.144C267.945 156.504 267.457 156.008 266.833 155.656C266.225 155.288 265.513 155.104 264.697 155.104C263.897 155.104 263.185 155.288 262.561 155.656C261.937 156.008 261.449 156.512 261.097 157.168C260.745 157.808 260.569 158.544 260.569 159.376V159.76C260.569 160.608 260.761 161.368 261.145 162.04C261.545 162.696 262.097 163.208 262.801 163.576C263.505 163.944 264.313 164.128 265.225 164.128C265.977 164.128 266.657 164 267.265 163.744C267.889 163.488 268.433 163.104 268.897 162.592L270.169 164.08C269.593 164.752 268.873 165.264 268.009 165.616C267.161 165.968 266.209 166.144 265.153 166.144ZM279.44 166.144C278.208 166.144 277.104 165.872 276.128 165.328C275.168 164.784 274.408 164.024 273.848 163.048C273.288 162.072 273.008 160.936 273.008 159.64C273.008 158.344 273.288 157.216 273.848 156.256C274.408 155.28 275.168 154.52 276.128 153.976C277.104 153.432 278.208 153.16 279.44 153.16C280.512 153.16 281.48 153.4 282.344 153.88C283.208 154.36 283.896 155.08 284.408 156.04C284.936 157 285.2 158.2 285.2 159.64C285.2 161.08 284.944 162.28 284.432 163.24C283.936 164.2 283.256 164.928 282.392 165.424C281.528 165.904 280.544 166.144 279.44 166.144ZM279.632 164.128C280.432 164.128 281.152 163.944 281.792 163.576C282.448 163.208 282.96 162.688 283.328 162.016C283.712 161.328 283.904 160.536 283.904 159.64C283.904 158.728 283.712 157.944 283.328 157.288C282.96 156.616 282.448 156.096 281.792 155.728C281.152 155.36 280.432 155.176 279.632 155.176C278.816 155.176 278.088 155.36 277.448 155.728C276.808 156.096 276.296 156.616 275.912 157.288C275.528 157.944 275.336 158.728 275.336 159.64C275.336 160.536 275.528 161.328 275.912 162.016C276.296 162.688 276.808 163.208 277.448 163.576C278.088 163.944 278.816 164.128 279.632 164.128ZM283.976 166V162.568L284.12 159.616L283.88 156.664V148.192H286.184V166H283.976ZM36.68 186.144H45.344V188.208H36.68V186.144ZM36.92 195H34.52V178.2H46.376V180.288H36.92V195ZM49.4184 195V182.28H51.7224V195H49.4184ZM50.5704 179.832C50.1224 179.832 49.7464 179.688 49.4424 179.4C49.1544 179.112 49.0104 178.76 49.0104 178.344C49.0104 177.912 49.1544 177.552 49.4424 177.264C49.7464 176.976 50.1224 176.832 50.5704 176.832C51.0184 176.832 51.3864 176.976 51.6744 177.264C51.9784 177.536 52.1304 177.88 52.1304 178.296C52.1304 178.728 51.9864 179.096 51.6984 179.4C51.4104 179.688 51.0344 179.832 50.5704 179.832ZM62.9135 182.16C63.9535 182.16 64.8655 182.36 65.6495 182.76C66.4495 183.16 67.0735 183.768 67.5215 184.584C67.9695 185.4 68.1935 186.432 68.1935 187.68V195H65.8895V187.944C65.8895 186.712 65.5855 185.784 64.9775 185.16C64.3855 184.536 63.5455 184.224 62.4575 184.224C61.6415 184.224 60.9295 184.384 60.3215 184.704C59.7135 185.024 59.2415 185.496 58.9055 186.12C58.5855 186.744 58.4255 187.52 58.4255 188.448V195H56.1215V182.28H58.3295V185.712L57.9695 184.8C58.3855 183.968 59.0255 183.32 59.8895 182.856C60.7535 182.392 61.7615 182.16 62.9135 182.16ZM80.3534 195V192.312L80.2334 191.808V187.224C80.2334 186.248 79.9454 185.496 79.3694 184.968C78.8094 184.424 77.9614 184.152 76.8254 184.152C76.0734 184.152 75.3374 184.28 74.6174 184.536C73.8974 184.776 73.2894 185.104 72.7934 185.52L71.8334 183.792C72.4894 183.264 73.2734 182.864 74.1854 182.592C75.1134 182.304 76.0814 182.16 77.0894 182.16C78.8334 182.16 80.1774 182.584 81.1214 183.432C82.0654 184.28 82.5374 185.576 82.5374 187.32V195H80.3534ZM76.1774 195.144C75.2334 195.144 74.4014 194.984 73.6814 194.664C72.9774 194.344 72.4334 193.904 72.0494 193.344C71.6654 192.768 71.4734 192.12 71.4734 191.4C71.4734 190.712 71.6334 190.088 71.9534 189.528C72.2894 188.968 72.8254 188.52 73.5614 188.184C74.3134 187.848 75.3214 187.68 76.5854 187.68H80.6174V189.336H76.6814C75.5294 189.336 74.7534 189.528 74.3534 189.912C73.9534 190.296 73.7534 190.76 73.7534 191.304C73.7534 191.928 74.0014 192.432 74.4974 192.816C74.9934 193.184 75.6814 193.368 76.5614 193.368C77.4254 193.368 78.1774 193.176 78.8174 192.792C79.4734 192.408 79.9454 191.848 80.2334 191.112L80.6894 192.696C80.3854 193.448 79.8494 194.048 79.0814 194.496C78.3134 194.928 77.3454 195.144 76.1774 195.144ZM92.3452 195.144C91.0492 195.144 89.8892 194.864 88.8652 194.304C87.8572 193.744 87.0652 192.976 86.4892 192C85.9132 191.024 85.6252 189.904 85.6252 188.64C85.6252 187.376 85.9132 186.256 86.4892 185.28C87.0652 184.304 87.8572 183.544 88.8652 183C89.8892 182.44 91.0492 182.16 92.3452 182.16C93.4972 182.16 94.5212 182.392 95.4172 182.856C96.3292 183.304 97.0332 183.976 97.5292 184.872L95.7772 186C95.3612 185.376 94.8492 184.92 94.2412 184.632C93.6492 184.328 93.0092 184.176 92.3212 184.176C91.4892 184.176 90.7452 184.36 90.0892 184.728C89.4332 185.096 88.9132 185.616 88.5292 186.288C88.1452 186.944 87.9532 187.728 87.9532 188.64C87.9532 189.552 88.1452 190.344 88.5292 191.016C88.9132 191.688 89.4332 192.208 90.0892 192.576C90.7452 192.944 91.4892 193.128 92.3212 193.128C93.0092 193.128 93.6492 192.984 94.2412 192.696C94.8492 192.392 95.3612 191.928 95.7772 191.304L97.5292 192.408C97.0332 193.288 96.3292 193.968 95.4172 194.448C94.5212 194.912 93.4972 195.144 92.3452 195.144ZM100.348 195V182.28H102.652V195H100.348ZM101.5 179.832C101.052 179.832 100.676 179.688 100.372 179.4C100.084 179.112 99.9401 178.76 99.9401 178.344C99.9401 177.912 100.084 177.552 100.372 177.264C100.676 176.976 101.052 176.832 101.5 176.832C101.948 176.832 102.316 176.976 102.604 177.264C102.908 177.536 103.06 177.88 103.06 178.296C103.06 178.728 102.916 179.096 102.628 179.4C102.34 179.688 101.964 179.832 101.5 179.832ZM114.947 195V192.312L114.827 191.808V187.224C114.827 186.248 114.539 185.496 113.963 184.968C113.403 184.424 112.555 184.152 111.419 184.152C110.667 184.152 109.931 184.28 109.211 184.536C108.491 184.776 107.883 185.104 107.387 185.52L106.427 183.792C107.083 183.264 107.867 182.864 108.779 182.592C109.707 182.304 110.675 182.16 111.683 182.16C113.427 182.16 114.771 182.584 115.715 183.432C116.659 184.28 117.131 185.576 117.131 187.32V195H114.947ZM110.771 195.144C109.827 195.144 108.995 194.984 108.275 194.664C107.571 194.344 107.027 193.904 106.643 193.344C106.259 192.768 106.067 192.12 106.067 191.4C106.067 190.712 106.227 190.088 106.547 189.528C106.883 188.968 107.419 188.52 108.155 188.184C108.907 187.848 109.915 187.68 111.179 187.68H115.211V189.336H111.275C110.123 189.336 109.347 189.528 108.947 189.912C108.547 190.296 108.347 190.76 108.347 191.304C108.347 191.928 108.595 192.432 109.091 192.816C109.587 193.184 110.275 193.368 111.155 193.368C112.019 193.368 112.771 193.176 113.411 192.792C114.067 192.408 114.539 191.848 114.827 191.112L115.283 192.696C114.979 193.448 114.443 194.048 113.675 194.496C112.907 194.928 111.939 195.144 110.771 195.144ZM121.395 195V177.192H123.699V195H121.395ZM139.775 195.192C138.495 195.192 137.271 195 136.103 194.616C134.935 194.216 134.015 193.704 133.343 193.08L134.231 191.208C134.871 191.768 135.687 192.232 136.679 192.6C137.671 192.968 138.703 193.152 139.775 193.152C140.751 193.152 141.543 193.04 142.151 192.816C142.759 192.592 143.207 192.288 143.495 191.904C143.783 191.504 143.927 191.056 143.927 190.56C143.927 189.984 143.735 189.52 143.351 189.168C142.983 188.816 142.495 188.536 141.887 188.328C141.295 188.104 140.639 187.912 139.919 187.752C139.199 187.592 138.471 187.408 137.735 187.2C137.015 186.976 136.351 186.696 135.743 186.36C135.151 186.024 134.671 185.576 134.303 185.016C133.935 184.44 133.751 183.704 133.751 182.808C133.751 181.944 133.975 181.152 134.423 180.432C134.887 179.696 135.591 179.112 136.535 178.68C137.495 178.232 138.711 178.008 140.183 178.008C141.159 178.008 142.127 178.136 143.087 178.392C144.047 178.648 144.879 179.016 145.583 179.496L144.791 181.416C144.071 180.936 143.311 180.592 142.511 180.384C141.711 180.16 140.935 180.048 140.183 180.048C139.239 180.048 138.463 180.168 137.855 180.408C137.247 180.648 136.799 180.968 136.511 181.368C136.239 181.768 136.103 182.216 136.103 182.712C136.103 183.304 136.287 183.776 136.655 184.128C137.039 184.48 137.527 184.76 138.119 184.968C138.727 185.176 139.391 185.368 140.111 185.544C140.831 185.704 141.551 185.888 142.271 186.096C143.007 186.304 143.671 186.576 144.263 186.912C144.871 187.248 145.359 187.696 145.727 188.256C146.095 188.816 146.279 189.536 146.279 190.416C146.279 191.264 146.047 192.056 145.583 192.792C145.119 193.512 144.399 194.096 143.423 194.544C142.463 194.976 141.247 195.192 139.775 195.192ZM153.818 195.144C152.538 195.144 151.546 194.8 150.842 194.112C150.138 193.424 149.786 192.44 149.786 191.16V179.496H152.09V191.064C152.09 191.752 152.258 192.28 152.594 192.648C152.946 193.016 153.442 193.2 154.082 193.2C154.802 193.2 155.402 193 155.882 192.6L156.602 194.256C156.25 194.56 155.826 194.784 155.33 194.928C154.85 195.072 154.346 195.144 153.818 195.144ZM147.626 184.176V182.28H155.738V184.176H147.626ZM167.283 195V192.312L167.163 191.808V187.224C167.163 186.248 166.875 185.496 166.299 184.968C165.739 184.424 164.891 184.152 163.755 184.152C163.003 184.152 162.267 184.28 161.547 184.536C160.827 184.776 160.219 185.104 159.723 185.52L158.763 183.792C159.419 183.264 160.203 182.864 161.115 182.592C162.043 182.304 163.011 182.16 164.019 182.16C165.763 182.16 167.107 182.584 168.051 183.432C168.995 184.28 169.467 185.576 169.467 187.32V195H167.283ZM163.107 195.144C162.163 195.144 161.331 194.984 160.611 194.664C159.907 194.344 159.363 193.904 158.979 193.344C158.595 192.768 158.403 192.12 158.403 191.4C158.403 190.712 158.563 190.088 158.883 189.528C159.219 188.968 159.755 188.52 160.491 188.184C161.243 187.848 162.251 187.68 163.515 187.68H167.547V189.336H163.611C162.459 189.336 161.683 189.528 161.283 189.912C160.883 190.296 160.683 190.76 160.683 191.304C160.683 191.928 160.931 192.432 161.427 192.816C161.923 193.184 162.611 193.368 163.491 193.368C164.355 193.368 165.107 193.176 165.747 192.792C166.403 192.408 166.875 191.848 167.163 191.112L167.619 192.696C167.315 193.448 166.779 194.048 166.011 194.496C165.243 194.928 164.275 195.144 163.107 195.144ZM180.523 182.16C181.563 182.16 182.475 182.36 183.259 182.76C184.059 183.16 184.683 183.768 185.131 184.584C185.579 185.4 185.803 186.432 185.803 187.68V195H183.499V187.944C183.499 186.712 183.195 185.784 182.587 185.16C181.995 184.536 181.155 184.224 180.067 184.224C179.251 184.224 178.539 184.384 177.931 184.704C177.323 185.024 176.851 185.496 176.515 186.12C176.195 186.744 176.035 187.52 176.035 188.448V195H173.731V182.28H175.939V185.712L175.579 184.8C175.995 183.968 176.635 183.32 177.499 182.856C178.363 182.392 179.371 182.16 180.523 182.16ZM195.323 195.144C194.091 195.144 192.987 194.872 192.011 194.328C191.051 193.784 190.291 193.024 189.731 192.048C189.171 191.072 188.891 189.936 188.891 188.64C188.891 187.344 189.171 186.216 189.731 185.256C190.291 184.28 191.051 183.52 192.011 182.976C192.987 182.432 194.091 182.16 195.323 182.16C196.395 182.16 197.363 182.4 198.227 182.88C199.091 183.36 199.779 184.08 200.291 185.04C200.819 186 201.083 187.2 201.083 188.64C201.083 190.08 200.827 191.28 200.315 192.24C199.819 193.2 199.139 193.928 198.275 194.424C197.411 194.904 196.427 195.144 195.323 195.144ZM195.515 193.128C196.315 193.128 197.035 192.944 197.675 192.576C198.331 192.208 198.843 191.688 199.211 191.016C199.595 190.328 199.787 189.536 199.787 188.64C199.787 187.728 199.595 186.944 199.211 186.288C198.843 185.616 198.331 185.096 197.675 184.728C197.035 184.36 196.315 184.176 195.515 184.176C194.699 184.176 193.971 184.36 193.331 184.728C192.691 185.096 192.179 185.616 191.795 186.288C191.411 186.944 191.219 187.728 191.219 188.64C191.219 189.536 191.411 190.328 191.795 191.016C192.179 191.688 192.691 192.208 193.331 192.576C193.971 192.944 194.699 193.128 195.515 193.128ZM199.859 195V191.568L200.003 188.616L199.763 185.664V177.192H202.067V195H199.859ZM214.322 195V192.312L214.202 191.808V187.224C214.202 186.248 213.914 185.496 213.338 184.968C212.778 184.424 211.93 184.152 210.794 184.152C210.042 184.152 209.306 184.28 208.586 184.536C207.866 184.776 207.258 185.104 206.762 185.52L205.802 183.792C206.458 183.264 207.242 182.864 208.154 182.592C209.082 182.304 210.05 182.16 211.058 182.16C212.802 182.16 214.146 182.584 215.09 183.432C216.034 184.28 216.506 185.576 216.506 187.32V195H214.322ZM210.146 195.144C209.202 195.144 208.37 194.984 207.65 194.664C206.946 194.344 206.402 193.904 206.018 193.344C205.634 192.768 205.442 192.12 205.442 191.4C205.442 190.712 205.602 190.088 205.922 189.528C206.258 188.968 206.794 188.52 207.53 188.184C208.282 187.848 209.29 187.68 210.554 187.68H214.586V189.336H210.65C209.498 189.336 208.722 189.528 208.322 189.912C207.922 190.296 207.722 190.76 207.722 191.304C207.722 191.928 207.97 192.432 208.466 192.816C208.962 193.184 209.65 193.368 210.53 193.368C211.394 193.368 212.146 193.176 212.786 192.792C213.442 192.408 213.914 191.848 214.202 191.112L214.658 192.696C214.354 193.448 213.818 194.048 213.05 194.496C212.282 194.928 211.314 195.144 210.146 195.144ZM220.77 195V182.28H222.978V185.736L222.762 184.872C223.114 183.992 223.706 183.32 224.538 182.856C225.37 182.392 226.394 182.16 227.61 182.16V184.392C227.514 184.376 227.418 184.368 227.322 184.368C227.242 184.368 227.162 184.368 227.082 184.368C225.85 184.368 224.874 184.736 224.154 185.472C223.434 186.208 223.074 187.272 223.074 188.664V195H220.77ZM235.588 195.144C234.356 195.144 233.252 194.872 232.276 194.328C231.316 193.784 230.556 193.024 229.996 192.048C229.436 191.072 229.156 189.936 229.156 188.64C229.156 187.344 229.436 186.216 229.996 185.256C230.556 184.28 231.316 183.52 232.276 182.976C233.252 182.432 234.356 182.16 235.588 182.16C236.66 182.16 237.628 182.4 238.492 182.88C239.356 183.36 240.044 184.08 240.556 185.04C241.084 186 241.348 187.2 241.348 188.64C241.348 190.08 241.092 191.28 240.58 192.24C240.084 193.2 239.404 193.928 238.54 194.424C237.676 194.904 236.692 195.144 235.588 195.144ZM235.78 193.128C236.58 193.128 237.3 192.944 237.94 192.576C238.596 192.208 239.108 191.688 239.476 191.016C239.86 190.328 240.052 189.536 240.052 188.64C240.052 187.728 239.86 186.944 239.476 186.288C239.108 185.616 238.596 185.096 237.94 184.728C237.3 184.36 236.58 184.176 235.78 184.176C234.964 184.176 234.236 184.36 233.596 184.728C232.956 185.096 232.444 185.616 232.06 186.288C231.676 186.944 231.484 187.728 231.484 188.64C231.484 189.536 231.676 190.328 232.06 191.016C232.444 191.688 232.956 192.208 233.596 192.576C234.236 192.944 234.964 193.128 235.78 193.128ZM240.124 195V191.568L240.268 188.616L240.028 185.664V177.192H242.332V195H240.124ZM250.34 195.144C249.284 195.144 248.276 195 247.316 194.712C246.372 194.424 245.628 194.072 245.084 193.656L246.044 191.832C246.588 192.2 247.26 192.512 248.06 192.768C248.86 193.024 249.676 193.152 250.508 193.152C251.58 193.152 252.348 193 252.812 192.696C253.292 192.392 253.532 191.968 253.532 191.424C253.532 191.024 253.388 190.712 253.1 190.488C252.812 190.264 252.428 190.096 251.948 189.984C251.484 189.872 250.964 189.776 250.388 189.696C249.812 189.6 249.236 189.488 248.66 189.36C248.084 189.216 247.556 189.024 247.076 188.784C246.596 188.528 246.212 188.184 245.924 187.752C245.636 187.304 245.492 186.712 245.492 185.976C245.492 185.208 245.708 184.536 246.14 183.96C246.572 183.384 247.18 182.944 247.964 182.64C248.764 182.32 249.708 182.16 250.796 182.16C251.628 182.16 252.468 182.264 253.316 182.472C254.18 182.664 254.884 182.944 255.428 183.312L254.444 185.136C253.868 184.752 253.268 184.488 252.644 184.344C252.02 184.2 251.396 184.128 250.772 184.128C249.764 184.128 249.012 184.296 248.516 184.632C248.02 184.952 247.772 185.368 247.772 185.88C247.772 186.312 247.916 186.648 248.204 186.888C248.508 187.112 248.892 187.288 249.356 187.416C249.836 187.544 250.364 187.656 250.94 187.752C251.516 187.832 252.092 187.944 252.668 188.088C253.244 188.216 253.764 188.4 254.228 188.64C254.708 188.88 255.092 189.216 255.38 189.648C255.684 190.08 255.836 190.656 255.836 191.376C255.836 192.144 255.612 192.808 255.164 193.368C254.716 193.928 254.084 194.368 253.268 194.688C252.452 194.992 251.476 195.144 250.34 195.144Z" fill="white"/>
<path d="M33.47 408V398.2H37.6C38.6453 398.2 39.5647 398.405 40.358 398.816C41.1607 399.227 41.7813 399.801 42.22 400.538C42.668 401.275 42.892 402.129 42.892 403.1C42.892 404.071 42.668 404.925 42.22 405.662C41.7813 406.399 41.1607 406.973 40.358 407.384C39.5647 407.795 38.6453 408 37.6 408H33.47ZM34.87 406.782H37.516C38.328 406.782 39.028 406.628 39.616 406.32C40.2133 406.012 40.6753 405.583 41.002 405.032C41.3287 404.472 41.492 403.828 41.492 403.1C41.492 402.363 41.3287 401.719 41.002 401.168C40.6753 400.617 40.2133 400.188 39.616 399.88C39.028 399.572 38.328 399.418 37.516 399.418H34.87V406.782ZM44.8404 408V400.58H46.1284V402.596L46.0024 402.092C46.2077 401.579 46.5531 401.187 47.0384 400.916C47.5237 400.645 48.1211 400.51 48.8304 400.51V401.812C48.7744 401.803 48.7184 401.798 48.6624 401.798C48.6157 401.798 48.5691 401.798 48.5224 401.798C47.8037 401.798 47.2344 402.013 46.8144 402.442C46.3944 402.871 46.1844 403.492 46.1844 404.304V408H44.8404ZM50.4869 408V400.58H51.8309V408H50.4869ZM51.1589 399.152C50.8976 399.152 50.6782 399.068 50.5009 398.9C50.3329 398.732 50.2489 398.527 50.2489 398.284C50.2489 398.032 50.3329 397.822 50.5009 397.654C50.6782 397.486 50.8976 397.402 51.1589 397.402C51.4202 397.402 51.6349 397.486 51.8029 397.654C51.9802 397.813 52.0689 398.013 52.0689 398.256C52.0689 398.508 51.9849 398.723 51.8169 398.9C51.6489 399.068 51.4296 399.152 51.1589 399.152ZM56.343 408L53.095 400.58H54.495L57.379 407.3H56.707L59.647 400.58H60.963L57.715 408H56.343ZM62.2174 408V400.58H63.5614V408H62.2174ZM62.8894 399.152C62.628 399.152 62.4087 399.068 62.2314 398.9C62.0634 398.732 61.9794 398.527 61.9794 398.284C61.9794 398.032 62.0634 397.822 62.2314 397.654C62.4087 397.486 62.628 397.402 62.8894 397.402C63.1507 397.402 63.3654 397.486 63.5334 397.654C63.7107 397.813 63.7994 398.013 63.7994 398.256C63.7994 398.508 63.7154 398.723 63.5474 398.9C63.3794 399.068 63.16 399.152 62.8894 399.152ZM70.0895 400.51C70.6962 400.51 71.2282 400.627 71.6855 400.86C72.1522 401.093 72.5162 401.448 72.7775 401.924C73.0388 402.4 73.1695 403.002 73.1695 403.73V408H71.8255V403.884C71.8255 403.165 71.6482 402.624 71.2935 402.26C70.9482 401.896 70.4582 401.714 69.8235 401.714C69.3475 401.714 68.9322 401.807 68.5775 401.994C68.2228 402.181 67.9475 402.456 67.7515 402.82C67.5648 403.184 67.4715 403.637 67.4715 404.178V408H66.1275V400.58H67.4155V402.582L67.2055 402.05C67.4482 401.565 67.8215 401.187 68.3255 400.916C68.8295 400.645 69.4175 400.51 70.0895 400.51ZM78.9048 410.8C78.2235 410.8 77.5608 410.702 76.9168 410.506C76.2821 410.319 75.7641 410.049 75.3628 409.694L76.0068 408.658C76.3521 408.957 76.7768 409.19 77.2808 409.358C77.7848 409.535 78.3121 409.624 78.8628 409.624C79.7401 409.624 80.3841 409.419 80.7948 409.008C81.2055 408.597 81.4108 407.972 81.4108 407.132V405.564L81.5508 404.094L81.4808 402.61V400.58H82.7548V406.992C82.7548 408.299 82.4281 409.26 81.7748 409.876C81.1215 410.492 80.1648 410.8 78.9048 410.8ZM78.7368 407.692C78.0181 407.692 77.3741 407.543 76.8048 407.244C76.2448 406.936 75.7968 406.511 75.4608 405.97C75.1341 405.429 74.9708 404.803 74.9708 404.094C74.9708 403.375 75.1341 402.75 75.4608 402.218C75.7968 401.677 76.2448 401.257 76.8048 400.958C77.3741 400.659 78.0181 400.51 78.7368 400.51C79.3715 400.51 79.9501 400.641 80.4728 400.902C80.9955 401.154 81.4108 401.546 81.7188 402.078C82.0361 402.61 82.1948 403.282 82.1948 404.094C82.1948 404.897 82.0361 405.564 81.7188 406.096C81.4108 406.628 80.9955 407.029 80.4728 407.3C79.9501 407.561 79.3715 407.692 78.7368 407.692ZM78.8908 406.516C79.3855 406.516 79.8241 406.413 80.2068 406.208C80.5895 406.003 80.8881 405.718 81.1028 405.354C81.3268 404.99 81.4388 404.57 81.4388 404.094C81.4388 403.618 81.3268 403.198 81.1028 402.834C80.8881 402.47 80.5895 402.19 80.2068 401.994C79.8241 401.789 79.3855 401.686 78.8908 401.686C78.3961 401.686 77.9528 401.789 77.5608 401.994C77.1781 402.19 76.8748 402.47 76.6508 402.834C76.4361 403.198 76.3288 403.618 76.3288 404.094C76.3288 404.57 76.4361 404.99 76.6508 405.354C76.8748 405.718 77.1781 406.003 77.5608 406.208C77.9528 406.413 78.3961 406.516 78.8908 406.516ZM90.5386 402.834H95.5926V404.038H90.5386V402.834ZM90.6786 408H89.2786V398.2H96.1946V399.418H90.6786V408ZM97.9693 408V400.58H99.3133V408H97.9693ZM98.6413 399.152C98.38 399.152 98.1606 399.068 97.9833 398.9C97.8153 398.732 97.7313 398.527 97.7313 398.284C97.7313 398.032 97.8153 397.822 97.9833 397.654C98.1606 397.486 98.38 397.402 98.6413 397.402C98.9026 397.402 99.1173 397.486 99.2853 397.654C99.4626 397.813 99.5513 398.013 99.5513 398.256C99.5513 398.508 99.4673 398.723 99.2993 398.9C99.1313 399.068 98.912 399.152 98.6413 399.152ZM105.841 400.51C106.448 400.51 106.98 400.627 107.437 400.86C107.904 401.093 108.268 401.448 108.529 401.924C108.791 402.4 108.921 403.002 108.921 403.73V408H107.577V403.884C107.577 403.165 107.4 402.624 107.045 402.26C106.7 401.896 106.21 401.714 105.575 401.714C105.099 401.714 104.684 401.807 104.329 401.994C103.975 402.181 103.699 402.456 103.503 402.82C103.317 403.184 103.223 403.637 103.223 404.178V408H101.879V400.58H103.167V402.582L102.957 402.05C103.2 401.565 103.573 401.187 104.077 400.916C104.581 400.645 105.169 400.51 105.841 400.51ZM116.015 408V406.432L115.945 406.138V403.464C115.945 402.895 115.777 402.456 115.441 402.148C115.114 401.831 114.619 401.672 113.957 401.672C113.518 401.672 113.089 401.747 112.669 401.896C112.249 402.036 111.894 402.227 111.605 402.47L111.045 401.462C111.427 401.154 111.885 400.921 112.417 400.762C112.958 400.594 113.523 400.51 114.111 400.51C115.128 400.51 115.912 400.757 116.463 401.252C117.013 401.747 117.289 402.503 117.289 403.52V408H116.015ZM113.579 408.084C113.028 408.084 112.543 407.991 112.123 407.804C111.712 407.617 111.395 407.361 111.171 407.034C110.947 406.698 110.835 406.32 110.835 405.9C110.835 405.499 110.928 405.135 111.115 404.808C111.311 404.481 111.623 404.22 112.053 404.024C112.491 403.828 113.079 403.73 113.817 403.73H116.169V404.696H113.873C113.201 404.696 112.748 404.808 112.515 405.032C112.281 405.256 112.165 405.527 112.165 405.844C112.165 406.208 112.309 406.502 112.599 406.726C112.888 406.941 113.289 407.048 113.803 407.048C114.307 407.048 114.745 406.936 115.119 406.712C115.501 406.488 115.777 406.161 115.945 405.732L116.211 406.656C116.033 407.095 115.721 407.445 115.273 407.706C114.825 407.958 114.26 408.084 113.579 408.084ZM123.738 400.51C124.345 400.51 124.877 400.627 125.334 400.86C125.801 401.093 126.165 401.448 126.426 401.924C126.687 402.4 126.818 403.002 126.818 403.73V408H125.474V403.884C125.474 403.165 125.297 402.624 124.942 402.26C124.597 401.896 124.107 401.714 123.472 401.714C122.996 401.714 122.581 401.807 122.226 401.994C121.871 402.181 121.596 402.456 121.4 402.82C121.213 403.184 121.12 403.637 121.12 404.178V408H119.776V400.58H121.064V402.582L120.854 402.05C121.097 401.565 121.47 401.187 121.974 400.916C122.478 400.645 123.066 400.51 123.738 400.51ZM132.539 408.084C131.783 408.084 131.107 407.921 130.509 407.594C129.921 407.267 129.459 406.819 129.123 406.25C128.787 405.681 128.619 405.027 128.619 404.29C128.619 403.553 128.787 402.899 129.123 402.33C129.459 401.761 129.921 401.317 130.509 401C131.107 400.673 131.783 400.51 132.539 400.51C133.211 400.51 133.809 400.645 134.331 400.916C134.863 401.177 135.274 401.569 135.563 402.092L134.541 402.75C134.299 402.386 134 402.12 133.645 401.952C133.3 401.775 132.927 401.686 132.525 401.686C132.04 401.686 131.606 401.793 131.223 402.008C130.841 402.223 130.537 402.526 130.313 402.918C130.089 403.301 129.977 403.758 129.977 404.29C129.977 404.822 130.089 405.284 130.313 405.676C130.537 406.068 130.841 406.371 131.223 406.586C131.606 406.801 132.04 406.908 132.525 406.908C132.927 406.908 133.3 406.824 133.645 406.656C134 406.479 134.299 406.208 134.541 405.844L135.563 406.488C135.274 407.001 134.863 407.398 134.331 407.678C133.809 407.949 133.211 408.084 132.539 408.084ZM137.208 408V400.58H138.552V408H137.208ZM137.88 399.152C137.618 399.152 137.399 399.068 137.222 398.9C137.054 398.732 136.97 398.527 136.97 398.284C136.97 398.032 137.054 397.822 137.222 397.654C137.399 397.486 137.618 397.402 137.88 397.402C138.141 397.402 138.356 397.486 138.524 397.654C138.701 397.813 138.79 398.013 138.79 398.256C138.79 398.508 138.706 398.723 138.538 398.9C138.37 399.068 138.15 399.152 137.88 399.152ZM145.724 408V406.432L145.654 406.138V403.464C145.654 402.895 145.486 402.456 145.15 402.148C144.823 401.831 144.328 401.672 143.666 401.672C143.227 401.672 142.798 401.747 142.378 401.896C141.958 402.036 141.603 402.227 141.314 402.47L140.754 401.462C141.136 401.154 141.594 400.921 142.126 400.762C142.667 400.594 143.232 400.51 143.82 400.51C144.837 400.51 145.621 400.757 146.172 401.252C146.722 401.747 146.998 402.503 146.998 403.52V408H145.724ZM143.288 408.084C142.737 408.084 142.252 407.991 141.832 407.804C141.421 407.617 141.104 407.361 140.88 407.034C140.656 406.698 140.544 406.32 140.544 405.9C140.544 405.499 140.637 405.135 140.824 404.808C141.02 404.481 141.332 404.22 141.762 404.024C142.2 403.828 142.788 403.73 143.526 403.73H145.878V404.696H143.582C142.91 404.696 142.457 404.808 142.224 405.032C141.99 405.256 141.874 405.527 141.874 405.844C141.874 406.208 142.018 406.502 142.308 406.726C142.597 406.941 142.998 407.048 143.512 407.048C144.016 407.048 144.454 406.936 144.828 406.712C145.21 406.488 145.486 406.161 145.654 405.732L145.92 406.656C145.742 407.095 145.43 407.445 144.982 407.706C144.534 407.958 143.969 408.084 143.288 408.084ZM149.485 408V397.612H150.829V408H149.485ZM158.625 402.428H163.665V403.618H158.625V402.428ZM158.751 406.782H164.463V408H157.351V398.2H164.267V399.418H158.751V406.782ZM165.292 408L168.484 403.856L168.47 404.542L165.432 400.58H166.93L169.254 403.632H168.68L171.004 400.58H172.474L169.394 404.57L169.408 403.856L172.628 408H171.102L168.652 404.752L169.198 404.836L166.79 408H165.292ZM177.082 408.084C176.326 408.084 175.65 407.921 175.052 407.594C174.464 407.267 174.002 406.819 173.666 406.25C173.33 405.681 173.162 405.027 173.162 404.29C173.162 403.553 173.33 402.899 173.666 402.33C174.002 401.761 174.464 401.317 175.052 401C175.65 400.673 176.326 400.51 177.082 400.51C177.754 400.51 178.352 400.645 178.874 400.916C179.406 401.177 179.817 401.569 180.106 402.092L179.084 402.75C178.842 402.386 178.543 402.12 178.188 401.952C177.843 401.775 177.47 401.686 177.068 401.686C176.583 401.686 176.149 401.793 175.766 402.008C175.384 402.223 175.08 402.526 174.856 402.918C174.632 403.301 174.52 403.758 174.52 404.29C174.52 404.822 174.632 405.284 174.856 405.676C175.08 406.068 175.384 406.371 175.766 406.586C176.149 406.801 176.583 406.908 177.068 406.908C177.47 406.908 177.843 406.824 178.188 406.656C178.543 406.479 178.842 406.208 179.084 405.844L180.106 406.488C179.817 407.001 179.406 407.398 178.874 407.678C178.352 407.949 177.754 408.084 177.082 408.084ZM185.041 408.084C184.248 408.084 183.548 407.921 182.941 407.594C182.344 407.267 181.877 406.819 181.541 406.25C181.214 405.681 181.051 405.027 181.051 404.29C181.051 403.553 181.21 402.899 181.527 402.33C181.854 401.761 182.297 401.317 182.857 401C183.426 400.673 184.066 400.51 184.775 400.51C185.494 400.51 186.128 400.669 186.679 400.986C187.23 401.303 187.659 401.751 187.967 402.33C188.284 402.899 188.443 403.567 188.443 404.332C188.443 404.388 188.438 404.453 188.429 404.528C188.429 404.603 188.424 404.673 188.415 404.738H182.101V403.772H187.715L187.169 404.108C187.178 403.632 187.08 403.207 186.875 402.834C186.67 402.461 186.385 402.171 186.021 401.966C185.666 401.751 185.251 401.644 184.775 401.644C184.308 401.644 183.893 401.751 183.529 401.966C183.165 402.171 182.88 402.465 182.675 402.848C182.47 403.221 182.367 403.651 182.367 404.136V404.36C182.367 404.855 182.479 405.298 182.703 405.69C182.936 406.073 183.258 406.371 183.669 406.586C184.08 406.801 184.551 406.908 185.083 406.908C185.522 406.908 185.918 406.833 186.273 406.684C186.637 406.535 186.954 406.311 187.225 406.012L187.967 406.88C187.631 407.272 187.211 407.571 186.707 407.776C186.212 407.981 185.657 408.084 185.041 408.084ZM190.309 408V397.612H191.653V408H190.309ZM194.219 408V397.612H195.563V408H194.219ZM201.433 408.084C200.64 408.084 199.94 407.921 199.333 407.594C198.736 407.267 198.269 406.819 197.933 406.25C197.607 405.681 197.443 405.027 197.443 404.29C197.443 403.553 197.602 402.899 197.919 402.33C198.246 401.761 198.689 401.317 199.249 401C199.819 400.673 200.458 400.51 201.167 400.51C201.886 400.51 202.521 400.669 203.071 400.986C203.622 401.303 204.051 401.751 204.359 402.33C204.677 402.899 204.835 403.567 204.835 404.332C204.835 404.388 204.831 404.453 204.821 404.528C204.821 404.603 204.817 404.673 204.807 404.738H198.493V403.772H204.107L203.561 404.108C203.571 403.632 203.473 403.207 203.267 402.834C203.062 402.461 202.777 402.171 202.413 401.966C202.059 401.751 201.643 401.644 201.167 401.644C200.701 401.644 200.285 401.751 199.921 401.966C199.557 402.171 199.273 402.465 199.067 402.848C198.862 403.221 198.759 403.651 198.759 404.136V404.36C198.759 404.855 198.871 405.298 199.095 405.69C199.329 406.073 199.651 406.371 200.061 406.586C200.472 406.801 200.943 406.908 201.475 406.908C201.914 406.908 202.311 406.833 202.665 406.684C203.029 406.535 203.347 406.311 203.617 406.012L204.359 406.88C204.023 407.272 203.603 407.571 203.099 407.776C202.605 407.981 202.049 408.084 201.433 408.084ZM210.664 400.51C211.27 400.51 211.802 400.627 212.26 400.86C212.726 401.093 213.09 401.448 213.352 401.924C213.613 402.4 213.744 403.002 213.744 403.73V408H212.4V403.884C212.4 403.165 212.222 402.624 211.868 402.26C211.522 401.896 211.032 401.714 210.398 401.714C209.922 401.714 209.506 401.807 209.152 401.994C208.797 402.181 208.522 402.456 208.326 402.82C208.139 403.184 208.046 403.637 208.046 404.178V408H206.702V400.58H207.99V402.582L207.78 402.05C208.022 401.565 208.396 401.187 208.9 400.916C209.404 400.645 209.992 400.51 210.664 400.51ZM219.465 408.084C218.709 408.084 218.032 407.921 217.435 407.594C216.847 407.267 216.385 406.819 216.049 406.25C215.713 405.681 215.545 405.027 215.545 404.29C215.545 403.553 215.713 402.899 216.049 402.33C216.385 401.761 216.847 401.317 217.435 401C218.032 400.673 218.709 400.51 219.465 400.51C220.137 400.51 220.734 400.645 221.257 400.916C221.789 401.177 222.2 401.569 222.489 402.092L221.467 402.75C221.224 402.386 220.926 402.12 220.571 401.952C220.226 401.775 219.852 401.686 219.451 401.686C218.966 401.686 218.532 401.793 218.149 402.008C217.766 402.223 217.463 402.526 217.239 402.918C217.015 403.301 216.903 403.758 216.903 404.29C216.903 404.822 217.015 405.284 217.239 405.676C217.463 406.068 217.766 406.371 218.149 406.586C218.532 406.801 218.966 406.908 219.451 406.908C219.852 406.908 220.226 406.824 220.571 406.656C220.926 406.479 221.224 406.208 221.467 405.844L222.489 406.488C222.2 407.001 221.789 407.398 221.257 407.678C220.734 407.949 220.137 408.084 219.465 408.084ZM227.424 408.084C226.63 408.084 225.93 407.921 225.324 407.594C224.726 407.267 224.26 406.819 223.924 406.25C223.597 405.681 223.434 405.027 223.434 404.29C223.434 403.553 223.592 402.899 223.91 402.33C224.236 401.761 224.68 401.317 225.24 401C225.809 400.673 226.448 400.51 227.158 400.51C227.876 400.51 228.511 400.669 229.062 400.986C229.612 401.303 230.042 401.751 230.35 402.33C230.667 402.899 230.826 403.567 230.826 404.332C230.826 404.388 230.821 404.453 230.812 404.528C230.812 404.603 230.807 404.673 230.798 404.738H224.484V403.772H230.098L229.552 404.108C229.561 403.632 229.463 403.207 229.258 402.834C229.052 402.461 228.768 402.171 228.404 401.966C228.049 401.751 227.634 401.644 227.158 401.644C226.691 401.644 226.276 401.751 225.912 401.966C225.548 402.171 225.263 402.465 225.058 402.848C224.852 403.221 224.75 403.651 224.75 404.136V404.36C224.75 404.855 224.862 405.298 225.086 405.69C225.319 406.073 225.641 406.371 226.052 406.586C226.462 406.801 226.934 406.908 227.466 406.908C227.904 406.908 228.301 406.833 228.656 406.684C229.02 406.535 229.337 406.311 229.608 406.012L230.35 406.88C230.014 407.272 229.594 407.571 229.09 407.776C228.595 407.981 228.04 408.084 227.424 408.084ZM233.014 408.084C232.753 408.084 232.529 407.995 232.342 407.818C232.155 407.631 232.062 407.398 232.062 407.118C232.062 406.838 232.155 406.609 232.342 406.432C232.529 406.255 232.753 406.166 233.014 406.166C233.266 406.166 233.481 406.255 233.658 406.432C233.845 406.609 233.938 406.838 233.938 407.118C233.938 407.398 233.845 407.631 233.658 407.818C233.481 407.995 233.266 408.084 233.014 408.084Z" fill="white" fill-opacity="0.6"/>
<defs>
<linearGradient id="paint0_linear_456_26" x1="36.652" y1="16.4024" x2="334.275" y2="147.77" gradientUnits="userSpaceOnUse">
<stop stop-color="#252525"/>
<stop offset="1" stop-color="#141414"/>
</linearGradient>
</defs>
</svg>
