<svg width="345" height="442" viewBox="0 0 345 442" fill="none" xmlns="http://www.w3.org/2000/svg">
<path d="M27.27 60.12C26.47 60.12 25.73 59.99 25.05 59.73C24.38 59.46 23.795 59.085 23.295 58.605C22.805 58.115 22.42 57.545 22.14 56.895C21.86 56.245 21.72 55.53 21.72 54.75C21.72 53.97 21.86 53.255 22.14 52.605C22.42 51.955 22.81 51.39 23.31 50.91C23.81 50.42 24.395 50.045 25.065 49.785C25.745 49.515 26.485 49.38 27.285 49.38C28.095 49.38 28.84 49.52 29.52 49.8C30.21 50.07 30.795 50.475 31.275 51.015L30.3 51.96C29.9 51.54 29.45 51.23 28.95 51.03C28.45 50.82 27.915 50.715 27.345 50.715C26.755 50.715 26.205 50.815 25.695 51.015C25.195 51.215 24.76 51.495 24.39 51.855C24.02 52.215 23.73 52.645 23.52 53.145C23.32 53.635 23.22 54.17 23.22 54.75C23.22 55.33 23.32 55.87 23.52 56.37C23.73 56.86 24.02 57.285 24.39 57.645C24.76 58.005 25.195 58.285 25.695 58.485C26.205 58.685 26.755 58.785 27.345 58.785C27.915 58.785 28.45 58.685 28.95 58.485C29.45 58.275 29.9 57.955 30.3 57.525L31.275 58.47C30.795 59.01 30.21 59.42 29.52 59.7C28.84 59.98 28.09 60.12 27.27 60.12ZM36.2729 60.09C35.4729 60.09 34.7629 59.915 34.1429 59.565C33.5229 59.215 33.0329 58.735 32.6729 58.125C32.3129 57.505 32.1329 56.805 32.1329 56.025C32.1329 55.235 32.3129 54.535 32.6729 53.925C33.0329 53.315 33.5229 52.84 34.1429 52.5C34.7629 52.15 35.4729 51.975 36.2729 51.975C37.0629 51.975 37.7679 52.15 38.3879 52.5C39.0179 52.84 39.5079 53.315 39.8579 53.925C40.2179 54.525 40.3979 55.225 40.3979 56.025C40.3979 56.815 40.2179 57.515 39.8579 58.125C39.5079 58.735 39.0179 59.215 38.3879 59.565C37.7679 59.915 37.0629 60.09 36.2729 60.09ZM36.2729 58.83C36.7829 58.83 37.2379 58.715 37.6379 58.485C38.0479 58.255 38.3679 57.93 38.5979 57.51C38.8279 57.08 38.9429 56.585 38.9429 56.025C38.9429 55.455 38.8279 54.965 38.5979 54.555C38.3679 54.135 38.0479 53.81 37.6379 53.58C37.2379 53.35 36.7829 53.235 36.2729 53.235C35.7629 53.235 35.3079 53.35 34.9079 53.58C34.5079 53.81 34.1879 54.135 33.9479 54.555C33.7079 54.965 33.5879 55.455 33.5879 56.025C33.5879 56.585 33.7079 57.08 33.9479 57.51C34.1879 57.93 34.5079 58.255 34.9079 58.485C35.3079 58.715 35.7629 58.83 36.2729 58.83ZM52.3344 51.975C52.9744 51.975 53.5394 52.1 54.0294 52.35C54.5194 52.6 54.8994 52.98 55.1694 53.49C55.4494 54 55.5894 54.645 55.5894 55.425V60H54.1494V55.59C54.1494 54.82 53.9694 54.24 53.6094 53.85C53.2494 53.46 52.7444 53.265 52.0944 53.265C51.6144 53.265 51.1944 53.365 50.8344 53.565C50.4744 53.765 50.1944 54.06 49.9944 54.45C49.8044 54.84 49.7094 55.325 49.7094 55.905V60H48.2694V55.59C48.2694 54.82 48.0894 54.24 47.7294 53.85C47.3794 53.46 46.8744 53.265 46.2144 53.265C45.7444 53.265 45.3294 53.365 44.9694 53.565C44.6094 53.765 44.3294 54.06 44.1294 54.45C43.9294 54.84 43.8294 55.325 43.8294 55.905V60H42.3894V52.05H43.7694V54.165L43.5444 53.625C43.7944 53.105 44.1794 52.7 44.6994 52.41C45.2194 52.12 45.8244 51.975 46.5144 51.975C47.2744 51.975 47.9294 52.165 48.4794 52.545C49.0294 52.915 49.3894 53.48 49.5594 54.24L48.9744 54C49.2144 53.39 49.6344 52.9 50.2344 52.53C50.8344 52.16 51.5344 51.975 52.3344 51.975ZM68.184 51.975C68.824 51.975 69.389 52.1 69.879 52.35C70.369 52.6 70.749 52.98 71.019 53.49C71.299 54 71.439 54.645 71.439 55.425V60H69.999V55.59C69.999 54.82 69.819 54.24 69.459 53.85C69.099 53.46 68.594 53.265 67.944 53.265C67.464 53.265 67.044 53.365 66.684 53.565C66.324 53.765 66.044 54.06 65.844 54.45C65.654 54.84 65.559 55.325 65.559 55.905V60H64.119V55.59C64.119 54.82 63.939 54.24 63.579 53.85C63.229 53.46 62.724 53.265 62.064 53.265C61.594 53.265 61.179 53.365 60.819 53.565C60.459 53.765 60.179 54.06 59.979 54.45C59.779 54.84 59.679 55.325 59.679 55.905V60H58.239V52.05H59.619V54.165L59.394 53.625C59.644 53.105 60.029 52.7 60.549 52.41C61.069 52.12 61.674 51.975 62.364 51.975C63.124 51.975 63.779 52.165 64.329 52.545C64.879 52.915 65.239 53.48 65.409 54.24L64.824 54C65.064 53.39 65.484 52.9 66.084 52.53C66.684 52.16 67.384 51.975 68.184 51.975ZM74.0886 60V52.05H75.5286V60H74.0886ZM74.8086 50.52C74.5286 50.52 74.2936 50.43 74.1036 50.25C73.9236 50.07 73.8336 49.85 73.8336 49.59C73.8336 49.32 73.9236 49.095 74.1036 48.915C74.2936 48.735 74.5286 48.645 74.8086 48.645C75.0886 48.645 75.3186 48.735 75.4986 48.915C75.6886 49.085 75.7836 49.3 75.7836 49.56C75.7836 49.83 75.6936 50.06 75.5136 50.25C75.3336 50.43 75.0986 50.52 74.8086 50.52ZM78.2781 60V52.05H79.7181V60H78.2781ZM78.9981 50.52C78.7181 50.52 78.4831 50.43 78.2931 50.25C78.1131 50.07 78.0231 49.85 78.0231 49.59C78.0231 49.32 78.1131 49.095 78.2931 48.915C78.4831 48.735 78.7181 48.645 78.9981 48.645C79.2781 48.645 79.5081 48.735 79.6881 48.915C79.8781 49.085 79.9731 49.3 79.9731 49.56C79.9731 49.83 79.8831 50.06 79.7031 50.25C79.5231 50.43 79.2881 50.52 78.9981 50.52ZM85.1975 60.09C84.3975 60.09 83.7775 59.875 83.3375 59.445C82.8975 59.015 82.6775 58.4 82.6775 57.6V50.31H84.1175V57.54C84.1175 57.97 84.2225 58.3 84.4325 58.53C84.6525 58.76 84.9625 58.875 85.3625 58.875C85.8125 58.875 86.1875 58.75 86.4875 58.5L86.9375 59.535C86.7175 59.725 86.4525 59.865 86.1425 59.955C85.8425 60.045 85.5275 60.09 85.1975 60.09ZM81.3275 53.235V52.05H86.3975V53.235H81.3275ZM91.9548 60.09C91.1048 60.09 90.3548 59.915 89.7048 59.565C89.0648 59.215 88.5648 58.735 88.2048 58.125C87.8548 57.515 87.6798 56.815 87.6798 56.025C87.6798 55.235 87.8498 54.535 88.1898 53.925C88.5398 53.315 89.0148 52.84 89.6148 52.5C90.2248 52.15 90.9098 51.975 91.6698 51.975C92.4398 51.975 93.1198 52.145 93.7098 52.485C94.2998 52.825 94.7598 53.305 95.0898 53.925C95.4298 54.535 95.5998 55.25 95.5998 56.07C95.5998 56.13 95.5948 56.2 95.5848 56.28C95.5848 56.36 95.5798 56.435 95.5698 56.505H88.8048V55.47H94.8198L94.2348 55.83C94.2448 55.32 94.1398 54.865 93.9198 54.465C93.6998 54.065 93.3948 53.755 93.0048 53.535C92.6248 53.305 92.1798 53.19 91.6698 53.19C91.1698 53.19 90.7248 53.305 90.3348 53.535C89.9448 53.755 89.6398 54.07 89.4198 54.48C89.1998 54.88 89.0898 55.34 89.0898 55.86V56.1C89.0898 56.63 89.2098 57.105 89.4498 57.525C89.6998 57.935 90.0448 58.255 90.4848 58.485C90.9248 58.715 91.4298 58.83 91.9998 58.83C92.4698 58.83 92.8948 58.75 93.2748 58.59C93.6648 58.43 94.0048 58.19 94.2948 57.87L95.0898 58.8C94.7298 59.22 94.2798 59.54 93.7398 59.76C93.2098 59.98 92.6148 60.09 91.9548 60.09ZM101.139 60.09C100.289 60.09 99.5394 59.915 98.8894 59.565C98.2494 59.215 97.7494 58.735 97.3894 58.125C97.0394 57.515 96.8644 56.815 96.8644 56.025C96.8644 55.235 97.0344 54.535 97.3744 53.925C97.7244 53.315 98.1994 52.84 98.7994 52.5C99.4094 52.15 100.094 51.975 100.854 51.975C101.624 51.975 102.304 52.145 102.894 52.485C103.484 52.825 103.944 53.305 104.274 53.925C104.614 54.535 104.784 55.25 104.784 56.07C104.784 56.13 104.779 56.2 104.769 56.28C104.769 56.36 104.764 56.435 104.754 56.505H97.9894V55.47H104.004L103.419 55.83C103.429 55.32 103.324 54.865 103.104 54.465C102.884 54.065 102.579 53.755 102.189 53.535C101.809 53.305 101.364 53.19 100.854 53.19C100.354 53.19 99.9094 53.305 99.5194 53.535C99.1294 53.755 98.8244 54.07 98.6044 54.48C98.3844 54.88 98.2744 55.34 98.2744 55.86V56.1C98.2744 56.63 98.3944 57.105 98.6344 57.525C98.8844 57.935 99.2294 58.255 99.6694 58.485C100.109 58.715 100.614 58.83 101.184 58.83C101.654 58.83 102.079 58.75 102.459 58.59C102.849 58.43 103.189 58.19 103.479 57.87L104.274 58.8C103.914 59.22 103.464 59.54 102.924 59.76C102.394 59.98 101.799 60.09 101.139 60.09ZM110.069 60.09C109.299 60.09 108.609 59.92 107.999 59.58C107.399 59.24 106.924 58.765 106.574 58.155C106.224 57.545 106.049 56.835 106.049 56.025C106.049 55.215 106.224 54.51 106.574 53.91C106.924 53.3 107.399 52.825 107.999 52.485C108.609 52.145 109.299 51.975 110.069 51.975C110.739 51.975 111.344 52.125 111.884 52.425C112.424 52.725 112.854 53.175 113.174 53.775C113.504 54.375 113.669 55.125 113.669 56.025C113.669 56.925 113.509 57.675 113.189 58.275C112.879 58.875 112.454 59.33 111.914 59.64C111.374 59.94 110.759 60.09 110.069 60.09ZM110.189 58.83C110.689 58.83 111.139 58.715 111.539 58.485C111.949 58.255 112.269 57.93 112.499 57.51C112.739 57.08 112.859 56.585 112.859 56.025C112.859 55.455 112.739 54.965 112.499 54.555C112.269 54.135 111.949 53.81 111.539 53.58C111.139 53.35 110.689 53.235 110.189 53.235C109.679 53.235 109.224 53.35 108.824 53.58C108.424 53.81 108.104 54.135 107.864 54.555C107.624 54.965 107.504 55.455 107.504 56.025C107.504 56.585 107.624 57.08 107.864 57.51C108.104 57.93 108.424 58.255 108.824 58.485C109.224 58.715 109.679 58.83 110.189 58.83ZM112.904 60V57.855L112.994 56.01L112.844 54.165V48.87H114.284V60H112.904ZM123.767 60.09C122.967 60.09 122.347 59.875 121.907 59.445C121.467 59.015 121.247 58.4 121.247 57.6V50.31H122.687V57.54C122.687 57.97 122.792 58.3 123.002 58.53C123.222 58.76 123.532 58.875 123.932 58.875C124.382 58.875 124.757 58.75 125.057 58.5L125.507 59.535C125.287 59.725 125.022 59.865 124.712 59.955C124.412 60.045 124.097 60.09 123.767 60.09ZM119.897 53.235V52.05H124.967V53.235H119.897ZM130.389 60.09C129.589 60.09 128.879 59.915 128.259 59.565C127.639 59.215 127.149 58.735 126.789 58.125C126.429 57.505 126.249 56.805 126.249 56.025C126.249 55.235 126.429 54.535 126.789 53.925C127.149 53.315 127.639 52.84 128.259 52.5C128.879 52.15 129.589 51.975 130.389 51.975C131.179 51.975 131.884 52.15 132.504 52.5C133.134 52.84 133.624 53.315 133.974 53.925C134.334 54.525 134.514 55.225 134.514 56.025C134.514 56.815 134.334 57.515 133.974 58.125C133.624 58.735 133.134 59.215 132.504 59.565C131.884 59.915 131.179 60.09 130.389 60.09ZM130.389 58.83C130.899 58.83 131.354 58.715 131.754 58.485C132.164 58.255 132.484 57.93 132.714 57.51C132.944 57.08 133.059 56.585 133.059 56.025C133.059 55.455 132.944 54.965 132.714 54.555C132.484 54.135 132.164 53.81 131.754 53.58C131.354 53.35 130.899 53.235 130.389 53.235C129.879 53.235 129.424 53.35 129.024 53.58C128.624 53.81 128.304 54.135 128.064 54.555C127.824 54.965 127.704 55.455 127.704 56.025C127.704 56.585 127.824 57.08 128.064 57.51C128.304 57.93 128.624 58.255 129.024 58.485C129.424 58.715 129.879 58.83 130.389 58.83ZM140.534 60V52.05H141.914V54.21L141.779 53.67C141.999 53.12 142.369 52.7 142.889 52.41C143.409 52.12 144.049 51.975 144.809 51.975V53.37C144.749 53.36 144.689 53.355 144.629 53.355C144.579 53.355 144.529 53.355 144.479 53.355C143.709 53.355 143.099 53.585 142.649 54.045C142.199 54.505 141.974 55.17 141.974 56.04V60H140.534ZM150.051 60.09C149.201 60.09 148.451 59.915 147.801 59.565C147.161 59.215 146.661 58.735 146.301 58.125C145.951 57.515 145.776 56.815 145.776 56.025C145.776 55.235 145.946 54.535 146.286 53.925C146.636 53.315 147.111 52.84 147.711 52.5C148.321 52.15 149.006 51.975 149.766 51.975C150.536 51.975 151.216 52.145 151.806 52.485C152.396 52.825 152.856 53.305 153.186 53.925C153.526 54.535 153.696 55.25 153.696 56.07C153.696 56.13 153.691 56.2 153.681 56.28C153.681 56.36 153.676 56.435 153.666 56.505H146.901V55.47H152.916L152.331 55.83C152.341 55.32 152.236 54.865 152.016 54.465C151.796 54.065 151.491 53.755 151.101 53.535C150.721 53.305 150.276 53.19 149.766 53.19C149.266 53.19 148.821 53.305 148.431 53.535C148.041 53.755 147.736 54.07 147.516 54.48C147.296 54.88 147.186 55.34 147.186 55.86V56.1C147.186 56.63 147.306 57.105 147.546 57.525C147.796 57.935 148.141 58.255 148.581 58.485C149.021 58.715 149.526 58.83 150.096 58.83C150.566 58.83 150.991 58.75 151.371 58.59C151.761 58.43 152.101 58.19 152.391 57.87L153.186 58.8C152.826 59.22 152.376 59.54 151.836 59.76C151.306 59.98 150.711 60.09 150.051 60.09ZM157.975 60.09C157.315 60.09 156.685 60 156.085 59.82C155.495 59.64 155.03 59.42 154.69 59.16L155.29 58.02C155.63 58.25 156.05 58.445 156.55 58.605C157.05 58.765 157.56 58.845 158.08 58.845C158.75 58.845 159.23 58.75 159.52 58.56C159.82 58.37 159.97 58.105 159.97 57.765C159.97 57.515 159.88 57.32 159.7 57.18C159.52 57.04 159.28 56.935 158.98 56.865C158.69 56.795 158.365 56.735 158.005 56.685C157.645 56.625 157.285 56.555 156.925 56.475C156.565 56.385 156.235 56.265 155.935 56.115C155.635 55.955 155.395 55.74 155.215 55.47C155.035 55.19 154.945 54.82 154.945 54.36C154.945 53.88 155.08 53.46 155.35 53.1C155.62 52.74 156 52.465 156.49 52.275C156.99 52.075 157.58 51.975 158.26 51.975C158.78 51.975 159.305 52.04 159.835 52.17C160.375 52.29 160.815 52.465 161.155 52.695L160.54 53.835C160.18 53.595 159.805 53.43 159.415 53.34C159.025 53.25 158.635 53.205 158.245 53.205C157.615 53.205 157.145 53.31 156.835 53.52C156.525 53.72 156.37 53.98 156.37 54.3C156.37 54.57 156.46 54.78 156.64 54.93C156.83 55.07 157.07 55.18 157.36 55.26C157.66 55.34 157.99 55.41 158.35 55.47C158.71 55.52 159.07 55.59 159.43 55.68C159.79 55.76 160.115 55.875 160.405 56.025C160.705 56.175 160.945 56.385 161.125 56.655C161.315 56.925 161.41 57.285 161.41 57.735C161.41 58.215 161.27 58.63 160.99 58.98C160.71 59.33 160.315 59.605 159.805 59.805C159.295 59.995 158.685 60.09 157.975 60.09ZM167.455 51.975C168.105 51.975 168.675 52.1 169.165 52.35C169.665 52.6 170.055 52.98 170.335 53.49C170.615 54 170.755 54.645 170.755 55.425V60H169.315V55.59C169.315 54.82 169.125 54.24 168.745 53.85C168.375 53.46 167.85 53.265 167.17 53.265C166.66 53.265 166.215 53.365 165.835 53.565C165.455 53.765 165.16 54.06 164.95 54.45C164.75 54.84 164.65 55.325 164.65 55.905V60H163.21V48.87H164.65V54.195L164.365 53.625C164.625 53.105 165.025 52.7 165.565 52.41C166.105 52.12 166.735 51.975 167.455 51.975ZM178.355 60V58.32L178.28 58.005V55.14C178.28 54.53 178.1 54.06 177.74 53.73C177.39 53.39 176.86 53.22 176.15 53.22C175.68 53.22 175.22 53.3 174.77 53.46C174.32 53.61 173.94 53.815 173.63 54.075L173.03 52.995C173.44 52.665 173.93 52.415 174.5 52.245C175.08 52.065 175.685 51.975 176.315 51.975C177.405 51.975 178.245 52.24 178.835 52.77C179.425 53.3 179.72 54.11 179.72 55.2V60H178.355ZM175.745 60.09C175.155 60.09 174.635 59.99 174.185 59.79C173.745 59.59 173.405 59.315 173.165 58.965C172.925 58.605 172.805 58.2 172.805 57.75C172.805 57.32 172.905 56.93 173.105 56.58C173.315 56.23 173.65 55.95 174.11 55.74C174.58 55.53 175.21 55.425 176 55.425H178.52V56.46H176.06C175.34 56.46 174.855 56.58 174.605 56.82C174.355 57.06 174.23 57.35 174.23 57.69C174.23 58.08 174.385 58.395 174.695 58.635C175.005 58.865 175.435 58.98 175.985 58.98C176.525 58.98 176.995 58.86 177.395 58.62C177.805 58.38 178.1 58.03 178.28 57.57L178.565 58.56C178.375 59.03 178.04 59.405 177.56 59.685C177.08 59.955 176.475 60.09 175.745 60.09ZM186.6 60.09C185.94 60.09 185.335 59.94 184.785 59.64C184.245 59.33 183.81 58.875 183.48 58.275C183.16 57.675 183 56.925 183 56.025C183 55.125 183.155 54.375 183.465 53.775C183.785 53.175 184.215 52.725 184.755 52.425C185.305 52.125 185.92 51.975 186.6 51.975C187.38 51.975 188.07 52.145 188.67 52.485C189.27 52.825 189.745 53.3 190.095 53.91C190.445 54.51 190.62 55.215 190.62 56.025C190.62 56.835 190.445 57.545 190.095 58.155C189.745 58.765 189.27 59.24 188.67 59.58C188.07 59.92 187.38 60.09 186.6 60.09ZM182.385 62.91V52.05H183.765V54.195L183.675 56.04L183.825 57.885V62.91H182.385ZM186.48 58.83C186.99 58.83 187.445 58.715 187.845 58.485C188.255 58.255 188.575 57.93 188.805 57.51C189.045 57.08 189.165 56.585 189.165 56.025C189.165 55.455 189.045 54.965 188.805 54.555C188.575 54.135 188.255 53.81 187.845 53.58C187.445 53.35 186.99 53.235 186.48 53.235C185.98 53.235 185.525 53.35 185.115 53.58C184.715 53.81 184.395 54.135 184.155 54.555C183.925 54.965 183.81 55.455 183.81 56.025C183.81 56.585 183.925 57.08 184.155 57.51C184.395 57.93 184.715 58.255 185.115 58.485C185.525 58.715 185.98 58.83 186.48 58.83ZM192.609 60V52.05H194.049V60H192.609ZM193.329 50.52C193.049 50.52 192.814 50.43 192.624 50.25C192.444 50.07 192.354 49.85 192.354 49.59C192.354 49.32 192.444 49.095 192.624 48.915C192.814 48.735 193.049 48.645 193.329 48.645C193.609 48.645 193.839 48.735 194.019 48.915C194.209 49.085 194.304 49.3 194.304 49.56C194.304 49.83 194.214 50.06 194.034 50.25C193.854 50.43 193.619 50.52 193.329 50.52ZM201.044 51.975C201.694 51.975 202.264 52.1 202.754 52.35C203.254 52.6 203.644 52.98 203.924 53.49C204.204 54 204.344 54.645 204.344 55.425V60H202.904V55.59C202.904 54.82 202.714 54.24 202.334 53.85C201.964 53.46 201.439 53.265 200.759 53.265C200.249 53.265 199.804 53.365 199.424 53.565C199.044 53.765 198.749 54.06 198.539 54.45C198.339 54.84 198.239 55.325 198.239 55.905V60H196.799V52.05H198.179V54.195L197.954 53.625C198.214 53.105 198.614 52.7 199.154 52.41C199.694 52.12 200.324 51.975 201.044 51.975ZM210.489 63C209.759 63 209.049 62.895 208.359 62.685C207.679 62.485 207.124 62.195 206.694 61.815L207.384 60.705C207.754 61.025 208.209 61.275 208.749 61.455C209.289 61.645 209.854 61.74 210.444 61.74C211.384 61.74 212.074 61.52 212.514 61.08C212.954 60.64 213.174 59.97 213.174 59.07V57.39L213.324 55.815L213.249 54.225V52.05H214.614V58.92C214.614 60.32 214.264 61.35 213.564 62.01C212.864 62.67 211.839 63 210.489 63ZM210.309 59.67C209.539 59.67 208.849 59.51 208.239 59.19C207.639 58.86 207.159 58.405 206.799 57.825C206.449 57.245 206.274 56.575 206.274 55.815C206.274 55.045 206.449 54.375 206.799 53.805C207.159 53.225 207.639 52.775 208.239 52.455C208.849 52.135 209.539 51.975 210.309 51.975C210.989 51.975 211.609 52.115 212.169 52.395C212.729 52.665 213.174 53.085 213.504 53.655C213.844 54.225 214.014 54.945 214.014 55.815C214.014 56.675 213.844 57.39 213.504 57.96C213.174 58.53 212.729 58.96 212.169 59.25C211.609 59.53 210.989 59.67 210.309 59.67ZM210.474 58.41C211.004 58.41 211.474 58.3 211.884 58.08C212.294 57.86 212.614 57.555 212.844 57.165C213.084 56.775 213.204 56.325 213.204 55.815C213.204 55.305 213.084 54.855 212.844 54.465C212.614 54.075 212.294 53.775 211.884 53.565C211.474 53.345 211.004 53.235 210.474 53.235C209.944 53.235 209.469 53.345 209.049 53.565C208.639 53.775 208.314 54.075 208.074 54.465C207.844 54.855 207.729 55.305 207.729 55.815C207.729 56.325 207.844 56.775 208.074 57.165C208.314 57.555 208.639 57.86 209.049 58.08C209.469 58.3 209.944 58.41 210.474 58.41ZM22.575 78V69.345C22.575 68.565 22.8 67.945 23.25 67.485C23.71 67.015 24.36 66.78 25.2 66.78C25.51 66.78 25.805 66.82 26.085 66.9C26.375 66.97 26.62 67.085 26.82 67.245L26.385 68.34C26.235 68.22 26.065 68.13 25.875 68.07C25.685 68 25.485 67.965 25.275 67.965C24.855 67.965 24.535 68.085 24.315 68.325C24.095 68.555 23.985 68.9 23.985 69.36V70.425L24.015 71.085V78H22.575ZM21.225 71.235V70.05H26.295V71.235H21.225ZM27.66 78V70.05H29.1V78H27.66ZM28.38 68.52C28.1 68.52 27.865 68.43 27.675 68.25C27.495 68.07 27.405 67.85 27.405 67.59C27.405 67.32 27.495 67.095 27.675 66.915C27.865 66.735 28.1 66.645 28.38 66.645C28.66 66.645 28.89 66.735 29.07 66.915C29.26 67.085 29.355 67.3 29.355 67.56C29.355 67.83 29.265 68.06 29.085 68.25C28.905 68.43 28.67 68.52 28.38 68.52ZM36.0875 69.975C36.7375 69.975 37.3075 70.1 37.7975 70.35C38.2975 70.6 38.6875 70.98 38.9675 71.49C39.2475 72 39.3875 72.645 39.3875 73.425V78H37.9475V73.59C37.9475 72.82 37.7575 72.24 37.3775 71.85C37.0075 71.46 36.4825 71.265 35.8025 71.265C35.2925 71.265 34.8475 71.365 34.4675 71.565C34.0875 71.765 33.7925 72.06 33.5825 72.45C33.3825 72.84 33.2825 73.325 33.2825 73.905V78H31.8425V70.05H33.2225V72.195L32.9975 71.625C33.2575 71.105 33.6575 70.7 34.1975 70.41C34.7375 70.12 35.3675 69.975 36.0875 69.975ZM46.9875 78V76.32L46.9125 76.005V73.14C46.9125 72.53 46.7325 72.06 46.3725 71.73C46.0225 71.39 45.4925 71.22 44.7825 71.22C44.3125 71.22 43.8525 71.3 43.4025 71.46C42.9525 71.61 42.5725 71.815 42.2625 72.075L41.6625 70.995C42.0725 70.665 42.5625 70.415 43.1325 70.245C43.7125 70.065 44.3175 69.975 44.9475 69.975C46.0375 69.975 46.8775 70.24 47.4675 70.77C48.0575 71.3 48.3525 72.11 48.3525 73.2V78H46.9875ZM44.3775 78.09C43.7875 78.09 43.2675 77.99 42.8175 77.79C42.3775 77.59 42.0375 77.315 41.7975 76.965C41.5575 76.605 41.4375 76.2 41.4375 75.75C41.4375 75.32 41.5375 74.93 41.7375 74.58C41.9475 74.23 42.2825 73.95 42.7425 73.74C43.2125 73.53 43.8425 73.425 44.6325 73.425H47.1525V74.46H44.6925C43.9725 74.46 43.4875 74.58 43.2375 74.82C42.9875 75.06 42.8625 75.35 42.8625 75.69C42.8625 76.08 43.0175 76.395 43.3275 76.635C43.6375 76.865 44.0675 76.98 44.6175 76.98C45.1575 76.98 45.6275 76.86 46.0275 76.62C46.4375 76.38 46.7325 76.03 46.9125 75.57L47.1975 76.56C47.0075 77.03 46.6725 77.405 46.1925 77.685C45.7125 77.955 45.1075 78.09 44.3775 78.09ZM55.2623 69.975C55.9123 69.975 56.4823 70.1 56.9723 70.35C57.4723 70.6 57.8623 70.98 58.1423 71.49C58.4223 72 58.5623 72.645 58.5623 73.425V78H57.1223V73.59C57.1223 72.82 56.9323 72.24 56.5523 71.85C56.1823 71.46 55.6573 71.265 54.9773 71.265C54.4673 71.265 54.0223 71.365 53.6423 71.565C53.2623 71.765 52.9673 72.06 52.7573 72.45C52.5573 72.84 52.4573 73.325 52.4573 73.905V78H51.0173V70.05H52.3973V72.195L52.1723 71.625C52.4323 71.105 52.8323 70.7 53.3723 70.41C53.9123 70.12 54.5423 69.975 55.2623 69.975ZM64.6923 78.09C63.8823 78.09 63.1573 77.915 62.5173 77.565C61.8873 77.215 61.3923 76.735 61.0323 76.125C60.6723 75.515 60.4923 74.815 60.4923 74.025C60.4923 73.235 60.6723 72.535 61.0323 71.925C61.3923 71.315 61.8873 70.84 62.5173 70.5C63.1573 70.15 63.8823 69.975 64.6923 69.975C65.4123 69.975 66.0523 70.12 66.6123 70.41C67.1823 70.69 67.6223 71.11 67.9323 71.67L66.8373 72.375C66.5773 71.985 66.2573 71.7 65.8773 71.52C65.5073 71.33 65.1073 71.235 64.6773 71.235C64.1573 71.235 63.6923 71.35 63.2823 71.58C62.8723 71.81 62.5473 72.135 62.3073 72.555C62.0673 72.965 61.9473 73.455 61.9473 74.025C61.9473 74.595 62.0673 75.09 62.3073 75.51C62.5473 75.93 62.8723 76.255 63.2823 76.485C63.6923 76.715 64.1573 76.83 64.6773 76.83C65.1073 76.83 65.5073 76.74 65.8773 76.56C66.2573 76.37 66.5773 76.08 66.8373 75.69L67.9323 76.38C67.6223 76.93 67.1823 77.355 66.6123 77.655C66.0523 77.945 65.4123 78.09 64.6923 78.09ZM73.2195 78.09C72.3695 78.09 71.6195 77.915 70.9695 77.565C70.3295 77.215 69.8295 76.735 69.4695 76.125C69.1195 75.515 68.9445 74.815 68.9445 74.025C68.9445 73.235 69.1145 72.535 69.4545 71.925C69.8045 71.315 70.2795 70.84 70.8795 70.5C71.4895 70.15 72.1745 69.975 72.9345 69.975C73.7045 69.975 74.3845 70.145 74.9745 70.485C75.5645 70.825 76.0245 71.305 76.3545 71.925C76.6945 72.535 76.8645 73.25 76.8645 74.07C76.8645 74.13 76.8595 74.2 76.8495 74.28C76.8495 74.36 76.8445 74.435 76.8345 74.505H70.0695V73.47H76.0845L75.4995 73.83C75.5095 73.32 75.4045 72.865 75.1845 72.465C74.9645 72.065 74.6595 71.755 74.2695 71.535C73.8895 71.305 73.4445 71.19 72.9345 71.19C72.4345 71.19 71.9895 71.305 71.5995 71.535C71.2095 71.755 70.9045 72.07 70.6845 72.48C70.4645 72.88 70.3545 73.34 70.3545 73.86V74.1C70.3545 74.63 70.4745 75.105 70.7145 75.525C70.9645 75.935 71.3095 76.255 71.7495 76.485C72.1895 76.715 72.6945 76.83 73.2645 76.83C73.7345 76.83 74.1595 76.75 74.5395 76.59C74.9295 76.43 75.2695 76.19 75.5595 75.87L76.3545 76.8C75.9945 77.22 75.5445 77.54 75.0045 77.76C74.4745 77.98 73.8795 78.09 73.2195 78.09ZM84.5723 78L81.6173 70.05H82.9823L85.6073 77.25H84.9623L87.6923 70.05H88.9073L91.5773 77.25H90.9473L93.6323 70.05H94.9223L91.9523 78H90.5723L88.0673 71.43H88.4873L85.9523 78H84.5723ZM96.3836 78V70.05H97.8236V78H96.3836ZM97.1036 68.52C96.8236 68.52 96.5886 68.43 96.3986 68.25C96.2186 68.07 96.1286 67.85 96.1286 67.59C96.1286 67.32 96.2186 67.095 96.3986 66.915C96.5886 66.735 96.8236 66.645 97.1036 66.645C97.3836 66.645 97.6136 66.735 97.7936 66.915C97.9836 67.085 98.0786 67.3 98.0786 67.56C98.0786 67.83 97.9886 68.06 97.8086 68.25C97.6286 68.43 97.3936 68.52 97.1036 68.52ZM103.303 78.09C102.503 78.09 101.883 77.875 101.443 77.445C101.003 77.015 100.783 76.4 100.783 75.6V68.31H102.223V75.54C102.223 75.97 102.328 76.3 102.538 76.53C102.758 76.76 103.068 76.875 103.468 76.875C103.918 76.875 104.293 76.75 104.593 76.5L105.043 77.535C104.823 77.725 104.558 77.865 104.248 77.955C103.948 78.045 103.633 78.09 103.303 78.09ZM99.433 71.235V70.05H104.503V71.235H99.433ZM111.029 69.975C111.679 69.975 112.249 70.1 112.739 70.35C113.239 70.6 113.629 70.98 113.909 71.49C114.189 72 114.329 72.645 114.329 73.425V78H112.889V73.59C112.889 72.82 112.699 72.24 112.319 71.85C111.949 71.46 111.424 71.265 110.744 71.265C110.234 71.265 109.789 71.365 109.409 71.565C109.029 71.765 108.734 72.06 108.524 72.45C108.324 72.84 108.224 73.325 108.224 73.905V78H106.784V66.87H108.224V72.195L107.939 71.625C108.199 71.105 108.599 70.7 109.139 70.41C109.679 70.12 110.309 69.975 111.029 69.975ZM124.502 81C123.772 81 123.062 80.895 122.372 80.685C121.692 80.485 121.137 80.195 120.707 79.815L121.397 78.705C121.767 79.025 122.222 79.275 122.762 79.455C123.302 79.645 123.867 79.74 124.457 79.74C125.397 79.74 126.087 79.52 126.527 79.08C126.967 78.64 127.187 77.97 127.187 77.07V75.39L127.337 73.815L127.262 72.225V70.05H128.627V76.92C128.627 78.32 128.277 79.35 127.577 80.01C126.877 80.67 125.852 81 124.502 81ZM124.322 77.67C123.552 77.67 122.862 77.51 122.252 77.19C121.652 76.86 121.172 76.405 120.812 75.825C120.462 75.245 120.287 74.575 120.287 73.815C120.287 73.045 120.462 72.375 120.812 71.805C121.172 71.225 121.652 70.775 122.252 70.455C122.862 70.135 123.552 69.975 124.322 69.975C125.002 69.975 125.622 70.115 126.182 70.395C126.742 70.665 127.187 71.085 127.517 71.655C127.857 72.225 128.027 72.945 128.027 73.815C128.027 74.675 127.857 75.39 127.517 75.96C127.187 76.53 126.742 76.96 126.182 77.25C125.622 77.53 125.002 77.67 124.322 77.67ZM124.487 76.41C125.017 76.41 125.487 76.3 125.897 76.08C126.307 75.86 126.627 75.555 126.857 75.165C127.097 74.775 127.217 74.325 127.217 73.815C127.217 73.305 127.097 72.855 126.857 72.465C126.627 72.075 126.307 71.775 125.897 71.565C125.487 71.345 125.017 71.235 124.487 71.235C123.957 71.235 123.482 71.345 123.062 71.565C122.652 71.775 122.327 72.075 122.087 72.465C121.857 72.855 121.742 73.305 121.742 73.815C121.742 74.325 121.857 74.775 122.087 75.165C122.327 75.555 122.652 75.86 123.062 76.08C123.482 76.3 123.957 76.41 124.487 76.41ZM131.379 78V70.05H132.759V72.21L132.624 71.67C132.844 71.12 133.214 70.7 133.734 70.41C134.254 70.12 134.894 69.975 135.654 69.975V71.37C135.594 71.36 135.534 71.355 135.474 71.355C135.424 71.355 135.374 71.355 135.324 71.355C134.554 71.355 133.944 71.585 133.494 72.045C133.044 72.505 132.819 73.17 132.819 74.04V78H131.379ZM140.76 78.09C139.96 78.09 139.25 77.915 138.63 77.565C138.01 77.215 137.52 76.735 137.16 76.125C136.8 75.505 136.62 74.805 136.62 74.025C136.62 73.235 136.8 72.535 137.16 71.925C137.52 71.315 138.01 70.84 138.63 70.5C139.25 70.15 139.96 69.975 140.76 69.975C141.55 69.975 142.255 70.15 142.875 70.5C143.505 70.84 143.995 71.315 144.345 71.925C144.705 72.525 144.885 73.225 144.885 74.025C144.885 74.815 144.705 75.515 144.345 76.125C143.995 76.735 143.505 77.215 142.875 77.565C142.255 77.915 141.55 78.09 140.76 78.09ZM140.76 76.83C141.27 76.83 141.725 76.715 142.125 76.485C142.535 76.255 142.855 75.93 143.085 75.51C143.315 75.08 143.43 74.585 143.43 74.025C143.43 73.455 143.315 72.965 143.085 72.555C142.855 72.135 142.535 71.81 142.125 71.58C141.725 71.35 141.27 71.235 140.76 71.235C140.25 71.235 139.795 71.35 139.395 71.58C138.995 71.81 138.675 72.135 138.435 72.555C138.195 72.965 138.075 73.455 138.075 74.025C138.075 74.585 138.195 75.08 138.435 75.51C138.675 75.93 138.995 76.255 139.395 76.485C139.795 76.715 140.25 76.83 140.76 76.83ZM150.222 78.09C149.542 78.09 148.942 77.965 148.422 77.715C147.912 77.465 147.512 77.085 147.222 76.575C146.942 76.055 146.802 75.405 146.802 74.625V70.05H148.242V74.46C148.242 75.24 148.427 75.825 148.797 76.215C149.177 76.605 149.707 76.8 150.387 76.8C150.887 76.8 151.322 76.7 151.692 76.5C152.062 76.29 152.347 75.99 152.547 75.6C152.747 75.2 152.847 74.72 152.847 74.16V70.05H154.287V78H152.922V75.855L153.147 76.425C152.887 76.955 152.497 77.365 151.977 77.655C151.457 77.945 150.872 78.09 150.222 78.09ZM161.273 69.975C161.923 69.975 162.493 70.1 162.983 70.35C163.483 70.6 163.873 70.98 164.153 71.49C164.433 72 164.573 72.645 164.573 73.425V78H163.133V73.59C163.133 72.82 162.943 72.24 162.563 71.85C162.193 71.46 161.668 71.265 160.988 71.265C160.478 71.265 160.033 71.365 159.653 71.565C159.273 71.765 158.978 72.06 158.768 72.45C158.568 72.84 158.468 73.325 158.468 73.905V78H157.028V70.05H158.408V72.195L158.183 71.625C158.443 71.105 158.843 70.7 159.383 70.41C159.923 70.12 160.553 69.975 161.273 69.975ZM170.523 78.09C169.753 78.09 169.063 77.92 168.453 77.58C167.853 77.24 167.378 76.765 167.028 76.155C166.678 75.545 166.503 74.835 166.503 74.025C166.503 73.215 166.678 72.51 167.028 71.91C167.378 71.3 167.853 70.825 168.453 70.485C169.063 70.145 169.753 69.975 170.523 69.975C171.193 69.975 171.798 70.125 172.338 70.425C172.878 70.725 173.308 71.175 173.628 71.775C173.958 72.375 174.123 73.125 174.123 74.025C174.123 74.925 173.963 75.675 173.643 76.275C173.333 76.875 172.908 77.33 172.368 77.64C171.828 77.94 171.213 78.09 170.523 78.09ZM170.643 76.83C171.143 76.83 171.593 76.715 171.993 76.485C172.403 76.255 172.723 75.93 172.953 75.51C173.193 75.08 173.313 74.585 173.313 74.025C173.313 73.455 173.193 72.965 172.953 72.555C172.723 72.135 172.403 71.81 171.993 71.58C171.593 71.35 171.143 71.235 170.643 71.235C170.133 71.235 169.678 71.35 169.278 71.58C168.878 71.81 168.558 72.135 168.318 72.555C168.078 72.965 167.958 73.455 167.958 74.025C167.958 74.585 168.078 75.08 168.318 75.51C168.558 75.93 168.878 76.255 169.278 76.485C169.678 76.715 170.133 76.83 170.643 76.83ZM173.358 78V75.855L173.448 74.01L173.298 72.165V66.87H174.738V78H173.358ZM181.678 78.09C180.998 78.09 180.383 77.94 179.833 77.64C179.293 77.33 178.863 76.875 178.543 76.275C178.233 75.675 178.078 74.925 178.078 74.025C178.078 73.125 178.238 72.375 178.558 71.775C178.888 71.175 179.323 70.725 179.863 70.425C180.413 70.125 181.018 69.975 181.678 69.975C182.458 69.975 183.148 70.145 183.748 70.485C184.348 70.825 184.823 71.3 185.173 71.91C185.523 72.51 185.698 73.215 185.698 74.025C185.698 74.835 185.523 75.545 185.173 76.155C184.823 76.765 184.348 77.24 183.748 77.58C183.148 77.92 182.458 78.09 181.678 78.09ZM177.463 78V66.87H178.903V72.165L178.753 74.01L178.843 75.855V78H177.463ZM181.558 76.83C182.068 76.83 182.523 76.715 182.923 76.485C183.333 76.255 183.653 75.93 183.883 75.51C184.123 75.08 184.243 74.585 184.243 74.025C184.243 73.455 184.123 72.965 183.883 72.555C183.653 72.135 183.333 71.81 182.923 71.58C182.523 71.35 182.068 71.235 181.558 71.235C181.058 71.235 180.603 71.35 180.193 71.58C179.793 71.81 179.473 72.135 179.233 72.555C179.003 72.965 178.888 73.455 178.888 74.025C178.888 74.585 179.003 75.08 179.233 75.51C179.473 75.93 179.793 76.255 180.193 76.485C180.603 76.715 181.058 76.83 181.558 76.83ZM187.687 78V70.05H189.067V72.21L188.932 71.67C189.152 71.12 189.522 70.7 190.042 70.41C190.562 70.12 191.202 69.975 191.962 69.975V71.37C191.902 71.36 191.842 71.355 191.782 71.355C191.732 71.355 191.682 71.355 191.632 71.355C190.862 71.355 190.252 71.585 189.802 72.045C189.352 72.505 189.127 73.17 189.127 74.04V78H187.687ZM197.204 78.09C196.354 78.09 195.604 77.915 194.954 77.565C194.314 77.215 193.814 76.735 193.454 76.125C193.104 75.515 192.929 74.815 192.929 74.025C192.929 73.235 193.099 72.535 193.439 71.925C193.789 71.315 194.264 70.84 194.864 70.5C195.474 70.15 196.159 69.975 196.919 69.975C197.689 69.975 198.369 70.145 198.959 70.485C199.549 70.825 200.009 71.305 200.339 71.925C200.679 72.535 200.849 73.25 200.849 74.07C200.849 74.13 200.844 74.2 200.834 74.28C200.834 74.36 200.829 74.435 200.819 74.505H194.054V73.47H200.069L199.484 73.83C199.494 73.32 199.389 72.865 199.169 72.465C198.949 72.065 198.644 71.755 198.254 71.535C197.874 71.305 197.429 71.19 196.919 71.19C196.419 71.19 195.974 71.305 195.584 71.535C195.194 71.755 194.889 72.07 194.669 72.48C194.449 72.88 194.339 73.34 194.339 73.86V74.1C194.339 74.63 194.459 75.105 194.699 75.525C194.949 75.935 195.294 76.255 195.734 76.485C196.174 76.715 196.679 76.83 197.249 76.83C197.719 76.83 198.144 76.75 198.524 76.59C198.914 76.43 199.254 76.19 199.544 75.87L200.339 76.8C199.979 77.22 199.529 77.54 198.989 77.76C198.459 77.98 197.864 78.09 197.204 78.09ZM207.564 78V76.32L207.489 76.005V73.14C207.489 72.53 207.309 72.06 206.949 71.73C206.599 71.39 206.069 71.22 205.359 71.22C204.889 71.22 204.429 71.3 203.979 71.46C203.529 71.61 203.149 71.815 202.839 72.075L202.239 70.995C202.649 70.665 203.139 70.415 203.709 70.245C204.289 70.065 204.894 69.975 205.524 69.975C206.614 69.975 207.454 70.24 208.044 70.77C208.634 71.3 208.929 72.11 208.929 73.2V78H207.564ZM204.954 78.09C204.364 78.09 203.844 77.99 203.394 77.79C202.954 77.59 202.614 77.315 202.374 76.965C202.134 76.605 202.014 76.2 202.014 75.75C202.014 75.32 202.114 74.93 202.314 74.58C202.524 74.23 202.859 73.95 203.319 73.74C203.789 73.53 204.419 73.425 205.209 73.425H207.729V74.46H205.269C204.549 74.46 204.064 74.58 203.814 74.82C203.564 75.06 203.439 75.35 203.439 75.69C203.439 76.08 203.594 76.395 203.904 76.635C204.214 76.865 204.644 76.98 205.194 76.98C205.734 76.98 206.204 76.86 206.604 76.62C207.014 76.38 207.309 76.03 207.489 75.57L207.774 76.56C207.584 77.03 207.249 77.405 206.769 77.685C206.289 77.955 205.684 78.09 204.954 78.09ZM211.594 78V70.05H213.034V78H211.594ZM212.314 68.52C212.034 68.52 211.799 68.43 211.609 68.25C211.429 68.07 211.339 67.85 211.339 67.59C211.339 67.32 211.429 67.095 211.609 66.915C211.799 66.735 212.034 66.645 212.314 66.645C212.594 66.645 212.824 66.735 213.004 66.915C213.194 67.085 213.289 67.3 213.289 67.56C213.289 67.83 213.199 68.06 213.019 68.25C212.839 68.43 212.604 68.52 212.314 68.52ZM220.028 69.975C220.678 69.975 221.248 70.1 221.738 70.35C222.238 70.6 222.628 70.98 222.908 71.49C223.188 72 223.328 72.645 223.328 73.425V78H221.888V73.59C221.888 72.82 221.698 72.24 221.318 71.85C220.948 71.46 220.423 71.265 219.743 71.265C219.233 71.265 218.788 71.365 218.408 71.565C218.028 71.765 217.733 72.06 217.523 72.45C217.323 72.84 217.223 73.325 217.223 73.905V78H215.783V70.05H217.163V72.195L216.938 71.625C217.198 71.105 217.598 70.7 218.138 70.41C218.678 70.12 219.308 69.975 220.028 69.975ZM229.473 81C228.743 81 228.033 80.895 227.343 80.685C226.663 80.485 226.108 80.195 225.678 79.815L226.368 78.705C226.738 79.025 227.193 79.275 227.733 79.455C228.273 79.645 228.838 79.74 229.428 79.74C230.368 79.74 231.058 79.52 231.498 79.08C231.938 78.64 232.158 77.97 232.158 77.07V75.39L232.308 73.815L232.233 72.225V70.05H233.598V76.92C233.598 78.32 233.248 79.35 232.548 80.01C231.848 80.67 230.823 81 229.473 81ZM229.293 77.67C228.523 77.67 227.833 77.51 227.223 77.19C226.623 76.86 226.143 76.405 225.783 75.825C225.433 75.245 225.258 74.575 225.258 73.815C225.258 73.045 225.433 72.375 225.783 71.805C226.143 71.225 226.623 70.775 227.223 70.455C227.833 70.135 228.523 69.975 229.293 69.975C229.973 69.975 230.593 70.115 231.153 70.395C231.713 70.665 232.158 71.085 232.488 71.655C232.828 72.225 232.998 72.945 232.998 73.815C232.998 74.675 232.828 75.39 232.488 75.96C232.158 76.53 231.713 76.96 231.153 77.25C230.593 77.53 229.973 77.67 229.293 77.67ZM229.458 76.41C229.988 76.41 230.458 76.3 230.868 76.08C231.278 75.86 231.598 75.555 231.828 75.165C232.068 74.775 232.188 74.325 232.188 73.815C232.188 73.305 232.068 72.855 231.828 72.465C231.598 72.075 231.278 71.775 230.868 71.565C230.458 71.345 229.988 71.235 229.458 71.235C228.928 71.235 228.453 71.345 228.033 71.565C227.623 71.775 227.298 72.075 227.058 72.465C226.828 72.855 226.713 73.305 226.713 73.815C226.713 74.325 226.828 74.775 227.058 75.165C227.298 75.555 227.623 75.86 228.033 76.08C228.453 76.3 228.928 76.41 229.458 76.41ZM25.095 96.09C24.295 96.09 23.675 95.875 23.235 95.445C22.795 95.015 22.575 94.4 22.575 93.6V86.31H24.015V93.54C24.015 93.97 24.12 94.3 24.33 94.53C24.55 94.76 24.86 94.875 25.26 94.875C25.71 94.875 26.085 94.75 26.385 94.5L26.835 95.535C26.615 95.725 26.35 95.865 26.04 95.955C25.74 96.045 25.425 96.09 25.095 96.09ZM21.225 89.235V88.05H26.295V89.235H21.225ZM31.8523 96.09C31.0023 96.09 30.2523 95.915 29.6023 95.565C28.9623 95.215 28.4623 94.735 28.1023 94.125C27.7523 93.515 27.5773 92.815 27.5773 92.025C27.5773 91.235 27.7473 90.535 28.0873 89.925C28.4373 89.315 28.9123 88.84 29.5123 88.5C30.1223 88.15 30.8073 87.975 31.5673 87.975C32.3373 87.975 33.0173 88.145 33.6073 88.485C34.1973 88.825 34.6573 89.305 34.9873 89.925C35.3273 90.535 35.4973 91.25 35.4973 92.07C35.4973 92.13 35.4923 92.2 35.4823 92.28C35.4823 92.36 35.4773 92.435 35.4673 92.505H28.7023V91.47H34.7173L34.1323 91.83C34.1423 91.32 34.0373 90.865 33.8173 90.465C33.5973 90.065 33.2923 89.755 32.9023 89.535C32.5223 89.305 32.0773 89.19 31.5673 89.19C31.0673 89.19 30.6223 89.305 30.2323 89.535C29.8423 89.755 29.5373 90.07 29.3173 90.48C29.0973 90.88 28.9873 91.34 28.9873 91.86V92.1C28.9873 92.63 29.1073 93.105 29.3473 93.525C29.5973 93.935 29.9423 94.255 30.3823 94.485C30.8223 94.715 31.3273 94.83 31.8973 94.83C32.3673 94.83 32.7923 94.75 33.1723 94.59C33.5623 94.43 33.9023 94.19 34.1923 93.87L34.9873 94.8C34.6273 95.22 34.1773 95.54 33.6373 95.76C33.1073 95.98 32.5123 96.09 31.8523 96.09ZM40.9618 96.09C40.1518 96.09 39.4268 95.915 38.7868 95.565C38.1568 95.215 37.6618 94.735 37.3018 94.125C36.9418 93.515 36.7618 92.815 36.7618 92.025C36.7618 91.235 36.9418 90.535 37.3018 89.925C37.6618 89.315 38.1568 88.84 38.7868 88.5C39.4268 88.15 40.1518 87.975 40.9618 87.975C41.6818 87.975 42.3218 88.12 42.8818 88.41C43.4518 88.69 43.8918 89.11 44.2018 89.67L43.1068 90.375C42.8468 89.985 42.5268 89.7 42.1468 89.52C41.7768 89.33 41.3768 89.235 40.9468 89.235C40.4268 89.235 39.9618 89.35 39.5518 89.58C39.1418 89.81 38.8168 90.135 38.5768 90.555C38.3368 90.965 38.2168 91.455 38.2168 92.025C38.2168 92.595 38.3368 93.09 38.5768 93.51C38.8168 93.93 39.1418 94.255 39.5518 94.485C39.9618 94.715 40.4268 94.83 40.9468 94.83C41.3768 94.83 41.7768 94.74 42.1468 94.56C42.5268 94.37 42.8468 94.08 43.1068 93.69L44.2018 94.38C43.8918 94.93 43.4518 95.355 42.8818 95.655C42.3218 95.945 41.6818 96.09 40.9618 96.09ZM50.2086 87.975C50.8586 87.975 51.4286 88.1 51.9186 88.35C52.4186 88.6 52.8086 88.98 53.0886 89.49C53.3686 90 53.5086 90.645 53.5086 91.425V96H52.0686V91.59C52.0686 90.82 51.8786 90.24 51.4986 89.85C51.1286 89.46 50.6036 89.265 49.9236 89.265C49.4136 89.265 48.9686 89.365 48.5886 89.565C48.2086 89.765 47.9136 90.06 47.7036 90.45C47.5036 90.84 47.4036 91.325 47.4036 91.905V96H45.9636V84.87H47.4036V90.195L47.1186 89.625C47.3786 89.105 47.7786 88.7 48.3186 88.41C48.8586 88.12 49.4886 87.975 50.2086 87.975ZM65.1369 96V94.32L65.0619 94.005V91.14C65.0619 90.53 64.8819 90.06 64.5219 89.73C64.1719 89.39 63.6419 89.22 62.9319 89.22C62.4619 89.22 62.0019 89.3 61.5519 89.46C61.1019 89.61 60.7219 89.815 60.4119 90.075L59.8119 88.995C60.2219 88.665 60.7119 88.415 61.2819 88.245C61.8619 88.065 62.4669 87.975 63.0969 87.975C64.1869 87.975 65.0269 88.24 65.6169 88.77C66.2069 89.3 66.5019 90.11 66.5019 91.2V96H65.1369ZM62.5269 96.09C61.9369 96.09 61.4169 95.99 60.9669 95.79C60.5269 95.59 60.1869 95.315 59.9469 94.965C59.7069 94.605 59.5869 94.2 59.5869 93.75C59.5869 93.32 59.6869 92.93 59.8869 92.58C60.0969 92.23 60.4319 91.95 60.8919 91.74C61.3619 91.53 61.9919 91.425 62.7819 91.425H65.3019V92.46H62.8419C62.1219 92.46 61.6369 92.58 61.3869 92.82C61.1369 93.06 61.0119 93.35 61.0119 93.69C61.0119 94.08 61.1669 94.395 61.4769 94.635C61.7869 94.865 62.2169 94.98 62.7669 94.98C63.3069 94.98 63.7769 94.86 64.1769 94.62C64.5869 94.38 64.8819 94.03 65.0619 93.57L65.3469 94.56C65.1569 95.03 64.8219 95.405 64.3419 95.685C63.8619 95.955 63.2569 96.09 62.5269 96.09ZM73.4118 87.975C74.0618 87.975 74.6318 88.1 75.1218 88.35C75.6218 88.6 76.0118 88.98 76.2918 89.49C76.5718 90 76.7118 90.645 76.7118 91.425V96H75.2718V91.59C75.2718 90.82 75.0818 90.24 74.7018 89.85C74.3318 89.46 73.8068 89.265 73.1268 89.265C72.6168 89.265 72.1718 89.365 71.7918 89.565C71.4118 89.765 71.1168 90.06 70.9068 90.45C70.7068 90.84 70.6068 91.325 70.6068 91.905V96H69.1668V88.05H70.5468V90.195L70.3218 89.625C70.5818 89.105 70.9818 88.7 71.5218 88.41C72.0618 88.12 72.6918 87.975 73.4118 87.975ZM82.6617 96.09C81.8917 96.09 81.2017 95.92 80.5917 95.58C79.9917 95.24 79.5167 94.765 79.1667 94.155C78.8167 93.545 78.6417 92.835 78.6417 92.025C78.6417 91.215 78.8167 90.51 79.1667 89.91C79.5167 89.3 79.9917 88.825 80.5917 88.485C81.2017 88.145 81.8917 87.975 82.6617 87.975C83.3317 87.975 83.9367 88.125 84.4767 88.425C85.0167 88.725 85.4467 89.175 85.7667 89.775C86.0967 90.375 86.2617 91.125 86.2617 92.025C86.2617 92.925 86.1017 93.675 85.7817 94.275C85.4717 94.875 85.0467 95.33 84.5067 95.64C83.9667 95.94 83.3517 96.09 82.6617 96.09ZM82.7817 94.83C83.2817 94.83 83.7317 94.715 84.1317 94.485C84.5417 94.255 84.8617 93.93 85.0917 93.51C85.3317 93.08 85.4517 92.585 85.4517 92.025C85.4517 91.455 85.3317 90.965 85.0917 90.555C84.8617 90.135 84.5417 89.81 84.1317 89.58C83.7317 89.35 83.2817 89.235 82.7817 89.235C82.2717 89.235 81.8167 89.35 81.4167 89.58C81.0167 89.81 80.6967 90.135 80.4567 90.555C80.2167 90.965 80.0967 91.455 80.0967 92.025C80.0967 92.585 80.2167 93.08 80.4567 93.51C80.6967 93.93 81.0167 94.255 81.4167 94.485C81.8167 94.715 82.2717 94.83 82.7817 94.83ZM85.4967 96V93.855L85.5867 92.01L85.4367 90.165V84.87H86.8767V96H85.4967ZM93.8396 96V87.345C93.8396 86.565 94.0646 85.945 94.5146 85.485C94.9746 85.015 95.6246 84.78 96.4646 84.78C96.7746 84.78 97.0696 84.82 97.3496 84.9C97.6396 84.97 97.8846 85.085 98.0846 85.245L97.6496 86.34C97.4996 86.22 97.3296 86.13 97.1396 86.07C96.9496 86 96.7496 85.965 96.5396 85.965C96.1196 85.965 95.7996 86.085 95.5796 86.325C95.3596 86.555 95.2496 86.9 95.2496 87.36V88.425L95.2796 89.085V96H93.8396ZM92.4896 89.235V88.05H97.5596V89.235H92.4896ZM102.206 96.09C101.406 96.09 100.696 95.915 100.076 95.565C99.4555 95.215 98.9655 94.735 98.6055 94.125C98.2455 93.505 98.0655 92.805 98.0655 92.025C98.0655 91.235 98.2455 90.535 98.6055 89.925C98.9655 89.315 99.4555 88.84 100.076 88.5C100.696 88.15 101.406 87.975 102.206 87.975C102.996 87.975 103.701 88.15 104.321 88.5C104.951 88.84 105.441 89.315 105.791 89.925C106.151 90.525 106.331 91.225 106.331 92.025C106.331 92.815 106.151 93.515 105.791 94.125C105.441 94.735 104.951 95.215 104.321 95.565C103.701 95.915 102.996 96.09 102.206 96.09ZM102.206 94.83C102.716 94.83 103.171 94.715 103.571 94.485C103.981 94.255 104.301 93.93 104.531 93.51C104.761 93.08 104.876 92.585 104.876 92.025C104.876 91.455 104.761 90.965 104.531 90.555C104.301 90.135 103.981 89.81 103.571 89.58C103.171 89.35 102.716 89.235 102.206 89.235C101.696 89.235 101.241 89.35 100.841 89.58C100.441 89.81 100.121 90.135 99.8805 90.555C99.6405 90.965 99.5205 91.455 99.5205 92.025C99.5205 92.585 99.6405 93.08 99.8805 93.51C100.121 93.93 100.441 94.255 100.841 94.485C101.241 94.715 101.696 94.83 102.206 94.83ZM108.322 96V88.05H109.702V90.21L109.567 89.67C109.787 89.12 110.157 88.7 110.677 88.41C111.197 88.12 111.837 87.975 112.597 87.975V89.37C112.537 89.36 112.477 89.355 112.417 89.355C112.367 89.355 112.317 89.355 112.267 89.355C111.497 89.355 110.887 89.585 110.437 90.045C109.987 90.505 109.762 91.17 109.762 92.04V96H108.322ZM116.374 96L113.419 88.05H114.784L117.409 95.25H116.764L119.494 88.05H120.709L123.379 95.25H122.749L125.434 88.05H126.724L123.754 96H122.374L119.869 89.43H120.289L117.754 96H116.374ZM132.871 96V94.32L132.796 94.005V91.14C132.796 90.53 132.616 90.06 132.256 89.73C131.906 89.39 131.376 89.22 130.666 89.22C130.196 89.22 129.736 89.3 129.286 89.46C128.836 89.61 128.456 89.815 128.146 90.075L127.546 88.995C127.956 88.665 128.446 88.415 129.016 88.245C129.596 88.065 130.201 87.975 130.831 87.975C131.921 87.975 132.761 88.24 133.351 88.77C133.941 89.3 134.236 90.11 134.236 91.2V96H132.871ZM130.261 96.09C129.671 96.09 129.151 95.99 128.701 95.79C128.261 95.59 127.921 95.315 127.681 94.965C127.441 94.605 127.321 94.2 127.321 93.75C127.321 93.32 127.421 92.93 127.621 92.58C127.831 92.23 128.166 91.95 128.626 91.74C129.096 91.53 129.726 91.425 130.516 91.425H133.036V92.46H130.576C129.856 92.46 129.371 92.58 129.121 92.82C128.871 93.06 128.746 93.35 128.746 93.69C128.746 94.08 128.901 94.395 129.211 94.635C129.521 94.865 129.951 94.98 130.501 94.98C131.041 94.98 131.511 94.86 131.911 94.62C132.321 94.38 132.616 94.03 132.796 93.57L133.081 94.56C132.891 95.03 132.556 95.405 132.076 95.685C131.596 95.955 130.991 96.09 130.261 96.09ZM136.901 96V88.05H138.281V90.21L138.146 89.67C138.366 89.12 138.736 88.7 139.256 88.41C139.776 88.12 140.416 87.975 141.176 87.975V89.37C141.116 89.36 141.056 89.355 140.996 89.355C140.946 89.355 140.896 89.355 140.846 89.355C140.076 89.355 139.466 89.585 139.016 90.045C138.566 90.505 138.341 91.17 138.341 92.04V96H136.901ZM146.163 96.09C145.393 96.09 144.703 95.92 144.093 95.58C143.493 95.24 143.018 94.765 142.668 94.155C142.318 93.545 142.143 92.835 142.143 92.025C142.143 91.215 142.318 90.51 142.668 89.91C143.018 89.3 143.493 88.825 144.093 88.485C144.703 88.145 145.393 87.975 146.163 87.975C146.833 87.975 147.438 88.125 147.978 88.425C148.518 88.725 148.948 89.175 149.268 89.775C149.598 90.375 149.763 91.125 149.763 92.025C149.763 92.925 149.603 93.675 149.283 94.275C148.973 94.875 148.548 95.33 148.008 95.64C147.468 95.94 146.853 96.09 146.163 96.09ZM146.283 94.83C146.783 94.83 147.233 94.715 147.633 94.485C148.043 94.255 148.363 93.93 148.593 93.51C148.833 93.08 148.953 92.585 148.953 92.025C148.953 91.455 148.833 90.965 148.593 90.555C148.363 90.135 148.043 89.81 147.633 89.58C147.233 89.35 146.783 89.235 146.283 89.235C145.773 89.235 145.318 89.35 144.918 89.58C144.518 89.81 144.198 90.135 143.958 90.555C143.718 90.965 143.598 91.455 143.598 92.025C143.598 92.585 143.718 93.08 143.958 93.51C144.198 93.93 144.518 94.255 144.918 94.485C145.318 94.715 145.773 94.83 146.283 94.83ZM148.998 96V93.855L149.088 92.01L148.938 90.165V84.87H150.378V96H148.998ZM159.411 96.09C158.751 96.09 158.121 96 157.521 95.82C156.931 95.64 156.466 95.42 156.126 95.16L156.726 94.02C157.066 94.25 157.486 94.445 157.986 94.605C158.486 94.765 158.996 94.845 159.516 94.845C160.186 94.845 160.666 94.75 160.956 94.56C161.256 94.37 161.406 94.105 161.406 93.765C161.406 93.515 161.316 93.32 161.136 93.18C160.956 93.04 160.716 92.935 160.416 92.865C160.126 92.795 159.801 92.735 159.441 92.685C159.081 92.625 158.721 92.555 158.361 92.475C158.001 92.385 157.671 92.265 157.371 92.115C157.071 91.955 156.831 91.74 156.651 91.47C156.471 91.19 156.381 90.82 156.381 90.36C156.381 89.88 156.516 89.46 156.786 89.1C157.056 88.74 157.436 88.465 157.926 88.275C158.426 88.075 159.016 87.975 159.696 87.975C160.216 87.975 160.741 88.04 161.271 88.17C161.811 88.29 162.251 88.465 162.591 88.695L161.976 89.835C161.616 89.595 161.241 89.43 160.851 89.34C160.461 89.25 160.071 89.205 159.681 89.205C159.051 89.205 158.581 89.31 158.271 89.52C157.961 89.72 157.806 89.98 157.806 90.3C157.806 90.57 157.896 90.78 158.076 90.93C158.266 91.07 158.506 91.18 158.796 91.26C159.096 91.34 159.426 91.41 159.786 91.47C160.146 91.52 160.506 91.59 160.866 91.68C161.226 91.76 161.551 91.875 161.841 92.025C162.141 92.175 162.381 92.385 162.561 92.655C162.751 92.925 162.846 93.285 162.846 93.735C162.846 94.215 162.706 94.63 162.426 94.98C162.146 95.33 161.751 95.605 161.241 95.805C160.731 95.995 160.121 96.09 159.411 96.09ZM167.375 96.09C166.575 96.09 165.955 95.875 165.515 95.445C165.075 95.015 164.855 94.4 164.855 93.6V86.31H166.295V93.54C166.295 93.97 166.4 94.3 166.61 94.53C166.83 94.76 167.14 94.875 167.54 94.875C167.99 94.875 168.365 94.75 168.665 94.5L169.115 95.535C168.895 95.725 168.63 95.865 168.32 95.955C168.02 96.045 167.705 96.09 167.375 96.09ZM163.505 89.235V88.05H168.575V89.235H163.505ZM170.856 96V88.05H172.236V90.21L172.101 89.67C172.321 89.12 172.691 88.7 173.211 88.41C173.731 88.12 174.371 87.975 175.131 87.975V89.37C175.071 89.36 175.011 89.355 174.951 89.355C174.901 89.355 174.851 89.355 174.801 89.355C174.031 89.355 173.421 89.585 172.971 90.045C172.521 90.505 172.296 91.17 172.296 92.04V96H170.856ZM181.255 96V94.32L181.18 94.005V91.14C181.18 90.53 181 90.06 180.64 89.73C180.29 89.39 179.76 89.22 179.05 89.22C178.58 89.22 178.12 89.3 177.67 89.46C177.22 89.61 176.84 89.815 176.53 90.075L175.93 88.995C176.34 88.665 176.83 88.415 177.4 88.245C177.98 88.065 178.585 87.975 179.215 87.975C180.305 87.975 181.145 88.24 181.735 88.77C182.325 89.3 182.62 90.11 182.62 91.2V96H181.255ZM178.645 96.09C178.055 96.09 177.535 95.99 177.085 95.79C176.645 95.59 176.305 95.315 176.065 94.965C175.825 94.605 175.705 94.2 175.705 93.75C175.705 93.32 175.805 92.93 176.005 92.58C176.215 92.23 176.55 91.95 177.01 91.74C177.48 91.53 178.11 91.425 178.9 91.425H181.42V92.46H178.96C178.24 92.46 177.755 92.58 177.505 92.82C177.255 93.06 177.13 93.35 177.13 93.69C177.13 94.08 177.285 94.395 177.595 94.635C177.905 94.865 178.335 94.98 178.885 94.98C179.425 94.98 179.895 94.86 180.295 94.62C180.705 94.38 181 94.03 181.18 93.57L181.465 94.56C181.275 95.03 180.94 95.405 180.46 95.685C179.98 95.955 179.375 96.09 178.645 96.09ZM188.015 96.09C187.215 96.09 186.595 95.875 186.155 95.445C185.715 95.015 185.495 94.4 185.495 93.6V86.31H186.935V93.54C186.935 93.97 187.04 94.3 187.25 94.53C187.47 94.76 187.78 94.875 188.18 94.875C188.63 94.875 189.005 94.75 189.305 94.5L189.755 95.535C189.535 95.725 189.27 95.865 188.96 95.955C188.66 96.045 188.345 96.09 188.015 96.09ZM184.145 89.235V88.05H189.215V89.235H184.145ZM194.772 96.09C193.922 96.09 193.172 95.915 192.522 95.565C191.882 95.215 191.382 94.735 191.022 94.125C190.672 93.515 190.497 92.815 190.497 92.025C190.497 91.235 190.667 90.535 191.007 89.925C191.357 89.315 191.832 88.84 192.432 88.5C193.042 88.15 193.727 87.975 194.487 87.975C195.257 87.975 195.937 88.145 196.527 88.485C197.117 88.825 197.577 89.305 197.907 89.925C198.247 90.535 198.417 91.25 198.417 92.07C198.417 92.13 198.412 92.2 198.402 92.28C198.402 92.36 198.397 92.435 198.387 92.505H191.622V91.47H197.637L197.052 91.83C197.062 91.32 196.957 90.865 196.737 90.465C196.517 90.065 196.212 89.755 195.822 89.535C195.442 89.305 194.997 89.19 194.487 89.19C193.987 89.19 193.542 89.305 193.152 89.535C192.762 89.755 192.457 90.07 192.237 90.48C192.017 90.88 191.907 91.34 191.907 91.86V92.1C191.907 92.63 192.027 93.105 192.267 93.525C192.517 93.935 192.862 94.255 193.302 94.485C193.742 94.715 194.247 94.83 194.817 94.83C195.287 94.83 195.712 94.75 196.092 94.59C196.482 94.43 196.822 94.19 197.112 93.87L197.907 94.8C197.547 95.22 197.097 95.54 196.557 95.76C196.027 95.98 195.432 96.09 194.772 96.09ZM203.897 99C203.167 99 202.457 98.895 201.767 98.685C201.087 98.485 200.532 98.195 200.102 97.815L200.792 96.705C201.162 97.025 201.617 97.275 202.157 97.455C202.697 97.645 203.262 97.74 203.852 97.74C204.792 97.74 205.482 97.52 205.922 97.08C206.362 96.64 206.582 95.97 206.582 95.07V93.39L206.732 91.815L206.657 90.225V88.05H208.022V94.92C208.022 96.32 207.672 97.35 206.972 98.01C206.272 98.67 205.247 99 203.897 99ZM203.717 95.67C202.947 95.67 202.257 95.51 201.647 95.19C201.047 94.86 200.567 94.405 200.207 93.825C199.857 93.245 199.682 92.575 199.682 91.815C199.682 91.045 199.857 90.375 200.207 89.805C200.567 89.225 201.047 88.775 201.647 88.455C202.257 88.135 202.947 87.975 203.717 87.975C204.397 87.975 205.017 88.115 205.577 88.395C206.137 88.665 206.582 89.085 206.912 89.655C207.252 90.225 207.422 90.945 207.422 91.815C207.422 92.675 207.252 93.39 206.912 93.96C206.582 94.53 206.137 94.96 205.577 95.25C205.017 95.53 204.397 95.67 203.717 95.67ZM203.882 94.41C204.412 94.41 204.882 94.3 205.292 94.08C205.702 93.86 206.022 93.555 206.252 93.165C206.492 92.775 206.612 92.325 206.612 91.815C206.612 91.305 206.492 90.855 206.252 90.465C206.022 90.075 205.702 89.775 205.292 89.565C204.882 89.345 204.412 89.235 203.882 89.235C203.352 89.235 202.877 89.345 202.457 89.565C202.047 89.775 201.722 90.075 201.482 90.465C201.252 90.855 201.137 91.305 201.137 91.815C201.137 92.325 201.252 92.775 201.482 93.165C201.722 93.555 202.047 93.86 202.457 94.08C202.877 94.3 203.352 94.41 203.882 94.41ZM210.773 96V88.05H212.213V96H210.773ZM211.493 86.52C211.213 86.52 210.978 86.43 210.788 86.25C210.608 86.07 210.518 85.85 210.518 85.59C210.518 85.32 210.608 85.095 210.788 84.915C210.978 84.735 211.213 84.645 211.493 84.645C211.773 84.645 212.003 84.735 212.183 84.915C212.373 85.085 212.468 85.3 212.468 85.56C212.468 85.83 212.378 86.06 212.198 86.25C212.018 86.43 211.783 86.52 211.493 86.52ZM218.503 96.09C217.653 96.09 216.903 95.915 216.253 95.565C215.613 95.215 215.113 94.735 214.753 94.125C214.403 93.515 214.228 92.815 214.228 92.025C214.228 91.235 214.398 90.535 214.738 89.925C215.088 89.315 215.563 88.84 216.163 88.5C216.773 88.15 217.458 87.975 218.218 87.975C218.988 87.975 219.668 88.145 220.258 88.485C220.848 88.825 221.308 89.305 221.638 89.925C221.978 90.535 222.148 91.25 222.148 92.07C222.148 92.13 222.143 92.2 222.133 92.28C222.133 92.36 222.128 92.435 222.118 92.505H215.353V91.47H221.368L220.783 91.83C220.793 91.32 220.688 90.865 220.468 90.465C220.248 90.065 219.943 89.755 219.553 89.535C219.173 89.305 218.728 89.19 218.218 89.19C217.718 89.19 217.273 89.305 216.883 89.535C216.493 89.755 216.188 90.07 215.968 90.48C215.748 90.88 215.638 91.34 215.638 91.86V92.1C215.638 92.63 215.758 93.105 215.998 93.525C216.248 93.935 216.593 94.255 217.033 94.485C217.473 94.715 217.978 94.83 218.548 94.83C219.018 94.83 219.443 94.75 219.823 94.59C220.213 94.43 220.553 94.19 220.843 93.87L221.638 94.8C221.278 95.22 220.828 95.54 220.288 95.76C219.758 95.98 219.163 96.09 218.503 96.09ZM226.427 96.09C225.767 96.09 225.137 96 224.537 95.82C223.947 95.64 223.482 95.42 223.142 95.16L223.742 94.02C224.082 94.25 224.502 94.445 225.002 94.605C225.502 94.765 226.012 94.845 226.532 94.845C227.202 94.845 227.682 94.75 227.972 94.56C228.272 94.37 228.422 94.105 228.422 93.765C228.422 93.515 228.332 93.32 228.152 93.18C227.972 93.04 227.732 92.935 227.432 92.865C227.142 92.795 226.817 92.735 226.457 92.685C226.097 92.625 225.737 92.555 225.377 92.475C225.017 92.385 224.687 92.265 224.387 92.115C224.087 91.955 223.847 91.74 223.667 91.47C223.487 91.19 223.397 90.82 223.397 90.36C223.397 89.88 223.532 89.46 223.802 89.1C224.072 88.74 224.452 88.465 224.942 88.275C225.442 88.075 226.032 87.975 226.712 87.975C227.232 87.975 227.757 88.04 228.287 88.17C228.827 88.29 229.267 88.465 229.607 88.695L228.992 89.835C228.632 89.595 228.257 89.43 227.867 89.34C227.477 89.25 227.087 89.205 226.697 89.205C226.067 89.205 225.597 89.31 225.287 89.52C224.977 89.72 224.822 89.98 224.822 90.3C224.822 90.57 224.912 90.78 225.092 90.93C225.282 91.07 225.522 91.18 225.812 91.26C226.112 91.34 226.442 91.41 226.802 91.47C227.162 91.52 227.522 91.59 227.882 91.68C228.242 91.76 228.567 91.875 228.857 92.025C229.157 92.175 229.397 92.385 229.577 92.655C229.767 92.925 229.862 93.285 229.862 93.735C229.862 94.215 229.722 94.63 229.442 94.98C229.162 95.33 228.767 95.605 228.257 95.805C227.747 95.995 227.137 96.09 226.427 96.09ZM232.007 96.09C231.727 96.09 231.487 95.995 231.287 95.805C231.087 95.605 230.987 95.355 230.987 95.055C230.987 94.755 231.087 94.51 231.287 94.32C231.487 94.13 231.727 94.035 232.007 94.035C232.277 94.035 232.507 94.13 232.697 94.32C232.897 94.51 232.997 94.755 232.997 95.055C232.997 95.355 232.897 95.605 232.697 95.805C232.507 95.995 232.277 96.09 232.007 96.09Z" fill="white" fill-opacity="0.75"/>
</svg>
