<svg width="353" height="450" viewBox="0 0 353 450" fill="none" xmlns="http://www.w3.org/2000/svg">
<g filter="url(#filter0_d_497_471)">
<rect x="4" width="345" height="442" rx="22" fill="url(#paint0_linear_497_471)"/>
<rect x="36" y="32" width="66" height="25" rx="12.5" fill="#171717"/>
<path d="M55.5544 47.5V42.1H56.8384V47.5H55.5544ZM53.4304 45.4V44.2H58.9624V45.4H53.4304ZM63.0405 49.12C62.4485 49.12 61.8685 49.036 61.3005 48.868C60.7405 48.692 60.2685 48.452 59.8845 48.148L60.5445 46.936C60.8485 47.184 61.2165 47.384 61.6485 47.536C62.0885 47.688 62.5445 47.764 63.0165 47.764C63.5685 47.764 64.0005 47.648 64.3125 47.416C64.6325 47.184 64.7925 46.872 64.7925 46.48C64.7925 46.216 64.7245 45.984 64.5885 45.784C64.4605 45.584 64.2285 45.432 63.8925 45.328C63.5645 45.224 63.1125 45.172 62.5365 45.172H60.5085L60.9405 40.6H65.8725V41.908H61.5165L62.3325 41.164L62.0085 44.584L61.1925 43.852H62.8845C63.7165 43.852 64.3845 43.964 64.8885 44.188C65.4005 44.404 65.7725 44.708 66.0045 45.1C66.2445 45.484 66.3645 45.924 66.3645 46.42C66.3645 46.908 66.2445 47.356 66.0045 47.764C65.7645 48.172 65.3965 48.5 64.9005 48.748C64.4125 48.996 63.7925 49.12 63.0405 49.12ZM70.9003 49.12C70.1403 49.12 69.4883 48.96 68.9443 48.64C68.4003 48.312 67.9843 47.84 67.6963 47.224C67.4083 46.608 67.2643 45.848 67.2643 44.944C67.2643 43.984 67.4363 43.172 67.7803 42.508C68.1323 41.844 68.6163 41.34 69.2323 40.996C69.8563 40.652 70.5723 40.48 71.3803 40.48C71.8043 40.48 72.2083 40.524 72.5923 40.612C72.9843 40.7 73.3163 40.836 73.5883 41.02L73.0123 42.196C72.7803 42.044 72.5283 41.94 72.2563 41.884C71.9923 41.82 71.7123 41.788 71.4163 41.788C70.6243 41.788 69.9963 42.032 69.5323 42.52C69.0683 43.008 68.8363 43.728 68.8363 44.68C68.8363 44.832 68.8403 45.012 68.8483 45.22C68.8563 45.42 68.8843 45.624 68.9323 45.832L68.4523 45.304C68.5963 44.976 68.7923 44.704 69.0403 44.488C69.2963 44.264 69.5963 44.096 69.9403 43.984C70.2923 43.872 70.6723 43.816 71.0803 43.816C71.6323 43.816 72.1243 43.924 72.5563 44.14C72.9883 44.348 73.3323 44.648 73.5883 45.04C73.8443 45.424 73.9723 45.876 73.9723 46.396C73.9723 46.948 73.8363 47.428 73.5643 47.836C73.2923 48.244 72.9243 48.56 72.4603 48.784C71.9963 49.008 71.4763 49.12 70.9003 49.12ZM70.8163 47.896C71.1363 47.896 71.4203 47.84 71.6683 47.728C71.9163 47.608 72.1083 47.44 72.2443 47.224C72.3883 47.008 72.4603 46.756 72.4603 46.468C72.4603 46.028 72.3083 45.68 72.0043 45.424C71.7003 45.168 71.2923 45.04 70.7803 45.04C70.4443 45.04 70.1483 45.104 69.8923 45.232C69.6443 45.352 69.4443 45.52 69.2923 45.736C69.1483 45.952 69.0763 46.2 69.0763 46.48C69.0763 46.736 69.1443 46.972 69.2803 47.188C69.4163 47.404 69.6123 47.576 69.8683 47.704C70.1323 47.832 70.4483 47.896 70.8163 47.896ZM75.7294 49L81.4654 40.6H82.6414L76.9054 49H75.7294ZM76.4254 45.124C76.0334 45.124 75.6854 45.028 75.3814 44.836C75.0774 44.644 74.8414 44.376 74.6734 44.032C74.5054 43.688 74.4214 43.284 74.4214 42.82C74.4214 42.356 74.5054 41.952 74.6734 41.608C74.8414 41.264 75.0774 40.996 75.3814 40.804C75.6854 40.612 76.0334 40.516 76.4254 40.516C76.8334 40.516 77.1854 40.612 77.4814 40.804C77.7854 40.996 78.0214 41.264 78.1894 41.608C78.3574 41.952 78.4414 42.356 78.4414 42.82C78.4414 43.284 78.3574 43.688 78.1894 44.032C78.0214 44.376 77.7854 44.644 77.4814 44.836C77.1854 45.028 76.8334 45.124 76.4254 45.124ZM76.4374 44.284C76.7574 44.284 77.0054 44.16 77.1814 43.912C77.3654 43.656 77.4574 43.292 77.4574 42.82C77.4574 42.348 77.3654 41.988 77.1814 41.74C77.0054 41.484 76.7574 41.356 76.4374 41.356C76.1174 41.356 75.8614 41.484 75.6694 41.74C75.4854 41.996 75.3934 42.356 75.3934 42.82C75.3934 43.284 75.4854 43.644 75.6694 43.9C75.8614 44.156 76.1174 44.284 76.4374 44.284ZM81.9334 49.084C81.5414 49.084 81.1934 48.988 80.8894 48.796C80.5854 48.604 80.3494 48.336 80.1814 47.992C80.0134 47.648 79.9294 47.244 79.9294 46.78C79.9294 46.316 80.0134 45.912 80.1814 45.568C80.3494 45.224 80.5854 44.956 80.8894 44.764C81.1934 44.572 81.5414 44.476 81.9334 44.476C82.3414 44.476 82.6934 44.572 82.9894 44.764C83.2934 44.956 83.5294 45.224 83.6974 45.568C83.8654 45.912 83.9494 46.316 83.9494 46.78C83.9494 47.244 83.8654 47.648 83.6974 47.992C83.5294 48.336 83.2934 48.604 82.9894 48.796C82.6934 48.988 82.3414 49.084 81.9334 49.084ZM81.9334 48.244C82.2534 48.244 82.5054 48.116 82.6894 47.86C82.8734 47.604 82.9654 47.244 82.9654 46.78C82.9654 46.316 82.8734 45.956 82.6894 45.7C82.5054 45.444 82.2534 45.316 81.9334 45.316C81.6214 45.316 81.3694 45.444 81.1774 45.7C80.9934 45.948 80.9014 46.308 80.9014 46.78C80.9014 47.252 80.9934 47.616 81.1774 47.872C81.3694 48.12 81.6214 48.244 81.9334 48.244Z" fill="#F0F0F0"/>
<path d="M41.568 126.968H49.656V129.992H41.568V126.968ZM41.856 133.88H51V137H37.992V120.2H50.688V123.32H41.856V133.88ZM70.3656 123.896C71.3896 123.896 72.2936 124.104 73.0776 124.52C73.8776 124.92 74.5016 125.544 74.9496 126.392C75.4136 127.224 75.6456 128.296 75.6456 129.608V137H71.9016V130.184C71.9016 129.144 71.6856 128.376 71.2536 127.88C70.8216 127.384 70.2136 127.136 69.4296 127.136C68.8856 127.136 68.3976 127.264 67.9656 127.52C67.5336 127.76 67.1976 128.128 66.9576 128.624C66.7176 129.12 66.5976 129.752 66.5976 130.52V137H62.8536V130.184C62.8536 129.144 62.6376 128.376 62.2056 127.88C61.7896 127.384 61.1896 127.136 60.4056 127.136C59.8616 127.136 59.3736 127.264 58.9416 127.52C58.5096 127.76 58.1736 128.128 57.9336 128.624C57.6936 129.12 57.5736 129.752 57.5736 130.52V137H53.8296V124.088H57.4056V127.616L56.7336 126.584C57.1816 125.704 57.8136 125.04 58.6296 124.592C59.4616 124.128 60.4056 123.896 61.4616 123.896C62.6456 123.896 63.6776 124.2 64.5576 124.808C65.4536 125.4 66.0456 126.312 66.3336 127.544L65.0136 127.184C65.4456 126.176 66.1336 125.376 67.0776 124.784C68.0376 124.192 69.1336 123.896 70.3656 123.896ZM86.6334 137.192C85.5454 137.192 84.5934 136.952 83.7774 136.472C82.9614 135.992 82.3214 135.264 81.8574 134.288C81.4094 133.296 81.1854 132.048 81.1854 130.544C81.1854 129.024 81.4014 127.776 81.8334 126.8C82.2654 125.824 82.8894 125.096 83.7054 124.616C84.5214 124.136 85.4974 123.896 86.6334 123.896C87.8494 123.896 88.9374 124.176 89.8974 124.736C90.8734 125.28 91.6414 126.048 92.2014 127.04C92.7774 128.032 93.0654 129.2 93.0654 130.544C93.0654 131.904 92.7774 133.08 92.2014 134.072C91.6414 135.064 90.8734 135.832 89.8974 136.376C88.9374 136.92 87.8494 137.192 86.6334 137.192ZM79.0014 141.656V124.088H82.5774V126.728L82.5054 130.568L82.7454 134.384V141.656H79.0014ZM85.9854 134.12C86.6094 134.12 87.1614 133.976 87.6414 133.688C88.1374 133.4 88.5294 132.992 88.8174 132.464C89.1214 131.92 89.2734 131.28 89.2734 130.544C89.2734 129.792 89.1214 129.152 88.8174 128.624C88.5294 128.096 88.1374 127.688 87.6414 127.4C87.1614 127.112 86.6094 126.968 85.9854 126.968C85.3614 126.968 84.8014 127.112 84.3054 127.4C83.8094 127.688 83.4174 128.096 83.1294 128.624C82.8414 129.152 82.6974 129.792 82.6974 130.544C82.6974 131.28 82.8414 131.92 83.1294 132.464C83.4174 132.992 83.8094 133.4 84.3054 133.688C84.8014 133.976 85.3614 134.12 85.9854 134.12ZM101.716 137.192C100.34 137.192 99.1158 136.904 98.0438 136.328C96.9878 135.752 96.1478 134.968 95.5238 133.976C94.9158 132.968 94.6118 131.824 94.6118 130.544C94.6118 129.248 94.9158 128.104 95.5238 127.112C96.1478 126.104 96.9878 125.32 98.0438 124.76C99.1158 124.184 100.34 123.896 101.716 123.896C103.076 123.896 104.292 124.184 105.364 124.76C106.436 125.32 107.276 126.096 107.884 127.088C108.492 128.08 108.796 129.232 108.796 130.544C108.796 131.824 108.492 132.968 107.884 133.976C107.276 134.968 106.436 135.752 105.364 136.328C104.292 136.904 103.076 137.192 101.716 137.192ZM101.716 134.12C102.34 134.12 102.9 133.976 103.396 133.688C103.892 133.4 104.284 132.992 104.572 132.464C104.86 131.92 105.004 131.28 105.004 130.544C105.004 129.792 104.86 129.152 104.572 128.624C104.284 128.096 103.892 127.688 103.396 127.4C102.9 127.112 102.34 126.968 101.716 126.968C101.092 126.968 100.532 127.112 100.036 127.4C99.5398 127.688 99.1398 128.096 98.8358 128.624C98.5478 129.152 98.4038 129.792 98.4038 130.544C98.4038 131.28 98.5478 131.92 98.8358 132.464C99.1398 132.992 99.5398 133.4 100.036 133.688C100.532 133.976 101.092 134.12 101.716 134.12ZM113.899 137L109.243 124.088H112.771L116.635 135.2H114.955L118.987 124.088H122.155L126.067 135.2H124.387L128.371 124.088H131.683L127.003 137H123.379L119.947 127.472H121.051L117.499 137H113.899ZM139.48 137.192C138.008 137.192 136.712 136.904 135.592 136.328C134.488 135.752 133.632 134.968 133.024 133.976C132.416 132.968 132.112 131.824 132.112 130.544C132.112 129.248 132.408 128.104 133 127.112C133.608 126.104 134.432 125.32 135.472 124.76C136.512 124.184 137.688 123.896 139 123.896C140.264 123.896 141.4 124.168 142.408 124.712C143.432 125.24 144.24 126.008 144.832 127.016C145.424 128.008 145.72 129.2 145.72 130.592C145.72 130.736 145.712 130.904 145.696 131.096C145.68 131.272 145.664 131.44 145.648 131.6H135.16V129.416H143.68L142.24 130.064C142.24 129.392 142.104 128.808 141.832 128.312C141.56 127.816 141.184 127.432 140.704 127.16C140.224 126.872 139.664 126.728 139.024 126.728C138.384 126.728 137.816 126.872 137.32 127.16C136.84 127.432 136.464 127.824 136.192 128.336C135.92 128.832 135.784 129.424 135.784 130.112V130.688C135.784 131.392 135.936 132.016 136.24 132.56C136.56 133.088 137 133.496 137.56 133.784C138.136 134.056 138.808 134.192 139.576 134.192C140.264 134.192 140.864 134.088 141.376 133.88C141.904 133.672 142.384 133.36 142.816 132.944L144.808 135.104C144.216 135.776 143.472 136.296 142.576 136.664C141.68 137.016 140.648 137.192 139.48 137.192ZM148.212 137V124.088H151.788V127.736L151.284 126.68C151.668 125.768 152.284 125.08 153.132 124.616C153.98 124.136 155.012 123.896 156.228 123.896V127.352C156.068 127.336 155.924 127.328 155.796 127.328C155.668 127.312 155.532 127.304 155.388 127.304C154.364 127.304 153.532 127.6 152.892 128.192C152.268 128.768 151.956 129.672 151.956 130.904V137H148.212ZM158.478 137V124.088H162.222V137H158.478ZM160.35 122.288C159.662 122.288 159.102 122.088 158.67 121.688C158.238 121.288 158.022 120.792 158.022 120.2C158.022 119.608 158.238 119.112 158.67 118.712C159.102 118.312 159.662 118.112 160.35 118.112C161.038 118.112 161.598 118.304 162.03 118.688C162.462 119.056 162.678 119.536 162.678 120.128C162.678 120.752 162.462 121.272 162.03 121.688C161.614 122.088 161.054 122.288 160.35 122.288ZM173.545 123.896C174.569 123.896 175.481 124.104 176.281 124.52C177.097 124.92 177.737 125.544 178.201 126.392C178.665 127.224 178.897 128.296 178.897 129.608V137H175.153V130.184C175.153 129.144 174.921 128.376 174.457 127.88C174.009 127.384 173.369 127.136 172.537 127.136C171.945 127.136 171.409 127.264 170.929 127.52C170.465 127.76 170.097 128.136 169.825 128.648C169.569 129.16 169.441 129.816 169.441 130.616V137H165.697V124.088H169.273V127.664L168.601 126.584C169.065 125.72 169.729 125.056 170.593 124.592C171.457 124.128 172.441 123.896 173.545 123.896ZM188.456 141.848C187.24 141.848 186.064 141.696 184.928 141.392C183.808 141.104 182.872 140.664 182.12 140.072L183.608 137.384C184.152 137.832 184.84 138.184 185.672 138.44C186.52 138.712 187.352 138.848 188.168 138.848C189.496 138.848 190.456 138.552 191.048 137.96C191.656 137.368 191.96 136.488 191.96 135.32V133.376L192.2 130.136L192.152 126.872V124.088H195.704V134.84C195.704 137.24 195.08 139.008 193.832 140.144C192.584 141.28 190.792 141.848 188.456 141.848ZM187.88 136.376C186.68 136.376 185.592 136.12 184.616 135.608C183.656 135.08 182.88 134.352 182.288 133.424C181.712 132.48 181.424 131.384 181.424 130.136C181.424 128.872 181.712 127.776 182.288 126.848C182.88 125.904 183.656 125.176 184.616 124.664C185.592 124.152 186.68 123.896 187.88 123.896C188.968 123.896 189.928 124.12 190.76 124.568C191.592 125 192.24 125.68 192.704 126.608C193.168 127.52 193.4 128.696 193.4 130.136C193.4 131.56 193.168 132.736 192.704 133.664C192.24 134.576 191.592 135.256 190.76 135.704C189.928 136.152 188.968 136.376 187.88 136.376ZM188.624 133.304C189.28 133.304 189.864 133.176 190.376 132.92C190.888 132.648 191.288 132.272 191.576 131.792C191.864 131.312 192.008 130.76 192.008 130.136C192.008 129.496 191.864 128.944 191.576 128.48C191.288 128 190.888 127.632 190.376 127.376C189.864 127.104 189.28 126.968 188.624 126.968C187.968 126.968 187.384 127.104 186.872 127.376C186.36 127.632 185.952 128 185.648 128.48C185.36 128.944 185.216 129.496 185.216 130.136C185.216 130.76 185.36 131.312 185.648 131.792C185.952 132.272 186.36 132.648 186.872 132.92C187.384 133.176 187.968 133.304 188.624 133.304ZM214.41 137.288C213.082 137.288 211.85 137.072 210.714 136.64C209.594 136.208 208.618 135.6 207.786 134.816C206.97 134.032 206.33 133.112 205.866 132.056C205.418 131 205.194 129.848 205.194 128.6C205.194 127.352 205.418 126.2 205.866 125.144C206.33 124.088 206.978 123.168 207.81 122.384C208.642 121.6 209.618 120.992 210.738 120.56C211.858 120.128 213.074 119.912 214.386 119.912C215.714 119.912 216.93 120.128 218.034 120.56C219.154 120.992 220.122 121.6 220.938 122.384C221.77 123.168 222.418 124.088 222.882 125.144C223.346 126.184 223.578 127.336 223.578 128.6C223.578 129.848 223.346 131.008 222.882 132.08C222.418 133.136 221.77 134.056 220.938 134.84C220.122 135.608 219.154 136.208 218.034 136.64C216.93 137.072 215.722 137.288 214.41 137.288ZM214.386 133.976C215.138 133.976 215.826 133.848 216.45 133.592C217.09 133.336 217.65 132.968 218.13 132.488C218.61 132.008 218.978 131.44 219.234 130.784C219.506 130.128 219.642 129.4 219.642 128.6C219.642 127.8 219.506 127.072 219.234 126.416C218.978 125.76 218.61 125.192 218.13 124.712C217.666 124.232 217.114 123.864 216.474 123.608C215.834 123.352 215.138 123.224 214.386 123.224C213.634 123.224 212.938 123.352 212.298 123.608C211.674 123.864 211.122 124.232 210.642 124.712C210.162 125.192 209.786 125.76 209.514 126.416C209.258 127.072 209.13 127.8 209.13 128.6C209.13 129.384 209.258 130.112 209.514 130.784C209.786 131.44 210.154 132.008 210.618 132.488C211.098 132.968 211.658 133.336 212.298 133.592C212.938 133.848 213.634 133.976 214.386 133.976ZM231.684 137.192C230.612 137.192 229.652 136.984 228.804 136.568C227.972 136.152 227.324 135.52 226.86 134.672C226.396 133.808 226.164 132.712 226.164 131.384V124.088H229.908V130.832C229.908 131.904 230.132 132.696 230.58 133.208C231.044 133.704 231.692 133.952 232.524 133.952C233.1 133.952 233.612 133.832 234.06 133.592C234.508 133.336 234.86 132.952 235.116 132.44C235.372 131.912 235.5 131.256 235.5 130.472V124.088H239.244V137H235.692V133.448L236.34 134.48C235.908 135.376 235.268 136.056 234.42 136.52C233.588 136.968 232.676 137.192 231.684 137.192ZM242.712 137V124.088H246.288V127.736L245.784 126.68C246.168 125.768 246.784 125.08 247.632 124.616C248.48 124.136 249.512 123.896 250.728 123.896V127.352C250.568 127.336 250.424 127.328 250.296 127.328C250.168 127.312 250.032 127.304 249.888 127.304C248.864 127.304 248.032 127.6 247.392 128.192C246.768 128.768 246.456 129.672 246.456 130.904V137H242.712ZM46.032 166.288C44.736 166.288 43.528 166.08 42.408 165.664C41.304 165.232 40.344 164.624 39.528 163.84C38.712 163.056 38.072 162.136 37.608 161.08C37.16 160.024 36.936 158.864 36.936 157.6C36.936 156.336 37.16 155.176 37.608 154.12C38.072 153.064 38.712 152.144 39.528 151.36C40.36 150.576 41.328 149.976 42.432 149.56C43.536 149.128 44.744 148.912 46.056 148.912C47.512 148.912 48.824 149.168 49.992 149.68C51.176 150.176 52.168 150.912 52.968 151.888L50.472 154.192C49.896 153.536 49.256 153.048 48.552 152.728C47.848 152.392 47.08 152.224 46.248 152.224C45.464 152.224 44.744 152.352 44.088 152.608C43.432 152.864 42.864 153.232 42.384 153.712C41.904 154.192 41.528 154.76 41.256 155.416C41 156.072 40.872 156.8 40.872 157.6C40.872 158.4 41 159.128 41.256 159.784C41.528 160.44 41.904 161.008 42.384 161.488C42.864 161.968 43.432 162.336 44.088 162.592C44.744 162.848 45.464 162.976 46.248 162.976C47.08 162.976 47.848 162.816 48.552 162.496C49.256 162.16 49.896 161.656 50.472 160.984L52.968 163.288C52.168 164.264 51.176 165.008 49.992 165.52C48.824 166.032 47.504 166.288 46.032 166.288ZM55.3296 166V148.192H59.0736V166H55.3296ZM62.5483 166V153.088H66.2923V166H62.5483ZM64.4203 151.288C63.7323 151.288 63.1723 151.088 62.7403 150.688C62.3083 150.288 62.0923 149.792 62.0923 149.2C62.0923 148.608 62.3083 148.112 62.7403 147.712C63.1723 147.312 63.7323 147.112 64.4203 147.112C65.1083 147.112 65.6683 147.304 66.1003 147.688C66.5323 148.056 66.7483 148.536 66.7483 149.128C66.7483 149.752 66.5323 150.272 66.1003 150.688C65.6843 151.088 65.1243 151.288 64.4203 151.288ZM76.1751 166.192C74.7031 166.192 73.4071 165.904 72.2871 165.328C71.1831 164.752 70.3271 163.968 69.7191 162.976C69.1111 161.968 68.8071 160.824 68.8071 159.544C68.8071 158.248 69.1031 157.104 69.6951 156.112C70.3031 155.104 71.1271 154.32 72.1671 153.76C73.2071 153.184 74.3831 152.896 75.6951 152.896C76.9591 152.896 78.0951 153.168 79.1031 153.712C80.1271 154.24 80.9351 155.008 81.5271 156.016C82.1191 157.008 82.4151 158.2 82.4151 159.592C82.4151 159.736 82.4071 159.904 82.3911 160.096C82.3751 160.272 82.3591 160.44 82.3431 160.6H71.8551V158.416H80.3751L78.9351 159.064C78.9351 158.392 78.7991 157.808 78.5271 157.312C78.2551 156.816 77.8791 156.432 77.3991 156.16C76.9191 155.872 76.3591 155.728 75.7191 155.728C75.0791 155.728 74.5111 155.872 74.0151 156.16C73.5351 156.432 73.1591 156.824 72.8871 157.336C72.6151 157.832 72.4791 158.424 72.4791 159.112V159.688C72.4791 160.392 72.6311 161.016 72.9351 161.56C73.2551 162.088 73.6951 162.496 74.2551 162.784C74.8311 163.056 75.5031 163.192 76.2711 163.192C76.9591 163.192 77.5591 163.088 78.0711 162.88C78.5991 162.672 79.0791 162.36 79.5111 161.944L81.5031 164.104C80.9111 164.776 80.1671 165.296 79.2711 165.664C78.3751 166.016 77.3431 166.192 76.1751 166.192ZM92.7557 152.896C93.7797 152.896 94.6917 153.104 95.4917 153.52C96.3077 153.92 96.9477 154.544 97.4117 155.392C97.8757 156.224 98.1077 157.296 98.1077 158.608V166H94.3637V159.184C94.3637 158.144 94.1317 157.376 93.6677 156.88C93.2197 156.384 92.5797 156.136 91.7477 156.136C91.1557 156.136 90.6197 156.264 90.1397 156.52C89.6757 156.76 89.3077 157.136 89.0357 157.648C88.7797 158.16 88.6517 158.816 88.6517 159.616V166H84.9077V153.088H88.4837V156.664L87.8117 155.584C88.2757 154.72 88.9397 154.056 89.8037 153.592C90.6677 153.128 91.6517 152.896 92.7557 152.896ZM106.781 166.192C105.261 166.192 104.077 165.808 103.229 165.04C102.381 164.256 101.957 163.096 101.957 161.56V150.232H105.701V161.512C105.701 162.056 105.845 162.48 106.133 162.784C106.421 163.072 106.813 163.216 107.309 163.216C107.901 163.216 108.405 163.056 108.821 162.736L109.829 165.376C109.445 165.648 108.981 165.856 108.437 166C107.909 166.128 107.357 166.192 106.781 166.192ZM99.9654 156.256V153.376H108.917V156.256H99.9654ZM116.275 166.192C115.171 166.192 114.107 166.064 113.083 165.808C112.075 165.536 111.275 165.2 110.683 164.8L111.931 162.112C112.523 162.48 113.219 162.784 114.019 163.024C114.835 163.248 115.635 163.36 116.419 163.36C117.283 163.36 117.891 163.256 118.243 163.048C118.611 162.84 118.795 162.552 118.795 162.184C118.795 161.88 118.651 161.656 118.363 161.512C118.091 161.352 117.723 161.232 117.259 161.152C116.795 161.072 116.283 160.992 115.723 160.912C115.179 160.832 114.627 160.728 114.067 160.6C113.507 160.456 112.995 160.248 112.531 159.976C112.067 159.704 111.691 159.336 111.403 158.872C111.131 158.408 110.995 157.808 110.995 157.072C110.995 156.256 111.227 155.536 111.691 154.912C112.171 154.288 112.859 153.8 113.755 153.448C114.651 153.08 115.723 152.896 116.971 152.896C117.851 152.896 118.747 152.992 119.659 153.184C120.571 153.376 121.331 153.656 121.939 154.024L120.691 156.688C120.067 156.32 119.435 156.072 118.795 155.944C118.171 155.8 117.563 155.728 116.971 155.728C116.139 155.728 115.531 155.84 115.147 156.064C114.763 156.288 114.571 156.576 114.571 156.928C114.571 157.248 114.707 157.488 114.979 157.648C115.267 157.808 115.643 157.936 116.107 158.032C116.571 158.128 117.075 158.216 117.619 158.296C118.179 158.36 118.739 158.464 119.299 158.608C119.859 158.752 120.363 158.96 120.811 159.232C121.275 159.488 121.651 159.848 121.939 160.312C122.227 160.76 122.371 161.352 122.371 162.088C122.371 162.888 122.131 163.6 121.651 164.224C121.171 164.832 120.475 165.312 119.563 165.664C118.667 166.016 117.571 166.192 116.275 166.192ZM134.43 166L129.774 153.088H133.302L137.166 164.2H135.486L139.518 153.088H142.686L146.598 164.2H144.918L148.902 153.088H152.214L147.534 166H143.91L140.478 156.472H141.582L138.03 166H134.43ZM153.955 166V153.088H157.699V166H153.955ZM155.827 151.288C155.139 151.288 154.579 151.088 154.147 150.688C153.715 150.288 153.499 149.792 153.499 149.2C153.499 148.608 153.715 148.112 154.147 147.712C154.579 147.312 155.139 147.112 155.827 147.112C156.515 147.112 157.075 147.304 157.507 147.688C157.939 148.056 158.155 148.536 158.155 149.128C158.155 149.752 157.939 150.272 157.507 150.688C157.091 151.088 156.531 151.288 155.827 151.288ZM166.453 166.192C164.933 166.192 163.749 165.808 162.901 165.04C162.053 164.256 161.629 163.096 161.629 161.56V150.232H165.373V161.512C165.373 162.056 165.517 162.48 165.805 162.784C166.093 163.072 166.485 163.216 166.981 163.216C167.573 163.216 168.077 163.056 168.493 162.736L169.501 165.376C169.117 165.648 168.653 165.856 168.109 166C167.581 166.128 167.029 166.192 166.453 166.192ZM159.637 156.256V153.376H168.589V156.256H159.637ZM179.451 152.896C180.475 152.896 181.387 153.104 182.187 153.52C183.003 153.92 183.643 154.544 184.107 155.392C184.571 156.224 184.803 157.296 184.803 158.608V166H181.059V159.184C181.059 158.144 180.827 157.376 180.363 156.88C179.915 156.384 179.275 156.136 178.443 156.136C177.851 156.136 177.315 156.264 176.835 156.52C176.371 156.76 176.003 157.136 175.731 157.648C175.475 158.16 175.347 158.816 175.347 159.616V166H171.603V148.192H175.347V156.664L174.507 155.584C174.971 154.72 175.635 154.056 176.499 153.592C177.363 153.128 178.347 152.896 179.451 152.896ZM198.834 155.968H206.922V158.992H198.834V155.968ZM199.122 162.88H208.266V166H195.258V149.2H207.954V152.32H199.122V162.88ZM211.095 166V148.192H214.839V166H211.095ZM224.722 166.192C223.25 166.192 221.954 165.904 220.834 165.328C219.73 164.752 218.874 163.968 218.266 162.976C217.658 161.968 217.354 160.824 217.354 159.544C217.354 158.248 217.65 157.104 218.242 156.112C218.85 155.104 219.674 154.32 220.714 153.76C221.754 153.184 222.93 152.896 224.242 152.896C225.506 152.896 226.642 153.168 227.65 153.712C228.674 154.24 229.482 155.008 230.074 156.016C230.666 157.008 230.962 158.2 230.962 159.592C230.962 159.736 230.954 159.904 230.938 160.096C230.922 160.272 230.906 160.44 230.89 160.6H220.402V158.416H228.922L227.482 159.064C227.482 158.392 227.346 157.808 227.074 157.312C226.802 156.816 226.426 156.432 225.946 156.16C225.466 155.872 224.906 155.728 224.266 155.728C223.626 155.728 223.058 155.872 222.562 156.16C222.082 156.432 221.706 156.824 221.434 157.336C221.162 157.832 221.026 158.424 221.026 159.112V159.688C221.026 160.392 221.178 161.016 221.482 161.56C221.802 162.088 222.242 162.496 222.802 162.784C223.378 163.056 224.05 163.192 224.818 163.192C225.506 163.192 226.106 163.088 226.618 162.88C227.146 162.672 227.626 162.36 228.058 161.944L230.05 164.104C229.458 164.776 228.714 165.296 227.818 165.664C226.922 166.016 225.89 166.192 224.722 166.192ZM236.724 166L231.3 153.088H235.164L239.676 164.2H237.756L242.436 153.088H246.036L240.588 166H236.724ZM255.062 166V163.48L254.822 162.928V158.416C254.822 157.616 254.574 156.992 254.078 156.544C253.598 156.096 252.854 155.872 251.846 155.872C251.158 155.872 250.478 155.984 249.806 156.208C249.15 156.416 248.59 156.704 248.126 157.072L246.782 154.456C247.486 153.96 248.334 153.576 249.326 153.304C250.318 153.032 251.326 152.896 252.35 152.896C254.318 152.896 255.846 153.36 256.934 154.288C258.022 155.216 258.566 156.664 258.566 158.632V166H255.062ZM251.126 166.192C250.118 166.192 249.254 166.024 248.534 165.688C247.814 165.336 247.262 164.864 246.878 164.272C246.494 163.68 246.302 163.016 246.302 162.28C246.302 161.512 246.486 160.84 246.854 160.264C247.238 159.688 247.838 159.24 248.654 158.92C249.47 158.584 250.534 158.416 251.846 158.416H255.278V160.6H252.254C251.374 160.6 250.766 160.744 250.43 161.032C250.11 161.32 249.95 161.68 249.95 162.112C249.95 162.592 250.134 162.976 250.502 163.264C250.886 163.536 251.406 163.672 252.062 163.672C252.686 163.672 253.246 163.528 253.742 163.24C254.238 162.936 254.598 162.496 254.822 161.92L255.398 163.648C255.126 164.48 254.63 165.112 253.91 165.544C253.19 165.976 252.262 166.192 251.126 166.192ZM267.235 166.192C265.715 166.192 264.531 165.808 263.683 165.04C262.835 164.256 262.411 163.096 262.411 161.56V150.232H266.155V161.512C266.155 162.056 266.299 162.48 266.587 162.784C266.875 163.072 267.267 163.216 267.763 163.216C268.355 163.216 268.859 163.056 269.275 162.736L270.283 165.376C269.899 165.648 269.435 165.856 268.891 166C268.363 166.128 267.811 166.192 267.235 166.192ZM260.419 156.256V153.376H269.371V156.256H260.419ZM278.394 166.192C276.922 166.192 275.626 165.904 274.506 165.328C273.402 164.752 272.546 163.968 271.938 162.976C271.33 161.968 271.026 160.824 271.026 159.544C271.026 158.248 271.322 157.104 271.914 156.112C272.522 155.104 273.346 154.32 274.386 153.76C275.426 153.184 276.602 152.896 277.914 152.896C279.178 152.896 280.314 153.168 281.322 153.712C282.346 154.24 283.154 155.008 283.746 156.016C284.338 157.008 284.634 158.2 284.634 159.592C284.634 159.736 284.626 159.904 284.61 160.096C284.594 160.272 284.578 160.44 284.562 160.6H274.074V158.416H282.594L281.154 159.064C281.154 158.392 281.018 157.808 280.746 157.312C280.474 156.816 280.098 156.432 279.618 156.16C279.138 155.872 278.578 155.728 277.938 155.728C277.298 155.728 276.73 155.872 276.234 156.16C275.754 156.432 275.378 156.824 275.106 157.336C274.834 157.832 274.698 158.424 274.698 159.112V159.688C274.698 160.392 274.85 161.016 275.154 161.56C275.474 162.088 275.914 162.496 276.474 162.784C277.05 163.056 277.722 163.192 278.49 163.192C279.178 163.192 279.778 163.088 280.29 162.88C280.818 162.672 281.298 162.36 281.73 161.944L283.722 164.104C283.13 164.776 282.386 165.296 281.49 165.664C280.594 166.016 279.562 166.192 278.394 166.192ZM292.67 166.192C291.454 166.192 290.358 165.92 289.382 165.376C288.406 164.816 287.63 164.04 287.054 163.048C286.494 162.056 286.214 160.888 286.214 159.544C286.214 158.184 286.494 157.008 287.054 156.016C287.63 155.024 288.406 154.256 289.382 153.712C290.358 153.168 291.454 152.896 292.67 152.896C293.758 152.896 294.71 153.136 295.526 153.616C296.342 154.096 296.974 154.824 297.422 155.8C297.87 156.776 298.094 158.024 298.094 159.544C298.094 161.048 297.878 162.296 297.446 163.288C297.014 164.264 296.39 164.992 295.574 165.472C294.774 165.952 293.806 166.192 292.67 166.192ZM293.318 163.12C293.926 163.12 294.478 162.976 294.974 162.688C295.47 162.4 295.862 161.992 296.15 161.464C296.454 160.92 296.606 160.28 296.606 159.544C296.606 158.792 296.454 158.152 296.15 157.624C295.862 157.096 295.47 156.688 294.974 156.4C294.478 156.112 293.926 155.968 293.318 155.968C292.694 155.968 292.134 156.112 291.638 156.4C291.142 156.688 290.742 157.096 290.438 157.624C290.15 158.152 290.006 158.792 290.006 159.544C290.006 160.28 290.15 160.92 290.438 161.464C290.742 161.992 291.142 162.4 291.638 162.688C292.134 162.976 292.694 163.12 293.318 163.12ZM296.702 166V163.36L296.774 159.52L296.534 155.704V148.192H300.278V166H296.702ZM41.592 185.76H49.656V188.88H41.592V185.76ZM41.88 195H37.992V178.2H50.688V181.32H41.88V195ZM53.0561 195V182.088H56.8001V195H53.0561ZM54.9281 180.288C54.2401 180.288 53.6801 180.088 53.2481 179.688C52.8161 179.288 52.6001 178.792 52.6001 178.2C52.6001 177.608 52.8161 177.112 53.2481 176.712C53.6801 176.312 54.2401 176.112 54.9281 176.112C55.6161 176.112 56.1761 176.304 56.6081 176.688C57.0401 177.056 57.2561 177.536 57.2561 178.128C57.2561 178.752 57.0401 179.272 56.6081 179.688C56.1921 180.088 55.6321 180.288 54.9281 180.288ZM68.1229 181.896C69.1469 181.896 70.0589 182.104 70.8589 182.52C71.6749 182.92 72.3149 183.544 72.7789 184.392C73.2429 185.224 73.4749 186.296 73.4749 187.608V195H69.7309V188.184C69.7309 187.144 69.4989 186.376 69.0349 185.88C68.5869 185.384 67.9469 185.136 67.1149 185.136C66.5229 185.136 65.9869 185.264 65.5069 185.52C65.0429 185.76 64.6749 186.136 64.4029 186.648C64.1469 187.16 64.0189 187.816 64.0189 188.616V195H60.2749V182.088H63.8509V185.664L63.1789 184.584C63.6429 183.72 64.3069 183.056 65.1709 182.592C66.0349 182.128 67.0189 181.896 68.1229 181.896ZM84.7886 195V192.48L84.5486 191.928V187.416C84.5486 186.616 84.3006 185.992 83.8046 185.544C83.3246 185.096 82.5806 184.872 81.5726 184.872C80.8846 184.872 80.2046 184.984 79.5326 185.208C78.8766 185.416 78.3166 185.704 77.8526 186.072L76.5086 183.456C77.2126 182.96 78.0606 182.576 79.0526 182.304C80.0446 182.032 81.0526 181.896 82.0766 181.896C84.0446 181.896 85.5726 182.36 86.6606 183.288C87.7486 184.216 88.2926 185.664 88.2926 187.632V195H84.7886ZM80.8526 195.192C79.8446 195.192 78.9806 195.024 78.2606 194.688C77.5406 194.336 76.9886 193.864 76.6046 193.272C76.2206 192.68 76.0286 192.016 76.0286 191.28C76.0286 190.512 76.2126 189.84 76.5806 189.264C76.9646 188.688 77.5646 188.24 78.3806 187.92C79.1966 187.584 80.2606 187.416 81.5726 187.416H85.0046V189.6H81.9806C81.1006 189.6 80.4926 189.744 80.1566 190.032C79.8366 190.32 79.6766 190.68 79.6766 191.112C79.6766 191.592 79.8606 191.976 80.2286 192.264C80.6126 192.536 81.1326 192.672 81.7886 192.672C82.4126 192.672 82.9726 192.528 83.4686 192.24C83.9646 191.936 84.3246 191.496 84.5486 190.92L85.1246 192.648C84.8526 193.48 84.3566 194.112 83.6366 194.544C82.9166 194.976 81.9886 195.192 80.8526 195.192ZM98.0149 195.192C96.6229 195.192 95.3829 194.912 94.2949 194.352C93.2069 193.776 92.3509 192.984 91.7269 191.976C91.1189 190.968 90.8149 189.824 90.8149 188.544C90.8149 187.248 91.1189 186.104 91.7269 185.112C92.3509 184.104 93.2069 183.32 94.2949 182.76C95.3829 182.184 96.6229 181.896 98.0149 181.896C99.3749 181.896 100.559 182.184 101.567 182.76C102.575 183.32 103.319 184.128 103.799 185.184L100.895 186.744C100.559 186.136 100.135 185.688 99.6229 185.4C99.1269 185.112 98.5829 184.968 97.9909 184.968C97.3509 184.968 96.7749 185.112 96.2629 185.4C95.7509 185.688 95.3429 186.096 95.0389 186.624C94.7509 187.152 94.6069 187.792 94.6069 188.544C94.6069 189.296 94.7509 189.936 95.0389 190.464C95.3429 190.992 95.7509 191.4 96.2629 191.688C96.7749 191.976 97.3509 192.12 97.9909 192.12C98.5829 192.12 99.1269 191.984 99.6229 191.712C100.135 191.424 100.559 190.968 100.895 190.344L103.799 191.928C103.319 192.968 102.575 193.776 101.567 194.352C100.559 194.912 99.3749 195.192 98.0149 195.192ZM105.884 195V182.088H109.628V195H105.884ZM107.756 180.288C107.068 180.288 106.508 180.088 106.076 179.688C105.644 179.288 105.428 178.792 105.428 178.2C105.428 177.608 105.644 177.112 106.076 176.712C106.508 176.312 107.068 176.112 107.756 176.112C108.444 176.112 109.004 176.304 109.436 176.688C109.868 177.056 110.084 177.536 110.084 178.128C110.084 178.752 109.868 179.272 109.436 179.688C109.02 180.088 108.46 180.288 107.756 180.288ZM121.023 195V192.48L120.783 191.928V187.416C120.783 186.616 120.535 185.992 120.039 185.544C119.559 185.096 118.815 184.872 117.807 184.872C117.119 184.872 116.439 184.984 115.767 185.208C115.111 185.416 114.551 185.704 114.087 186.072L112.743 183.456C113.447 182.96 114.295 182.576 115.287 182.304C116.279 182.032 117.287 181.896 118.311 181.896C120.279 181.896 121.807 182.36 122.895 183.288C123.983 184.216 124.527 185.664 124.527 187.632V195H121.023ZM117.087 195.192C116.079 195.192 115.215 195.024 114.495 194.688C113.775 194.336 113.223 193.864 112.839 193.272C112.455 192.68 112.263 192.016 112.263 191.28C112.263 190.512 112.447 189.84 112.815 189.264C113.199 188.688 113.799 188.24 114.615 187.92C115.431 187.584 116.495 187.416 117.807 187.416H121.239V189.6H118.215C117.335 189.6 116.727 189.744 116.391 190.032C116.071 190.32 115.911 190.68 115.911 191.112C115.911 191.592 116.095 191.976 116.463 192.264C116.847 192.536 117.367 192.672 118.023 192.672C118.647 192.672 119.207 192.528 119.703 192.24C120.199 191.936 120.559 191.496 120.783 190.92L121.359 192.648C121.087 193.48 120.591 194.112 119.871 194.544C119.151 194.976 118.223 195.192 117.087 195.192ZM127.916 195V177.192H131.66V195H127.916ZM147.715 195.288C146.371 195.288 145.083 195.112 143.851 194.76C142.619 194.392 141.627 193.92 140.875 193.344L142.195 190.416C142.915 190.928 143.763 191.352 144.739 191.688C145.731 192.008 146.731 192.168 147.739 192.168C148.507 192.168 149.123 192.096 149.587 191.952C150.067 191.792 150.419 191.576 150.643 191.304C150.867 191.032 150.979 190.72 150.979 190.368C150.979 189.92 150.803 189.568 150.451 189.312C150.099 189.04 149.635 188.824 149.059 188.664C148.483 188.488 147.843 188.328 147.139 188.184C146.451 188.024 145.755 187.832 145.051 187.608C144.363 187.384 143.731 187.096 143.155 186.744C142.579 186.392 142.107 185.928 141.739 185.352C141.387 184.776 141.211 184.04 141.211 183.144C141.211 182.184 141.467 181.312 141.979 180.528C142.507 179.728 143.291 179.096 144.331 178.632C145.387 178.152 146.707 177.912 148.291 177.912C149.347 177.912 150.387 178.04 151.411 178.296C152.435 178.536 153.339 178.904 154.123 179.4L152.923 182.352C152.139 181.904 151.355 181.576 150.571 181.368C149.787 181.144 149.019 181.032 148.267 181.032C147.515 181.032 146.899 181.12 146.419 181.296C145.939 181.472 145.595 181.704 145.387 181.992C145.179 182.264 145.075 182.584 145.075 182.952C145.075 183.384 145.251 183.736 145.603 184.008C145.955 184.264 146.419 184.472 146.995 184.632C147.571 184.792 148.203 184.952 148.891 185.112C149.595 185.272 150.291 185.456 150.979 185.664C151.683 185.872 152.323 186.152 152.899 186.504C153.475 186.856 153.939 187.32 154.291 187.896C154.659 188.472 154.843 189.2 154.843 190.08C154.843 191.024 154.579 191.888 154.051 192.672C153.523 193.456 152.731 194.088 151.675 194.568C150.635 195.048 149.315 195.288 147.715 195.288ZM162.516 195.192C160.996 195.192 159.812 194.808 158.964 194.04C158.116 193.256 157.692 192.096 157.692 190.56V179.232H161.436V190.512C161.436 191.056 161.58 191.48 161.868 191.784C162.156 192.072 162.548 192.216 163.044 192.216C163.636 192.216 164.14 192.056 164.556 191.736L165.564 194.376C165.18 194.648 164.716 194.856 164.172 195C163.644 195.128 163.092 195.192 162.516 195.192ZM155.7 185.256V182.376H164.652V185.256H155.7ZM175.586 195V192.48L175.346 191.928V187.416C175.346 186.616 175.098 185.992 174.602 185.544C174.122 185.096 173.378 184.872 172.37 184.872C171.682 184.872 171.002 184.984 170.33 185.208C169.674 185.416 169.114 185.704 168.65 186.072L167.306 183.456C168.01 182.96 168.858 182.576 169.85 182.304C170.842 182.032 171.85 181.896 172.874 181.896C174.842 181.896 176.37 182.36 177.458 183.288C178.546 184.216 179.09 185.664 179.09 187.632V195H175.586ZM171.65 195.192C170.642 195.192 169.778 195.024 169.058 194.688C168.338 194.336 167.786 193.864 167.402 193.272C167.018 192.68 166.826 192.016 166.826 191.28C166.826 190.512 167.01 189.84 167.378 189.264C167.762 188.688 168.362 188.24 169.178 187.92C169.994 187.584 171.058 187.416 172.37 187.416H175.802V189.6H172.778C171.898 189.6 171.29 189.744 170.954 190.032C170.634 190.32 170.474 190.68 170.474 191.112C170.474 191.592 170.658 191.976 171.026 192.264C171.41 192.536 171.93 192.672 172.586 192.672C173.21 192.672 173.77 192.528 174.266 192.24C174.762 191.936 175.122 191.496 175.346 190.92L175.922 192.648C175.65 193.48 175.154 194.112 174.434 194.544C173.714 194.976 172.786 195.192 171.65 195.192ZM190.326 181.896C191.35 181.896 192.262 182.104 193.062 182.52C193.878 182.92 194.518 183.544 194.982 184.392C195.446 185.224 195.678 186.296 195.678 187.608V195H191.934V188.184C191.934 187.144 191.702 186.376 191.238 185.88C190.79 185.384 190.15 185.136 189.318 185.136C188.726 185.136 188.19 185.264 187.71 185.52C187.246 185.76 186.878 186.136 186.606 186.648C186.35 187.16 186.222 187.816 186.222 188.616V195H182.478V182.088H186.054V185.664L185.382 184.584C185.846 183.72 186.51 183.056 187.374 182.592C188.238 182.128 189.222 181.896 190.326 181.896ZM204.71 195.192C203.494 195.192 202.398 194.92 201.422 194.376C200.446 193.816 199.67 193.04 199.094 192.048C198.534 191.056 198.254 189.888 198.254 188.544C198.254 187.184 198.534 186.008 199.094 185.016C199.67 184.024 200.446 183.256 201.422 182.712C202.398 182.168 203.494 181.896 204.71 181.896C205.798 181.896 206.75 182.136 207.566 182.616C208.382 183.096 209.014 183.824 209.462 184.8C209.91 185.776 210.134 187.024 210.134 188.544C210.134 190.048 209.918 191.296 209.486 192.288C209.054 193.264 208.43 193.992 207.614 194.472C206.814 194.952 205.846 195.192 204.71 195.192ZM205.358 192.12C205.966 192.12 206.518 191.976 207.014 191.688C207.51 191.4 207.902 190.992 208.19 190.464C208.494 189.92 208.646 189.28 208.646 188.544C208.646 187.792 208.494 187.152 208.19 186.624C207.902 186.096 207.51 185.688 207.014 185.4C206.518 185.112 205.966 184.968 205.358 184.968C204.734 184.968 204.174 185.112 203.678 185.4C203.182 185.688 202.782 186.096 202.478 186.624C202.19 187.152 202.046 187.792 202.046 188.544C202.046 189.28 202.19 189.92 202.478 190.464C202.782 190.992 203.182 191.4 203.678 191.688C204.174 191.976 204.734 192.12 205.358 192.12ZM208.742 195V192.36L208.814 188.52L208.574 184.704V177.192H212.318V195H208.742ZM223.703 195V192.48L223.463 191.928V187.416C223.463 186.616 223.215 185.992 222.719 185.544C222.239 185.096 221.495 184.872 220.487 184.872C219.799 184.872 219.119 184.984 218.447 185.208C217.791 185.416 217.231 185.704 216.767 186.072L215.423 183.456C216.127 182.96 216.975 182.576 217.967 182.304C218.959 182.032 219.967 181.896 220.991 181.896C222.959 181.896 224.487 182.36 225.575 183.288C226.663 184.216 227.207 185.664 227.207 187.632V195H223.703ZM219.767 195.192C218.759 195.192 217.895 195.024 217.175 194.688C216.455 194.336 215.903 193.864 215.519 193.272C215.135 192.68 214.943 192.016 214.943 191.28C214.943 190.512 215.127 189.84 215.495 189.264C215.879 188.688 216.479 188.24 217.295 187.92C218.111 187.584 219.175 187.416 220.487 187.416H223.919V189.6H220.895C220.015 189.6 219.407 189.744 219.071 190.032C218.751 190.32 218.591 190.68 218.591 191.112C218.591 191.592 218.775 191.976 219.143 192.264C219.527 192.536 220.047 192.672 220.703 192.672C221.327 192.672 221.887 192.528 222.383 192.24C222.879 191.936 223.239 191.496 223.463 190.92L224.039 192.648C223.767 193.48 223.271 194.112 222.551 194.544C221.831 194.976 220.903 195.192 219.767 195.192ZM230.595 195V182.088H234.171V185.736L233.667 184.68C234.051 183.768 234.667 183.08 235.515 182.616C236.363 182.136 237.395 181.896 238.611 181.896V185.352C238.451 185.336 238.307 185.328 238.179 185.328C238.051 185.312 237.915 185.304 237.771 185.304C236.747 185.304 235.915 185.6 235.275 186.192C234.651 186.768 234.339 187.672 234.339 188.904V195H230.595ZM246.288 195.192C245.072 195.192 243.976 194.92 243 194.376C242.024 193.816 241.248 193.04 240.672 192.048C240.112 191.056 239.832 189.888 239.832 188.544C239.832 187.184 240.112 186.008 240.672 185.016C241.248 184.024 242.024 183.256 243 182.712C243.976 182.168 245.072 181.896 246.288 181.896C247.376 181.896 248.328 182.136 249.144 182.616C249.96 183.096 250.592 183.824 251.04 184.8C251.488 185.776 251.712 187.024 251.712 188.544C251.712 190.048 251.496 191.296 251.064 192.288C250.632 193.264 250.008 193.992 249.192 194.472C248.392 194.952 247.424 195.192 246.288 195.192ZM246.936 192.12C247.544 192.12 248.096 191.976 248.592 191.688C249.088 191.4 249.48 190.992 249.768 190.464C250.072 189.92 250.224 189.28 250.224 188.544C250.224 187.792 250.072 187.152 249.768 186.624C249.48 186.096 249.088 185.688 248.592 185.4C248.096 185.112 247.544 184.968 246.936 184.968C246.312 184.968 245.752 185.112 245.256 185.4C244.76 185.688 244.36 186.096 244.056 186.624C243.768 187.152 243.624 187.792 243.624 188.544C243.624 189.28 243.768 189.92 244.056 190.464C244.36 190.992 244.76 191.4 245.256 191.688C245.752 191.976 246.312 192.12 246.936 192.12ZM250.32 195V192.36L250.392 188.52L250.152 184.704V177.192H253.896V195H250.32ZM261.705 195.192C260.601 195.192 259.537 195.064 258.513 194.808C257.505 194.536 256.705 194.2 256.113 193.8L257.361 191.112C257.953 191.48 258.649 191.784 259.449 192.024C260.265 192.248 261.065 192.36 261.849 192.36C262.713 192.36 263.321 192.256 263.673 192.048C264.041 191.84 264.225 191.552 264.225 191.184C264.225 190.88 264.081 190.656 263.793 190.512C263.521 190.352 263.153 190.232 262.689 190.152C262.225 190.072 261.713 189.992 261.153 189.912C260.609 189.832 260.057 189.728 259.497 189.6C258.937 189.456 258.425 189.248 257.961 188.976C257.497 188.704 257.121 188.336 256.833 187.872C256.561 187.408 256.425 186.808 256.425 186.072C256.425 185.256 256.657 184.536 257.121 183.912C257.601 183.288 258.289 182.8 259.185 182.448C260.081 182.08 261.153 181.896 262.401 181.896C263.281 181.896 264.177 181.992 265.089 182.184C266.001 182.376 266.761 182.656 267.369 183.024L266.121 185.688C265.497 185.32 264.865 185.072 264.225 184.944C263.601 184.8 262.993 184.728 262.401 184.728C261.569 184.728 260.961 184.84 260.577 185.064C260.193 185.288 260.001 185.576 260.001 185.928C260.001 186.248 260.137 186.488 260.409 186.648C260.697 186.808 261.073 186.936 261.537 187.032C262.001 187.128 262.505 187.216 263.049 187.296C263.609 187.36 264.169 187.464 264.729 187.608C265.289 187.752 265.793 187.96 266.241 188.232C266.705 188.488 267.081 188.848 267.369 189.312C267.657 189.76 267.801 190.352 267.801 191.088C267.801 191.888 267.561 192.6 267.081 193.224C266.601 193.832 265.905 194.312 264.993 194.664C264.097 195.016 263.001 195.192 261.705 195.192Z" fill="#171717"/>
<path d="M37.47 408V398.2H41.6C42.6453 398.2 43.5647 398.405 44.358 398.816C45.1607 399.227 45.7813 399.801 46.22 400.538C46.668 401.275 46.892 402.129 46.892 403.1C46.892 404.071 46.668 404.925 46.22 405.662C45.7813 406.399 45.1607 406.973 44.358 407.384C43.5647 407.795 42.6453 408 41.6 408H37.47ZM38.87 406.782H41.516C42.328 406.782 43.028 406.628 43.616 406.32C44.2133 406.012 44.6753 405.583 45.002 405.032C45.3287 404.472 45.492 403.828 45.492 403.1C45.492 402.363 45.3287 401.719 45.002 401.168C44.6753 400.617 44.2133 400.188 43.616 399.88C43.028 399.572 42.328 399.418 41.516 399.418H38.87V406.782ZM48.8404 408V400.58H50.1284V402.596L50.0024 402.092C50.2077 401.579 50.5531 401.187 51.0384 400.916C51.5237 400.645 52.1211 400.51 52.8304 400.51V401.812C52.7744 401.803 52.7184 401.798 52.6624 401.798C52.6157 401.798 52.5691 401.798 52.5224 401.798C51.8037 401.798 51.2344 402.013 50.8144 402.442C50.3944 402.871 50.1844 403.492 50.1844 404.304V408H48.8404ZM54.4869 408V400.58H55.8309V408H54.4869ZM55.1589 399.152C54.8976 399.152 54.6782 399.068 54.5009 398.9C54.3329 398.732 54.2489 398.527 54.2489 398.284C54.2489 398.032 54.3329 397.822 54.5009 397.654C54.6782 397.486 54.8976 397.402 55.1589 397.402C55.4202 397.402 55.6349 397.486 55.8029 397.654C55.9802 397.813 56.0689 398.013 56.0689 398.256C56.0689 398.508 55.9849 398.723 55.8169 398.9C55.6489 399.068 55.4296 399.152 55.1589 399.152ZM60.343 408L57.095 400.58H58.495L61.379 407.3H60.707L63.647 400.58H64.963L61.715 408H60.343ZM66.2174 408V400.58H67.5614V408H66.2174ZM66.8894 399.152C66.628 399.152 66.4087 399.068 66.2314 398.9C66.0634 398.732 65.9794 398.527 65.9794 398.284C65.9794 398.032 66.0634 397.822 66.2314 397.654C66.4087 397.486 66.628 397.402 66.8894 397.402C67.1507 397.402 67.3654 397.486 67.5334 397.654C67.7107 397.813 67.7994 398.013 67.7994 398.256C67.7994 398.508 67.7154 398.723 67.5474 398.9C67.3794 399.068 67.16 399.152 66.8894 399.152ZM74.0895 400.51C74.6962 400.51 75.2282 400.627 75.6855 400.86C76.1522 401.093 76.5162 401.448 76.7775 401.924C77.0388 402.4 77.1695 403.002 77.1695 403.73V408H75.8255V403.884C75.8255 403.165 75.6482 402.624 75.2935 402.26C74.9482 401.896 74.4582 401.714 73.8235 401.714C73.3475 401.714 72.9322 401.807 72.5775 401.994C72.2228 402.181 71.9475 402.456 71.7515 402.82C71.5648 403.184 71.4715 403.637 71.4715 404.178V408H70.1275V400.58H71.4155V402.582L71.2055 402.05C71.4482 401.565 71.8215 401.187 72.3255 400.916C72.8295 400.645 73.4175 400.51 74.0895 400.51ZM82.9048 410.8C82.2235 410.8 81.5608 410.702 80.9168 410.506C80.2821 410.319 79.7641 410.049 79.3628 409.694L80.0068 408.658C80.3521 408.957 80.7768 409.19 81.2808 409.358C81.7848 409.535 82.3121 409.624 82.8628 409.624C83.7401 409.624 84.3841 409.419 84.7948 409.008C85.2055 408.597 85.4108 407.972 85.4108 407.132V405.564L85.5508 404.094L85.4808 402.61V400.58H86.7548V406.992C86.7548 408.299 86.4281 409.26 85.7748 409.876C85.1215 410.492 84.1648 410.8 82.9048 410.8ZM82.7368 407.692C82.0181 407.692 81.3741 407.543 80.8048 407.244C80.2448 406.936 79.7968 406.511 79.4608 405.97C79.1341 405.429 78.9708 404.803 78.9708 404.094C78.9708 403.375 79.1341 402.75 79.4608 402.218C79.7968 401.677 80.2448 401.257 80.8048 400.958C81.3741 400.659 82.0181 400.51 82.7368 400.51C83.3715 400.51 83.9501 400.641 84.4728 400.902C84.9955 401.154 85.4108 401.546 85.7188 402.078C86.0361 402.61 86.1948 403.282 86.1948 404.094C86.1948 404.897 86.0361 405.564 85.7188 406.096C85.4108 406.628 84.9955 407.029 84.4728 407.3C83.9501 407.561 83.3715 407.692 82.7368 407.692ZM82.8908 406.516C83.3855 406.516 83.8241 406.413 84.2068 406.208C84.5895 406.003 84.8881 405.718 85.1028 405.354C85.3268 404.99 85.4388 404.57 85.4388 404.094C85.4388 403.618 85.3268 403.198 85.1028 402.834C84.8881 402.47 84.5895 402.19 84.2068 401.994C83.8241 401.789 83.3855 401.686 82.8908 401.686C82.3961 401.686 81.9528 401.789 81.5608 401.994C81.1781 402.19 80.8748 402.47 80.6508 402.834C80.4361 403.198 80.3288 403.618 80.3288 404.094C80.3288 404.57 80.4361 404.99 80.6508 405.354C80.8748 405.718 81.1781 406.003 81.5608 406.208C81.9528 406.413 82.3961 406.516 82.8908 406.516ZM94.5386 402.834H99.5926V404.038H94.5386V402.834ZM94.6786 408H93.2786V398.2H100.195V399.418H94.6786V408ZM101.969 408V400.58H103.313V408H101.969ZM102.641 399.152C102.38 399.152 102.161 399.068 101.983 398.9C101.815 398.732 101.731 398.527 101.731 398.284C101.731 398.032 101.815 397.822 101.983 397.654C102.161 397.486 102.38 397.402 102.641 397.402C102.903 397.402 103.117 397.486 103.285 397.654C103.463 397.813 103.551 398.013 103.551 398.256C103.551 398.508 103.467 398.723 103.299 398.9C103.131 399.068 102.912 399.152 102.641 399.152ZM109.841 400.51C110.448 400.51 110.98 400.627 111.437 400.86C111.904 401.093 112.268 401.448 112.529 401.924C112.791 402.4 112.921 403.002 112.921 403.73V408H111.577V403.884C111.577 403.165 111.4 402.624 111.045 402.26C110.7 401.896 110.21 401.714 109.575 401.714C109.099 401.714 108.684 401.807 108.329 401.994C107.975 402.181 107.699 402.456 107.503 402.82C107.317 403.184 107.223 403.637 107.223 404.178V408H105.879V400.58H107.167V402.582L106.957 402.05C107.2 401.565 107.573 401.187 108.077 400.916C108.581 400.645 109.169 400.51 109.841 400.51ZM120.015 408V406.432L119.945 406.138V403.464C119.945 402.895 119.777 402.456 119.441 402.148C119.114 401.831 118.619 401.672 117.957 401.672C117.518 401.672 117.089 401.747 116.669 401.896C116.249 402.036 115.894 402.227 115.605 402.47L115.045 401.462C115.427 401.154 115.885 400.921 116.417 400.762C116.958 400.594 117.523 400.51 118.111 400.51C119.128 400.51 119.912 400.757 120.463 401.252C121.013 401.747 121.289 402.503 121.289 403.52V408H120.015ZM117.579 408.084C117.028 408.084 116.543 407.991 116.123 407.804C115.712 407.617 115.395 407.361 115.171 407.034C114.947 406.698 114.835 406.32 114.835 405.9C114.835 405.499 114.928 405.135 115.115 404.808C115.311 404.481 115.623 404.22 116.053 404.024C116.491 403.828 117.079 403.73 117.817 403.73H120.169V404.696H117.873C117.201 404.696 116.748 404.808 116.515 405.032C116.281 405.256 116.165 405.527 116.165 405.844C116.165 406.208 116.309 406.502 116.599 406.726C116.888 406.941 117.289 407.048 117.803 407.048C118.307 407.048 118.745 406.936 119.119 406.712C119.501 406.488 119.777 406.161 119.945 405.732L120.211 406.656C120.033 407.095 119.721 407.445 119.273 407.706C118.825 407.958 118.26 408.084 117.579 408.084ZM127.738 400.51C128.345 400.51 128.877 400.627 129.334 400.86C129.801 401.093 130.165 401.448 130.426 401.924C130.687 402.4 130.818 403.002 130.818 403.73V408H129.474V403.884C129.474 403.165 129.297 402.624 128.942 402.26C128.597 401.896 128.107 401.714 127.472 401.714C126.996 401.714 126.581 401.807 126.226 401.994C125.871 402.181 125.596 402.456 125.4 402.82C125.213 403.184 125.12 403.637 125.12 404.178V408H123.776V400.58H125.064V402.582L124.854 402.05C125.097 401.565 125.47 401.187 125.974 400.916C126.478 400.645 127.066 400.51 127.738 400.51ZM136.539 408.084C135.783 408.084 135.107 407.921 134.509 407.594C133.921 407.267 133.459 406.819 133.123 406.25C132.787 405.681 132.619 405.027 132.619 404.29C132.619 403.553 132.787 402.899 133.123 402.33C133.459 401.761 133.921 401.317 134.509 401C135.107 400.673 135.783 400.51 136.539 400.51C137.211 400.51 137.809 400.645 138.331 400.916C138.863 401.177 139.274 401.569 139.563 402.092L138.541 402.75C138.299 402.386 138 402.12 137.645 401.952C137.3 401.775 136.927 401.686 136.525 401.686C136.04 401.686 135.606 401.793 135.223 402.008C134.841 402.223 134.537 402.526 134.313 402.918C134.089 403.301 133.977 403.758 133.977 404.29C133.977 404.822 134.089 405.284 134.313 405.676C134.537 406.068 134.841 406.371 135.223 406.586C135.606 406.801 136.04 406.908 136.525 406.908C136.927 406.908 137.3 406.824 137.645 406.656C138 406.479 138.299 406.208 138.541 405.844L139.563 406.488C139.274 407.001 138.863 407.398 138.331 407.678C137.809 407.949 137.211 408.084 136.539 408.084ZM141.208 408V400.58H142.552V408H141.208ZM141.88 399.152C141.618 399.152 141.399 399.068 141.222 398.9C141.054 398.732 140.97 398.527 140.97 398.284C140.97 398.032 141.054 397.822 141.222 397.654C141.399 397.486 141.618 397.402 141.88 397.402C142.141 397.402 142.356 397.486 142.524 397.654C142.701 397.813 142.79 398.013 142.79 398.256C142.79 398.508 142.706 398.723 142.538 398.9C142.37 399.068 142.15 399.152 141.88 399.152ZM149.724 408V406.432L149.654 406.138V403.464C149.654 402.895 149.486 402.456 149.15 402.148C148.823 401.831 148.328 401.672 147.666 401.672C147.227 401.672 146.798 401.747 146.378 401.896C145.958 402.036 145.603 402.227 145.314 402.47L144.754 401.462C145.136 401.154 145.594 400.921 146.126 400.762C146.667 400.594 147.232 400.51 147.82 400.51C148.837 400.51 149.621 400.757 150.172 401.252C150.722 401.747 150.998 402.503 150.998 403.52V408H149.724ZM147.288 408.084C146.737 408.084 146.252 407.991 145.832 407.804C145.421 407.617 145.104 407.361 144.88 407.034C144.656 406.698 144.544 406.32 144.544 405.9C144.544 405.499 144.637 405.135 144.824 404.808C145.02 404.481 145.332 404.22 145.762 404.024C146.2 403.828 146.788 403.73 147.526 403.73H149.878V404.696H147.582C146.91 404.696 146.457 404.808 146.224 405.032C145.99 405.256 145.874 405.527 145.874 405.844C145.874 406.208 146.018 406.502 146.308 406.726C146.597 406.941 146.998 407.048 147.512 407.048C148.016 407.048 148.454 406.936 148.828 406.712C149.21 406.488 149.486 406.161 149.654 405.732L149.92 406.656C149.742 407.095 149.43 407.445 148.982 407.706C148.534 407.958 147.969 408.084 147.288 408.084ZM153.485 408V397.612H154.829V408H153.485ZM162.625 402.428H167.665V403.618H162.625V402.428ZM162.751 406.782H168.463V408H161.351V398.2H168.267V399.418H162.751V406.782ZM169.292 408L172.484 403.856L172.47 404.542L169.432 400.58H170.93L173.254 403.632H172.68L175.004 400.58H176.474L173.394 404.57L173.408 403.856L176.628 408H175.102L172.652 404.752L173.198 404.836L170.79 408H169.292ZM181.082 408.084C180.326 408.084 179.65 407.921 179.052 407.594C178.464 407.267 178.002 406.819 177.666 406.25C177.33 405.681 177.162 405.027 177.162 404.29C177.162 403.553 177.33 402.899 177.666 402.33C178.002 401.761 178.464 401.317 179.052 401C179.65 400.673 180.326 400.51 181.082 400.51C181.754 400.51 182.352 400.645 182.874 400.916C183.406 401.177 183.817 401.569 184.106 402.092L183.084 402.75C182.842 402.386 182.543 402.12 182.188 401.952C181.843 401.775 181.47 401.686 181.068 401.686C180.583 401.686 180.149 401.793 179.766 402.008C179.384 402.223 179.08 402.526 178.856 402.918C178.632 403.301 178.52 403.758 178.52 404.29C178.52 404.822 178.632 405.284 178.856 405.676C179.08 406.068 179.384 406.371 179.766 406.586C180.149 406.801 180.583 406.908 181.068 406.908C181.47 406.908 181.843 406.824 182.188 406.656C182.543 406.479 182.842 406.208 183.084 405.844L184.106 406.488C183.817 407.001 183.406 407.398 182.874 407.678C182.352 407.949 181.754 408.084 181.082 408.084ZM189.041 408.084C188.248 408.084 187.548 407.921 186.941 407.594C186.344 407.267 185.877 406.819 185.541 406.25C185.214 405.681 185.051 405.027 185.051 404.29C185.051 403.553 185.21 402.899 185.527 402.33C185.854 401.761 186.297 401.317 186.857 401C187.426 400.673 188.066 400.51 188.775 400.51C189.494 400.51 190.128 400.669 190.679 400.986C191.23 401.303 191.659 401.751 191.967 402.33C192.284 402.899 192.443 403.567 192.443 404.332C192.443 404.388 192.438 404.453 192.429 404.528C192.429 404.603 192.424 404.673 192.415 404.738H186.101V403.772H191.715L191.169 404.108C191.178 403.632 191.08 403.207 190.875 402.834C190.67 402.461 190.385 402.171 190.021 401.966C189.666 401.751 189.251 401.644 188.775 401.644C188.308 401.644 187.893 401.751 187.529 401.966C187.165 402.171 186.88 402.465 186.675 402.848C186.47 403.221 186.367 403.651 186.367 404.136V404.36C186.367 404.855 186.479 405.298 186.703 405.69C186.936 406.073 187.258 406.371 187.669 406.586C188.08 406.801 188.551 406.908 189.083 406.908C189.522 406.908 189.918 406.833 190.273 406.684C190.637 406.535 190.954 406.311 191.225 406.012L191.967 406.88C191.631 407.272 191.211 407.571 190.707 407.776C190.212 407.981 189.657 408.084 189.041 408.084ZM194.309 408V397.612H195.653V408H194.309ZM198.219 408V397.612H199.563V408H198.219ZM205.433 408.084C204.64 408.084 203.94 407.921 203.333 407.594C202.736 407.267 202.269 406.819 201.933 406.25C201.607 405.681 201.443 405.027 201.443 404.29C201.443 403.553 201.602 402.899 201.919 402.33C202.246 401.761 202.689 401.317 203.249 401C203.819 400.673 204.458 400.51 205.167 400.51C205.886 400.51 206.521 400.669 207.071 400.986C207.622 401.303 208.051 401.751 208.359 402.33C208.677 402.899 208.835 403.567 208.835 404.332C208.835 404.388 208.831 404.453 208.821 404.528C208.821 404.603 208.817 404.673 208.807 404.738H202.493V403.772H208.107L207.561 404.108C207.571 403.632 207.473 403.207 207.267 402.834C207.062 402.461 206.777 402.171 206.413 401.966C206.059 401.751 205.643 401.644 205.167 401.644C204.701 401.644 204.285 401.751 203.921 401.966C203.557 402.171 203.273 402.465 203.067 402.848C202.862 403.221 202.759 403.651 202.759 404.136V404.36C202.759 404.855 202.871 405.298 203.095 405.69C203.329 406.073 203.651 406.371 204.061 406.586C204.472 406.801 204.943 406.908 205.475 406.908C205.914 406.908 206.311 406.833 206.665 406.684C207.029 406.535 207.347 406.311 207.617 406.012L208.359 406.88C208.023 407.272 207.603 407.571 207.099 407.776C206.605 407.981 206.049 408.084 205.433 408.084ZM214.664 400.51C215.27 400.51 215.802 400.627 216.26 400.86C216.726 401.093 217.09 401.448 217.352 401.924C217.613 402.4 217.744 403.002 217.744 403.73V408H216.4V403.884C216.4 403.165 216.222 402.624 215.868 402.26C215.522 401.896 215.032 401.714 214.398 401.714C213.922 401.714 213.506 401.807 213.152 401.994C212.797 402.181 212.522 402.456 212.326 402.82C212.139 403.184 212.046 403.637 212.046 404.178V408H210.702V400.58H211.99V402.582L211.78 402.05C212.022 401.565 212.396 401.187 212.9 400.916C213.404 400.645 213.992 400.51 214.664 400.51ZM223.465 408.084C222.709 408.084 222.032 407.921 221.435 407.594C220.847 407.267 220.385 406.819 220.049 406.25C219.713 405.681 219.545 405.027 219.545 404.29C219.545 403.553 219.713 402.899 220.049 402.33C220.385 401.761 220.847 401.317 221.435 401C222.032 400.673 222.709 400.51 223.465 400.51C224.137 400.51 224.734 400.645 225.257 400.916C225.789 401.177 226.2 401.569 226.489 402.092L225.467 402.75C225.224 402.386 224.926 402.12 224.571 401.952C224.226 401.775 223.852 401.686 223.451 401.686C222.966 401.686 222.532 401.793 222.149 402.008C221.766 402.223 221.463 402.526 221.239 402.918C221.015 403.301 220.903 403.758 220.903 404.29C220.903 404.822 221.015 405.284 221.239 405.676C221.463 406.068 221.766 406.371 222.149 406.586C222.532 406.801 222.966 406.908 223.451 406.908C223.852 406.908 224.226 406.824 224.571 406.656C224.926 406.479 225.224 406.208 225.467 405.844L226.489 406.488C226.2 407.001 225.789 407.398 225.257 407.678C224.734 407.949 224.137 408.084 223.465 408.084ZM231.424 408.084C230.63 408.084 229.93 407.921 229.324 407.594C228.726 407.267 228.26 406.819 227.924 406.25C227.597 405.681 227.434 405.027 227.434 404.29C227.434 403.553 227.592 402.899 227.91 402.33C228.236 401.761 228.68 401.317 229.24 401C229.809 400.673 230.448 400.51 231.158 400.51C231.876 400.51 232.511 400.669 233.062 400.986C233.612 401.303 234.042 401.751 234.35 402.33C234.667 402.899 234.826 403.567 234.826 404.332C234.826 404.388 234.821 404.453 234.812 404.528C234.812 404.603 234.807 404.673 234.798 404.738H228.484V403.772H234.098L233.552 404.108C233.561 403.632 233.463 403.207 233.258 402.834C233.052 402.461 232.768 402.171 232.404 401.966C232.049 401.751 231.634 401.644 231.158 401.644C230.691 401.644 230.276 401.751 229.912 401.966C229.548 402.171 229.263 402.465 229.058 402.848C228.852 403.221 228.75 403.651 228.75 404.136V404.36C228.75 404.855 228.862 405.298 229.086 405.69C229.319 406.073 229.641 406.371 230.052 406.586C230.462 406.801 230.934 406.908 231.466 406.908C231.904 406.908 232.301 406.833 232.656 406.684C233.02 406.535 233.337 406.311 233.608 406.012L234.35 406.88C234.014 407.272 233.594 407.571 233.09 407.776C232.595 407.981 232.04 408.084 231.424 408.084ZM237.014 408.084C236.753 408.084 236.529 407.995 236.342 407.818C236.155 407.631 236.062 407.398 236.062 407.118C236.062 406.838 236.155 406.609 236.342 406.432C236.529 406.255 236.753 406.166 237.014 406.166C237.266 406.166 237.481 406.255 237.658 406.432C237.845 406.609 237.938 406.838 237.938 407.118C237.938 407.398 237.845 407.631 237.658 407.818C237.481 407.995 237.266 408.084 237.014 408.084Z" fill="black" fill-opacity="0.6"/>
</g>
<defs>
<filter id="filter0_d_497_471" x="0" y="0" width="353" height="450" filterUnits="userSpaceOnUse" color-interpolation-filters="sRGB">
<feFlood flood-opacity="0" result="BackgroundImageFix"/>
<feColorMatrix in="SourceAlpha" type="matrix" values="0 0 0 0 0 0 0 0 0 0 0 0 0 0 0 0 0 0 127 0" result="hardAlpha"/>
<feOffset dy="4"/>
<feGaussianBlur stdDeviation="2"/>
<feComposite in2="hardAlpha" operator="out"/>
<feColorMatrix type="matrix" values="0 0 0 0 0 0 0 0 0 0 0 0 0 0 0 0 0 0 0.25 0"/>
<feBlend mode="normal" in2="BackgroundImageFix" result="effect1_dropShadow_497_471"/>
<feBlend mode="normal" in="SourceGraphic" in2="effect1_dropShadow_497_471" result="shape"/>
</filter>
<linearGradient id="paint0_linear_497_471" x1="197" y1="248.5" x2="18.5" y2="8.49998" gradientUnits="userSpaceOnUse">
<stop stop-color="#C63B3B"/>
<stop offset="1" stop-color="#D96868"/>
</linearGradient>
</defs>
</svg>
