<svg width="345" height="442" viewBox="0 0 345 442" fill="none" xmlns="http://www.w3.org/2000/svg">
<path d="M28.26 308.44H35.24V310.64H28.26V308.44ZM28.48 316H25.88V302H36.1V304.18H28.48V316ZM38.3744 316V305.32H40.8744V316H38.3744ZM39.6344 303.56C39.1677 303.56 38.781 303.413 38.4744 303.12C38.181 302.827 38.0344 302.473 38.0344 302.06C38.0344 301.633 38.181 301.28 38.4744 301C38.781 300.707 39.1677 300.56 39.6344 300.56C40.101 300.56 40.481 300.7 40.7744 300.98C41.081 301.247 41.2344 301.587 41.2344 302C41.2344 302.44 41.0877 302.813 40.7944 303.12C40.501 303.413 40.1144 303.56 39.6344 303.56ZM50.2156 305.2C51.069 305.2 51.829 305.367 52.4956 305.7C53.1756 306.033 53.709 306.547 54.0956 307.24C54.4823 307.92 54.6756 308.8 54.6756 309.88V316H52.1756V310.2C52.1756 309.253 51.949 308.547 51.4956 308.08C51.0556 307.613 50.4356 307.38 49.6356 307.38C49.049 307.38 48.529 307.5 48.0756 307.74C47.6223 307.98 47.269 308.34 47.0156 308.82C46.7756 309.287 46.6556 309.88 46.6556 310.6V316H44.1556V305.32H46.5356V308.2L46.1156 307.32C46.489 306.64 47.029 306.12 47.7356 305.76C48.4556 305.387 49.2823 305.2 50.2156 305.2ZM64.427 316V313.84L64.287 313.38V309.6C64.287 308.867 64.067 308.3 63.627 307.9C63.187 307.487 62.5204 307.28 61.627 307.28C61.027 307.28 60.4337 307.373 59.847 307.56C59.2737 307.747 58.787 308.007 58.387 308.34L57.407 306.52C57.9804 306.08 58.6604 305.753 59.447 305.54C60.247 305.313 61.0737 305.2 61.927 305.2C63.4737 305.2 64.667 305.573 65.507 306.32C66.3604 307.053 66.787 308.193 66.787 309.74V316H64.427ZM61.067 316.14C60.267 316.14 59.567 316.007 58.967 315.74C58.367 315.46 57.9004 315.08 57.567 314.6C57.247 314.107 57.087 313.553 57.087 312.94C57.087 312.34 57.227 311.8 57.507 311.32C57.8004 310.84 58.2737 310.46 58.927 310.18C59.5804 309.9 60.447 309.76 61.527 309.76H64.627V311.42H61.707C60.8537 311.42 60.2804 311.56 59.987 311.84C59.6937 312.107 59.547 312.44 59.547 312.84C59.547 313.293 59.727 313.653 60.087 313.92C60.447 314.187 60.947 314.32 61.587 314.32C62.2004 314.32 62.747 314.18 63.227 313.9C63.7204 313.62 64.0737 313.207 64.287 312.66L64.707 314.16C64.467 314.787 64.0337 315.273 63.407 315.62C62.7937 315.967 62.0137 316.14 61.067 316.14ZM74.915 316.14C73.795 316.14 72.795 315.907 71.915 315.44C71.0483 314.96 70.3683 314.307 69.875 313.48C69.3817 312.653 69.135 311.713 69.135 310.66C69.135 309.593 69.3817 308.653 69.875 307.84C70.3683 307.013 71.0483 306.367 71.915 305.9C72.795 305.433 73.795 305.2 74.915 305.2C75.955 305.2 76.8683 305.413 77.655 305.84C78.455 306.253 79.0617 306.867 79.475 307.68L77.555 308.8C77.235 308.293 76.8417 307.92 76.375 307.68C75.9217 307.44 75.4283 307.32 74.895 307.32C74.2817 307.32 73.7283 307.453 73.235 307.72C72.7417 307.987 72.355 308.373 72.075 308.88C71.795 309.373 71.655 309.967 71.655 310.66C71.655 311.353 71.795 311.953 72.075 312.46C72.355 312.953 72.7417 313.333 73.235 313.6C73.7283 313.867 74.2817 314 74.895 314C75.4283 314 75.9217 313.88 76.375 313.64C76.8417 313.4 77.235 313.027 77.555 312.52L79.475 313.64C79.0617 314.44 78.455 315.06 77.655 315.5C76.8683 315.927 75.955 316.14 74.915 316.14ZM81.5384 316V305.32H84.0384V316H81.5384ZM82.7984 303.56C82.3318 303.56 81.9451 303.413 81.6384 303.12C81.3451 302.827 81.1984 302.473 81.1984 302.06C81.1984 301.633 81.3451 301.28 81.6384 301C81.9451 300.707 82.3318 300.56 82.7984 300.56C83.2651 300.56 83.6451 300.7 83.9384 300.98C84.2451 301.247 84.3984 301.587 84.3984 302C84.3984 302.44 84.2518 302.813 83.9584 303.12C83.6651 303.413 83.2784 303.56 82.7984 303.56ZM92.3397 316.14C91.153 316.14 90.113 315.907 89.2197 315.44C88.3397 314.96 87.653 314.307 87.1597 313.48C86.6797 312.653 86.4397 311.713 86.4397 310.66C86.4397 309.593 86.673 308.653 87.1397 307.84C87.6197 307.013 88.273 306.367 89.0997 305.9C89.9397 305.433 90.893 305.2 91.9597 305.2C92.9997 305.2 93.9264 305.427 94.7397 305.88C95.553 306.333 96.193 306.973 96.6597 307.8C97.1264 308.627 97.3597 309.6 97.3597 310.72C97.3597 310.827 97.353 310.947 97.3397 311.08C97.3397 311.213 97.333 311.34 97.3197 311.46H88.4197V309.8H95.9997L95.0197 310.32C95.033 309.707 94.9064 309.167 94.6397 308.7C94.373 308.233 94.0064 307.867 93.5397 307.6C93.0864 307.333 92.5597 307.2 91.9597 307.2C91.3464 307.2 90.8064 307.333 90.3397 307.6C89.8864 307.867 89.5264 308.24 89.2597 308.72C89.0064 309.187 88.8797 309.74 88.8797 310.38V310.78C88.8797 311.42 89.0264 311.987 89.3197 312.48C89.613 312.973 90.0264 313.353 90.5597 313.62C91.093 313.887 91.7064 314.02 92.3997 314.02C92.9997 314.02 93.5397 313.927 94.0197 313.74C94.4997 313.553 94.9264 313.26 95.2997 312.86L96.6397 314.4C96.1597 314.96 95.553 315.393 94.8197 315.7C94.0997 315.993 93.273 316.14 92.3397 316.14ZM99.7611 316V301.16H102.261V316H99.7611ZM115.65 316.2C114.556 316.2 113.51 316.047 112.51 315.74C111.51 315.42 110.716 315.013 110.13 314.52L111.03 312.5C111.59 312.94 112.283 313.307 113.11 313.6C113.936 313.893 114.783 314.04 115.65 314.04C116.383 314.04 116.976 313.96 117.43 313.8C117.883 313.64 118.216 313.427 118.43 313.16C118.643 312.88 118.75 312.567 118.75 312.22C118.75 311.793 118.596 311.453 118.29 311.2C117.983 310.933 117.583 310.727 117.09 310.58C116.61 310.42 116.07 310.273 115.47 310.14C114.883 310.007 114.29 309.853 113.69 309.68C113.103 309.493 112.563 309.26 112.07 308.98C111.59 308.687 111.196 308.3 110.89 307.82C110.583 307.34 110.43 306.727 110.43 305.98C110.43 305.22 110.63 304.527 111.03 303.9C111.443 303.26 112.063 302.753 112.89 302.38C113.73 301.993 114.79 301.8 116.07 301.8C116.91 301.8 117.743 301.907 118.57 302.12C119.396 302.333 120.116 302.64 120.73 303.04L119.91 305.06C119.283 304.687 118.636 304.413 117.97 304.24C117.303 304.053 116.663 303.96 116.05 303.96C115.33 303.96 114.743 304.047 114.29 304.22C113.85 304.393 113.523 304.62 113.31 304.9C113.11 305.18 113.01 305.5 113.01 305.86C113.01 306.287 113.156 306.633 113.45 306.9C113.756 307.153 114.15 307.353 114.63 307.5C115.123 307.647 115.67 307.793 116.27 307.94C116.87 308.073 117.463 308.227 118.05 308.4C118.65 308.573 119.19 308.8 119.67 309.08C120.163 309.36 120.556 309.74 120.85 310.22C121.156 310.7 121.31 311.307 121.31 312.04C121.31 312.787 121.103 313.48 120.69 314.12C120.29 314.747 119.67 315.253 118.83 315.64C117.99 316.013 116.93 316.2 115.65 316.2ZM127.668 316.14C126.494 316.14 125.588 315.84 124.948 315.24C124.308 314.627 123.988 313.727 123.988 312.54V302.96H126.488V312.48C126.488 312.987 126.614 313.38 126.868 313.66C127.134 313.94 127.501 314.08 127.968 314.08C128.528 314.08 128.994 313.933 129.368 313.64L130.068 315.42C129.774 315.66 129.414 315.84 128.988 315.96C128.561 316.08 128.121 316.14 127.668 316.14ZM122.228 307.4V305.4H129.348V307.4H122.228ZM138.704 316V313.84L138.564 313.38V309.6C138.564 308.867 138.344 308.3 137.904 307.9C137.464 307.487 136.798 307.28 135.904 307.28C135.304 307.28 134.711 307.373 134.124 307.56C133.551 307.747 133.064 308.007 132.664 308.34L131.684 306.52C132.258 306.08 132.938 305.753 133.724 305.54C134.524 305.313 135.351 305.2 136.204 305.2C137.751 305.2 138.944 305.573 139.784 306.32C140.638 307.053 141.064 308.193 141.064 309.74V316H138.704ZM135.344 316.14C134.544 316.14 133.844 316.007 133.244 315.74C132.644 315.46 132.178 315.08 131.844 314.6C131.524 314.107 131.364 313.553 131.364 312.94C131.364 312.34 131.504 311.8 131.784 311.32C132.078 310.84 132.551 310.46 133.204 310.18C133.858 309.9 134.724 309.76 135.804 309.76H138.904V311.42H135.984C135.131 311.42 134.558 311.56 134.264 311.84C133.971 312.107 133.824 312.44 133.824 312.84C133.824 313.293 134.004 313.653 134.364 313.92C134.724 314.187 135.224 314.32 135.864 314.32C136.478 314.32 137.024 314.18 137.504 313.9C137.998 313.62 138.351 313.207 138.564 312.66L138.984 314.16C138.744 314.787 138.311 315.273 137.684 315.62C137.071 315.967 136.291 316.14 135.344 316.14ZM150.333 305.2C151.186 305.2 151.946 305.367 152.613 305.7C153.293 306.033 153.826 306.547 154.213 307.24C154.599 307.92 154.793 308.8 154.793 309.88V316H152.293V310.2C152.293 309.253 152.066 308.547 151.613 308.08C151.173 307.613 150.553 307.38 149.753 307.38C149.166 307.38 148.646 307.5 148.193 307.74C147.739 307.98 147.386 308.34 147.133 308.82C146.893 309.287 146.773 309.88 146.773 310.6V316H144.273V305.32H146.653V308.2L146.233 307.32C146.606 306.64 147.146 306.12 147.853 305.76C148.573 305.387 149.399 305.2 150.333 305.2ZM162.504 316.14C161.477 316.14 160.55 315.913 159.724 315.46C158.91 314.993 158.27 314.353 157.804 313.54C157.337 312.727 157.104 311.767 157.104 310.66C157.104 309.553 157.337 308.593 157.804 307.78C158.27 306.967 158.91 306.333 159.724 305.88C160.55 305.427 161.477 305.2 162.504 305.2C163.397 305.2 164.197 305.4 164.904 305.8C165.61 306.187 166.17 306.78 166.584 307.58C166.997 308.38 167.204 309.407 167.204 310.66C167.204 311.9 167.004 312.927 166.604 313.74C166.204 314.54 165.65 315.14 164.944 315.54C164.237 315.94 163.424 316.14 162.504 316.14ZM162.804 314C163.404 314 163.937 313.867 164.404 313.6C164.884 313.333 165.264 312.947 165.544 312.44C165.837 311.933 165.984 311.34 165.984 310.66C165.984 309.967 165.837 309.373 165.544 308.88C165.264 308.373 164.884 307.987 164.404 307.72C163.937 307.453 163.404 307.32 162.804 307.32C162.204 307.32 161.664 307.453 161.184 307.72C160.717 307.987 160.337 308.373 160.044 308.88C159.764 309.373 159.624 309.967 159.624 310.66C159.624 311.34 159.764 311.933 160.044 312.44C160.337 312.947 160.717 313.333 161.184 313.6C161.664 313.867 162.204 314 162.804 314ZM166.044 316V313.48L166.144 310.64L165.944 307.8V301.16H168.424V316H166.044ZM178.294 316V313.84L178.154 313.38V309.6C178.154 308.867 177.934 308.3 177.494 307.9C177.054 307.487 176.388 307.28 175.494 307.28C174.894 307.28 174.301 307.373 173.714 307.56C173.141 307.747 172.654 308.007 172.254 308.34L171.274 306.52C171.848 306.08 172.528 305.753 173.314 305.54C174.114 305.313 174.941 305.2 175.794 305.2C177.341 305.2 178.534 305.573 179.374 306.32C180.228 307.053 180.654 308.193 180.654 309.74V316H178.294ZM174.934 316.14C174.134 316.14 173.434 316.007 172.834 315.74C172.234 315.46 171.768 315.08 171.434 314.6C171.114 314.107 170.954 313.553 170.954 312.94C170.954 312.34 171.094 311.8 171.374 311.32C171.668 310.84 172.141 310.46 172.794 310.18C173.448 309.9 174.314 309.76 175.394 309.76H178.494V311.42H175.574C174.721 311.42 174.148 311.56 173.854 311.84C173.561 312.107 173.414 312.44 173.414 312.84C173.414 313.293 173.594 313.653 173.954 313.92C174.314 314.187 174.814 314.32 175.454 314.32C176.068 314.32 176.614 314.18 177.094 313.9C177.588 313.62 177.941 313.207 178.154 312.66L178.574 314.16C178.334 314.787 177.901 315.273 177.274 315.62C176.661 315.967 175.881 316.14 174.934 316.14ZM183.863 316V305.32H186.243V308.26L185.963 307.4C186.283 306.68 186.783 306.133 187.463 305.76C188.156 305.387 189.016 305.2 190.043 305.2V307.58C189.936 307.553 189.836 307.54 189.743 307.54C189.649 307.527 189.556 307.52 189.463 307.52C188.516 307.52 187.763 307.8 187.203 308.36C186.643 308.907 186.363 309.727 186.363 310.82V316H183.863ZM196.586 316.14C195.559 316.14 194.632 315.913 193.806 315.46C192.992 314.993 192.352 314.353 191.886 313.54C191.419 312.727 191.186 311.767 191.186 310.66C191.186 309.553 191.419 308.593 191.886 307.78C192.352 306.967 192.992 306.333 193.806 305.88C194.632 305.427 195.559 305.2 196.586 305.2C197.479 305.2 198.279 305.4 198.986 305.8C199.692 306.187 200.252 306.78 200.666 307.58C201.079 308.38 201.286 309.407 201.286 310.66C201.286 311.9 201.086 312.927 200.686 313.74C200.286 314.54 199.732 315.14 199.026 315.54C198.319 315.94 197.506 316.14 196.586 316.14ZM196.886 314C197.486 314 198.019 313.867 198.486 313.6C198.966 313.333 199.346 312.947 199.626 312.44C199.919 311.933 200.066 311.34 200.066 310.66C200.066 309.967 199.919 309.373 199.626 308.88C199.346 308.373 198.966 307.987 198.486 307.72C198.019 307.453 197.486 307.32 196.886 307.32C196.286 307.32 195.746 307.453 195.266 307.72C194.799 307.987 194.419 308.373 194.126 308.88C193.846 309.373 193.706 309.967 193.706 310.66C193.706 311.34 193.846 311.933 194.126 312.44C194.419 312.947 194.799 313.333 195.266 313.6C195.746 313.867 196.286 314 196.886 314ZM200.126 316V313.48L200.226 310.64L200.026 307.8V301.16H202.506V316H200.126ZM206.596 308.52C206.143 308.52 205.756 308.367 205.436 308.06C205.116 307.74 204.956 307.34 204.956 306.86C204.956 306.353 205.116 305.953 205.436 305.66C205.756 305.353 206.143 305.2 206.596 305.2C207.05 305.2 207.436 305.353 207.756 305.66C208.076 305.953 208.236 306.353 208.236 306.86C208.236 307.34 208.076 307.74 207.756 308.06C207.436 308.367 207.05 308.52 206.596 308.52ZM206.596 316.14C206.143 316.14 205.756 315.987 205.436 315.68C205.116 315.36 204.956 314.96 204.956 314.48C204.956 313.973 205.116 313.573 205.436 313.28C205.756 312.973 206.143 312.82 206.596 312.82C207.05 312.82 207.436 312.973 207.756 313.28C208.076 313.573 208.236 313.973 208.236 314.48C208.236 314.96 208.076 315.36 207.756 315.68C207.436 315.987 207.05 316.14 206.596 316.14ZM25.88 340V326H28.48V340H25.88ZM38.0867 329.2C38.9401 329.2 39.7001 329.367 40.3667 329.7C41.0467 330.033 41.5801 330.547 41.9667 331.24C42.3534 331.92 42.5467 332.8 42.5467 333.88V340H40.0467V334.2C40.0467 333.253 39.8201 332.547 39.3667 332.08C38.9267 331.613 38.3067 331.38 37.5067 331.38C36.9201 331.38 36.4001 331.5 35.9467 331.74C35.4934 331.98 35.1401 332.34 34.8867 332.82C34.6467 333.287 34.5267 333.88 34.5267 334.6V340H32.0267V329.32H34.4067V332.2L33.9867 331.32C34.3601 330.64 34.9001 330.12 35.6067 329.76C36.3267 329.387 37.1534 329.2 38.0867 329.2ZM48.3628 340L43.7828 329.32H46.3828L50.3228 338.74H49.0428L53.1228 329.32H55.5228L50.9428 340H48.3628ZM61.8123 340.14C60.6257 340.14 59.5857 339.907 58.6923 339.44C57.8123 338.96 57.1257 338.307 56.6323 337.48C56.1523 336.653 55.9123 335.713 55.9123 334.66C55.9123 333.593 56.1457 332.653 56.6123 331.84C57.0923 331.013 57.7457 330.367 58.5723 329.9C59.4123 329.433 60.3657 329.2 61.4323 329.2C62.4723 329.2 63.399 329.427 64.2123 329.88C65.0257 330.333 65.6657 330.973 66.1323 331.8C66.599 332.627 66.8323 333.6 66.8323 334.72C66.8323 334.827 66.8257 334.947 66.8123 335.08C66.8123 335.213 66.8057 335.34 66.7923 335.46H57.8923V333.8H65.4723L64.4923 334.32C64.5057 333.707 64.379 333.167 64.1123 332.7C63.8457 332.233 63.479 331.867 63.0123 331.6C62.559 331.333 62.0323 331.2 61.4323 331.2C60.819 331.2 60.279 331.333 59.8123 331.6C59.359 331.867 58.999 332.24 58.7323 332.72C58.479 333.187 58.3523 333.74 58.3523 334.38V334.78C58.3523 335.42 58.499 335.987 58.7923 336.48C59.0857 336.973 59.499 337.353 60.0323 337.62C60.5657 337.887 61.179 338.02 61.8723 338.02C62.4723 338.02 63.0123 337.927 63.4923 337.74C63.9723 337.553 64.399 337.26 64.7723 336.86L66.1123 338.4C65.6323 338.96 65.0257 339.393 64.2923 339.7C63.5723 339.993 62.7457 340.14 61.8123 340.14ZM72.5338 340.14C71.6404 340.14 70.7804 340.027 69.9538 339.8C69.1404 339.56 68.4938 339.273 68.0138 338.94L68.9738 337.04C69.4538 337.347 70.0271 337.6 70.6938 337.8C71.3604 338 72.0271 338.1 72.6938 338.1C73.4804 338.1 74.0471 337.993 74.3938 337.78C74.7538 337.567 74.9338 337.28 74.9338 336.92C74.9338 336.627 74.8138 336.407 74.5738 336.26C74.3338 336.1 74.0204 335.98 73.6338 335.9C73.2471 335.82 72.8138 335.747 72.3338 335.68C71.8671 335.613 71.3938 335.527 70.9138 335.42C70.4471 335.3 70.0204 335.133 69.6338 334.92C69.2471 334.693 68.9338 334.393 68.6938 334.02C68.4538 333.647 68.3338 333.153 68.3338 332.54C68.3338 331.86 68.5271 331.273 68.9137 330.78C69.3004 330.273 69.8404 329.887 70.5337 329.62C71.2404 329.34 72.0738 329.2 73.0338 329.2C73.7538 329.2 74.4804 329.28 75.2138 329.44C75.9471 329.6 76.5538 329.827 77.0338 330.12L76.0738 332.02C75.5671 331.713 75.0538 331.507 74.5338 331.4C74.0271 331.28 73.5204 331.22 73.0138 331.22C72.2538 331.22 71.6871 331.333 71.3138 331.56C70.9538 331.787 70.7738 332.073 70.7738 332.42C70.7738 332.74 70.8938 332.98 71.1338 333.14C71.3738 333.3 71.6871 333.427 72.0738 333.52C72.4604 333.613 72.8871 333.693 73.3538 333.76C73.8338 333.813 74.3071 333.9 74.7738 334.02C75.2404 334.14 75.6671 334.307 76.0538 334.52C76.4538 334.72 76.7738 335.007 77.0138 335.38C77.2538 335.753 77.3738 336.24 77.3738 336.84C77.3738 337.507 77.1738 338.087 76.7738 338.58C76.3871 339.073 75.8338 339.46 75.1138 339.74C74.3938 340.007 73.5338 340.14 72.5338 340.14ZM83.5467 340.14C82.3734 340.14 81.4667 339.84 80.8267 339.24C80.1867 338.627 79.8667 337.727 79.8667 336.54V326.96H82.3667V336.48C82.3667 336.987 82.4934 337.38 82.7467 337.66C83.0134 337.94 83.3801 338.08 83.8467 338.08C84.4067 338.08 84.8734 337.933 85.2467 337.64L85.9467 339.42C85.6534 339.66 85.2934 339.84 84.8667 339.96C84.4401 340.08 84.0001 340.14 83.5467 340.14ZM78.1067 331.4V329.4H85.2267V331.4H78.1067ZM88.0033 340V329.32H90.5033V340H88.0033ZM89.2633 327.56C88.7966 327.56 88.4099 327.413 88.1033 327.12C87.8099 326.827 87.6633 326.473 87.6633 326.06C87.6633 325.633 87.8099 325.28 88.1033 325C88.4099 324.707 88.7966 324.56 89.2633 324.56C89.7299 324.56 90.1099 324.7 90.4033 324.98C90.7099 325.247 90.8633 325.587 90.8633 326C90.8633 326.44 90.7166 326.813 90.4233 327.12C90.1299 327.413 89.7433 327.56 89.2633 327.56ZM99.8445 329.2C100.698 329.2 101.458 329.367 102.125 329.7C102.805 330.033 103.338 330.547 103.725 331.24C104.111 331.92 104.305 332.8 104.305 333.88V340H101.805V334.2C101.805 333.253 101.578 332.547 101.125 332.08C100.685 331.613 100.065 331.38 99.2645 331.38C98.6779 331.38 98.1579 331.5 97.7045 331.74C97.2512 331.98 96.8979 332.34 96.6445 332.82C96.4045 333.287 96.2845 333.88 96.2845 334.6V340H93.7845V329.32H96.1645V332.2L95.7445 331.32C96.1179 330.64 96.6579 330.12 97.3645 329.76C98.0845 329.387 98.9112 329.2 99.8445 329.2ZM112.335 344.02C111.349 344.02 110.382 343.887 109.435 343.62C108.502 343.367 107.735 342.993 107.135 342.5L108.255 340.62C108.722 341.007 109.309 341.313 110.015 341.54C110.735 341.78 111.462 341.9 112.195 341.9C113.369 341.9 114.229 341.627 114.775 341.08C115.322 340.547 115.595 339.74 115.595 338.66V336.76L115.795 334.34L115.715 331.92V329.32H118.095V338.38C118.095 340.313 117.602 341.733 116.615 342.64C115.629 343.56 114.202 344.02 112.335 344.02ZM112.015 339.52C111.002 339.52 110.082 339.307 109.255 338.88C108.442 338.44 107.795 337.833 107.315 337.06C106.849 336.287 106.615 335.38 106.615 334.34C106.615 333.313 106.849 332.413 107.315 331.64C107.795 330.867 108.442 330.267 109.255 329.84C110.082 329.413 111.002 329.2 112.015 329.2C112.922 329.2 113.735 329.38 114.455 329.74C115.175 330.1 115.749 330.66 116.175 331.42C116.615 332.18 116.835 333.153 116.835 334.34C116.835 335.527 116.615 336.507 116.175 337.28C115.749 338.04 115.175 338.607 114.455 338.98C113.735 339.34 112.922 339.52 112.015 339.52ZM112.395 337.4C113.022 337.4 113.582 337.273 114.075 337.02C114.569 336.753 114.949 336.393 115.215 335.94C115.495 335.473 115.635 334.94 115.635 334.34C115.635 333.74 115.495 333.213 115.215 332.76C114.949 332.293 114.569 331.94 114.075 331.7C113.582 331.447 113.022 331.32 112.395 331.32C111.769 331.32 111.202 331.447 110.695 331.7C110.202 331.94 109.815 332.293 109.535 332.76C109.269 333.213 109.135 333.74 109.135 334.34C109.135 334.94 109.269 335.473 109.535 335.94C109.815 336.393 110.202 336.753 110.695 337.02C111.202 337.273 111.769 337.4 112.395 337.4ZM127.15 340V326H129.75V340H127.15ZM139.356 329.2C140.21 329.2 140.97 329.367 141.636 329.7C142.316 330.033 142.85 330.547 143.236 331.24C143.623 331.92 143.816 332.8 143.816 333.88V340H141.316V334.2C141.316 333.253 141.09 332.547 140.636 332.08C140.196 331.613 139.576 331.38 138.776 331.38C138.19 331.38 137.67 331.5 137.216 331.74C136.763 331.98 136.41 332.34 136.156 332.82C135.916 333.287 135.796 333.88 135.796 334.6V340H133.296V329.32H135.676V332.2L135.256 331.32C135.63 330.64 136.17 330.12 136.876 329.76C137.596 329.387 138.423 329.2 139.356 329.2ZM150.288 340.14C149.394 340.14 148.534 340.027 147.708 339.8C146.894 339.56 146.248 339.273 145.768 338.94L146.728 337.04C147.208 337.347 147.781 337.6 148.448 337.8C149.114 338 149.781 338.1 150.448 338.1C151.234 338.1 151.801 337.993 152.148 337.78C152.508 337.567 152.688 337.28 152.688 336.92C152.688 336.627 152.568 336.407 152.328 336.26C152.088 336.1 151.774 335.98 151.388 335.9C151.001 335.82 150.568 335.747 150.088 335.68C149.621 335.613 149.148 335.527 148.668 335.42C148.201 335.3 147.774 335.133 147.388 334.92C147.001 334.693 146.688 334.393 146.448 334.02C146.208 333.647 146.088 333.153 146.088 332.54C146.088 331.86 146.281 331.273 146.668 330.78C147.054 330.273 147.594 329.887 148.288 329.62C148.994 329.34 149.828 329.2 150.788 329.2C151.508 329.2 152.234 329.28 152.968 329.44C153.701 329.6 154.308 329.827 154.788 330.12L153.828 332.02C153.321 331.713 152.808 331.507 152.288 331.4C151.781 331.28 151.274 331.22 150.768 331.22C150.008 331.22 149.441 331.333 149.068 331.56C148.708 331.787 148.528 332.073 148.528 332.42C148.528 332.74 148.648 332.98 148.888 333.14C149.128 333.3 149.441 333.427 149.828 333.52C150.214 333.613 150.641 333.693 151.108 333.76C151.588 333.813 152.061 333.9 152.528 334.02C152.994 334.14 153.421 334.307 153.808 334.52C154.208 334.72 154.528 335.007 154.768 335.38C155.008 335.753 155.128 336.24 155.128 336.84C155.128 337.507 154.928 338.087 154.528 338.58C154.141 339.073 153.588 339.46 152.868 339.74C152.148 340.007 151.288 340.14 150.288 340.14ZM157.281 340V329.32H159.781V340H157.281ZM158.541 327.56C158.074 327.56 157.687 327.413 157.381 327.12C157.087 326.827 156.941 326.473 156.941 326.06C156.941 325.633 157.087 325.28 157.381 325C157.687 324.707 158.074 324.56 158.541 324.56C159.007 324.56 159.387 324.7 159.681 324.98C159.987 325.247 160.141 325.587 160.141 326C160.141 326.44 159.994 326.813 159.701 327.12C159.407 327.413 159.021 327.56 158.541 327.56ZM167.902 344.02C166.915 344.02 165.949 343.887 165.002 343.62C164.069 343.367 163.302 342.993 162.702 342.5L163.822 340.62C164.289 341.007 164.875 341.313 165.582 341.54C166.302 341.78 167.029 341.9 167.762 341.9C168.935 341.9 169.795 341.627 170.342 341.08C170.889 340.547 171.162 339.74 171.162 338.66V336.76L171.362 334.34L171.282 331.92V329.32H173.662V338.38C173.662 340.313 173.169 341.733 172.182 342.64C171.195 343.56 169.769 344.02 167.902 344.02ZM167.582 339.52C166.569 339.52 165.649 339.307 164.822 338.88C164.009 338.44 163.362 337.833 162.882 337.06C162.415 336.287 162.182 335.38 162.182 334.34C162.182 333.313 162.415 332.413 162.882 331.64C163.362 330.867 164.009 330.267 164.822 329.84C165.649 329.413 166.569 329.2 167.582 329.2C168.489 329.2 169.302 329.38 170.022 329.74C170.742 330.1 171.315 330.66 171.742 331.42C172.182 332.18 172.402 333.153 172.402 334.34C172.402 335.527 172.182 336.507 171.742 337.28C171.315 338.04 170.742 338.607 170.022 338.98C169.302 339.34 168.489 339.52 167.582 339.52ZM167.962 337.4C168.589 337.4 169.149 337.273 169.642 337.02C170.135 336.753 170.515 336.393 170.782 335.94C171.062 335.473 171.202 334.94 171.202 334.34C171.202 333.74 171.062 333.213 170.782 332.76C170.515 332.293 170.135 331.94 169.642 331.7C169.149 331.447 168.589 331.32 167.962 331.32C167.335 331.32 166.769 331.447 166.262 331.7C165.769 331.94 165.382 332.293 165.102 332.76C164.835 333.213 164.702 333.74 164.702 334.34C164.702 334.94 164.835 335.473 165.102 335.94C165.382 336.393 165.769 336.753 166.262 337.02C166.769 337.273 167.335 337.4 167.962 337.4ZM183.009 329.2C183.862 329.2 184.622 329.367 185.289 329.7C185.969 330.033 186.502 330.547 186.889 331.24C187.275 331.92 187.469 332.8 187.469 333.88V340H184.969V334.2C184.969 333.253 184.742 332.547 184.289 332.08C183.849 331.613 183.229 331.38 182.429 331.38C181.842 331.38 181.322 331.5 180.869 331.74C180.415 331.98 180.062 332.34 179.809 332.82C179.569 333.287 179.449 333.88 179.449 334.6V340H176.949V325.16H179.449V332.2L178.909 331.32C179.282 330.64 179.822 330.12 180.529 329.76C181.249 329.387 182.075 329.2 183.009 329.2ZM194.66 340.14C193.487 340.14 192.58 339.84 191.94 339.24C191.3 338.627 190.98 337.727 190.98 336.54V326.96H193.48V336.48C193.48 336.987 193.607 337.38 193.86 337.66C194.127 337.94 194.493 338.08 194.96 338.08C195.52 338.08 195.987 337.933 196.36 337.64L197.06 339.42C196.767 339.66 196.407 339.84 195.98 339.96C195.553 340.08 195.113 340.14 194.66 340.14ZM189.22 331.4V329.4H196.34V331.4H189.22ZM202.417 340.14C201.523 340.14 200.663 340.027 199.837 339.8C199.023 339.56 198.377 339.273 197.897 338.94L198.857 337.04C199.337 337.347 199.91 337.6 200.577 337.8C201.243 338 201.91 338.1 202.577 338.1C203.363 338.1 203.93 337.993 204.277 337.78C204.637 337.567 204.817 337.28 204.817 336.92C204.817 336.627 204.697 336.407 204.457 336.26C204.217 336.1 203.903 335.98 203.517 335.9C203.13 335.82 202.697 335.747 202.217 335.68C201.75 335.613 201.277 335.527 200.797 335.42C200.33 335.3 199.903 335.133 199.517 334.92C199.13 334.693 198.817 334.393 198.577 334.02C198.337 333.647 198.217 333.153 198.217 332.54C198.217 331.86 198.41 331.273 198.797 330.78C199.183 330.273 199.723 329.887 200.417 329.62C201.123 329.34 201.957 329.2 202.917 329.2C203.637 329.2 204.363 329.28 205.097 329.44C205.83 329.6 206.437 329.827 206.917 330.12L205.957 332.02C205.45 331.713 204.937 331.507 204.417 331.4C203.91 331.28 203.403 331.22 202.897 331.22C202.137 331.22 201.57 331.333 201.197 331.56C200.837 331.787 200.657 332.073 200.657 332.42C200.657 332.74 200.777 332.98 201.017 333.14C201.257 333.3 201.57 333.427 201.957 333.52C202.343 333.613 202.77 333.693 203.237 333.76C203.717 333.813 204.19 333.9 204.657 334.02C205.123 334.14 205.55 334.307 205.937 334.52C206.337 334.72 206.657 335.007 206.897 335.38C207.137 335.753 207.257 336.24 207.257 336.84C207.257 337.507 207.057 338.087 206.657 338.58C206.27 339.073 205.717 339.46 204.997 339.74C204.277 340.007 203.417 340.14 202.417 340.14Z" fill="white" fill-opacity="0.75"/>
</svg>
