<svg width="345" height="442" viewBox="0 0 345 442" fill="none" xmlns="http://www.w3.org/2000/svg">
<rect width="345" height="442" rx="22" fill="url(#paint0_linear_456_20)"/>
<path d="M50.68 65.144H59.344V67.208H50.68V65.144ZM50.92 74H48.52V57.2H60.376V59.288H50.92V74ZM63.4184 74V61.28H65.7224V74H63.4184ZM64.5704 58.832C64.1224 58.832 63.7464 58.688 63.4424 58.4C63.1544 58.112 63.0104 57.76 63.0104 57.344C63.0104 56.912 63.1544 56.552 63.4424 56.264C63.7464 55.976 64.1224 55.832 64.5704 55.832C65.0184 55.832 65.3864 55.976 65.6744 56.264C65.9784 56.536 66.1304 56.88 66.1304 57.296C66.1304 57.728 65.9864 58.096 65.6984 58.4C65.4104 58.688 65.0344 58.832 64.5704 58.832ZM76.9135 61.16C77.9535 61.16 78.8655 61.36 79.6495 61.76C80.4495 62.16 81.0735 62.768 81.5215 63.584C81.9695 64.4 82.1935 65.432 82.1935 66.68V74H79.8895V66.944C79.8895 65.712 79.5855 64.784 78.9775 64.16C78.3855 63.536 77.5455 63.224 76.4575 63.224C75.6415 63.224 74.9295 63.384 74.3215 63.704C73.7135 64.024 73.2415 64.496 72.9055 65.12C72.5855 65.744 72.4255 66.52 72.4255 67.448V74H70.1215V61.28H72.3295V64.712L71.9695 63.8C72.3855 62.968 73.0255 62.32 73.8895 61.856C74.7535 61.392 75.7615 61.16 76.9135 61.16ZM94.3534 74V71.312L94.2334 70.808V66.224C94.2334 65.248 93.9454 64.496 93.3694 63.968C92.8094 63.424 91.9614 63.152 90.8254 63.152C90.0734 63.152 89.3374 63.28 88.6174 63.536C87.8974 63.776 87.2894 64.104 86.7934 64.52L85.8334 62.792C86.4894 62.264 87.2734 61.864 88.1854 61.592C89.1134 61.304 90.0814 61.16 91.0894 61.16C92.8334 61.16 94.1774 61.584 95.1214 62.432C96.0654 63.28 96.5374 64.576 96.5374 66.32V74H94.3534ZM90.1774 74.144C89.2334 74.144 88.4014 73.984 87.6814 73.664C86.9774 73.344 86.4334 72.904 86.0494 72.344C85.6654 71.768 85.4734 71.12 85.4734 70.4C85.4734 69.712 85.6334 69.088 85.9534 68.528C86.2894 67.968 86.8254 67.52 87.5614 67.184C88.3134 66.848 89.3214 66.68 90.5854 66.68H94.6174V68.336H90.6814C89.5294 68.336 88.7534 68.528 88.3534 68.912C87.9534 69.296 87.7534 69.76 87.7534 70.304C87.7534 70.928 88.0014 71.432 88.4974 71.816C88.9934 72.184 89.6814 72.368 90.5614 72.368C91.4254 72.368 92.1774 72.176 92.8174 71.792C93.4734 71.408 93.9454 70.848 94.2334 70.112L94.6894 71.696C94.3854 72.448 93.8494 73.048 93.0814 73.496C92.3134 73.928 91.3454 74.144 90.1774 74.144ZM107.593 61.16C108.633 61.16 109.545 61.36 110.329 61.76C111.129 62.16 111.753 62.768 112.201 63.584C112.649 64.4 112.873 65.432 112.873 66.68V74H110.569V66.944C110.569 65.712 110.265 64.784 109.657 64.16C109.065 63.536 108.225 63.224 107.137 63.224C106.321 63.224 105.609 63.384 105.001 63.704C104.393 64.024 103.921 64.496 103.585 65.12C103.265 65.744 103.105 66.52 103.105 67.448V74H100.801V61.28H103.009V64.712L102.649 63.8C103.065 62.968 103.705 62.32 104.569 61.856C105.433 61.392 106.441 61.16 107.593 61.16ZM122.681 74.144C121.385 74.144 120.225 73.864 119.201 73.304C118.193 72.744 117.401 71.976 116.825 71C116.249 70.024 115.961 68.904 115.961 67.64C115.961 66.376 116.249 65.256 116.825 64.28C117.401 63.304 118.193 62.544 119.201 62C120.225 61.44 121.385 61.16 122.681 61.16C123.833 61.16 124.857 61.392 125.753 61.856C126.665 62.304 127.369 62.976 127.865 63.872L126.113 65C125.697 64.376 125.185 63.92 124.577 63.632C123.985 63.328 123.345 63.176 122.657 63.176C121.825 63.176 121.081 63.36 120.425 63.728C119.769 64.096 119.249 64.616 118.865 65.288C118.481 65.944 118.289 66.728 118.289 67.64C118.289 68.552 118.481 69.344 118.865 70.016C119.249 70.688 119.769 71.208 120.425 71.576C121.081 71.944 121.825 72.128 122.657 72.128C123.345 72.128 123.985 71.984 124.577 71.696C125.185 71.392 125.697 70.928 126.113 70.304L127.865 71.408C127.369 72.288 126.665 72.968 125.753 73.448C124.857 73.912 123.833 74.144 122.681 74.144ZM130.684 74V61.28H132.988V74H130.684ZM131.836 58.832C131.388 58.832 131.012 58.688 130.708 58.4C130.42 58.112 130.276 57.76 130.276 57.344C130.276 56.912 130.42 56.552 130.708 56.264C131.012 55.976 131.388 55.832 131.836 55.832C132.284 55.832 132.652 55.976 132.94 56.264C133.244 56.536 133.396 56.88 133.396 57.296C133.396 57.728 133.252 58.096 132.964 58.4C132.676 58.688 132.3 58.832 131.836 58.832ZM145.283 74V71.312L145.163 70.808V66.224C145.163 65.248 144.875 64.496 144.299 63.968C143.739 63.424 142.891 63.152 141.755 63.152C141.003 63.152 140.267 63.28 139.547 63.536C138.827 63.776 138.219 64.104 137.723 64.52L136.763 62.792C137.419 62.264 138.203 61.864 139.115 61.592C140.043 61.304 141.011 61.16 142.019 61.16C143.763 61.16 145.107 61.584 146.051 62.432C146.995 63.28 147.467 64.576 147.467 66.32V74H145.283ZM141.107 74.144C140.163 74.144 139.331 73.984 138.611 73.664C137.907 73.344 137.363 72.904 136.979 72.344C136.595 71.768 136.403 71.12 136.403 70.4C136.403 69.712 136.563 69.088 136.883 68.528C137.219 67.968 137.755 67.52 138.491 67.184C139.243 66.848 140.251 66.68 141.515 66.68H145.547V68.336H141.611C140.459 68.336 139.683 68.528 139.283 68.912C138.883 69.296 138.683 69.76 138.683 70.304C138.683 70.928 138.931 71.432 139.427 71.816C139.923 72.184 140.611 72.368 141.491 72.368C142.355 72.368 143.107 72.176 143.747 71.792C144.403 71.408 144.875 70.848 145.163 70.112L145.619 71.696C145.315 72.448 144.779 73.048 144.011 73.496C143.243 73.928 142.275 74.144 141.107 74.144ZM151.731 74V56.192H154.035V74H151.731ZM50.704 93.448H59.344V95.488H50.704V93.448ZM50.92 100.912H60.712V103H48.52V86.2H60.376V88.288H50.92V100.912ZM62.1329 103L67.6049 95.896L67.5809 97.072L62.3729 90.28H64.9409L68.9249 95.512H67.9409L71.9249 90.28H74.4449L69.1649 97.12L69.1889 95.896L74.7089 103H72.0929L67.8929 97.432L68.8289 97.576L64.7009 103H62.1329ZM82.3452 103.144C81.0492 103.144 79.8892 102.864 78.8652 102.304C77.8572 101.744 77.0652 100.976 76.4892 100C75.9132 99.024 75.6252 97.904 75.6252 96.64C75.6252 95.376 75.9132 94.256 76.4892 93.28C77.0652 92.304 77.8572 91.544 78.8652 91C79.8892 90.44 81.0492 90.16 82.3452 90.16C83.4972 90.16 84.5212 90.392 85.4172 90.856C86.3292 91.304 87.0332 91.976 87.5292 92.872L85.7772 94C85.3612 93.376 84.8492 92.92 84.2412 92.632C83.6492 92.328 83.0092 92.176 82.3212 92.176C81.4892 92.176 80.7452 92.36 80.0892 92.728C79.4332 93.096 78.9132 93.616 78.5292 94.288C78.1452 94.944 77.9532 95.728 77.9532 96.64C77.9532 97.552 78.1452 98.344 78.5292 99.016C78.9132 99.688 79.4332 100.208 80.0892 100.576C80.7452 100.944 81.4892 101.128 82.3212 101.128C83.0092 101.128 83.6492 100.984 84.2412 100.696C84.8492 100.392 85.3612 99.928 85.7772 99.304L87.5292 100.408C87.0332 101.288 86.3292 101.968 85.4172 102.448C84.5212 102.912 83.4972 103.144 82.3452 103.144ZM95.9886 103.144C94.6286 103.144 93.4286 102.864 92.3886 102.304C91.3646 101.744 90.5646 100.976 89.9886 100C89.4286 99.024 89.1486 97.904 89.1486 96.64C89.1486 95.376 89.4206 94.256 89.9646 93.28C90.5246 92.304 91.2846 91.544 92.2446 91C93.2206 90.44 94.3166 90.16 95.5326 90.16C96.7646 90.16 97.8526 90.432 98.7966 90.976C99.7406 91.52 100.477 92.288 101.005 93.28C101.549 94.256 101.821 95.4 101.821 96.712C101.821 96.808 101.813 96.92 101.797 97.048C101.797 97.176 101.789 97.296 101.773 97.408H90.9486V95.752H100.573L99.6366 96.328C99.6526 95.512 99.4846 94.784 99.1326 94.144C98.7806 93.504 98.2926 93.008 97.6686 92.656C97.0606 92.288 96.3486 92.104 95.5326 92.104C94.7326 92.104 94.0206 92.288 93.3966 92.656C92.7726 93.008 92.2846 93.512 91.9326 94.168C91.5806 94.808 91.4046 95.544 91.4046 96.376V96.76C91.4046 97.608 91.5966 98.368 91.9806 99.04C92.3806 99.696 92.9326 100.208 93.6366 100.576C94.3406 100.944 95.1486 101.128 96.0606 101.128C96.8126 101.128 97.4926 101 98.1006 100.744C98.7246 100.488 99.2686 100.104 99.7326 99.592L101.005 101.08C100.429 101.752 99.7086 102.264 98.8446 102.616C97.9966 102.968 97.0446 103.144 95.9886 103.144ZM105.02 103V85.192H107.324V103H105.02ZM111.723 103V85.192H114.027V103H111.723ZM124.09 103.144C122.73 103.144 121.53 102.864 120.49 102.304C119.466 101.744 118.666 100.976 118.09 100C117.53 99.024 117.25 97.904 117.25 96.64C117.25 95.376 117.522 94.256 118.066 93.28C118.626 92.304 119.386 91.544 120.346 91C121.322 90.44 122.418 90.16 123.634 90.16C124.866 90.16 125.954 90.432 126.898 90.976C127.842 91.52 128.578 92.288 129.106 93.28C129.65 94.256 129.922 95.4 129.922 96.712C129.922 96.808 129.914 96.92 129.898 97.048C129.898 97.176 129.89 97.296 129.874 97.408H119.05V95.752H128.674L127.738 96.328C127.754 95.512 127.586 94.784 127.234 94.144C126.882 93.504 126.394 93.008 125.77 92.656C125.162 92.288 124.45 92.104 123.634 92.104C122.834 92.104 122.122 92.288 121.498 92.656C120.874 93.008 120.386 93.512 120.034 94.168C119.682 94.808 119.506 95.544 119.506 96.376V96.76C119.506 97.608 119.698 98.368 120.082 99.04C120.482 99.696 121.034 100.208 121.738 100.576C122.442 100.944 123.25 101.128 124.162 101.128C124.914 101.128 125.594 101 126.202 100.744C126.826 100.488 127.37 100.104 127.834 99.592L129.106 101.08C128.53 101.752 127.81 102.264 126.946 102.616C126.098 102.968 125.146 103.144 124.09 103.144ZM139.914 90.16C140.954 90.16 141.866 90.36 142.65 90.76C143.45 91.16 144.074 91.768 144.522 92.584C144.97 93.4 145.194 94.432 145.194 95.68V103H142.89V95.944C142.89 94.712 142.586 93.784 141.978 93.16C141.386 92.536 140.546 92.224 139.458 92.224C138.642 92.224 137.93 92.384 137.322 92.704C136.714 93.024 136.242 93.496 135.906 94.12C135.586 94.744 135.426 95.52 135.426 96.448V103H133.122V90.28H135.33V93.712L134.97 92.8C135.386 91.968 136.026 91.32 136.89 90.856C137.754 90.392 138.762 90.16 139.914 90.16ZM155.001 103.144C153.705 103.144 152.545 102.864 151.521 102.304C150.513 101.744 149.721 100.976 149.145 100C148.569 99.024 148.281 97.904 148.281 96.64C148.281 95.376 148.569 94.256 149.145 93.28C149.721 92.304 150.513 91.544 151.521 91C152.545 90.44 153.705 90.16 155.001 90.16C156.153 90.16 157.177 90.392 158.073 90.856C158.985 91.304 159.689 91.976 160.185 92.872L158.433 94C158.017 93.376 157.505 92.92 156.897 92.632C156.305 92.328 155.665 92.176 154.977 92.176C154.145 92.176 153.401 92.36 152.745 92.728C152.089 93.096 151.569 93.616 151.185 94.288C150.801 94.944 150.609 95.728 150.609 96.64C150.609 97.552 150.801 98.344 151.185 99.016C151.569 99.688 152.089 100.208 152.745 100.576C153.401 100.944 154.145 101.128 154.977 101.128C155.665 101.128 156.305 100.984 156.897 100.696C157.505 100.392 158.017 99.928 158.433 99.304L160.185 100.408C159.689 101.288 158.985 101.968 158.073 102.448C157.177 102.912 156.153 103.144 155.001 103.144ZM168.645 103.144C167.285 103.144 166.085 102.864 165.045 102.304C164.021 101.744 163.221 100.976 162.645 100C162.085 99.024 161.805 97.904 161.805 96.64C161.805 95.376 162.077 94.256 162.621 93.28C163.181 92.304 163.941 91.544 164.901 91C165.877 90.44 166.973 90.16 168.189 90.16C169.421 90.16 170.509 90.432 171.453 90.976C172.397 91.52 173.133 92.288 173.661 93.28C174.205 94.256 174.477 95.4 174.477 96.712C174.477 96.808 174.469 96.92 174.453 97.048C174.453 97.176 174.445 97.296 174.429 97.408H163.605V95.752H173.229L172.293 96.328C172.309 95.512 172.141 94.784 171.789 94.144C171.437 93.504 170.949 93.008 170.325 92.656C169.717 92.288 169.005 92.104 168.189 92.104C167.389 92.104 166.677 92.288 166.053 92.656C165.429 93.008 164.941 93.512 164.589 94.168C164.237 94.808 164.061 95.544 164.061 96.376V96.76C164.061 97.608 164.253 98.368 164.637 99.04C165.037 99.696 165.589 100.208 166.293 100.576C166.997 100.944 167.805 101.128 168.717 101.128C169.469 101.128 170.149 101 170.757 100.744C171.381 100.488 171.925 100.104 172.389 99.592L173.661 101.08C173.085 101.752 172.365 102.264 171.501 102.616C170.653 102.968 169.701 103.144 168.645 103.144Z" fill="white"/>
<path d="M51.94 142.09C50.6 142.09 49.545 141.705 48.775 140.935C48.005 140.165 47.62 139.025 47.62 137.515V131.5H48.73V137.47C48.73 138.71 49.01 139.625 49.57 140.215C50.13 140.805 50.92 141.1 51.94 141.1C52.97 141.1 53.765 140.805 54.325 140.215C54.885 139.625 55.165 138.71 55.165 137.47V131.5H56.245V137.515C56.245 139.025 55.86 140.165 55.09 140.935C54.33 141.705 53.28 142.09 51.94 142.09ZM63.3849 134.05C64.0249 134.05 64.5849 134.175 65.0649 134.425C65.5549 134.665 65.9349 135.035 66.2049 135.535C66.4849 136.035 66.6249 136.665 66.6249 137.425V142H65.5599V137.53C65.5599 136.7 65.3499 136.075 64.9299 135.655C64.5199 135.225 63.9399 135.01 63.1899 135.01C62.6299 135.01 62.1399 135.125 61.7199 135.355C61.3099 135.575 60.9899 135.9 60.7599 136.33C60.5399 136.75 60.4299 137.26 60.4299 137.86V142H59.3649V134.125H60.3849V136.285L60.2199 135.88C60.4699 135.31 60.8699 134.865 61.4199 134.545C61.9699 134.215 62.6249 134.05 63.3849 134.05ZM69.5016 142V130.87H70.5666V142H69.5016ZM76.7399 142.075C75.9799 142.075 75.2949 141.905 74.6849 141.565C74.0849 141.215 73.6099 140.74 73.2599 140.14C72.9099 139.53 72.7349 138.835 72.7349 138.055C72.7349 137.265 72.9099 136.57 73.2599 135.97C73.6099 135.37 74.0849 134.9 74.6849 134.56C75.2849 134.22 75.9699 134.05 76.7399 134.05C77.5199 134.05 78.2099 134.22 78.8099 134.56C79.4199 134.9 79.8949 135.37 80.2349 135.97C80.5849 136.57 80.7599 137.265 80.7599 138.055C80.7599 138.835 80.5849 139.53 80.2349 140.14C79.8949 140.74 79.4199 141.215 78.8099 141.565C78.1999 141.905 77.5099 142.075 76.7399 142.075ZM76.7399 141.13C77.3099 141.13 77.8149 141.005 78.2549 140.755C78.6949 140.495 79.0399 140.135 79.2899 139.675C79.5499 139.205 79.6799 138.665 79.6799 138.055C79.6799 137.435 79.5499 136.895 79.2899 136.435C79.0399 135.975 78.6949 135.62 78.2549 135.37C77.8149 135.11 77.3149 134.98 76.7549 134.98C76.1949 134.98 75.6949 135.11 75.2549 135.37C74.8149 135.62 74.4649 135.975 74.2049 136.435C73.9449 136.895 73.8149 137.435 73.8149 138.055C73.8149 138.665 73.9449 139.205 74.2049 139.675C74.4649 140.135 74.8149 140.495 75.2549 140.755C75.6949 141.005 76.1899 141.13 76.7399 141.13ZM86.2042 142.075C85.4242 142.075 84.7242 141.905 84.1042 141.565C83.4942 141.215 83.0142 140.74 82.6642 140.14C82.3142 139.53 82.1392 138.835 82.1392 138.055C82.1392 137.265 82.3142 136.57 82.6642 135.97C83.0142 135.37 83.4942 134.9 84.1042 134.56C84.7242 134.22 85.4242 134.05 86.2042 134.05C86.8742 134.05 87.4792 134.18 88.0192 134.44C88.5592 134.7 88.9842 135.09 89.2942 135.61L88.4992 136.15C88.2292 135.75 87.8942 135.455 87.4942 135.265C87.0942 135.075 86.6592 134.98 86.1892 134.98C85.6292 134.98 85.1242 135.11 84.6742 135.37C84.2242 135.62 83.8692 135.975 83.6092 136.435C83.3492 136.895 83.2192 137.435 83.2192 138.055C83.2192 138.675 83.3492 139.215 83.6092 139.675C83.8692 140.135 84.2242 140.495 84.6742 140.755C85.1242 141.005 85.6292 141.13 86.1892 141.13C86.6592 141.13 87.0942 141.035 87.4942 140.845C87.8942 140.655 88.2292 140.365 88.4992 139.975L89.2942 140.515C88.9842 141.025 88.5592 141.415 88.0192 141.685C87.4792 141.945 86.8742 142.075 86.2042 142.075ZM92.1092 139.96L92.1392 138.595L97.0442 134.125H98.3492L94.8842 137.44L94.2842 137.95L92.1092 139.96ZM91.2692 142V130.87H92.3342V142H91.2692ZM97.3742 142L94.0892 137.905L94.7792 137.08L98.6792 142H97.3742ZM100.278 142V134.125H101.343V142H100.278ZM100.818 132.385C100.598 132.385 100.413 132.31 100.263 132.16C100.113 132.01 100.038 131.83 100.038 131.62C100.038 131.41 100.113 131.235 100.263 131.095C100.413 130.945 100.598 130.87 100.818 130.87C101.038 130.87 101.223 130.94 101.373 131.08C101.523 131.22 101.598 131.395 101.598 131.605C101.598 131.825 101.523 132.01 101.373 132.16C101.233 132.31 101.048 132.385 100.818 132.385ZM108.326 134.05C108.966 134.05 109.526 134.175 110.006 134.425C110.496 134.665 110.876 135.035 111.146 135.535C111.426 136.035 111.566 136.665 111.566 137.425V142H110.501V137.53C110.501 136.7 110.291 136.075 109.871 135.655C109.461 135.225 108.881 135.01 108.131 135.01C107.571 135.01 107.081 135.125 106.661 135.355C106.251 135.575 105.931 135.9 105.701 136.33C105.481 136.75 105.371 137.26 105.371 137.86V142H104.306V134.125H105.326V136.285L105.161 135.88C105.411 135.31 105.811 134.865 106.361 134.545C106.911 134.215 107.566 134.05 108.326 134.05ZM117.803 144.985C117.083 144.985 116.393 144.88 115.733 144.67C115.073 144.46 114.538 144.16 114.128 143.77L114.668 142.96C115.038 143.29 115.493 143.55 116.033 143.74C116.583 143.94 117.163 144.04 117.773 144.04C118.773 144.04 119.508 143.805 119.978 143.335C120.448 142.875 120.683 142.155 120.683 141.175V139.21L120.833 137.86L120.728 136.51V134.125H121.748V141.04C121.748 142.4 121.413 143.395 120.743 144.025C120.083 144.665 119.103 144.985 117.803 144.985ZM117.608 141.7C116.858 141.7 116.183 141.54 115.583 141.22C114.983 140.89 114.508 140.435 114.158 139.855C113.818 139.275 113.648 138.61 113.648 137.86C113.648 137.11 113.818 136.45 114.158 135.88C114.508 135.3 114.983 134.85 115.583 134.53C116.183 134.21 116.858 134.05 117.608 134.05C118.308 134.05 118.938 134.195 119.498 134.485C120.058 134.775 120.503 135.205 120.833 135.775C121.163 136.345 121.328 137.04 121.328 137.86C121.328 138.68 121.163 139.375 120.833 139.945C120.503 140.515 120.058 140.95 119.498 141.25C118.938 141.55 118.308 141.7 117.608 141.7ZM117.713 140.755C118.293 140.755 118.808 140.635 119.258 140.395C119.708 140.145 120.063 139.805 120.323 139.375C120.583 138.935 120.713 138.43 120.713 137.86C120.713 137.29 120.583 136.79 120.323 136.36C120.063 135.93 119.708 135.595 119.258 135.355C118.808 135.105 118.293 134.98 117.713 134.98C117.143 134.98 116.628 135.105 116.168 135.355C115.718 135.595 115.363 135.93 115.103 136.36C114.853 136.79 114.728 137.29 114.728 137.86C114.728 138.43 114.853 138.935 115.103 139.375C115.363 139.805 115.718 140.145 116.168 140.395C116.628 140.635 117.143 140.755 117.713 140.755ZM128.862 142V131.5H133.137C134.257 131.5 135.237 131.725 136.077 132.175C136.927 132.615 137.587 133.23 138.057 134.02C138.527 134.81 138.762 135.72 138.762 136.75C138.762 137.78 138.527 138.69 138.057 139.48C137.587 140.27 136.927 140.89 136.077 141.34C135.237 141.78 134.257 142 133.137 142H128.862ZM129.972 141.04H133.077C134.007 141.04 134.812 140.86 135.492 140.5C136.182 140.13 136.717 139.625 137.097 138.985C137.477 138.335 137.667 137.59 137.667 136.75C137.667 135.9 137.477 135.155 137.097 134.515C136.717 133.875 136.182 133.375 135.492 133.015C134.812 132.645 134.007 132.46 133.077 132.46H129.972V141.04ZM145.965 142V140.26L145.92 139.975V137.065C145.92 136.395 145.73 135.88 145.35 135.52C144.98 135.16 144.425 134.98 143.685 134.98C143.175 134.98 142.69 135.065 142.23 135.235C141.77 135.405 141.38 135.63 141.06 135.91L140.58 135.115C140.98 134.775 141.46 134.515 142.02 134.335C142.58 134.145 143.17 134.05 143.79 134.05C144.81 134.05 145.595 134.305 146.145 134.815C146.705 135.315 146.985 136.08 146.985 137.11V142H145.965ZM143.25 142.075C142.66 142.075 142.145 141.98 141.705 141.79C141.275 141.59 140.945 141.32 140.715 140.98C140.485 140.63 140.37 140.23 140.37 139.78C140.37 139.37 140.465 139 140.655 138.67C140.855 138.33 141.175 138.06 141.615 137.86C142.065 137.65 142.665 137.545 143.415 137.545H146.13V138.34H143.445C142.685 138.34 142.155 138.475 141.855 138.745C141.565 139.015 141.42 139.35 141.42 139.75C141.42 140.2 141.595 140.56 141.945 140.83C142.295 141.1 142.785 141.235 143.415 141.235C144.015 141.235 144.53 141.1 144.96 140.83C145.4 140.55 145.72 140.15 145.92 139.63L146.16 140.365C145.96 140.885 145.61 141.3 145.11 141.61C144.62 141.92 144 142.075 143.25 142.075ZM152.368 142.075C151.628 142.075 151.058 141.875 150.658 141.475C150.258 141.075 150.058 140.51 150.058 139.78V132.385H151.123V139.72C151.123 140.18 151.238 140.535 151.468 140.785C151.708 141.035 152.048 141.16 152.488 141.16C152.958 141.16 153.348 141.025 153.658 140.755L154.033 141.52C153.823 141.71 153.568 141.85 153.268 141.94C152.978 142.03 152.678 142.075 152.368 142.075ZM148.648 135.01V134.125H153.523V135.01H148.648ZM160.906 142V140.26L160.861 139.975V137.065C160.861 136.395 160.671 135.88 160.291 135.52C159.921 135.16 159.366 134.98 158.626 134.98C158.116 134.98 157.631 135.065 157.171 135.235C156.711 135.405 156.321 135.63 156.001 135.91L155.521 135.115C155.921 134.775 156.401 134.515 156.961 134.335C157.521 134.145 158.111 134.05 158.731 134.05C159.751 134.05 160.536 134.305 161.086 134.815C161.646 135.315 161.926 136.08 161.926 137.11V142H160.906ZM158.191 142.075C157.601 142.075 157.086 141.98 156.646 141.79C156.216 141.59 155.886 141.32 155.656 140.98C155.426 140.63 155.311 140.23 155.311 139.78C155.311 139.37 155.406 139 155.596 138.67C155.796 138.33 156.116 138.06 156.556 137.86C157.006 137.65 157.606 137.545 158.356 137.545H161.071V138.34H158.386C157.626 138.34 157.096 138.475 156.796 138.745C156.506 139.015 156.361 139.35 156.361 139.75C156.361 140.2 156.536 140.56 156.886 140.83C157.236 141.1 157.726 141.235 158.356 141.235C158.956 141.235 159.471 141.1 159.901 140.83C160.341 140.55 160.661 140.15 160.861 139.63L161.101 140.365C160.901 140.885 160.551 141.3 160.051 141.61C159.561 141.92 158.941 142.075 158.191 142.075ZM168.97 142V131.5H170.08V142H168.97ZM177.291 134.05C177.931 134.05 178.491 134.175 178.971 134.425C179.461 134.665 179.841 135.035 180.111 135.535C180.391 136.035 180.531 136.665 180.531 137.425V142H179.466V137.53C179.466 136.7 179.256 136.075 178.836 135.655C178.426 135.225 177.846 135.01 177.096 135.01C176.536 135.01 176.046 135.125 175.626 135.355C175.216 135.575 174.896 135.9 174.666 136.33C174.446 136.75 174.336 137.26 174.336 137.86V142H173.271V134.125H174.291V136.285L174.126 135.88C174.376 135.31 174.776 134.865 175.326 134.545C175.876 134.215 176.531 134.05 177.291 134.05ZM185.523 142.075C184.873 142.075 184.258 141.985 183.678 141.805C183.098 141.615 182.643 141.38 182.313 141.1L182.793 140.26C183.113 140.5 183.523 140.71 184.023 140.89C184.523 141.06 185.048 141.145 185.598 141.145C186.348 141.145 186.888 141.03 187.218 140.8C187.548 140.56 187.713 140.245 187.713 139.855C187.713 139.565 187.618 139.34 187.428 139.18C187.248 139.01 187.008 138.885 186.708 138.805C186.408 138.715 186.073 138.64 185.703 138.58C185.333 138.52 184.963 138.45 184.593 138.37C184.233 138.29 183.903 138.175 183.603 138.025C183.303 137.865 183.058 137.65 182.868 137.38C182.688 137.11 182.598 136.75 182.598 136.3C182.598 135.87 182.718 135.485 182.958 135.145C183.198 134.805 183.548 134.54 184.008 134.35C184.478 134.15 185.048 134.05 185.718 134.05C186.228 134.05 186.738 134.12 187.248 134.26C187.758 134.39 188.178 134.565 188.508 134.785L188.043 135.64C187.693 135.4 187.318 135.23 186.918 135.13C186.518 135.02 186.118 134.965 185.718 134.965C185.008 134.965 184.483 135.09 184.143 135.34C183.813 135.58 183.648 135.89 183.648 136.27C183.648 136.57 183.738 136.805 183.918 136.975C184.108 137.145 184.353 137.28 184.653 137.38C184.963 137.47 185.298 137.545 185.658 137.605C186.028 137.665 186.393 137.74 186.753 137.83C187.123 137.91 187.458 138.025 187.758 138.175C188.068 138.315 188.313 138.52 188.493 138.79C188.683 139.05 188.778 139.395 188.778 139.825C188.778 140.285 188.648 140.685 188.388 141.025C188.138 141.355 187.768 141.615 187.278 141.805C186.798 141.985 186.213 142.075 185.523 142.075ZM190.732 142V134.125H191.797V142H190.732ZM191.272 132.385C191.052 132.385 190.867 132.31 190.717 132.16C190.567 132.01 190.492 131.83 190.492 131.62C190.492 131.41 190.567 131.235 190.717 131.095C190.867 130.945 191.052 130.87 191.272 130.87C191.492 130.87 191.677 130.94 191.827 131.08C191.977 131.22 192.052 131.395 192.052 131.605C192.052 131.825 191.977 132.01 191.827 132.16C191.687 132.31 191.502 132.385 191.272 132.385ZM198.12 144.985C197.4 144.985 196.71 144.88 196.05 144.67C195.39 144.46 194.855 144.16 194.445 143.77L194.985 142.96C195.355 143.29 195.81 143.55 196.35 143.74C196.9 143.94 197.48 144.04 198.09 144.04C199.09 144.04 199.825 143.805 200.295 143.335C200.765 142.875 201 142.155 201 141.175V139.21L201.15 137.86L201.045 136.51V134.125H202.065V141.04C202.065 142.4 201.73 143.395 201.06 144.025C200.4 144.665 199.42 144.985 198.12 144.985ZM197.925 141.7C197.175 141.7 196.5 141.54 195.9 141.22C195.3 140.89 194.825 140.435 194.475 139.855C194.135 139.275 193.965 138.61 193.965 137.86C193.965 137.11 194.135 136.45 194.475 135.88C194.825 135.3 195.3 134.85 195.9 134.53C196.5 134.21 197.175 134.05 197.925 134.05C198.625 134.05 199.255 134.195 199.815 134.485C200.375 134.775 200.82 135.205 201.15 135.775C201.48 136.345 201.645 137.04 201.645 137.86C201.645 138.68 201.48 139.375 201.15 139.945C200.82 140.515 200.375 140.95 199.815 141.25C199.255 141.55 198.625 141.7 197.925 141.7ZM198.03 140.755C198.61 140.755 199.125 140.635 199.575 140.395C200.025 140.145 200.38 139.805 200.64 139.375C200.9 138.935 201.03 138.43 201.03 137.86C201.03 137.29 200.9 136.79 200.64 136.36C200.38 135.93 200.025 135.595 199.575 135.355C199.125 135.105 198.61 134.98 198.03 134.98C197.46 134.98 196.945 135.105 196.485 135.355C196.035 135.595 195.68 135.93 195.42 136.36C195.17 136.79 195.045 137.29 195.045 137.86C195.045 138.43 195.17 138.935 195.42 139.375C195.68 139.805 196.035 140.145 196.485 140.395C196.945 140.635 197.46 140.755 198.03 140.755ZM209.049 134.05C209.689 134.05 210.249 134.175 210.729 134.425C211.219 134.665 211.599 135.035 211.869 135.535C212.149 136.035 212.289 136.665 212.289 137.425V142H211.224V137.53C211.224 136.7 211.014 136.075 210.594 135.655C210.184 135.225 209.604 135.01 208.854 135.01C208.294 135.01 207.804 135.125 207.384 135.355C206.974 135.575 206.654 135.9 206.424 136.33C206.204 136.75 206.094 137.26 206.094 137.86V142H205.029V130.87H206.094V136.285L205.884 135.88C206.134 135.31 206.534 134.865 207.084 134.545C207.634 134.215 208.289 134.05 209.049 134.05ZM217.656 142.075C216.916 142.075 216.346 141.875 215.946 141.475C215.546 141.075 215.346 140.51 215.346 139.78V132.385H216.411V139.72C216.411 140.18 216.526 140.535 216.756 140.785C216.996 141.035 217.336 141.16 217.776 141.16C218.246 141.16 218.636 141.025 218.946 140.755L219.321 141.52C219.111 141.71 218.856 141.85 218.556 141.94C218.266 142.03 217.966 142.075 217.656 142.075ZM213.936 135.01V134.125H218.811V135.01H213.936ZM223.374 142.075C222.724 142.075 222.109 141.985 221.529 141.805C220.949 141.615 220.494 141.38 220.164 141.1L220.644 140.26C220.964 140.5 221.374 140.71 221.874 140.89C222.374 141.06 222.899 141.145 223.449 141.145C224.199 141.145 224.739 141.03 225.069 140.8C225.399 140.56 225.564 140.245 225.564 139.855C225.564 139.565 225.469 139.34 225.279 139.18C225.099 139.01 224.859 138.885 224.559 138.805C224.259 138.715 223.924 138.64 223.554 138.58C223.184 138.52 222.814 138.45 222.444 138.37C222.084 138.29 221.754 138.175 221.454 138.025C221.154 137.865 220.909 137.65 220.719 137.38C220.539 137.11 220.449 136.75 220.449 136.3C220.449 135.87 220.569 135.485 220.809 135.145C221.049 134.805 221.399 134.54 221.859 134.35C222.329 134.15 222.899 134.05 223.569 134.05C224.079 134.05 224.589 134.12 225.099 134.26C225.609 134.39 226.029 134.565 226.359 134.785L225.894 135.64C225.544 135.4 225.169 135.23 224.769 135.13C224.369 135.02 223.969 134.965 223.569 134.965C222.859 134.965 222.334 135.09 221.994 135.34C221.664 135.58 221.499 135.89 221.499 136.27C221.499 136.57 221.589 136.805 221.769 136.975C221.959 137.145 222.204 137.28 222.504 137.38C222.814 137.47 223.149 137.545 223.509 137.605C223.879 137.665 224.244 137.74 224.604 137.83C224.974 137.91 225.309 138.025 225.609 138.175C225.919 138.315 226.164 138.52 226.344 138.79C226.534 139.05 226.629 139.395 226.629 139.825C226.629 140.285 226.499 140.685 226.239 141.025C225.989 141.355 225.619 141.615 225.129 141.805C224.649 141.985 224.064 142.075 223.374 142.075ZM228.689 135.685C228.469 135.685 228.279 135.605 228.119 135.445C227.969 135.285 227.894 135.09 227.894 134.86C227.894 134.62 227.969 134.425 228.119 134.275C228.279 134.125 228.469 134.05 228.689 134.05C228.909 134.05 229.094 134.125 229.244 134.275C229.404 134.425 229.484 134.62 229.484 134.86C229.484 135.09 229.404 135.285 229.244 135.445C229.094 135.605 228.909 135.685 228.689 135.685ZM228.689 142.075C228.469 142.075 228.279 141.995 228.119 141.835C227.969 141.675 227.894 141.48 227.894 141.25C227.894 141.01 227.969 140.815 228.119 140.665C228.279 140.515 228.469 140.44 228.689 140.44C228.909 140.44 229.094 140.515 229.244 140.665C229.404 140.815 229.484 141.01 229.484 141.25C229.484 141.48 229.404 141.675 229.244 141.835C229.094 141.995 228.909 142.075 228.689 142.075ZM47.71 160V149.5H51.64C52.53 149.5 53.295 149.645 53.935 149.935C54.575 150.215 55.065 150.625 55.405 151.165C55.755 151.695 55.93 152.34 55.93 153.1C55.93 153.84 55.755 154.48 55.405 155.02C55.065 155.55 54.575 155.96 53.935 156.25C53.295 156.54 52.53 156.685 51.64 156.685H48.325L48.82 156.16V160H47.71ZM48.82 156.25L48.325 155.71H51.61C52.66 155.71 53.455 155.485 53.995 155.035C54.545 154.575 54.82 153.93 54.82 153.1C54.82 152.26 54.545 151.61 53.995 151.15C53.455 150.69 52.66 150.46 51.61 150.46H48.325L48.82 149.935V156.25ZM57.9147 160V152.125H58.9347V154.27L58.8297 153.895C59.0497 153.295 59.4197 152.84 59.9397 152.53C60.4597 152.21 61.1047 152.05 61.8747 152.05V153.085C61.8347 153.085 61.7947 153.085 61.7547 153.085C61.7147 153.075 61.6747 153.07 61.6347 153.07C60.8047 153.07 60.1547 153.325 59.6847 153.835C59.2147 154.335 58.9797 155.05 58.9797 155.98V160H57.9147ZM66.9548 160.075C66.1948 160.075 65.5098 159.905 64.8998 159.565C64.2998 159.215 63.8248 158.74 63.4748 158.14C63.1248 157.53 62.9498 156.835 62.9498 156.055C62.9498 155.265 63.1248 154.57 63.4748 153.97C63.8248 153.37 64.2998 152.9 64.8998 152.56C65.4998 152.22 66.1848 152.05 66.9548 152.05C67.7348 152.05 68.4248 152.22 69.0248 152.56C69.6348 152.9 70.1098 153.37 70.4498 153.97C70.7998 154.57 70.9748 155.265 70.9748 156.055C70.9748 156.835 70.7998 157.53 70.4498 158.14C70.1098 158.74 69.6348 159.215 69.0248 159.565C68.4148 159.905 67.7248 160.075 66.9548 160.075ZM66.9548 159.13C67.5248 159.13 68.0298 159.005 68.4698 158.755C68.9098 158.495 69.2548 158.135 69.5048 157.675C69.7648 157.205 69.8948 156.665 69.8948 156.055C69.8948 155.435 69.7648 154.895 69.5048 154.435C69.2548 153.975 68.9098 153.62 68.4698 153.37C68.0298 153.11 67.5298 152.98 66.9698 152.98C66.4098 152.98 65.9098 153.11 65.4698 153.37C65.0298 153.62 64.6798 153.975 64.4198 154.435C64.1598 154.895 64.0298 155.435 64.0298 156.055C64.0298 156.665 64.1598 157.205 64.4198 157.675C64.6798 158.135 65.0298 158.495 65.4698 158.755C65.9098 159.005 66.4048 159.13 66.9548 159.13ZM74.9543 160L71.4593 152.125H72.5693L75.7793 159.43H75.2543L78.5093 152.125H79.5593L76.0493 160H74.9543ZM81.0592 160V152.125H82.1242V160H81.0592ZM81.5992 150.385C81.3792 150.385 81.1942 150.31 81.0442 150.16C80.8942 150.01 80.8192 149.83 80.8192 149.62C80.8192 149.41 80.8942 149.235 81.0442 149.095C81.1942 148.945 81.3792 148.87 81.5992 148.87C81.8192 148.87 82.0042 148.94 82.1542 149.08C82.3042 149.22 82.3792 149.395 82.3792 149.605C82.3792 149.825 82.3042 150.01 82.1542 150.16C82.0142 150.31 81.8292 150.385 81.5992 150.385ZM88.2225 160.075C87.4725 160.075 86.7975 159.905 86.1975 159.565C85.6075 159.225 85.1425 158.755 84.8025 158.155C84.4625 157.545 84.2925 156.845 84.2925 156.055C84.2925 155.255 84.4625 154.555 84.8025 153.955C85.1425 153.355 85.6075 152.89 86.1975 152.56C86.7975 152.22 87.4725 152.05 88.2225 152.05C88.9125 152.05 89.5275 152.205 90.0675 152.515C90.6175 152.825 91.0525 153.28 91.3725 153.88C91.7025 154.47 91.8675 155.195 91.8675 156.055C91.8675 156.905 91.7075 157.63 91.3875 158.23C91.0675 158.83 90.6325 159.29 90.0825 159.61C89.5425 159.92 88.9225 160.075 88.2225 160.075ZM88.2975 159.13C88.8575 159.13 89.3575 159.005 89.7975 158.755C90.2475 158.495 90.5975 158.135 90.8475 157.675C91.1075 157.205 91.2375 156.665 91.2375 156.055C91.2375 155.435 91.1075 154.895 90.8475 154.435C90.5975 153.975 90.2475 153.62 89.7975 153.37C89.3575 153.11 88.8575 152.98 88.2975 152.98C87.7475 152.98 87.2525 153.11 86.8125 153.37C86.3725 153.62 86.0225 153.975 85.7625 154.435C85.5025 154.895 85.3725 155.435 85.3725 156.055C85.3725 156.665 85.5025 157.205 85.7625 157.675C86.0225 158.135 86.3725 158.495 86.8125 158.755C87.2525 159.005 87.7475 159.13 88.2975 159.13ZM91.2675 160V157.63L91.3725 156.04L91.2225 154.45V148.87H92.2875V160H91.2675ZM95.2536 160V152.125H96.3186V160H95.2536ZM95.7936 150.385C95.5736 150.385 95.3886 150.31 95.2386 150.16C95.0886 150.01 95.0136 149.83 95.0136 149.62C95.0136 149.41 95.0886 149.235 95.2386 149.095C95.3886 148.945 95.5736 148.87 95.7936 148.87C96.0136 148.87 96.1986 148.94 96.3486 149.08C96.4986 149.22 96.5736 149.395 96.5736 149.605C96.5736 149.825 96.4986 150.01 96.3486 150.16C96.2086 150.31 96.0236 150.385 95.7936 150.385ZM103.302 152.05C103.942 152.05 104.502 152.175 104.982 152.425C105.472 152.665 105.852 153.035 106.122 153.535C106.402 154.035 106.542 154.665 106.542 155.425V160H105.477V155.53C105.477 154.7 105.267 154.075 104.847 153.655C104.437 153.225 103.857 153.01 103.107 153.01C102.547 153.01 102.057 153.125 101.637 153.355C101.227 153.575 100.907 153.9 100.677 154.33C100.457 154.75 100.347 155.26 100.347 155.86V160H99.2819V152.125H100.302V154.285L100.137 153.88C100.387 153.31 100.787 152.865 101.337 152.545C101.887 152.215 102.542 152.05 103.302 152.05ZM112.779 162.985C112.059 162.985 111.369 162.88 110.709 162.67C110.049 162.46 109.514 162.16 109.104 161.77L109.644 160.96C110.014 161.29 110.469 161.55 111.009 161.74C111.559 161.94 112.139 162.04 112.749 162.04C113.749 162.04 114.484 161.805 114.954 161.335C115.424 160.875 115.659 160.155 115.659 159.175V157.21L115.809 155.86L115.704 154.51V152.125H116.724V159.04C116.724 160.4 116.389 161.395 115.719 162.025C115.059 162.665 114.079 162.985 112.779 162.985ZM112.584 159.7C111.834 159.7 111.159 159.54 110.559 159.22C109.959 158.89 109.484 158.435 109.134 157.855C108.794 157.275 108.624 156.61 108.624 155.86C108.624 155.11 108.794 154.45 109.134 153.88C109.484 153.3 109.959 152.85 110.559 152.53C111.159 152.21 111.834 152.05 112.584 152.05C113.284 152.05 113.914 152.195 114.474 152.485C115.034 152.775 115.479 153.205 115.809 153.775C116.139 154.345 116.304 155.04 116.304 155.86C116.304 156.68 116.139 157.375 115.809 157.945C115.479 158.515 115.034 158.95 114.474 159.25C113.914 159.55 113.284 159.7 112.584 159.7ZM112.689 158.755C113.269 158.755 113.784 158.635 114.234 158.395C114.684 158.145 115.039 157.805 115.299 157.375C115.559 156.935 115.689 156.43 115.689 155.86C115.689 155.29 115.559 154.79 115.299 154.36C115.039 153.93 114.684 153.595 114.234 153.355C113.784 153.105 113.269 152.98 112.689 152.98C112.119 152.98 111.604 153.105 111.144 153.355C110.694 153.595 110.339 153.93 110.079 154.36C109.829 154.79 109.704 155.29 109.704 155.86C109.704 156.43 109.829 156.935 110.079 157.375C110.339 157.805 110.694 158.145 111.144 158.395C111.604 158.635 112.119 158.755 112.689 158.755ZM123.838 160V149.5H124.948V160H123.838ZM132.159 152.05C132.799 152.05 133.359 152.175 133.839 152.425C134.329 152.665 134.709 153.035 134.979 153.535C135.259 154.035 135.399 154.665 135.399 155.425V160H134.334V155.53C134.334 154.7 134.124 154.075 133.704 153.655C133.294 153.225 132.714 153.01 131.964 153.01C131.404 153.01 130.914 153.125 130.494 153.355C130.084 153.575 129.764 153.9 129.534 154.33C129.314 154.75 129.204 155.26 129.204 155.86V160H128.139V152.125H129.159V154.285L128.994 153.88C129.244 153.31 129.644 152.865 130.194 152.545C130.744 152.215 131.399 152.05 132.159 152.05ZM140.155 160L136.66 152.125H137.77L140.98 159.43H140.455L143.71 152.125H144.76L141.25 160H140.155ZM150.96 160V158.26L150.915 157.975V155.065C150.915 154.395 150.725 153.88 150.345 153.52C149.975 153.16 149.42 152.98 148.68 152.98C148.17 152.98 147.685 153.065 147.225 153.235C146.765 153.405 146.375 153.63 146.055 153.91L145.575 153.115C145.975 152.775 146.455 152.515 147.015 152.335C147.575 152.145 148.165 152.05 148.785 152.05C149.805 152.05 150.59 152.305 151.14 152.815C151.7 153.315 151.98 154.08 151.98 155.11V160H150.96ZM148.245 160.075C147.655 160.075 147.14 159.98 146.7 159.79C146.27 159.59 145.94 159.32 145.71 158.98C145.48 158.63 145.365 158.23 145.365 157.78C145.365 157.37 145.46 157 145.65 156.67C145.85 156.33 146.17 156.06 146.61 155.86C147.06 155.65 147.66 155.545 148.41 155.545H151.125V156.34H148.44C147.68 156.34 147.15 156.475 146.85 156.745C146.56 157.015 146.415 157.35 146.415 157.75C146.415 158.2 146.59 158.56 146.94 158.83C147.29 159.1 147.78 159.235 148.41 159.235C149.01 159.235 149.525 159.1 149.955 158.83C150.395 158.55 150.715 158.15 150.915 157.63L151.155 158.365C150.955 158.885 150.605 159.3 150.105 159.61C149.615 159.92 148.995 160.075 148.245 160.075ZM154.873 160V148.87H155.938V160H154.873ZM162.156 160.075C161.486 160.075 160.901 159.95 160.401 159.7C159.901 159.45 159.511 159.075 159.231 158.575C158.961 158.075 158.826 157.45 158.826 156.7V152.125H159.891V156.58C159.891 157.42 160.096 158.055 160.506 158.485C160.926 158.905 161.511 159.115 162.261 159.115C162.811 159.115 163.286 159.005 163.686 158.785C164.096 158.555 164.406 158.225 164.616 157.795C164.836 157.365 164.946 156.85 164.946 156.25V152.125H166.011V160H164.991V157.84L165.156 158.23C164.906 158.81 164.516 159.265 163.986 159.595C163.466 159.915 162.856 160.075 162.156 160.075ZM173.914 160V158.26L173.869 157.975V155.065C173.869 154.395 173.679 153.88 173.299 153.52C172.929 153.16 172.374 152.98 171.634 152.98C171.124 152.98 170.639 153.065 170.179 153.235C169.719 153.405 169.329 153.63 169.009 153.91L168.529 153.115C168.929 152.775 169.409 152.515 169.969 152.335C170.529 152.145 171.119 152.05 171.739 152.05C172.759 152.05 173.544 152.305 174.094 152.815C174.654 153.315 174.934 154.08 174.934 155.11V160H173.914ZM171.199 160.075C170.609 160.075 170.094 159.98 169.654 159.79C169.224 159.59 168.894 159.32 168.664 158.98C168.434 158.63 168.319 158.23 168.319 157.78C168.319 157.37 168.414 157 168.604 156.67C168.804 156.33 169.124 156.06 169.564 155.86C170.014 155.65 170.614 155.545 171.364 155.545H174.079V156.34H171.394C170.634 156.34 170.104 156.475 169.804 156.745C169.514 157.015 169.369 157.35 169.369 157.75C169.369 158.2 169.544 158.56 169.894 158.83C170.244 159.1 170.734 159.235 171.364 159.235C171.964 159.235 172.479 159.1 172.909 158.83C173.349 158.55 173.669 158.15 173.869 157.63L174.109 158.365C173.909 158.885 173.559 159.3 173.059 159.61C172.569 159.92 171.949 160.075 171.199 160.075ZM181.892 160.075C181.202 160.075 180.582 159.92 180.032 159.61C179.482 159.29 179.047 158.83 178.727 158.23C178.407 157.63 178.247 156.905 178.247 156.055C178.247 155.195 178.407 154.47 178.727 153.88C179.057 153.28 179.497 152.825 180.047 152.515C180.597 152.205 181.212 152.05 181.892 152.05C182.642 152.05 183.312 152.22 183.902 152.56C184.502 152.89 184.972 153.355 185.312 153.955C185.652 154.555 185.822 155.255 185.822 156.055C185.822 156.845 185.652 157.545 185.312 158.155C184.972 158.755 184.502 159.225 183.902 159.565C183.312 159.905 182.642 160.075 181.892 160.075ZM177.827 160V148.87H178.892V154.45L178.742 156.04L178.847 157.63V160H177.827ZM181.817 159.13C182.377 159.13 182.877 159.005 183.317 158.755C183.757 158.495 184.107 158.135 184.367 157.675C184.627 157.205 184.757 156.665 184.757 156.055C184.757 155.435 184.627 154.895 184.367 154.435C184.107 153.975 183.757 153.62 183.317 153.37C182.877 153.11 182.377 152.98 181.817 152.98C181.257 152.98 180.752 153.11 180.302 153.37C179.862 153.62 179.512 153.975 179.252 154.435C179.002 154.895 178.877 155.435 178.877 156.055C178.877 156.665 179.002 157.205 179.252 157.675C179.512 158.135 179.862 158.495 180.302 158.755C180.752 159.005 181.257 159.13 181.817 159.13ZM187.993 160V148.87H189.058V160H187.993ZM195.366 160.075C194.546 160.075 193.826 159.905 193.206 159.565C192.586 159.215 192.101 158.74 191.751 158.14C191.401 157.53 191.226 156.835 191.226 156.055C191.226 155.275 191.391 154.585 191.721 153.985C192.061 153.385 192.521 152.915 193.101 152.575C193.691 152.225 194.351 152.05 195.081 152.05C195.821 152.05 196.476 152.22 197.046 152.56C197.626 152.89 198.081 153.36 198.411 153.97C198.741 154.57 198.906 155.265 198.906 156.055C198.906 156.105 198.901 156.16 198.891 156.22C198.891 156.27 198.891 156.325 198.891 156.385H192.036V155.59H198.321L197.901 155.905C197.901 155.335 197.776 154.83 197.526 154.39C197.286 153.94 196.956 153.59 196.536 153.34C196.116 153.09 195.631 152.965 195.081 152.965C194.541 152.965 194.056 153.09 193.626 153.34C193.196 153.59 192.861 153.94 192.621 154.39C192.381 154.84 192.261 155.355 192.261 155.935V156.1C192.261 156.7 192.391 157.23 192.651 157.69C192.921 158.14 193.291 158.495 193.761 158.755C194.241 159.005 194.786 159.13 195.396 159.13C195.876 159.13 196.321 159.045 196.731 158.875C197.151 158.705 197.511 158.445 197.811 158.095L198.411 158.785C198.061 159.205 197.621 159.525 197.091 159.745C196.571 159.965 195.996 160.075 195.366 160.075ZM52.315 178.09C51.515 178.09 50.775 177.96 50.095 177.7C49.425 177.43 48.84 177.055 48.34 176.575C47.85 176.095 47.465 175.53 47.185 174.88C46.915 174.23 46.78 173.52 46.78 172.75C46.78 171.98 46.915 171.27 47.185 170.62C47.465 169.97 47.855 169.405 48.355 168.925C48.855 168.445 49.44 168.075 50.11 167.815C50.79 167.545 51.53 167.41 52.33 167.41C53.13 167.41 53.86 167.535 54.52 167.785C55.19 168.035 55.76 168.415 56.23 168.925L55.54 169.63C55.1 169.19 54.615 168.875 54.085 168.685C53.555 168.495 52.985 168.4 52.375 168.4C51.725 168.4 51.125 168.51 50.575 168.73C50.035 168.94 49.56 169.245 49.15 169.645C48.75 170.035 48.435 170.495 48.205 171.025C47.985 171.545 47.875 172.12 47.875 172.75C47.875 173.37 47.985 173.945 48.205 174.475C48.435 175.005 48.75 175.47 49.15 175.87C49.56 176.26 50.035 176.565 50.575 176.785C51.125 176.995 51.72 177.1 52.36 177.1C52.96 177.1 53.525 177.01 54.055 176.83C54.595 176.65 55.09 176.345 55.54 175.915L56.17 176.755C55.67 177.195 55.085 177.53 54.415 177.76C53.745 177.98 53.045 178.09 52.315 178.09ZM55.105 176.62V172.75H56.17V176.755L55.105 176.62ZM62.3416 178.075C61.6716 178.075 61.0866 177.95 60.5866 177.7C60.0866 177.45 59.6966 177.075 59.4166 176.575C59.1466 176.075 59.0116 175.45 59.0116 174.7V170.125H60.0766V174.58C60.0766 175.42 60.2816 176.055 60.6916 176.485C61.1116 176.905 61.6966 177.115 62.4466 177.115C62.9966 177.115 63.4716 177.005 63.8716 176.785C64.2816 176.555 64.5916 176.225 64.8016 175.795C65.0216 175.365 65.1316 174.85 65.1316 174.25V170.125H66.1966V178H65.1766V175.84L65.3416 176.23C65.0916 176.81 64.7016 177.265 64.1716 177.595C63.6516 177.915 63.0416 178.075 62.3416 178.075ZM69.1647 178V170.125H70.2297V178H69.1647ZM69.7047 168.385C69.4847 168.385 69.2997 168.31 69.1497 168.16C68.9997 168.01 68.9247 167.83 68.9247 167.62C68.9247 167.41 68.9997 167.235 69.1497 167.095C69.2997 166.945 69.4847 166.87 69.7047 166.87C69.9247 166.87 70.1097 166.94 70.2597 167.08C70.4097 167.22 70.4847 167.395 70.4847 167.605C70.4847 167.825 70.4097 168.01 70.2597 168.16C70.1197 168.31 69.9347 168.385 69.7047 168.385ZM78.128 178V176.26L78.083 175.975V173.065C78.083 172.395 77.893 171.88 77.513 171.52C77.143 171.16 76.588 170.98 75.848 170.98C75.338 170.98 74.853 171.065 74.393 171.235C73.933 171.405 73.543 171.63 73.223 171.91L72.743 171.115C73.143 170.775 73.623 170.515 74.183 170.335C74.743 170.145 75.333 170.05 75.953 170.05C76.973 170.05 77.758 170.305 78.308 170.815C78.868 171.315 79.148 172.08 79.148 173.11V178H78.128ZM75.413 178.075C74.823 178.075 74.308 177.98 73.868 177.79C73.438 177.59 73.108 177.32 72.878 176.98C72.648 176.63 72.533 176.23 72.533 175.78C72.533 175.37 72.628 175 72.818 174.67C73.018 174.33 73.338 174.06 73.778 173.86C74.228 173.65 74.828 173.545 75.578 173.545H78.293V174.34H75.608C74.848 174.34 74.318 174.475 74.018 174.745C73.728 175.015 73.583 175.35 73.583 175.75C73.583 176.2 73.758 176.56 74.108 176.83C74.458 177.1 74.948 177.235 75.578 177.235C76.178 177.235 76.693 177.1 77.123 176.83C77.563 176.55 77.883 176.15 78.083 175.63L78.323 176.365C78.123 176.885 77.773 177.3 77.273 177.61C76.783 177.92 76.163 178.075 75.413 178.075ZM85.1757 178.075C84.4257 178.075 83.7507 177.905 83.1507 177.565C82.5607 177.225 82.0957 176.755 81.7557 176.155C81.4157 175.545 81.2457 174.845 81.2457 174.055C81.2457 173.255 81.4157 172.555 81.7557 171.955C82.0957 171.355 82.5607 170.89 83.1507 170.56C83.7507 170.22 84.4257 170.05 85.1757 170.05C85.8657 170.05 86.4807 170.205 87.0207 170.515C87.5707 170.825 88.0057 171.28 88.3257 171.88C88.6557 172.47 88.8207 173.195 88.8207 174.055C88.8207 174.905 88.6607 175.63 88.3407 176.23C88.0207 176.83 87.5857 177.29 87.0357 177.61C86.4957 177.92 85.8757 178.075 85.1757 178.075ZM85.2507 177.13C85.8107 177.13 86.3107 177.005 86.7507 176.755C87.2007 176.495 87.5507 176.135 87.8007 175.675C88.0607 175.205 88.1907 174.665 88.1907 174.055C88.1907 173.435 88.0607 172.895 87.8007 172.435C87.5507 171.975 87.2007 171.62 86.7507 171.37C86.3107 171.11 85.8107 170.98 85.2507 170.98C84.7007 170.98 84.2057 171.11 83.7657 171.37C83.3257 171.62 82.9757 171.975 82.7157 172.435C82.4557 172.895 82.3257 173.435 82.3257 174.055C82.3257 174.665 82.4557 175.205 82.7157 175.675C82.9757 176.135 83.3257 176.495 83.7657 176.755C84.2057 177.005 84.7007 177.13 85.2507 177.13ZM88.2207 178V175.63L88.3257 174.04L88.1757 172.45V166.87H89.2407V178H88.2207ZM97.1417 178V176.26L97.0967 175.975V173.065C97.0967 172.395 96.9067 171.88 96.5267 171.52C96.1567 171.16 95.6017 170.98 94.8617 170.98C94.3517 170.98 93.8667 171.065 93.4067 171.235C92.9467 171.405 92.5567 171.63 92.2367 171.91L91.7567 171.115C92.1567 170.775 92.6367 170.515 93.1967 170.335C93.7567 170.145 94.3467 170.05 94.9667 170.05C95.9867 170.05 96.7717 170.305 97.3217 170.815C97.8817 171.315 98.1617 172.08 98.1617 173.11V178H97.1417ZM94.4267 178.075C93.8367 178.075 93.3217 177.98 92.8817 177.79C92.4517 177.59 92.1217 177.32 91.8917 176.98C91.6617 176.63 91.5467 176.23 91.5467 175.78C91.5467 175.37 91.6417 175 91.8317 174.67C92.0317 174.33 92.3517 174.06 92.7917 173.86C93.2417 173.65 93.8417 173.545 94.5917 173.545H97.3067V174.34H94.6217C93.8617 174.34 93.3317 174.475 93.0317 174.745C92.7417 175.015 92.5967 175.35 92.5967 175.75C92.5967 176.2 92.7717 176.56 93.1217 176.83C93.4717 177.1 93.9617 177.235 94.5917 177.235C95.1917 177.235 95.7067 177.1 96.1367 176.83C96.5767 176.55 96.8967 176.15 97.0967 175.63L97.3367 176.365C97.1367 176.885 96.7867 177.3 96.2867 177.61C95.7967 177.92 95.1767 178.075 94.4267 178.075ZM105.074 170.05C105.714 170.05 106.274 170.175 106.754 170.425C107.244 170.665 107.624 171.035 107.894 171.535C108.174 172.035 108.314 172.665 108.314 173.425V178H107.249V173.53C107.249 172.7 107.039 172.075 106.619 171.655C106.209 171.225 105.629 171.01 104.879 171.01C104.319 171.01 103.829 171.125 103.409 171.355C102.999 171.575 102.679 171.9 102.449 172.33C102.229 172.75 102.119 173.26 102.119 173.86V178H101.054V170.125H102.074V172.285L101.909 171.88C102.159 171.31 102.559 170.865 103.109 170.545C103.659 170.215 104.314 170.05 105.074 170.05ZM114.461 178.075C113.681 178.075 112.981 177.905 112.361 177.565C111.751 177.215 111.271 176.74 110.921 176.14C110.571 175.53 110.396 174.835 110.396 174.055C110.396 173.265 110.571 172.57 110.921 171.97C111.271 171.37 111.751 170.9 112.361 170.56C112.981 170.22 113.681 170.05 114.461 170.05C115.131 170.05 115.736 170.18 116.276 170.44C116.816 170.7 117.241 171.09 117.551 171.61L116.756 172.15C116.486 171.75 116.151 171.455 115.751 171.265C115.351 171.075 114.916 170.98 114.446 170.98C113.886 170.98 113.381 171.11 112.931 171.37C112.481 171.62 112.126 171.975 111.866 172.435C111.606 172.895 111.476 173.435 111.476 174.055C111.476 174.675 111.606 175.215 111.866 175.675C112.126 176.135 112.481 176.495 112.931 176.755C113.381 177.005 113.886 177.13 114.446 177.13C114.916 177.13 115.351 177.035 115.751 176.845C116.151 176.655 116.486 176.365 116.756 175.975L117.551 176.515C117.241 177.025 116.816 177.415 116.276 177.685C115.736 177.945 115.131 178.075 114.461 178.075ZM122.856 178.075C122.036 178.075 121.316 177.905 120.696 177.565C120.076 177.215 119.591 176.74 119.241 176.14C118.891 175.53 118.716 174.835 118.716 174.055C118.716 173.275 118.881 172.585 119.211 171.985C119.551 171.385 120.011 170.915 120.591 170.575C121.181 170.225 121.841 170.05 122.571 170.05C123.311 170.05 123.966 170.22 124.536 170.56C125.116 170.89 125.571 171.36 125.901 171.97C126.231 172.57 126.396 173.265 126.396 174.055C126.396 174.105 126.391 174.16 126.381 174.22C126.381 174.27 126.381 174.325 126.381 174.385H119.526V173.59H125.811L125.391 173.905C125.391 173.335 125.266 172.83 125.016 172.39C124.776 171.94 124.446 171.59 124.026 171.34C123.606 171.09 123.121 170.965 122.571 170.965C122.031 170.965 121.546 171.09 121.116 171.34C120.686 171.59 120.351 171.94 120.111 172.39C119.871 172.84 119.751 173.355 119.751 173.935V174.1C119.751 174.7 119.881 175.23 120.141 175.69C120.411 176.14 120.781 176.495 121.251 176.755C121.731 177.005 122.276 177.13 122.886 177.13C123.366 177.13 123.811 177.045 124.221 176.875C124.641 176.705 125.001 176.445 125.301 176.095L125.901 176.785C125.551 177.205 125.111 177.525 124.581 177.745C124.061 177.965 123.486 178.075 122.856 178.075ZM132.67 178V169.135C132.67 168.435 132.875 167.87 133.285 167.44C133.695 167.01 134.285 166.795 135.055 166.795C135.355 166.795 135.645 166.835 135.925 166.915C136.205 166.995 136.44 167.12 136.63 167.29L136.27 168.085C136.12 167.955 135.945 167.86 135.745 167.8C135.545 167.73 135.33 167.695 135.1 167.695C134.65 167.695 134.305 167.82 134.065 168.07C133.825 168.32 133.705 168.69 133.705 169.18V170.38L133.735 170.875V178H132.67ZM131.26 171.01V170.125H136.135V171.01H131.26ZM140.651 178.075C139.891 178.075 139.206 177.905 138.596 177.565C137.996 177.215 137.521 176.74 137.171 176.14C136.821 175.53 136.646 174.835 136.646 174.055C136.646 173.265 136.821 172.57 137.171 171.97C137.521 171.37 137.996 170.9 138.596 170.56C139.196 170.22 139.881 170.05 140.651 170.05C141.431 170.05 142.121 170.22 142.721 170.56C143.331 170.9 143.806 171.37 144.146 171.97C144.496 172.57 144.671 173.265 144.671 174.055C144.671 174.835 144.496 175.53 144.146 176.14C143.806 176.74 143.331 177.215 142.721 177.565C142.111 177.905 141.421 178.075 140.651 178.075ZM140.651 177.13C141.221 177.13 141.726 177.005 142.166 176.755C142.606 176.495 142.951 176.135 143.201 175.675C143.461 175.205 143.591 174.665 143.591 174.055C143.591 173.435 143.461 172.895 143.201 172.435C142.951 171.975 142.606 171.62 142.166 171.37C141.726 171.11 141.226 170.98 140.666 170.98C140.106 170.98 139.606 171.11 139.166 171.37C138.726 171.62 138.376 171.975 138.116 172.435C137.856 172.895 137.726 173.435 137.726 174.055C137.726 174.665 137.856 175.205 138.116 175.675C138.376 176.135 138.726 176.495 139.166 176.755C139.606 177.005 140.101 177.13 140.651 177.13ZM146.845 178V170.125H147.865V172.27L147.76 171.895C147.98 171.295 148.35 170.84 148.87 170.53C149.39 170.21 150.035 170.05 150.805 170.05V171.085C150.765 171.085 150.725 171.085 150.685 171.085C150.645 171.075 150.605 171.07 150.565 171.07C149.735 171.07 149.085 171.325 148.615 171.835C148.145 172.335 147.91 173.05 147.91 173.98V178H146.845ZM156.792 178V170.125H157.857V178H156.792ZM157.332 168.385C157.112 168.385 156.927 168.31 156.777 168.16C156.627 168.01 156.552 167.83 156.552 167.62C156.552 167.41 156.627 167.235 156.777 167.095C156.927 166.945 157.112 166.87 157.332 166.87C157.552 166.87 157.737 166.94 157.887 167.08C158.037 167.22 158.112 167.395 158.112 167.605C158.112 167.825 158.037 168.01 157.887 168.16C157.747 168.31 157.562 168.385 157.332 168.385ZM164.84 170.05C165.48 170.05 166.04 170.175 166.52 170.425C167.01 170.665 167.39 171.035 167.66 171.535C167.94 172.035 168.08 172.665 168.08 173.425V178H167.015V173.53C167.015 172.7 166.805 172.075 166.385 171.655C165.975 171.225 165.395 171.01 164.645 171.01C164.085 171.01 163.595 171.125 163.175 171.355C162.765 171.575 162.445 171.9 162.215 172.33C161.995 172.75 161.885 173.26 161.885 173.86V178H160.82V170.125H161.84V172.285L161.675 171.88C161.925 171.31 162.325 170.865 162.875 170.545C163.425 170.215 164.08 170.05 164.84 170.05ZM171.137 178V169.135C171.137 168.435 171.342 167.87 171.752 167.44C172.162 167.01 172.752 166.795 173.522 166.795C173.822 166.795 174.112 166.835 174.392 166.915C174.672 166.995 174.907 167.12 175.097 167.29L174.737 168.085C174.587 167.955 174.412 167.86 174.212 167.8C174.012 167.73 173.797 167.695 173.567 167.695C173.117 167.695 172.772 167.82 172.532 168.07C172.292 168.32 172.172 168.69 172.172 169.18V170.38L172.202 170.875V178H171.137ZM169.727 171.01V170.125H174.602V171.01H169.727ZM179.118 178.075C178.358 178.075 177.673 177.905 177.063 177.565C176.463 177.215 175.988 176.74 175.638 176.14C175.288 175.53 175.113 174.835 175.113 174.055C175.113 173.265 175.288 172.57 175.638 171.97C175.988 171.37 176.463 170.9 177.063 170.56C177.663 170.22 178.348 170.05 179.118 170.05C179.898 170.05 180.588 170.22 181.188 170.56C181.798 170.9 182.273 171.37 182.613 171.97C182.963 172.57 183.138 173.265 183.138 174.055C183.138 174.835 182.963 175.53 182.613 176.14C182.273 176.74 181.798 177.215 181.188 177.565C180.578 177.905 179.888 178.075 179.118 178.075ZM179.118 177.13C179.688 177.13 180.193 177.005 180.633 176.755C181.073 176.495 181.418 176.135 181.668 175.675C181.928 175.205 182.058 174.665 182.058 174.055C182.058 173.435 181.928 172.895 181.668 172.435C181.418 171.975 181.073 171.62 180.633 171.37C180.193 171.11 179.693 170.98 179.133 170.98C178.573 170.98 178.073 171.11 177.633 171.37C177.193 171.62 176.843 171.975 176.583 172.435C176.323 172.895 176.193 173.435 176.193 174.055C176.193 174.665 176.323 175.205 176.583 175.675C176.843 176.135 177.193 176.495 177.633 176.755C178.073 177.005 178.568 177.13 179.118 177.13ZM185.312 178V170.125H186.332V172.27L186.227 171.895C186.447 171.295 186.817 170.84 187.337 170.53C187.857 170.21 188.502 170.05 189.272 170.05V171.085C189.232 171.085 189.192 171.085 189.152 171.085C189.112 171.075 189.072 171.07 189.032 171.07C188.202 171.07 187.552 171.325 187.082 171.835C186.612 172.335 186.377 173.05 186.377 173.98V178H185.312ZM201.055 170.05C201.695 170.05 202.25 170.175 202.72 170.425C203.2 170.665 203.57 171.035 203.83 171.535C204.1 172.035 204.235 172.665 204.235 173.425V178H203.17V173.53C203.17 172.7 202.97 172.075 202.57 171.655C202.18 171.225 201.625 171.01 200.905 171.01C200.365 171.01 199.895 171.125 199.495 171.355C199.105 171.575 198.8 171.9 198.58 172.33C198.37 172.75 198.265 173.26 198.265 173.86V178H197.2V173.53C197.2 172.7 197 172.075 196.6 171.655C196.2 171.225 195.64 171.01 194.92 171.01C194.39 171.01 193.925 171.125 193.525 171.355C193.125 171.575 192.815 171.9 192.595 172.33C192.385 172.75 192.28 173.26 192.28 173.86V178H191.215V170.125H192.235V172.255L192.07 171.88C192.31 171.31 192.695 170.865 193.225 170.545C193.765 170.215 194.4 170.05 195.13 170.05C195.9 170.05 196.555 170.245 197.095 170.635C197.635 171.015 197.985 171.59 198.145 172.36L197.725 172.195C197.955 171.555 198.36 171.04 198.94 170.65C199.53 170.25 200.235 170.05 201.055 170.05ZM210.469 178.075C209.649 178.075 208.929 177.905 208.309 177.565C207.689 177.215 207.204 176.74 206.854 176.14C206.504 175.53 206.329 174.835 206.329 174.055C206.329 173.275 206.494 172.585 206.824 171.985C207.164 171.385 207.624 170.915 208.204 170.575C208.794 170.225 209.454 170.05 210.184 170.05C210.924 170.05 211.579 170.22 212.149 170.56C212.729 170.89 213.184 171.36 213.514 171.97C213.844 172.57 214.009 173.265 214.009 174.055C214.009 174.105 214.004 174.16 213.994 174.22C213.994 174.27 213.994 174.325 213.994 174.385H207.139V173.59H213.424L213.004 173.905C213.004 173.335 212.879 172.83 212.629 172.39C212.389 171.94 212.059 171.59 211.639 171.34C211.219 171.09 210.734 170.965 210.184 170.965C209.644 170.965 209.159 171.09 208.729 171.34C208.299 171.59 207.964 171.94 207.724 172.39C207.484 172.84 207.364 173.355 207.364 173.935V174.1C207.364 174.7 207.494 175.23 207.754 175.69C208.024 176.14 208.394 176.495 208.864 176.755C209.344 177.005 209.889 177.13 210.499 177.13C210.979 177.13 211.424 177.045 211.834 176.875C212.254 176.705 212.614 176.445 212.914 176.095L213.514 176.785C213.164 177.205 212.724 177.525 212.194 177.745C211.674 177.965 211.099 178.075 210.469 178.075ZM219.311 178.075C218.561 178.075 217.886 177.905 217.286 177.565C216.696 177.225 216.231 176.755 215.891 176.155C215.551 175.545 215.381 174.845 215.381 174.055C215.381 173.255 215.551 172.555 215.891 171.955C216.231 171.355 216.696 170.89 217.286 170.56C217.886 170.22 218.561 170.05 219.311 170.05C220.001 170.05 220.616 170.205 221.156 170.515C221.706 170.825 222.141 171.28 222.461 171.88C222.791 172.47 222.956 173.195 222.956 174.055C222.956 174.905 222.796 175.63 222.476 176.23C222.156 176.83 221.721 177.29 221.171 177.61C220.631 177.92 220.011 178.075 219.311 178.075ZM219.386 177.13C219.946 177.13 220.446 177.005 220.886 176.755C221.336 176.495 221.686 176.135 221.936 175.675C222.196 175.205 222.326 174.665 222.326 174.055C222.326 173.435 222.196 172.895 221.936 172.435C221.686 171.975 221.336 171.62 220.886 171.37C220.446 171.11 219.946 170.98 219.386 170.98C218.836 170.98 218.341 171.11 217.901 171.37C217.461 171.62 217.111 171.975 216.851 172.435C216.591 172.895 216.461 173.435 216.461 174.055C216.461 174.665 216.591 175.205 216.851 175.675C217.111 176.135 217.461 176.495 217.901 176.755C218.341 177.005 218.836 177.13 219.386 177.13ZM222.356 178V175.63L222.461 174.04L222.311 172.45V166.87H223.376V178H222.356ZM47.71 196V185.5H51.985C53.105 185.5 54.085 185.725 54.925 186.175C55.775 186.615 56.435 187.23 56.905 188.02C57.375 188.81 57.61 189.72 57.61 190.75C57.61 191.78 57.375 192.69 56.905 193.48C56.435 194.27 55.775 194.89 54.925 195.34C54.085 195.78 53.105 196 51.985 196H47.71ZM48.82 195.04H51.925C52.855 195.04 53.66 194.86 54.34 194.5C55.03 194.13 55.565 193.625 55.945 192.985C56.325 192.335 56.515 191.59 56.515 190.75C56.515 189.9 56.325 189.155 55.945 188.515C55.565 187.875 55.03 187.375 54.34 187.015C53.66 186.645 52.855 186.46 51.925 186.46H48.82V195.04ZM63.2226 196.075C62.4026 196.075 61.6826 195.905 61.0626 195.565C60.4426 195.215 59.9576 194.74 59.6076 194.14C59.2576 193.53 59.0826 192.835 59.0826 192.055C59.0826 191.275 59.2476 190.585 59.5776 189.985C59.9176 189.385 60.3776 188.915 60.9576 188.575C61.5476 188.225 62.2076 188.05 62.9376 188.05C63.6776 188.05 64.3326 188.22 64.9026 188.56C65.4826 188.89 65.9376 189.36 66.2676 189.97C66.5976 190.57 66.7626 191.265 66.7626 192.055C66.7626 192.105 66.7576 192.16 66.7476 192.22C66.7476 192.27 66.7476 192.325 66.7476 192.385H59.8926V191.59H66.1776L65.7576 191.905C65.7576 191.335 65.6326 190.83 65.3826 190.39C65.1426 189.94 64.8126 189.59 64.3926 189.34C63.9726 189.09 63.4876 188.965 62.9376 188.965C62.3976 188.965 61.9126 189.09 61.4826 189.34C61.0526 189.59 60.7176 189.94 60.4776 190.39C60.2376 190.84 60.1176 191.355 60.1176 191.935V192.1C60.1176 192.7 60.2476 193.23 60.5076 193.69C60.7776 194.14 61.1476 194.495 61.6176 194.755C62.0976 195.005 62.6426 195.13 63.2526 195.13C63.7326 195.13 64.1776 195.045 64.5876 194.875C65.0076 194.705 65.3676 194.445 65.6676 194.095L66.2676 194.785C65.9176 195.205 65.4776 195.525 64.9476 195.745C64.4276 195.965 63.8526 196.075 63.2226 196.075ZM72.2003 196.075C71.4203 196.075 70.7203 195.905 70.1003 195.565C69.4903 195.215 69.0103 194.74 68.6603 194.14C68.3103 193.53 68.1353 192.835 68.1353 192.055C68.1353 191.265 68.3103 190.57 68.6603 189.97C69.0103 189.37 69.4903 188.9 70.1003 188.56C70.7203 188.22 71.4203 188.05 72.2003 188.05C72.8703 188.05 73.4753 188.18 74.0153 188.44C74.5553 188.7 74.9803 189.09 75.2903 189.61L74.4953 190.15C74.2253 189.75 73.8903 189.455 73.4903 189.265C73.0903 189.075 72.6553 188.98 72.1853 188.98C71.6253 188.98 71.1203 189.11 70.6703 189.37C70.2203 189.62 69.8653 189.975 69.6053 190.435C69.3453 190.895 69.2153 191.435 69.2153 192.055C69.2153 192.675 69.3453 193.215 69.6053 193.675C69.8653 194.135 70.2203 194.495 70.6703 194.755C71.1203 195.005 71.6253 195.13 72.1853 195.13C72.6553 195.13 73.0903 195.035 73.4903 194.845C73.8903 194.655 74.2253 194.365 74.4953 193.975L75.2903 194.515C74.9803 195.025 74.5553 195.415 74.0153 195.685C73.4753 195.945 72.8703 196.075 72.2003 196.075ZM77.2653 196V188.125H78.3303V196H77.2653ZM77.8053 186.385C77.5853 186.385 77.4003 186.31 77.2503 186.16C77.1003 186.01 77.0253 185.83 77.0253 185.62C77.0253 185.41 77.1003 185.235 77.2503 185.095C77.4003 184.945 77.5853 184.87 77.8053 184.87C78.0253 184.87 78.2103 184.94 78.3603 185.08C78.5103 185.22 78.5853 185.395 78.5853 185.605C78.5853 185.825 78.5103 186.01 78.3603 186.16C78.2203 186.31 78.0353 186.385 77.8053 186.385ZM83.4086 196.075C82.7586 196.075 82.1436 195.985 81.5636 195.805C80.9836 195.615 80.5286 195.38 80.1986 195.1L80.6786 194.26C80.9986 194.5 81.4086 194.71 81.9086 194.89C82.4086 195.06 82.9336 195.145 83.4836 195.145C84.2336 195.145 84.7736 195.03 85.1036 194.8C85.4336 194.56 85.5986 194.245 85.5986 193.855C85.5986 193.565 85.5036 193.34 85.3136 193.18C85.1336 193.01 84.8936 192.885 84.5936 192.805C84.2936 192.715 83.9586 192.64 83.5886 192.58C83.2186 192.52 82.8486 192.45 82.4786 192.37C82.1186 192.29 81.7886 192.175 81.4886 192.025C81.1886 191.865 80.9436 191.65 80.7536 191.38C80.5736 191.11 80.4836 190.75 80.4836 190.3C80.4836 189.87 80.6036 189.485 80.8436 189.145C81.0836 188.805 81.4336 188.54 81.8936 188.35C82.3636 188.15 82.9336 188.05 83.6036 188.05C84.1136 188.05 84.6236 188.12 85.1336 188.26C85.6436 188.39 86.0636 188.565 86.3936 188.785L85.9286 189.64C85.5786 189.4 85.2036 189.23 84.8036 189.13C84.4036 189.02 84.0036 188.965 83.6036 188.965C82.8936 188.965 82.3686 189.09 82.0286 189.34C81.6986 189.58 81.5336 189.89 81.5336 190.27C81.5336 190.57 81.6236 190.805 81.8036 190.975C81.9936 191.145 82.2386 191.28 82.5386 191.38C82.8486 191.47 83.1836 191.545 83.5436 191.605C83.9136 191.665 84.2786 191.74 84.6386 191.83C85.0086 191.91 85.3436 192.025 85.6436 192.175C85.9536 192.315 86.1986 192.52 86.3786 192.79C86.5686 193.05 86.6636 193.395 86.6636 193.825C86.6636 194.285 86.5336 194.685 86.2736 195.025C86.0236 195.355 85.6536 195.615 85.1636 195.805C84.6836 195.985 84.0986 196.075 83.4086 196.075ZM88.6178 196V188.125H89.6828V196H88.6178ZM89.1578 186.385C88.9378 186.385 88.7528 186.31 88.6028 186.16C88.4528 186.01 88.3778 185.83 88.3778 185.62C88.3778 185.41 88.4528 185.235 88.6028 185.095C88.7528 184.945 88.9378 184.87 89.1578 184.87C89.3778 184.87 89.5628 184.94 89.7128 185.08C89.8628 185.22 89.9378 185.395 89.9378 185.605C89.9378 185.825 89.8628 186.01 89.7128 186.16C89.5728 186.31 89.3878 186.385 89.1578 186.385ZM95.8561 196.075C95.0961 196.075 94.4111 195.905 93.8011 195.565C93.2011 195.215 92.7261 194.74 92.3761 194.14C92.0261 193.53 91.8511 192.835 91.8511 192.055C91.8511 191.265 92.0261 190.57 92.3761 189.97C92.7261 189.37 93.2011 188.9 93.8011 188.56C94.4011 188.22 95.0861 188.05 95.8561 188.05C96.6361 188.05 97.3261 188.22 97.9261 188.56C98.5361 188.9 99.0111 189.37 99.3511 189.97C99.7011 190.57 99.8761 191.265 99.8761 192.055C99.8761 192.835 99.7011 193.53 99.3511 194.14C99.0111 194.74 98.5361 195.215 97.9261 195.565C97.3161 195.905 96.6261 196.075 95.8561 196.075ZM95.8561 195.13C96.4261 195.13 96.9311 195.005 97.3711 194.755C97.8111 194.495 98.1561 194.135 98.4061 193.675C98.6661 193.205 98.7961 192.665 98.7961 192.055C98.7961 191.435 98.6661 190.895 98.4061 190.435C98.1561 189.975 97.8111 189.62 97.3711 189.37C96.9311 189.11 96.4311 188.98 95.8711 188.98C95.3111 188.98 94.8111 189.11 94.3711 189.37C93.9311 189.62 93.5811 189.975 93.3211 190.435C93.0611 190.895 92.9311 191.435 92.9311 192.055C92.9311 192.665 93.0611 193.205 93.3211 193.675C93.5811 194.135 93.9311 194.495 94.3711 194.755C94.8111 195.005 95.3061 195.13 95.8561 195.13ZM106.07 188.05C106.71 188.05 107.27 188.175 107.75 188.425C108.24 188.665 108.62 189.035 108.89 189.535C109.17 190.035 109.31 190.665 109.31 191.425V196H108.245V191.53C108.245 190.7 108.035 190.075 107.615 189.655C107.205 189.225 106.625 189.01 105.875 189.01C105.315 189.01 104.825 189.125 104.405 189.355C103.995 189.575 103.675 189.9 103.445 190.33C103.225 190.75 103.115 191.26 103.115 191.86V196H102.05V188.125H103.07V190.285L102.905 189.88C103.155 189.31 103.555 188.865 104.105 188.545C104.655 188.215 105.31 188.05 106.07 188.05ZM111.602 192.4V191.47H115.532V192.4H111.602ZM118.14 196V185.5H119.055L123.855 193.69H123.375L128.13 185.5H129.045V196H127.98V187.165H128.235L123.855 194.665H123.33L118.92 187.165H119.205V196H118.14ZM137.176 196V194.26L137.131 193.975V191.065C137.131 190.395 136.941 189.88 136.561 189.52C136.191 189.16 135.636 188.98 134.896 188.98C134.386 188.98 133.901 189.065 133.441 189.235C132.981 189.405 132.591 189.63 132.271 189.91L131.791 189.115C132.191 188.775 132.671 188.515 133.231 188.335C133.791 188.145 134.381 188.05 135.001 188.05C136.021 188.05 136.806 188.305 137.356 188.815C137.916 189.315 138.196 190.08 138.196 191.11V196H137.176ZM134.461 196.075C133.871 196.075 133.356 195.98 132.916 195.79C132.486 195.59 132.156 195.32 131.926 194.98C131.696 194.63 131.581 194.23 131.581 193.78C131.581 193.37 131.676 193 131.866 192.67C132.066 192.33 132.386 192.06 132.826 191.86C133.276 191.65 133.876 191.545 134.626 191.545H137.341V192.34H134.656C133.896 192.34 133.366 192.475 133.066 192.745C132.776 193.015 132.631 193.35 132.631 193.75C132.631 194.2 132.806 194.56 133.156 194.83C133.506 195.1 133.996 195.235 134.626 195.235C135.226 195.235 135.741 195.1 136.171 194.83C136.611 194.55 136.931 194.15 137.131 193.63L137.371 194.365C137.171 194.885 136.821 195.3 136.321 195.61C135.831 195.92 135.211 196.075 134.461 196.075ZM141.929 193.96L141.959 192.595L146.864 188.125H148.169L144.704 191.44L144.104 191.95L141.929 193.96ZM141.089 196V184.87H142.154V196H141.089ZM147.194 196L143.909 191.905L144.599 191.08L148.499 196H147.194ZM150.097 196V188.125H151.162V196H150.097ZM150.637 186.385C150.417 186.385 150.232 186.31 150.082 186.16C149.932 186.01 149.857 185.83 149.857 185.62C149.857 185.41 149.932 185.235 150.082 185.095C150.232 184.945 150.417 184.87 150.637 184.87C150.857 184.87 151.042 184.94 151.192 185.08C151.342 185.22 151.417 185.395 151.417 185.605C151.417 185.825 151.342 186.01 151.192 186.16C151.052 186.31 150.867 186.385 150.637 186.385ZM158.146 188.05C158.786 188.05 159.346 188.175 159.826 188.425C160.316 188.665 160.696 189.035 160.966 189.535C161.246 190.035 161.386 190.665 161.386 191.425V196H160.321V191.53C160.321 190.7 160.111 190.075 159.691 189.655C159.281 189.225 158.701 189.01 157.951 189.01C157.391 189.01 156.901 189.125 156.481 189.355C156.071 189.575 155.751 189.9 155.521 190.33C155.301 190.75 155.191 191.26 155.191 191.86V196H154.126V188.125H155.146V190.285L154.981 189.88C155.231 189.31 155.631 188.865 156.181 188.545C156.731 188.215 157.386 188.05 158.146 188.05ZM167.622 198.985C166.902 198.985 166.212 198.88 165.552 198.67C164.892 198.46 164.357 198.16 163.947 197.77L164.487 196.96C164.857 197.29 165.312 197.55 165.852 197.74C166.402 197.94 166.982 198.04 167.592 198.04C168.592 198.04 169.327 197.805 169.797 197.335C170.267 196.875 170.502 196.155 170.502 195.175V193.21L170.652 191.86L170.547 190.51V188.125H171.567V195.04C171.567 196.4 171.232 197.395 170.562 198.025C169.902 198.665 168.922 198.985 167.622 198.985ZM167.427 195.7C166.677 195.7 166.002 195.54 165.402 195.22C164.802 194.89 164.327 194.435 163.977 193.855C163.637 193.275 163.467 192.61 163.467 191.86C163.467 191.11 163.637 190.45 163.977 189.88C164.327 189.3 164.802 188.85 165.402 188.53C166.002 188.21 166.677 188.05 167.427 188.05C168.127 188.05 168.757 188.195 169.317 188.485C169.877 188.775 170.322 189.205 170.652 189.775C170.982 190.345 171.147 191.04 171.147 191.86C171.147 192.68 170.982 193.375 170.652 193.945C170.322 194.515 169.877 194.95 169.317 195.25C168.757 195.55 168.127 195.7 167.427 195.7ZM167.532 194.755C168.112 194.755 168.627 194.635 169.077 194.395C169.527 194.145 169.882 193.805 170.142 193.375C170.402 192.935 170.532 192.43 170.532 191.86C170.532 191.29 170.402 190.79 170.142 190.36C169.882 189.93 169.527 189.595 169.077 189.355C168.627 189.105 168.112 188.98 167.532 188.98C166.962 188.98 166.447 189.105 165.987 189.355C165.537 189.595 165.182 189.93 164.922 190.36C164.672 190.79 164.547 191.29 164.547 191.86C164.547 192.43 164.672 192.935 164.922 193.375C165.182 193.805 165.537 194.145 165.987 194.395C166.447 194.635 166.962 194.755 167.532 194.755ZM183.392 196V194.26L183.347 193.975V191.065C183.347 190.395 183.157 189.88 182.777 189.52C182.407 189.16 181.852 188.98 181.112 188.98C180.602 188.98 180.117 189.065 179.657 189.235C179.197 189.405 178.807 189.63 178.487 189.91L178.007 189.115C178.407 188.775 178.887 188.515 179.447 188.335C180.007 188.145 180.597 188.05 181.217 188.05C182.237 188.05 183.022 188.305 183.572 188.815C184.132 189.315 184.412 190.08 184.412 191.11V196H183.392ZM180.677 196.075C180.087 196.075 179.572 195.98 179.132 195.79C178.702 195.59 178.372 195.32 178.142 194.98C177.912 194.63 177.797 194.23 177.797 193.78C177.797 193.37 177.892 193 178.082 192.67C178.282 192.33 178.602 192.06 179.042 191.86C179.492 191.65 180.092 191.545 180.842 191.545H183.557V192.34H180.872C180.112 192.34 179.582 192.475 179.282 192.745C178.992 193.015 178.847 193.35 178.847 193.75C178.847 194.2 179.022 194.56 179.372 194.83C179.722 195.1 180.212 195.235 180.842 195.235C181.442 195.235 181.957 195.1 182.387 194.83C182.827 194.55 183.147 194.15 183.347 193.63L183.587 194.365C183.387 194.885 183.037 195.3 182.537 195.61C182.047 195.92 181.427 196.075 180.677 196.075ZM191.324 188.05C191.964 188.05 192.524 188.175 193.004 188.425C193.494 188.665 193.874 189.035 194.144 189.535C194.424 190.035 194.564 190.665 194.564 191.425V196H193.499V191.53C193.499 190.7 193.289 190.075 192.869 189.655C192.459 189.225 191.879 189.01 191.129 189.01C190.569 189.01 190.079 189.125 189.659 189.355C189.249 189.575 188.929 189.9 188.699 190.33C188.479 190.75 188.369 191.26 188.369 191.86V196H187.304V188.125H188.324V190.285L188.159 189.88C188.409 189.31 188.809 188.865 189.359 188.545C189.909 188.215 190.564 188.05 191.324 188.05ZM200.576 196.075C199.826 196.075 199.151 195.905 198.551 195.565C197.961 195.225 197.496 194.755 197.156 194.155C196.816 193.545 196.646 192.845 196.646 192.055C196.646 191.255 196.816 190.555 197.156 189.955C197.496 189.355 197.961 188.89 198.551 188.56C199.151 188.22 199.826 188.05 200.576 188.05C201.266 188.05 201.881 188.205 202.421 188.515C202.971 188.825 203.406 189.28 203.726 189.88C204.056 190.47 204.221 191.195 204.221 192.055C204.221 192.905 204.061 193.63 203.741 194.23C203.421 194.83 202.986 195.29 202.436 195.61C201.896 195.92 201.276 196.075 200.576 196.075ZM200.651 195.13C201.211 195.13 201.711 195.005 202.151 194.755C202.601 194.495 202.951 194.135 203.201 193.675C203.461 193.205 203.591 192.665 203.591 192.055C203.591 191.435 203.461 190.895 203.201 190.435C202.951 189.975 202.601 189.62 202.151 189.37C201.711 189.11 201.211 188.98 200.651 188.98C200.101 188.98 199.606 189.11 199.166 189.37C198.726 189.62 198.376 189.975 198.116 190.435C197.856 190.895 197.726 191.435 197.726 192.055C197.726 192.665 197.856 193.205 198.116 193.675C198.376 194.135 198.726 194.495 199.166 194.755C199.606 195.005 200.101 195.13 200.651 195.13ZM203.621 196V193.63L203.726 192.04L203.576 190.45V184.87H204.641V196H203.621ZM50.605 214.09C49.825 214.09 49.075 213.965 48.355 213.715C47.645 213.455 47.095 213.125 46.705 212.725L47.14 211.87C47.51 212.23 48.005 212.535 48.625 212.785C49.255 213.025 49.915 213.145 50.605 213.145C51.265 213.145 51.8 213.065 52.21 212.905C52.63 212.735 52.935 212.51 53.125 212.23C53.325 211.95 53.425 211.64 53.425 211.3C53.425 210.89 53.305 210.56 53.065 210.31C52.835 210.06 52.53 209.865 52.15 209.725C51.77 209.575 51.35 209.445 50.89 209.335C50.43 209.225 49.97 209.11 49.51 208.99C49.05 208.86 48.625 208.69 48.235 208.48C47.855 208.27 47.545 207.995 47.305 207.655C47.075 207.305 46.96 206.85 46.96 206.29C46.96 205.77 47.095 205.295 47.365 204.865C47.645 204.425 48.07 204.075 48.64 203.815C49.21 203.545 49.94 203.41 50.83 203.41C51.42 203.41 52.005 203.495 52.585 203.665C53.165 203.825 53.665 204.05 54.085 204.34L53.71 205.225C53.26 204.925 52.78 204.705 52.27 204.565C51.77 204.425 51.285 204.355 50.815 204.355C50.185 204.355 49.665 204.44 49.255 204.61C48.845 204.78 48.54 205.01 48.34 205.3C48.15 205.58 48.055 205.9 48.055 206.26C48.055 206.67 48.17 207 48.4 207.25C48.64 207.5 48.95 207.695 49.33 207.835C49.72 207.975 50.145 208.1 50.605 208.21C51.065 208.32 51.52 208.44 51.97 208.57C52.43 208.7 52.85 208.87 53.23 209.08C53.62 209.28 53.93 209.55 54.16 209.89C54.4 210.23 54.52 210.675 54.52 211.225C54.52 211.735 54.38 212.21 54.1 212.65C53.82 213.08 53.39 213.43 52.81 213.7C52.24 213.96 51.505 214.09 50.605 214.09ZM59.2035 214.075C58.4635 214.075 57.8935 213.875 57.4935 213.475C57.0935 213.075 56.8935 212.51 56.8935 211.78V204.385H57.9585V211.72C57.9585 212.18 58.0735 212.535 58.3035 212.785C58.5435 213.035 58.8835 213.16 59.3235 213.16C59.7935 213.16 60.1835 213.025 60.4935 212.755L60.8685 213.52C60.6585 213.71 60.4035 213.85 60.1035 213.94C59.8135 214.03 59.5135 214.075 59.2035 214.075ZM55.4835 207.01V206.125H60.3585V207.01H55.4835ZM62.8073 214V206.125H63.8273V208.27L63.7223 207.895C63.9423 207.295 64.3123 206.84 64.8323 206.53C65.3523 206.21 65.9973 206.05 66.7673 206.05V207.085C66.7273 207.085 66.6873 207.085 66.6473 207.085C66.6073 207.075 66.5673 207.07 66.5273 207.07C65.6973 207.07 65.0473 207.325 64.5773 207.835C64.1073 208.335 63.8723 209.05 63.8723 209.98V214H62.8073ZM73.0596 214V212.26L73.0146 211.975V209.065C73.0146 208.395 72.8246 207.88 72.4446 207.52C72.0746 207.16 71.5196 206.98 70.7796 206.98C70.2696 206.98 69.7846 207.065 69.3246 207.235C68.8646 207.405 68.4746 207.63 68.1546 207.91L67.6746 207.115C68.0746 206.775 68.5546 206.515 69.1146 206.335C69.6746 206.145 70.2646 206.05 70.8846 206.05C71.9046 206.05 72.6896 206.305 73.2396 206.815C73.7996 207.315 74.0796 208.08 74.0796 209.11V214H73.0596ZM70.3446 214.075C69.7546 214.075 69.2396 213.98 68.7996 213.79C68.3696 213.59 68.0396 213.32 67.8096 212.98C67.5796 212.63 67.4646 212.23 67.4646 211.78C67.4646 211.37 67.5596 211 67.7496 210.67C67.9496 210.33 68.2696 210.06 68.7096 209.86C69.1596 209.65 69.7596 209.545 70.5096 209.545H73.2246V210.34H70.5396C69.7796 210.34 69.2496 210.475 68.9496 210.745C68.6596 211.015 68.5146 211.35 68.5146 211.75C68.5146 212.2 68.6896 212.56 69.0396 212.83C69.3896 213.1 69.8796 213.235 70.5096 213.235C71.1096 213.235 71.6246 213.1 72.0546 212.83C72.4946 212.55 72.8146 212.15 73.0146 211.63L73.2546 212.365C73.0546 212.885 72.7046 213.3 72.2046 213.61C71.7146 213.92 71.0946 214.075 70.3446 214.075ZM79.4623 214.075C78.7223 214.075 78.1523 213.875 77.7523 213.475C77.3523 213.075 77.1523 212.51 77.1523 211.78V204.385H78.2173V211.72C78.2173 212.18 78.3323 212.535 78.5623 212.785C78.8023 213.035 79.1423 213.16 79.5823 213.16C80.0523 213.16 80.4423 213.025 80.7523 212.755L81.1273 213.52C80.9173 213.71 80.6623 213.85 80.3623 213.94C80.0723 214.03 79.7723 214.075 79.4623 214.075ZM75.7423 207.01V206.125H80.6173V207.01H75.7423ZM86.1327 214.075C85.3127 214.075 84.5927 213.905 83.9727 213.565C83.3527 213.215 82.8677 212.74 82.5177 212.14C82.1677 211.53 81.9927 210.835 81.9927 210.055C81.9927 209.275 82.1577 208.585 82.4877 207.985C82.8277 207.385 83.2877 206.915 83.8677 206.575C84.4577 206.225 85.1177 206.05 85.8477 206.05C86.5877 206.05 87.2427 206.22 87.8127 206.56C88.3927 206.89 88.8477 207.36 89.1777 207.97C89.5077 208.57 89.6727 209.265 89.6727 210.055C89.6727 210.105 89.6677 210.16 89.6577 210.22C89.6577 210.27 89.6577 210.325 89.6577 210.385H82.8027V209.59H89.0877L88.6677 209.905C88.6677 209.335 88.5427 208.83 88.2927 208.39C88.0527 207.94 87.7227 207.59 87.3027 207.34C86.8827 207.09 86.3977 206.965 85.8477 206.965C85.3077 206.965 84.8227 207.09 84.3927 207.34C83.9627 207.59 83.6277 207.94 83.3877 208.39C83.1477 208.84 83.0277 209.355 83.0277 209.935V210.1C83.0277 210.7 83.1577 211.23 83.4177 211.69C83.6877 212.14 84.0577 212.495 84.5277 212.755C85.0077 213.005 85.5527 213.13 86.1627 213.13C86.6427 213.13 87.0877 213.045 87.4977 212.875C87.9177 212.705 88.2777 212.445 88.5777 212.095L89.1777 212.785C88.8277 213.205 88.3877 213.525 87.8577 213.745C87.3377 213.965 86.7627 214.075 86.1327 214.075ZM95.2005 216.985C94.4805 216.985 93.7905 216.88 93.1305 216.67C92.4705 216.46 91.9355 216.16 91.5255 215.77L92.0655 214.96C92.4355 215.29 92.8905 215.55 93.4305 215.74C93.9805 215.94 94.5605 216.04 95.1705 216.04C96.1705 216.04 96.9055 215.805 97.3755 215.335C97.8455 214.875 98.0805 214.155 98.0805 213.175V211.21L98.2305 209.86L98.1255 208.51V206.125H99.1455V213.04C99.1455 214.4 98.8105 215.395 98.1405 216.025C97.4805 216.665 96.5005 216.985 95.2005 216.985ZM95.0055 213.7C94.2555 213.7 93.5805 213.54 92.9805 213.22C92.3805 212.89 91.9055 212.435 91.5555 211.855C91.2155 211.275 91.0455 210.61 91.0455 209.86C91.0455 209.11 91.2155 208.45 91.5555 207.88C91.9055 207.3 92.3805 206.85 92.9805 206.53C93.5805 206.21 94.2555 206.05 95.0055 206.05C95.7055 206.05 96.3355 206.195 96.8955 206.485C97.4555 206.775 97.9005 207.205 98.2305 207.775C98.5605 208.345 98.7255 209.04 98.7255 209.86C98.7255 210.68 98.5605 211.375 98.2305 211.945C97.9005 212.515 97.4555 212.95 96.8955 213.25C96.3355 213.55 95.7055 213.7 95.0055 213.7ZM95.1105 212.755C95.6905 212.755 96.2055 212.635 96.6555 212.395C97.1055 212.145 97.4605 211.805 97.7205 211.375C97.9805 210.935 98.1105 210.43 98.1105 209.86C98.1105 209.29 97.9805 208.79 97.7205 208.36C97.4605 207.93 97.1055 207.595 96.6555 207.355C96.2055 207.105 95.6905 206.98 95.1105 206.98C94.5405 206.98 94.0255 207.105 93.5655 207.355C93.1155 207.595 92.7605 207.93 92.5005 208.36C92.2505 208.79 92.1255 209.29 92.1255 209.86C92.1255 210.43 92.2505 210.935 92.5005 211.375C92.7605 211.805 93.1155 212.145 93.5655 212.395C94.0255 212.635 94.5405 212.755 95.1105 212.755ZM102.109 214V206.125H103.174V214H102.109ZM102.649 204.385C102.429 204.385 102.244 204.31 102.094 204.16C101.944 204.01 101.869 203.83 101.869 203.62C101.869 203.41 101.944 203.235 102.094 203.095C102.244 202.945 102.429 202.87 102.649 202.87C102.869 202.87 103.054 202.94 103.204 203.08C103.354 203.22 103.429 203.395 103.429 203.605C103.429 203.825 103.354 204.01 103.204 204.16C103.064 204.31 102.879 204.385 102.649 204.385ZM109.407 214.075C108.627 214.075 107.927 213.905 107.307 213.565C106.697 213.215 106.217 212.74 105.867 212.14C105.517 211.53 105.342 210.835 105.342 210.055C105.342 209.265 105.517 208.57 105.867 207.97C106.217 207.37 106.697 206.9 107.307 206.56C107.927 206.22 108.627 206.05 109.407 206.05C110.077 206.05 110.682 206.18 111.222 206.44C111.762 206.7 112.187 207.09 112.497 207.61L111.702 208.15C111.432 207.75 111.097 207.455 110.697 207.265C110.297 207.075 109.862 206.98 109.392 206.98C108.832 206.98 108.327 207.11 107.877 207.37C107.427 207.62 107.072 207.975 106.812 208.435C106.552 208.895 106.422 209.435 106.422 210.055C106.422 210.675 106.552 211.215 106.812 211.675C107.072 212.135 107.427 212.495 107.877 212.755C108.327 213.005 108.832 213.13 109.392 213.13C109.862 213.13 110.297 213.035 110.697 212.845C111.097 212.655 111.432 212.365 111.702 211.975L112.497 212.515C112.187 213.025 111.762 213.415 111.222 213.685C110.682 213.945 110.077 214.075 109.407 214.075ZM118.74 214V203.5H122.67C123.56 203.5 124.325 203.645 124.965 203.935C125.605 204.215 126.095 204.625 126.435 205.165C126.785 205.695 126.96 206.34 126.96 207.1C126.96 207.84 126.785 208.48 126.435 209.02C126.095 209.55 125.605 209.96 124.965 210.25C124.325 210.54 123.56 210.685 122.67 210.685H119.355L119.85 210.16V214H118.74ZM119.85 210.25L119.355 209.71H122.64C123.69 209.71 124.485 209.485 125.025 209.035C125.575 208.575 125.85 207.93 125.85 207.1C125.85 206.26 125.575 205.61 125.025 205.15C124.485 204.69 123.69 204.46 122.64 204.46H119.355L119.85 203.935V210.25ZM129.282 214V202.87H130.347V214H129.282ZM138.245 214V212.26L138.2 211.975V209.065C138.2 208.395 138.01 207.88 137.63 207.52C137.26 207.16 136.705 206.98 135.965 206.98C135.455 206.98 134.97 207.065 134.51 207.235C134.05 207.405 133.66 207.63 133.34 207.91L132.86 207.115C133.26 206.775 133.74 206.515 134.3 206.335C134.86 206.145 135.45 206.05 136.07 206.05C137.09 206.05 137.875 206.305 138.425 206.815C138.985 207.315 139.265 208.08 139.265 209.11V214H138.245ZM135.53 214.075C134.94 214.075 134.425 213.98 133.985 213.79C133.555 213.59 133.225 213.32 132.995 212.98C132.765 212.63 132.65 212.23 132.65 211.78C132.65 211.37 132.745 211 132.935 210.67C133.135 210.33 133.455 210.06 133.895 209.86C134.345 209.65 134.945 209.545 135.695 209.545H138.41V210.34H135.725C134.965 210.34 134.435 210.475 134.135 210.745C133.845 211.015 133.7 211.35 133.7 211.75C133.7 212.2 133.875 212.56 134.225 212.83C134.575 213.1 135.065 213.235 135.695 213.235C136.295 213.235 136.81 213.1 137.24 212.83C137.68 212.55 138 212.15 138.2 211.63L138.44 212.365C138.24 212.885 137.89 213.3 137.39 213.61C136.9 213.92 136.28 214.075 135.53 214.075ZM146.178 206.05C146.818 206.05 147.378 206.175 147.858 206.425C148.348 206.665 148.728 207.035 148.998 207.535C149.278 208.035 149.418 208.665 149.418 209.425V214H148.353V209.53C148.353 208.7 148.143 208.075 147.723 207.655C147.313 207.225 146.733 207.01 145.983 207.01C145.423 207.01 144.933 207.125 144.513 207.355C144.103 207.575 143.783 207.9 143.553 208.33C143.333 208.75 143.223 209.26 143.223 209.86V214H142.158V206.125H143.178V208.285L143.013 207.88C143.263 207.31 143.663 206.865 144.213 206.545C144.763 206.215 145.418 206.05 146.178 206.05ZM156.315 206.05C156.955 206.05 157.515 206.175 157.995 206.425C158.485 206.665 158.865 207.035 159.135 207.535C159.415 208.035 159.555 208.665 159.555 209.425V214H158.49V209.53C158.49 208.7 158.28 208.075 157.86 207.655C157.45 207.225 156.87 207.01 156.12 207.01C155.56 207.01 155.07 207.125 154.65 207.355C154.24 207.575 153.92 207.9 153.69 208.33C153.47 208.75 153.36 209.26 153.36 209.86V214H152.295V206.125H153.315V208.285L153.15 207.88C153.4 207.31 153.8 206.865 154.35 206.545C154.9 206.215 155.555 206.05 156.315 206.05ZM162.431 214V206.125H163.496V214H162.431ZM162.971 204.385C162.751 204.385 162.566 204.31 162.416 204.16C162.266 204.01 162.191 203.83 162.191 203.62C162.191 203.41 162.266 203.235 162.416 203.095C162.566 202.945 162.751 202.87 162.971 202.87C163.191 202.87 163.376 202.94 163.526 203.08C163.676 203.22 163.751 203.395 163.751 203.605C163.751 203.825 163.676 204.01 163.526 204.16C163.386 204.31 163.201 204.385 162.971 204.385ZM170.48 206.05C171.12 206.05 171.68 206.175 172.16 206.425C172.65 206.665 173.03 207.035 173.3 207.535C173.58 208.035 173.72 208.665 173.72 209.425V214H172.655V209.53C172.655 208.7 172.445 208.075 172.025 207.655C171.615 207.225 171.035 207.01 170.285 207.01C169.725 207.01 169.235 207.125 168.815 207.355C168.405 207.575 168.085 207.9 167.855 208.33C167.635 208.75 167.525 209.26 167.525 209.86V214H166.46V206.125H167.48V208.285L167.315 207.88C167.565 207.31 167.965 206.865 168.515 206.545C169.065 206.215 169.72 206.05 170.48 206.05ZM179.956 216.985C179.236 216.985 178.546 216.88 177.886 216.67C177.226 216.46 176.691 216.16 176.281 215.77L176.821 214.96C177.191 215.29 177.646 215.55 178.186 215.74C178.736 215.94 179.316 216.04 179.926 216.04C180.926 216.04 181.661 215.805 182.131 215.335C182.601 214.875 182.836 214.155 182.836 213.175V211.21L182.986 209.86L182.881 208.51V206.125H183.901V213.04C183.901 214.4 183.566 215.395 182.896 216.025C182.236 216.665 181.256 216.985 179.956 216.985ZM179.761 213.7C179.011 213.7 178.336 213.54 177.736 213.22C177.136 212.89 176.661 212.435 176.311 211.855C175.971 211.275 175.801 210.61 175.801 209.86C175.801 209.11 175.971 208.45 176.311 207.88C176.661 207.3 177.136 206.85 177.736 206.53C178.336 206.21 179.011 206.05 179.761 206.05C180.461 206.05 181.091 206.195 181.651 206.485C182.211 206.775 182.656 207.205 182.986 207.775C183.316 208.345 183.481 209.04 183.481 209.86C183.481 210.68 183.316 211.375 182.986 211.945C182.656 212.515 182.211 212.95 181.651 213.25C181.091 213.55 180.461 213.7 179.761 213.7ZM179.866 212.755C180.446 212.755 180.961 212.635 181.411 212.395C181.861 212.145 182.216 211.805 182.476 211.375C182.736 210.935 182.866 210.43 182.866 209.86C182.866 209.29 182.736 208.79 182.476 208.36C182.216 207.93 181.861 207.595 181.411 207.355C180.961 207.105 180.446 206.98 179.866 206.98C179.296 206.98 178.781 207.105 178.321 207.355C177.871 207.595 177.516 207.93 177.256 208.36C177.006 208.79 176.881 209.29 176.881 209.86C176.881 210.43 177.006 210.935 177.256 211.375C177.516 211.805 177.871 212.145 178.321 212.395C178.781 212.635 179.296 212.755 179.866 212.755ZM186.97 214.075C186.75 214.075 186.56 213.995 186.4 213.835C186.25 213.675 186.175 213.48 186.175 213.25C186.175 213.01 186.25 212.815 186.4 212.665C186.56 212.515 186.75 212.44 186.97 212.44C187.19 212.44 187.375 212.515 187.525 212.665C187.685 212.815 187.765 213.01 187.765 213.25C187.765 213.48 187.685 213.675 187.525 213.835C187.375 213.995 187.19 214.075 186.97 214.075Z" fill="white"/>
<path d="M53 359C53 350.716 59.7157 344 68 344H115C123.284 344 130 350.716 130 359V417H68C59.7157 417 53 410.284 53 402V359Z" fill="#3B82F6"/>
<path d="M139 305C139 296.716 145.716 290 154 290H201C209.284 290 216 296.716 216 305V417H139V305Z" fill="#F87171"/>
<path d="M225 261C225 252.716 231.716 246 240 246H287C295.284 246 302 252.716 302 261V402C302 410.284 295.284 417 287 417H225V261Z" fill="#EF4444"/>
<defs>
<linearGradient id="paint0_linear_456_20" x1="36.652" y1="16.4024" x2="334.275" y2="147.77" gradientUnits="userSpaceOnUse">
<stop stop-color="#252525"/>
<stop offset="1" stop-color="#141414"/>
</linearGradient>
</defs>
</svg>
