<svg width="43" height="52" viewBox="0 0 43 52" fill="none" xmlns="http://www.w3.org/2000/svg">
<path d="M21.2727 4.96326C27.5364 6.73585 34.3909 8.86296 37.8182 10.0447V28.5978C37.8182 32.6157 33.4455 39.7061 21.2727 46.7964C9.1 39.5879 4.72727 32.6157 4.72727 28.5978V10.0447C8.15455 8.74479 15.0091 6.73585 21.2727 4.96326ZM21.2727 0C21.2727 0 0 6.02681 0 7.09037V28.5978C0 39.4697 15.7182 49.0417 20.0909 51.6415C20.4407 51.8753 20.852 52 21.2727 52C21.6934 52 22.1047 51.8753 22.4545 51.6415C26.9455 49.1599 42.5455 39.4697 42.5455 28.5978V7.09037C42.5455 6.02681 21.2727 0 21.2727 0Z" fill="#0A0E1E"/>
<path d="M16.0727 32.3794L10.1636 26.5889C9.75416 26.1704 9.50585 25.6206 9.46259 25.0367C9.41934 24.4528 9.58393 23.8725 9.92727 23.3982C10.1186 23.1134 10.3726 22.8762 10.6698 22.7049C10.9671 22.5335 11.2996 22.4326 11.642 22.4097C11.9843 22.3869 12.3273 22.4428 12.6447 22.5732C12.9621 22.7036 13.2453 22.905 13.4727 23.1619L17.7273 27.4161L29.0727 16.0715C29.5279 15.7302 30.0909 15.5644 30.6585 15.6048C31.226 15.6451 31.7599 15.8888 32.1623 16.2911C32.5646 16.6933 32.8083 17.2272 32.8486 17.7947C32.8889 18.3622 32.7232 18.9252 32.3818 19.3803L19.3818 32.3794C19.1715 32.6086 18.9158 32.7916 18.631 32.9168C18.3461 33.042 18.0384 33.1067 17.7273 33.1067C17.4161 33.1067 17.1084 33.042 16.8236 32.9168C16.5388 32.7916 16.2831 32.6086 16.0727 32.3794Z" fill="#0A0E1E"/>
</svg>
