<svg width="2878" height="178" viewBox="0 0 2878 178" fill="none" xmlns="http://www.w3.org/2000/svg">
<path d="M2837.46 176.536C2839.42 178.488 2842.58 178.488 2844.54 176.536L2876.36 144.716C2878.31 142.763 2878.31 139.597 2876.36 137.645C2874.4 135.692 2871.24 135.692 2869.28 137.645L2841 165.929L2812.72 137.645C2810.76 135.692 2807.6 135.692 2805.64 137.645C2803.69 139.597 2803.69 142.763 2805.64 144.716L2837.46 176.536ZM0 5V10H2822V5V0H0V5ZM2841 24H2836V173H2841H2846V24H2841ZM2822 5V10C2829.73 10 2836 16.268 2836 24H2841H2846C2846 10.7452 2835.25 0 2822 0V5Z" fill="url(#paint0_linear_97_238)"/>
<path d="M125 37C126.105 37 127 36.1046 127 35C127 33.8954 126.105 33 125 33V35V37ZM0 35V37H125V35V33H0V35Z" fill="url(#paint1_linear_97_238)"/>
<defs>
<linearGradient id="paint0_linear_97_238" x1="0" y1="5.5" x2="3050.83" y2="5.5" gradientUnits="userSpaceOnUse">
<stop stop-color="white"/>
<stop offset="1" stop-color="#FF8181"/>
</linearGradient>
<linearGradient id="paint1_linear_97_238" x1="0" y1="-2.5" x2="3050.83" y2="-2.5" gradientUnits="userSpaceOnUse">
<stop stop-color="white"/>
<stop offset="1" stop-color="#FF8181"/>
</linearGradient>
</defs>
</svg>
