<svg width="126" height="126" viewBox="0 0 126 126" fill="none" xmlns="http://www.w3.org/2000/svg">
<path d="M63.9889 27.2947L57.342 20.6479C55.869 19.1749 53.8692 18.3467 51.7829 18.3467H13.105C10.2088 18.3467 7.86304 20.6925 7.86304 23.5887V102.218C7.86304 105.114 10.2088 107.46 13.105 107.46H112.703C115.599 107.46 117.945 105.114 117.945 102.218V34.0726C117.945 31.1764 115.599 28.8306 112.703 28.8306H67.6949C66.3058 28.8306 64.9717 28.2776 63.9889 27.2947Z" fill="url(#paint0_linear_747_19)"/>
<path d="M15.2292 36.7827V71.6567C15.2292 73.0423 15.8042 74.3657 16.8169 75.3113L25.0229 82.9735C26.2178 84.0893 27.8828 84.5503 29.4815 84.2082L90.1158 71.2325C91.2721 70.985 92.3033 70.3357 93.0262 69.4L109.535 48.0313C110.211 47.1559 110.578 46.0808 110.578 44.9745V36.7827C110.578 34.0213 108.339 31.7827 105.578 31.7827H20.2292C17.4678 31.7827 15.2292 34.0213 15.2292 36.7827Z" fill="white"/>
<path d="M56.5767 37.7791L65.1421 29.2137C65.3858 28.97 65.7187 28.8311 66.0673 28.8311H112.703C115.599 28.8311 117.945 31.1768 117.945 34.073V102.219C117.945 105.115 115.599 107.461 112.703 107.461H13.105C10.2088 107.461 7.86304 105.115 7.86304 102.219V40.6255C7.86304 39.9021 8.45014 39.315 9.17353 39.315H52.8706C54.2598 39.315 55.5938 38.762 56.5767 37.7791Z" fill="url(#paint1_linear_747_19)"/>
<defs>
<linearGradient id="paint0_linear_747_19" x1="62.9038" y1="17.5814" x2="62.9038" y2="39.2543" gradientUnits="userSpaceOnUse">
<stop stop-color="#EB0000"/>
<stop offset="1" stop-color="#C20000"/>
</linearGradient>
<linearGradient id="paint1_linear_747_19" x1="62.9038" y1="28.4484" x2="62.9038" y2="107.416" gradientUnits="userSpaceOnUse">
<stop stop-color="#FF6969"/>
<stop offset="1" stop-color="#FE2B2B"/>
</linearGradient>
</defs>
</svg>
