<svg width="127" height="127" viewBox="0 0 127 127" fill="none" xmlns="http://www.w3.org/2000/svg">
<path d="M64.5694 27.5424L57.8623 20.8353C56.3759 19.3489 54.358 18.5132 52.2527 18.5132H13.2239C10.3014 18.5132 7.93433 20.8803 7.93433 23.8027V103.146C7.93433 106.068 10.3014 108.435 13.2239 108.435H113.725C116.648 108.435 119.015 106.068 119.015 103.146V34.3818C119.015 31.4593 116.648 29.0923 113.725 29.0923H68.3091C66.9074 29.0923 65.5612 28.5342 64.5694 27.5424Z" fill="url(#paint0_linear_747_134)"/>
<path d="M19.2891 50.8213V66.7076C19.2891 68.3366 20.0827 69.8635 21.4159 70.7996L28.5376 75.8C29.3792 76.3909 30.3825 76.7079 31.4108 76.7079H93.6572C94.7391 76.7079 95.7917 76.357 96.6572 75.7079L103.193 70.8063C104.452 69.862 105.193 68.3801 105.193 66.8063V50.8213C105.193 45.2984 100.716 40.8213 95.1927 40.8213H29.2891C23.7662 40.8213 19.2891 45.2984 19.2891 50.8213Z" fill="white"/>
<path d="M63.4746 60.8296L73.6675 50.6366C73.9135 50.3907 74.2494 50.2505 74.6011 50.2505H118.512C121.622 50.2505 124.061 52.9217 123.781 56.0187L119.454 103.625C119.205 106.349 116.92 108.435 114.185 108.435H12.6685C9.9735 108.435 7.70958 106.41 7.41072 103.73L2.80882 62.2974C2.72154 61.5146 3.33513 60.8296 4.12327 60.8296H63.4746Z" fill="url(#paint1_linear_747_134)"/>
<path d="M64.3699 80.2407L56.0032 89.1127C55.8444 89.281 55.576 89.273 55.4274 89.0954L53.347 86.6091C53.2881 86.5386 53.2557 86.4494 53.2557 86.3572V77.3904C53.2557 77.1748 53.4289 77 53.6426 77H62.0325C62.1496 77 62.2605 77.0536 62.3339 77.1457L64.3911 79.7269C64.5126 79.8793 64.5035 80.099 64.3699 80.2407Z" fill="white"/>
<path d="M71.5827 80.7187L66.7672 80.7721C66.6617 80.7733 66.5613 80.8179 66.4891 80.8956L53.0799 95.3427C52.8484 95.5921 53.0236 96 53.3622 96H58.1119C58.2219 96 58.3267 95.9527 58.4001 95.87L61.8496 91.9827C62.0087 91.8033 62.2892 91.8107 62.439 91.9981L65.5188 95.8546C65.5922 95.9465 65.703 96 65.82 96H71.5217C71.8589 96 72.0347 95.595 71.806 95.3449L65.746 88.7146C65.6101 88.566 65.6092 88.3373 65.7439 88.1875L71.8734 81.3715C72.1004 81.1191 71.9204 80.715 71.5827 80.7187Z" fill="white"/>
<defs>
<linearGradient id="paint0_linear_747_134" x1="63.4745" y1="18.3942" x2="63.4745" y2="61.2712" gradientUnits="userSpaceOnUse">
<stop stop-color="#EB0000"/>
<stop offset="1" stop-color="#C20000"/>
</linearGradient>
<linearGradient id="paint1_linear_747_134" x1="63.3" y1="50.8535" x2="63.3" y2="89.4486" gradientUnits="userSpaceOnUse">
<stop stop-color="#FF6969"/>
<stop offset="1" stop-color="#FE2B2B"/>
</linearGradient>
</defs>
</svg>
