<svg width="152" height="123" viewBox="0 0 152 123" fill="none" xmlns="http://www.w3.org/2000/svg">
<path d="M77.1796 12.3046L68.0395 3.16446C66.0139 1.13892 63.2639 0 60.395 0H7.20833C3.22573 0 0 3.22573 0 7.20833V115.333C0 119.316 3.22573 122.542 7.20833 122.542H144.167C148.149 122.542 151.375 119.316 151.375 115.333V21.625C151.375 17.6424 148.149 14.4167 144.167 14.4167H82.2759C80.3657 14.4167 78.5312 13.6562 77.1796 12.3046Z" fill="url(#paint0_linear_361_11)"/>
<path d="M10.1296 23.4761V74.1224C10.1296 75.5079 10.7045 76.8313 11.7172 77.7769L24.3124 89.5374C25.5073 90.6532 27.1723 91.1143 28.771 90.7722L113.779 72.5804C114.935 72.3329 115.967 71.6837 116.69 70.7479L140.202 40.3133C140.878 39.4379 141.245 38.3628 141.245 37.2565V23.4761C141.245 20.7147 139.007 18.4761 136.245 18.4761H15.1296C12.3682 18.4761 10.1296 20.7147 10.1296 23.4761Z" fill="white"/>
<path d="M66.987 26.7213L78.7655 14.9429C79.1006 14.6077 79.5584 14.4167 80.0377 14.4167L144.167 14.4167C148.149 14.4167 151.375 17.6424 151.375 21.625V115.333C151.375 119.316 148.149 122.542 144.167 122.542H7.20833C3.22573 122.542 0 119.316 0 115.333V30.6354C0 29.6407 0.807333 28.8333 1.80208 28.8333H61.8908C63.801 28.8333 65.6355 28.0728 66.987 26.7213Z" fill="url(#paint1_linear_361_11)"/>
<defs>
<linearGradient id="paint0_linear_361_11" x1="75.6875" y1="-1.05242" x2="75.6875" y2="28.7504" gradientUnits="userSpaceOnUse">
<stop stop-color="#EB0000"/>
<stop offset="1" stop-color="#C20000"/>
</linearGradient>
<linearGradient id="paint1_linear_361_11" x1="75.6875" y1="13.8904" x2="75.6875" y2="122.48" gradientUnits="userSpaceOnUse">
<stop stop-color="#FF6969"/>
<stop offset="1" stop-color="#FE2B2B"/>
</linearGradient>
</defs>
</svg>
