<svg width="66" height="69" viewBox="0 0 66 69" fill="none" xmlns="http://www.w3.org/2000/svg">
<path d="M66 43.8602C66 47.5528 63.152 50.5461 59.6386 50.5461C56.1252 50.5461 53.2772 47.5528 53.2772 43.8602C53.2772 41.5499 55.7677 38.4661 57.6319 36.4815C58.7356 35.3062 60.5416 35.3062 61.6453 36.4815C63.5095 38.4661 66 41.5499 66 43.8602Z" fill="#FE2B2B"/>
<path fill-rule="evenodd" clip-rule="evenodd" d="M22.3202 1.1824C22.9907 0.038107 24.4536 -0.341117 25.5877 0.33536L28.2285 1.9106L54.9714 17.3925L54.9729 17.3933L54.9743 17.3942L57.648 18.947C58.7898 19.6102 59.1826 21.0818 58.5253 22.2339C57.8681 23.3859 56.4096 23.7823 55.2678 23.1192L54.6558 22.7637L33.254 60.0371C28.3309 68.611 17.4347 71.5425 8.91625 66.5972C0.393112 61.6492 -2.53364 50.6833 2.39232 42.1045L23.7829 4.85094L23.1597 4.47927C22.0256 3.80278 21.6497 2.32671 22.3202 1.1824ZM11.2956 62.4246C5.05437 58.8013 2.92231 50.7844 6.52057 44.5177L27.9057 7.27378L50.5191 20.3651L45.7322 28.7019L39.6576 25.1753C38.5157 24.5124 37.0572 24.909 36.4002 26.0612C35.7431 27.2134 36.1363 28.6849 37.2783 29.3478L43.3405 32.8671L40.2823 38.1933L28.9758 31.6294C27.8338 30.9665 26.3755 31.3631 25.7184 32.5153C25.0614 33.6675 25.4545 35.139 26.5964 35.8019L37.8907 42.3586L35.074 47.2643L28.8253 43.6369C27.6833 42.9739 26.225 43.3706 25.5679 44.5228C24.9109 45.6751 25.3041 47.1466 26.446 47.8095L32.6823 51.4296L29.1257 57.6239C25.5246 63.8955 17.5416 66.0507 11.2956 62.4246Z" fill="#FE2B2B"/>
</svg>
