<svg width="54" height="47" viewBox="0 0 54 47" fill="none" xmlns="http://www.w3.org/2000/svg">
<path d="M27 0C32.3402 4.88995e-06 37.5603 1.58448 42.0005 4.55312C46.4407 7.5218 49.901 11.7413 51.9446 16.6779L52.0392 16.9096C53.9732 21.7067 54.4905 26.9591 53.5289 32.0417L53.4812 32.2875C52.4393 37.5284 49.868 42.3421 46.0921 46.1207C44.9206 47.293 43.0211 47.2931 41.8495 46.1209C40.6778 44.9487 40.6778 43.048 41.8493 41.8756C44.7862 38.9366 46.7862 35.1925 47.5965 31.1162L47.6336 30.925C48.3815 26.9721 47.9792 22.8869 46.475 19.1558L46.4013 18.9755C44.8119 15.1358 42.1204 11.854 38.667 9.54508C35.2136 7.23614 31.1536 6.00369 27 6.00369C22.8465 6.00369 18.7865 7.23614 15.3331 9.54508H15.333C11.9335 11.8179 9.27226 15.0335 7.67385 18.7959L7.59852 18.9755C6.00911 22.815 5.5932 27.0402 6.40348 31.1162L6.40356 31.1163C7.21384 35.1925 9.21384 38.9365 12.1508 41.8755C13.3223 43.0479 13.3223 44.9486 12.1507 46.1208C10.9791 47.2931 9.07961 47.2931 7.90808 46.1207C4.13218 42.3422 1.56066 37.5285 0.518854 32.2875L0.471129 32.0417C-0.50591 26.8773 0.0436217 21.5374 2.05527 16.6779L2.15204 16.447C4.20715 11.6097 7.62887 7.47538 11.9996 4.55312C16.4397 1.58448 21.6598 0 27 0ZM37.6583 18.3281C39.1403 17.5867 40.9423 18.1877 41.6833 19.6706C42.4242 21.1535 41.8236 22.9566 40.3416 23.6981L28.3417 29.7018C26.8597 30.4432 25.0577 29.8422 24.3167 28.3594C23.5757 26.8765 24.1764 25.0733 25.6584 24.3319L37.6583 18.3281Z" fill="#FE2B2B"/>
</svg>
