<svg width="55" height="62" viewBox="0 0 55 62" fill="none" xmlns="http://www.w3.org/2000/svg">
<path d="M50.2089 16.9365C50.2089 15.6887 49.7132 14.2423 48.8062 12.947C47.899 11.6513 46.7069 10.6874 45.5305 10.2528C45.53 10.2526 45.5295 10.2524 45.529 10.2522L30.9745 4.86345C30.0438 4.5293 28.7042 4.32608 27.2719 4.32607C25.8338 4.32607 24.5142 4.53095 23.6227 4.85991L23.6226 4.85982L9.05859 10.2522C9.0581 10.2524 9.05763 10.2526 9.05714 10.2528C7.88078 10.6874 6.6887 11.6513 5.7815 12.947C4.87449 14.2423 4.3787 15.6887 4.37869 16.9365V38.3649C4.3787 39.6369 4.81977 41.2698 5.6303 42.8618C6.44045 44.453 7.508 45.7839 8.55017 46.5534L21.1014 55.8108L21.1073 55.8151C22.7189 57.0122 24.955 57.6739 27.2938 57.6739C29.6325 57.6739 31.8686 57.0122 33.4803 55.8151C33.4823 55.8137 33.4843 55.8123 33.4862 55.8108L46.0375 46.5534C47.0796 45.7839 48.1471 44.453 48.9573 42.8618C49.7678 41.2698 50.2089 39.637 50.2089 38.3649V16.9365ZM54.5876 38.3649C54.5876 40.4961 53.8903 42.8 52.869 44.8058C51.8474 46.8124 50.3898 48.7405 48.6588 50.0186L48.6579 50.0193L36.1056 59.2774L36.1056 59.2774C33.6021 61.1344 30.3967 62 27.2938 62C24.1908 62 20.9853 61.1344 18.4819 59.2774L5.92979 50.0193L5.92885 50.0186C4.19785 48.7405 2.74027 46.8124 1.71864 44.8058C0.697397 42.8 7.52553e-06 40.4961 0 38.3649V16.9365C6.60643e-06 14.637 0.87624 12.3485 2.18045 10.4858C3.46411 8.65255 5.28495 7.05682 7.42154 6.23901L7.52357 6.20065L22.0884 0.808097L22.0907 0.807252C23.6221 0.242157 25.499 0 27.2719 0C28.992 2.76175e-06 30.8131 0.227968 32.3347 0.75005L32.481 0.801507L32.4991 0.808097L47.064 6.20065C49.2446 7.00622 51.1031 8.62345 52.4071 10.4858C53.7113 12.3485 54.5876 14.637 54.5876 16.9365V38.3649Z" fill="#FE2B2B"/>
<path d="M27.0897 15.581C31.1304 15.581 34.4167 18.8278 34.4167 22.82C34.4167 22.8275 34.4167 22.835 34.4166 22.8425C34.3754 26.7488 31.2726 29.9336 27.3347 30.0578C27.3114 30.0585 27.2882 30.0589 27.2649 30.0589H26.8853C26.8621 30.0589 26.8388 30.0585 26.8156 30.0578C22.8735 29.9335 19.7627 26.7109 19.7627 22.82C19.7627 18.8278 23.049 15.581 27.0897 15.581ZM24.1414 22.82C24.1414 24.4001 25.3958 25.6713 26.9305 25.7328H27.2198C28.7546 25.6715 30.0142 24.4263 30.0378 22.8103C30.0325 21.2118 28.7089 19.9071 27.0897 19.907C25.4673 19.907 24.1414 21.217 24.1414 22.82Z" fill="#FE2B2B"/>
<path d="M27.2719 32.2291C29.701 32.2291 32.2441 32.8302 34.2588 34.1715L34.2589 34.1714C36.1175 35.3956 37.3355 37.2261 37.3355 39.331C37.3355 41.4345 36.1191 43.2639 34.2627 44.4881L34.2627 44.4882C32.2358 45.8294 29.6846 46.4331 27.25 46.4331C24.8169 46.4331 22.2674 45.8301 20.241 44.4906C18.3825 43.2664 17.1645 41.4359 17.1645 39.331C17.1645 37.2262 18.3825 35.3956 20.241 34.1714C20.2423 34.1706 20.2436 34.1697 20.2449 34.1689C22.2823 32.833 24.8364 32.2291 27.2719 32.2291ZM27.2719 36.5552C25.505 36.5552 23.8419 37.0033 22.6684 37.7719C21.7261 38.3931 21.5432 38.9991 21.5432 39.331C21.5432 39.6528 21.715 40.232 22.5837 40.833L22.6738 40.8937C23.8286 41.6579 25.4811 42.107 27.25 42.107C29.0189 42.107 30.6713 41.6579 31.8262 40.8937L31.83 40.8912C32.7737 40.2696 32.9568 39.6631 32.9568 39.331C32.9568 38.9989 32.7737 38.3924 31.83 37.7709C31.8261 37.7683 31.8222 37.7657 31.8184 37.7632C30.6823 37.0045 29.0417 36.5552 27.2719 36.5552Z" fill="#FE2B2B"/>
</svg>
