<svg width="64" height="54" viewBox="0 0 64 54" fill="none" xmlns="http://www.w3.org/2000/svg">
<path d="M29.1107 28.2931C29.4622 26.9701 30.8105 26.1849 32.1222 26.5394C33.434 26.8939 34.2124 28.2538 33.861 29.5768L27.8611 52.1612C27.5096 53.4842 26.1614 54.2694 24.8496 53.9149C23.5378 53.5604 22.7594 52.2004 23.1109 50.8774L29.1107 28.2931ZM0 26.7181C0 24.419 1.02783 22.5564 2.47374 20.8228C3.8743 19.1436 5.92577 17.289 8.40009 15.0429L13.9621 9.99413C14.9715 9.07784 16.5263 9.16039 17.4348 10.1785C18.3433 11.1966 18.2614 12.7647 17.252 13.681L11.69 18.7298C9.1069 21.0746 7.36533 22.6632 6.23718 24.0158C5.15441 25.314 4.9179 26.0719 4.9179 26.7181C4.9179 27.3643 5.15443 28.1222 6.23718 29.4204C7.36531 30.773 9.10684 32.3616 11.6899 34.7063L17.252 39.7551C18.2615 40.6714 18.3433 42.2396 17.4348 43.2577C16.5263 44.2758 14.9716 44.3583 13.9622 43.442L8.40009 38.3932C5.92578 36.1472 3.87429 34.2927 2.47374 32.6135C1.02782 30.8799 9.02288e-06 29.0173 0 26.7181ZM59.0821 26.7181C59.0821 26.072 58.8456 25.314 57.7628 24.0158C56.7757 22.8323 55.3189 21.4681 53.2397 19.5747L46.748 13.681C45.7385 12.7647 45.6567 11.1966 46.5652 10.1785C47.4737 9.16038 49.0284 9.07785 50.0379 9.99413L55.6 15.0429L55.6001 15.043C58.0743 17.289 60.1257 19.1436 61.5263 20.8228C62.9722 22.5564 64 24.419 64 26.7181C64 29.0173 62.9722 30.8799 61.5263 32.6135C60.1257 34.2927 58.0743 36.1472 55.6001 38.3932L55.6 38.3933L50.0379 43.442C49.0284 44.3583 47.4737 44.2758 46.5652 43.2577C45.6567 42.2396 45.7386 40.6714 46.748 39.7551L52.3102 34.7063C54.8932 32.3616 56.6347 30.773 57.7628 29.4204C58.8456 28.1222 59.0821 27.3643 59.0821 26.7181ZM36.1387 1.83881C36.4902 0.51578 37.8385 -0.269385 39.1503 0.0851207C40.4621 0.439635 41.2405 1.79961 40.889 3.12264L37.6321 15.3823C37.2806 16.7053 35.9322 17.4905 34.6205 17.136C33.3087 16.7815 32.5302 15.4215 32.8817 14.0985L36.1387 1.83881Z" fill="#FE2B2B"/>
</svg>
