<svg width="39" height="39" viewBox="0 0 39 39" fill="none" xmlns="http://www.w3.org/2000/svg">
<path d="M23.3903 6.65197L6.2166 24.8629C5.89072 25.2084 5.33969 25.1919 5.03472 24.8274L0.764391 19.7239C0.643394 19.5793 0.577016 19.3962 0.577016 19.2069V0.80137C0.577016 0.358785 0.93253 0 1.37108 0H18.5924C18.8329 0 19.0605 0.109989 19.2112 0.299104L23.4339 5.59723C23.6833 5.91016 23.6647 6.36107 23.3903 6.65197Z" fill="#F51919"/>
<path d="M38.1956 7.6332L28.3112 7.74282C28.0946 7.74522 27.8884 7.83678 27.7404 7.99629L0.216109 37.6508C-0.259011 38.1627 0.100642 39 0.795636 39H10.545C10.7708 39 10.9859 38.903 11.1365 38.7332L18.217 30.7539C18.5437 30.3857 19.1195 30.4008 19.4268 30.7856L25.7486 38.7015C25.8993 38.8903 26.1266 39 26.3669 39H38.0703C38.7624 39 39.1232 38.1687 38.654 37.6553L26.2149 24.0458C25.936 23.7407 25.9342 23.2712 26.2106 22.9639L38.7923 8.97308C39.2582 8.45505 38.8887 7.62551 38.1956 7.6332Z" fill="#F51919"/>
</svg>
