<svg width="166" height="124" viewBox="0 0 166 124" fill="none" xmlns="http://www.w3.org/2000/svg">
<path d="M84.6624 12.3757L75.4694 3.18275C73.4321 1.1455 70.6662 0 67.7807 0H14.2866C10.281 0 7.0366 3.24437 7.0366 7.25V116C7.0366 120.006 10.281 123.25 14.2866 123.25H152.037C156.042 123.25 159.287 120.006 159.287 116V21.75C159.287 17.7444 156.042 14.5 152.037 14.5H89.7881C87.8669 14.5 86.0217 13.7351 84.6624 12.3757Z" fill="url(#paint0_linear_361_10)"/>
<path d="M22.5998 40.5755V67.0192C22.5998 68.6482 23.3934 70.1752 24.7266 71.1113L35.7554 78.8549C36.597 79.4458 37.6003 79.7628 38.6286 79.7628H125.149C126.23 79.7628 127.283 79.4119 128.149 78.7628L138.342 71.1179C139.601 70.1737 140.342 68.6917 140.342 67.1179V40.5755C140.342 35.0527 135.865 30.5755 130.342 30.5755H32.5998C27.0769 30.5755 22.5998 35.0527 22.5998 40.5755Z" fill="white"/>
<path d="M83.1616 58L97.1324 44.0293C97.4695 43.6921 97.9299 43.5 98.412 43.5H158.598C162.861 43.5 166.203 47.1612 165.819 51.4061L159.888 116.656C159.548 120.39 156.416 123.25 152.667 123.25H13.5254C9.83148 123.25 6.72848 120.473 6.31885 116.801L0.0113531 60.0119C-0.108272 58.9389 0.732728 58 1.81298 58H83.1616Z" fill="url(#paint1_linear_361_10)"/>
<defs>
<linearGradient id="paint0_linear_361_10" x1="82.9245" y1="-0.163125" x2="82.9245" y2="58.6054" gradientUnits="userSpaceOnUse">
<stop stop-color="#EB0000"/>
<stop offset="1" stop-color="#C20000"/>
</linearGradient>
<linearGradient id="paint1_linear_361_10" x1="82.9224" y1="44.3265" x2="82.9224" y2="97.2261" gradientUnits="userSpaceOnUse">
<stop stop-color="#FF6969"/>
<stop offset="1" stop-color="#FE2B2B"/>
</linearGradient>
</defs>
</svg>
